<?xml version="1.0" encoding="utf-8"?>
<!-- Generator: Adobe Illustrator 19.1.0, SVG Export Plug-In . SVG Version: 6.00 Build 0)  -->
<svg version="1.1" id="Layer_1" xmlns="http://www.w3.org/2000/svg" xmlns:xlink="http://www.w3.org/1999/xlink" x="0px" y="0px"
	 viewBox="0 0 1000 612" style="enable-background:new 0 0 1000 612;" xml:space="preserve">
<style type="text/css">
	.st0{fill:#E04750;}
	.st1{fill:#FFFFFF;}
</style>
<rect class="st0" width="1000" height="612"/>
<g>
	<g>
		<path class="st1" d="M21.5-34l-8-13.8c-0.7-1.2-2.2-1.5-3.3-0.9C9-48,8.6-46.5,9.3-45.4l8,13.8c1.1,1.9,0.4,6.1-3.5,6.1l-13.9,0
			l4.9-6.4c0.8-1.1,0.6-2.6-0.5-3.4c-1.1-0.8-2.6-0.6-3.4,0.5l-7.8,10.3c-0.6,0.8-0.7,2,0,2.9L1-11.3c0.8,1.1,2.3,1.3,3.4,0.4
			c1.1-0.8,1.3-2.3,0.4-3.4l-4.9-6.4l13.9,0C20.4-20.6,24.9-28.2,21.5-34 M-13.2-25.6l-16,0.1c-2.2,0-5.5-2.7-3.5-6.1l6.9-12.1
			l3.1,7.4c0.5,1.2,1.9,1.8,3.2,1.3c1.2-0.5,1.8-1.9,1.3-3.2l-5-11.9c-0.4-0.9-1.3-1.6-2.5-1.5l-12.8,1.7c-1.3,0.2-2.3,1.4-2.1,2.7
			c0.2,1.3,1.4,2.3,2.7,2.1l8-1.1l-6.9,12.1c-3.3,5.7,1,13.4,7.8,13.3l16-0.1c1.3,0,2.4-1.1,2.4-2.4C-10.8-24.5-11.9-25.6-13.2-25.6
			 M-7.4-55.9c-0.2,1.3,0.8,2.5,2.1,2.7l12.8,1.6c1,0.1,2.1-0.4,2.5-1.5L15-65c0.5-1.2-0.1-2.6-1.3-3.2c-1.2-0.5-2.6,0.1-3.2,1.3
			l-3.1,7.4l-7-12c-3.3-5.7-12.1-5.8-15.4,0.1l-7.9,13.9c-0.7,1.2-0.3,2.6,0.9,3.3c1.2,0.7,2.6,0.3,3.3-0.9l7.9-13.9
			c1.1-1.9,5.1-3.4,7,0l7,12l-8-1C-6-58.1-7.2-57.2-7.4-55.9"/>
		<path class="st1" d="M156.7-34l-8-13.8c-0.7-1.2-2.2-1.5-3.3-0.9c-1.2,0.7-1.5,2.2-0.9,3.3l8,13.8c1.1,1.9,0.4,6.1-3.5,6.1
			l-13.9,0l4.9-6.4c0.8-1.1,0.6-2.6-0.5-3.4c-1.1-0.8-2.6-0.6-3.4,0.5l-7.8,10.3c-0.6,0.8-0.7,2,0,2.9l7.9,10.2
			c0.8,1.1,2.3,1.3,3.4,0.4c1.1-0.8,1.3-2.3,0.4-3.4l-4.9-6.4l13.9,0C155.6-20.6,160.1-28.2,156.7-34 M122-25.6l-16,0.1
			c-2.2,0-5.5-2.7-3.5-6.1l6.9-12.1l3.1,7.4c0.5,1.2,1.9,1.8,3.2,1.3c1.2-0.5,1.8-1.9,1.3-3.2l-5-11.9c-0.4-0.9-1.3-1.6-2.5-1.5
			l-12.8,1.7c-1.3,0.2-2.3,1.4-2.1,2.7c0.2,1.3,1.4,2.3,2.7,2.1l8-1.1l-6.9,12.1c-3.3,5.7,1,13.4,7.8,13.3l16-0.1
			c1.3,0,2.4-1.1,2.4-2.4C124.4-24.5,123.3-25.6,122-25.6 M127.8-55.9c-0.2,1.3,0.8,2.5,2.1,2.7l12.8,1.6c1,0.1,2.1-0.4,2.5-1.5
			l4.9-11.9c0.5-1.2-0.1-2.6-1.3-3.2c-1.2-0.5-2.6,0.1-3.2,1.3l-3.1,7.4l-7-12c-3.3-5.7-12.1-5.8-15.4,0.1l-7.9,13.9
			c-0.7,1.2-0.3,2.6,0.9,3.3c1.2,0.7,2.6,0.3,3.3-0.9l7.9-13.9c1.1-1.9,5.1-3.4,7,0l7,12l-8-1C129.1-58.1,127.9-57.2,127.8-55.9"/>
		<path class="st1" d="M291.8-34l-8-13.8c-0.7-1.2-2.2-1.5-3.3-0.9c-1.2,0.7-1.5,2.2-0.9,3.3l8,13.8c1.1,1.9,0.4,6.1-3.5,6.1
			l-13.9,0l4.9-6.4c0.8-1.1,0.6-2.6-0.5-3.4c-1.1-0.8-2.6-0.6-3.4,0.5l-7.8,10.3c-0.6,0.8-0.7,2,0,2.9l7.9,10.2
			c0.8,1.1,2.3,1.3,3.4,0.4c1.1-0.8,1.3-2.3,0.4-3.4l-4.9-6.4l13.9,0C290.8-20.6,295.3-28.2,291.8-34 M257.1-25.6l-16,0.1
			c-2.2,0-5.5-2.7-3.5-6.1l6.9-12.1l3.1,7.4c0.5,1.2,1.9,1.8,3.2,1.3c1.2-0.5,1.8-1.9,1.3-3.2l-5-11.9c-0.4-0.9-1.3-1.6-2.5-1.5
			l-12.8,1.7c-1.3,0.2-2.3,1.4-2.1,2.7c0.2,1.3,1.4,2.3,2.7,2.1l8-1.1l-6.9,12.1c-3.3,5.7,1,13.4,7.8,13.3l16-0.1
			c1.3,0,2.4-1.1,2.4-2.4C259.6-24.5,258.5-25.6,257.1-25.6 M262.9-55.9c-0.2,1.3,0.8,2.5,2.1,2.7l12.8,1.6c1,0.1,2.1-0.4,2.5-1.5
			l4.9-11.9c0.5-1.2-0.1-2.6-1.3-3.2c-1.2-0.5-2.6,0.1-3.2,1.3l-3.1,7.4l-7-12c-3.3-5.7-12.1-5.8-15.4,0.1l-7.9,13.9
			c-0.7,1.2-0.3,2.6,0.9,3.3c1.2,0.7,2.6,0.3,3.3-0.9l7.9-13.9c1.1-1.9,5.1-3.4,7,0l7,12l-8-1C264.3-58.1,263.1-57.2,262.9-55.9"/>
		<path class="st1" d="M427-34l-8-13.8c-0.7-1.2-2.2-1.5-3.3-0.9c-1.2,0.7-1.5,2.2-0.9,3.3l8,13.8c1.1,1.9,0.4,6.1-3.5,6.1l-13.9,0
			l4.9-6.4c0.8-1.1,0.6-2.6-0.5-3.4c-1.1-0.8-2.6-0.6-3.4,0.5l-7.8,10.3c-0.6,0.8-0.7,2,0,2.9l7.9,10.2c0.8,1.1,2.3,1.3,3.4,0.4
			c1.1-0.8,1.3-2.3,0.4-3.4l-4.9-6.4l13.9,0C426-20.6,430.4-28.2,427-34 M392.3-25.6l-16,0.1c-2.2,0-5.5-2.7-3.5-6.1l6.9-12.1
			l3.1,7.4c0.5,1.2,1.9,1.8,3.2,1.3c1.2-0.5,1.8-1.9,1.3-3.2l-5-11.9c-0.4-0.9-1.3-1.6-2.5-1.5l-12.8,1.7c-1.3,0.2-2.3,1.4-2.1,2.7
			c0.2,1.3,1.4,2.3,2.7,2.1l8-1.1l-6.9,12.1c-3.3,5.7,1,13.4,7.8,13.3l16-0.1c1.3,0,2.4-1.1,2.4-2.4
			C394.7-24.5,393.6-25.6,392.3-25.6 M398.1-55.9c-0.2,1.3,0.8,2.5,2.1,2.7l12.8,1.6c1,0.1,2.1-0.4,2.5-1.5l4.9-11.9
			c0.5-1.2-0.1-2.6-1.3-3.2c-1.2-0.5-2.6,0.1-3.2,1.3l-3.1,7.4l-7-12c-3.3-5.7-12.1-5.8-15.4,0.1l-7.9,13.9
			c-0.7,1.2-0.3,2.6,0.9,3.3c1.2,0.7,2.6,0.3,3.3-0.9l7.9-13.9c1.1-1.9,5.1-3.4,7,0l7,12l-8-1C399.5-58.1,398.3-57.2,398.1-55.9"/>
		<path class="st1" d="M562.2-34l-8-13.8c-0.7-1.2-2.2-1.5-3.3-0.9c-1.2,0.7-1.5,2.2-0.9,3.3l8,13.8c1.1,1.9,0.4,6.1-3.5,6.1
			l-13.9,0l4.9-6.4c0.8-1.1,0.6-2.6-0.5-3.4c-1.1-0.8-2.6-0.6-3.4,0.5l-7.8,10.3c-0.6,0.8-0.7,2,0,2.9l7.9,10.2
			c0.8,1.1,2.3,1.3,3.4,0.4c1.1-0.8,1.3-2.3,0.4-3.4l-4.9-6.4l13.9,0C561.1-20.6,565.6-28.2,562.2-34 M527.5-25.6l-16,0.1
			c-2.2,0-5.5-2.7-3.5-6.1l6.9-12.1l3.1,7.4c0.5,1.2,1.9,1.8,3.2,1.3c1.2-0.5,1.8-1.9,1.3-3.2l-5-11.9c-0.4-0.9-1.3-1.6-2.5-1.5
			l-12.8,1.7c-1.3,0.2-2.3,1.4-2.1,2.7c0.2,1.3,1.4,2.3,2.7,2.1l8-1.1l-6.9,12.1c-3.3,5.7,1,13.4,7.8,13.3l16-0.1
			c1.3,0,2.4-1.1,2.4-2.4C529.9-24.5,528.8-25.6,527.5-25.6 M533.3-55.9c-0.2,1.3,0.8,2.5,2.1,2.7l12.8,1.6c1,0.1,2.1-0.4,2.5-1.5
			l4.9-11.9c0.5-1.2-0.1-2.6-1.3-3.2c-1.2-0.5-2.6,0.1-3.2,1.3l-3.1,7.4l-7-12c-3.3-5.7-12.1-5.8-15.4,0.1l-7.9,13.9
			c-0.7,1.2-0.3,2.6,0.9,3.3c1.2,0.7,2.6,0.3,3.3-0.9l7.9-13.9c1.1-1.9,5.1-3.4,7,0l7,12l-8-1C534.7-58.1,533.4-57.2,533.3-55.9"/>
		<path class="st1" d="M697.4-34l-8-13.8c-0.7-1.2-2.2-1.5-3.3-0.9c-1.2,0.7-1.5,2.2-0.9,3.3l8,13.8c1.1,1.9,0.4,6.1-3.5,6.1
			l-13.9,0l4.9-6.4c0.8-1.1,0.6-2.6-0.5-3.4c-1.1-0.8-2.6-0.6-3.4,0.5l-7.8,10.3c-0.6,0.8-0.7,2,0,2.9l7.9,10.2
			c0.8,1.1,2.3,1.3,3.4,0.4c1.1-0.8,1.3-2.3,0.4-3.4l-4.9-6.4l13.9,0C696.3-20.6,700.8-28.2,697.4-34 M662.7-25.6l-16,0.1
			c-2.2,0-5.5-2.7-3.5-6.1l6.9-12.1l3.1,7.4c0.5,1.2,1.9,1.8,3.2,1.3c1.2-0.5,1.8-1.9,1.3-3.2l-5-11.9c-0.4-0.9-1.3-1.6-2.5-1.5
			l-12.8,1.7c-1.3,0.2-2.3,1.4-2.1,2.7c0.2,1.3,1.4,2.3,2.7,2.1l8-1.1l-6.9,12.1c-3.3,5.7,1,13.4,7.8,13.3l16-0.1
			c1.3,0,2.4-1.1,2.4-2.4C665.1-24.5,664-25.6,662.7-25.6 M668.5-55.9c-0.2,1.3,0.8,2.5,2.1,2.7l12.8,1.6c1,0.1,2.1-0.4,2.5-1.5
			l4.9-11.9c0.5-1.2-0.1-2.6-1.3-3.2c-1.2-0.5-2.6,0.1-3.2,1.3l-3.1,7.4l-7-12c-3.3-5.7-12.1-5.8-15.4,0.1l-7.9,13.9
			c-0.7,1.2-0.3,2.6,0.9,3.3c1.2,0.7,2.6,0.3,3.3-0.9l7.9-13.9c1.1-1.9,5.1-3.4,7,0l7,12l-8-1C669.8-58.1,668.6-57.2,668.5-55.9"/>
		<path class="st1" d="M832.5-34l-8-13.8c-0.7-1.2-2.2-1.5-3.3-0.9c-1.2,0.7-1.5,2.2-0.9,3.3l8,13.8c1.1,1.9,0.4,6.1-3.5,6.1
			l-13.9,0l4.9-6.4c0.8-1.1,0.6-2.6-0.5-3.4c-1.1-0.8-2.6-0.6-3.4,0.5l-7.8,10.3c-0.6,0.8-0.7,2,0,2.9l7.9,10.2
			c0.8,1.1,2.3,1.3,3.4,0.4c1.1-0.8,1.3-2.3,0.4-3.4l-4.9-6.4l13.9,0C831.5-20.6,835.9-28.2,832.5-34 M797.8-25.6l-16,0.1
			c-2.2,0-5.5-2.7-3.5-6.1l6.9-12.1l3.1,7.4c0.5,1.2,1.9,1.8,3.2,1.3c1.2-0.5,1.8-1.9,1.3-3.2l-5-11.9c-0.4-0.9-1.3-1.6-2.5-1.5
			l-12.8,1.7c-1.3,0.2-2.3,1.4-2.1,2.7c0.2,1.3,1.4,2.3,2.7,2.1l8-1.1l-6.9,12.1c-3.3,5.7,1,13.4,7.8,13.3l16-0.1
			c1.3,0,2.4-1.1,2.4-2.4C800.3-24.5,799.2-25.6,797.8-25.6 M803.6-55.9c-0.2,1.3,0.8,2.5,2.1,2.7l12.8,1.6c1,0.1,2.1-0.4,2.5-1.5
			L826-65c0.5-1.2-0.1-2.6-1.3-3.2c-1.2-0.5-2.6,0.1-3.2,1.3l-3.1,7.4l-7-12c-3.3-5.7-12.1-5.8-15.4,0.1l-7.9,13.9
			c-0.7,1.2-0.3,2.6,0.9,3.3c1.2,0.7,2.6,0.3,3.3-0.9l7.9-13.9c1.1-1.9,5.1-3.4,7,0l7,12l-8-1C805-58.1,803.8-57.2,803.6-55.9"/>
		<path class="st1" d="M967.7-34l-8-13.8c-0.7-1.2-2.2-1.5-3.3-0.9c-1.2,0.7-1.5,2.2-0.9,3.3l8,13.8c1.1,1.9,0.4,6.1-3.5,6.1
			l-13.9,0l4.9-6.4c0.8-1.1,0.6-2.6-0.5-3.4c-1.1-0.8-2.6-0.6-3.4,0.5l-7.8,10.3c-0.6,0.8-0.7,2,0,2.9l7.9,10.2
			c0.8,1.1,2.3,1.3,3.4,0.4c1.1-0.8,1.3-2.3,0.4-3.4l-4.9-6.4l13.9,0C966.7-20.6,971.1-28.2,967.7-34 M933-25.6l-16,0.1
			c-2.2,0-5.5-2.7-3.5-6.1l6.9-12.1l3.1,7.4c0.5,1.2,1.9,1.8,3.2,1.3c1.2-0.5,1.8-1.9,1.3-3.2l-5-11.9c-0.4-0.9-1.3-1.6-2.5-1.5
			l-12.8,1.7c-1.3,0.2-2.3,1.4-2.1,2.7c0.2,1.3,1.4,2.3,2.7,2.1l8-1.1l-6.9,12.1c-3.3,5.7,1,13.4,7.8,13.3l16-0.1
			c1.3,0,2.4-1.1,2.4-2.4C935.4-24.5,934.3-25.6,933-25.6 M938.8-55.9c-0.2,1.3,0.8,2.5,2.1,2.7l12.8,1.6c1,0.1,2.1-0.4,2.5-1.5
			l4.9-11.9c0.5-1.2-0.1-2.6-1.3-3.2c-1.2-0.5-2.6,0.1-3.2,1.3l-3.1,7.4l-7-12c-3.3-5.7-12.1-5.8-15.4,0.1l-7.9,13.9
			c-0.7,1.2-0.3,2.6,0.9,3.3c1.2,0.7,2.6,0.3,3.3-0.9l7.9-13.9c1.1-1.9,5.1-3.4,7,0l7,12l-8-1C940.2-58.1,939-57.2,938.8-55.9"/>
		<path class="st1" d="M1102.9-34l-8-13.8c-0.7-1.2-2.2-1.5-3.3-0.9c-1.2,0.7-1.5,2.2-0.9,3.3l8,13.8c1.1,1.9,0.4,6.1-3.5,6.1
			l-13.9,0l4.9-6.4c0.8-1.1,0.6-2.6-0.5-3.4c-1.1-0.8-2.6-0.6-3.4,0.5l-7.8,10.3c-0.6,0.8-0.7,2,0,2.9l7.9,10.2
			c0.8,1.1,2.3,1.3,3.4,0.4c1.1-0.8,1.3-2.3,0.4-3.4l-4.9-6.4l13.9,0C1101.8-20.6,1106.3-28.2,1102.9-34 M1068.2-25.6l-16,0.1
			c-2.2,0-5.5-2.7-3.5-6.1l6.9-12.1l3.1,7.4c0.5,1.2,1.9,1.8,3.2,1.3c1.2-0.5,1.8-1.9,1.3-3.2l-5-11.9c-0.4-0.9-1.3-1.6-2.5-1.5
			l-12.8,1.7c-1.3,0.2-2.3,1.4-2.1,2.7c0.2,1.3,1.4,2.3,2.7,2.1l8-1.1l-6.9,12.1c-3.3,5.7,1,13.4,7.8,13.3l16-0.1
			c1.3,0,2.4-1.1,2.4-2.4C1070.6-24.5,1069.5-25.6,1068.2-25.6 M1074-55.9c-0.2,1.3,0.8,2.5,2.1,2.7l12.8,1.6c1,0.1,2.1-0.4,2.5-1.5
			l4.9-11.9c0.5-1.2-0.1-2.6-1.3-3.2c-1.2-0.5-2.6,0.1-3.2,1.3l-3.1,7.4l-7-12c-3.3-5.7-12.1-5.8-15.4,0.1l-7.9,13.9
			c-0.7,1.2-0.3,2.6,0.9,3.3c1.2,0.7,2.6,0.3,3.3-0.9l7.9-13.9c1.1-1.9,5.1-3.4,7,0l7,12l-8-1C1075.4-58.1,1074.1-57.2,1074-55.9"/>
	</g>
	<g>
		<path class="st1" d="M-41.9,53.3l-8-13.8c-0.7-1.2-2.2-1.5-3.3-0.9c-1.2,0.7-1.5,2.2-0.9,3.3l8,13.8c1.1,1.9,0.4,6.1-3.5,6.1
			l-13.9,0l4.9-6.4c0.8-1.1,0.6-2.6-0.5-3.4c-1.1-0.8-2.6-0.6-3.4,0.5l-7.8,10.3c-0.6,0.8-0.7,2,0,2.9l7.9,10.2
			c0.8,1.1,2.3,1.3,3.4,0.4c1.1-0.8,1.3-2.3,0.4-3.4l-4.9-6.4l13.9,0C-42.9,66.6-38.5,59.1-41.9,53.3 M-76.6,61.7l-16,0.1
			c-2.2,0-5.5-2.7-3.5-6.1l6.9-12.1l3.1,7.4c0.5,1.2,1.9,1.8,3.2,1.3c1.2-0.5,1.8-1.9,1.3-3.2l-5-11.9c-0.4-0.9-1.3-1.6-2.5-1.5
			l-12.8,1.7c-1.3,0.2-2.3,1.4-2.1,2.7c0.2,1.3,1.4,2.3,2.7,2.1l8-1.1l-6.9,12.1c-3.3,5.7,1,13.4,7.8,13.3l16-0.1
			c1.3,0,2.4-1.1,2.4-2.4C-74.1,62.7-75.2,61.6-76.6,61.7 M-70.8,31.4c-0.2,1.3,0.8,2.5,2.1,2.7l12.8,1.6c1,0.1,2.1-0.4,2.5-1.5
			l4.9-11.9c0.5-1.2-0.1-2.6-1.3-3.2c-1.2-0.5-2.6,0.1-3.2,1.3l-3.1,7.4l-7-12c-3.3-5.7-12.1-5.8-15.4,0.1l-7.9,13.9
			c-0.7,1.2-0.3,2.6,0.9,3.3c1.2,0.7,2.6,0.3,3.3-0.9l7.9-13.9c1.1-1.9,5.1-3.4,7,0l7,12l-8-1C-69.4,29.1-70.6,30-70.8,31.4"/>
		<path class="st1" d="M93.3,53.3l-8-13.8c-0.7-1.2-2.2-1.5-3.3-0.9c-1.2,0.7-1.5,2.2-0.9,3.3l8,13.8c1.1,1.9,0.4,6.1-3.5,6.1
			l-13.9,0l4.9-6.4c0.8-1.1,0.6-2.6-0.5-3.4c-1.1-0.8-2.6-0.6-3.4,0.5l-7.8,10.3c-0.6,0.8-0.7,2,0,2.9L72.8,76
			c0.8,1.1,2.3,1.3,3.4,0.4c1.1-0.8,1.3-2.3,0.4-3.4l-4.9-6.4l13.9,0C92.3,66.6,96.7,59.1,93.3,53.3 M58.6,61.7l-16,0.1
			c-2.2,0-5.5-2.7-3.5-6.1L46,43.5l3.1,7.4c0.5,1.2,1.9,1.8,3.2,1.3c1.2-0.5,1.8-1.9,1.3-3.2l-5-11.9c-0.4-0.9-1.3-1.6-2.5-1.5
			l-12.8,1.7c-1.3,0.2-2.3,1.4-2.1,2.7c0.2,1.3,1.4,2.3,2.7,2.1l8-1.1l-6.9,12.1c-3.3,5.7,1,13.4,7.8,13.3l16-0.1
			c1.3,0,2.4-1.1,2.4-2.4C61,62.7,59.9,61.6,58.6,61.7 M64.4,31.4c-0.2,1.3,0.8,2.5,2.1,2.7l12.8,1.6c1,0.1,2.1-0.4,2.5-1.5
			l4.9-11.9c0.5-1.2-0.1-2.6-1.3-3.2c-1.2-0.5-2.6,0.1-3.2,1.3l-3.1,7.4l-7-12c-3.3-5.7-12.1-5.8-15.4,0.1l-7.9,13.9
			c-0.7,1.2-0.3,2.6,0.9,3.3c1.2,0.7,2.6,0.3,3.3-0.9L61,18.3c1.1-1.9,5.1-3.4,7,0l7,12l-8-1C65.8,29.1,64.6,30,64.4,31.4"/>
		<path class="st1" d="M228.5,53.3l-8-13.8c-0.7-1.2-2.2-1.5-3.3-0.9c-1.2,0.7-1.5,2.2-0.9,3.3l8,13.8c1.1,1.9,0.4,6.1-3.5,6.1
			l-13.9,0l4.9-6.4c0.8-1.1,0.6-2.6-0.5-3.4c-1.1-0.8-2.6-0.6-3.4,0.5l-7.8,10.3c-0.6,0.8-0.7,2,0,2.9l7.9,10.2
			c0.8,1.1,2.3,1.3,3.4,0.4c1.1-0.8,1.3-2.3,0.4-3.4l-4.9-6.4l13.9,0C227.4,66.6,231.9,59.1,228.5,53.3 M193.8,61.7l-16,0.1
			c-2.2,0-5.5-2.7-3.5-6.1l6.9-12.1l3.1,7.4c0.5,1.2,1.9,1.8,3.2,1.3c1.2-0.5,1.8-1.9,1.3-3.2l-5-11.9c-0.4-0.9-1.3-1.6-2.5-1.5
			l-12.8,1.7c-1.3,0.2-2.3,1.4-2.1,2.7c0.2,1.3,1.4,2.3,2.7,2.1l8-1.1l-6.9,12.1c-3.3,5.7,1,13.4,7.8,13.3l16-0.1
			c1.3,0,2.4-1.1,2.4-2.4C196.2,62.7,195.1,61.6,193.8,61.7 M199.6,31.4c-0.2,1.3,0.8,2.5,2.1,2.7l12.8,1.6c1,0.1,2.1-0.4,2.5-1.5
			l4.9-11.9c0.5-1.2-0.1-2.6-1.3-3.2c-1.2-0.5-2.6,0.1-3.2,1.3l-3.1,7.4l-7-12c-3.3-5.7-12.1-5.8-15.4,0.1l-7.9,13.9
			c-0.7,1.2-0.3,2.6,0.9,3.3c1.2,0.7,2.6,0.3,3.3-0.9l7.9-13.9c1.1-1.9,5.1-3.4,7,0l7,12l-8-1C201,29.1,199.7,30,199.6,31.4"/>
		<path class="st1" d="M363.7,53.3l-8-13.8c-0.7-1.2-2.2-1.5-3.3-0.9c-1.2,0.7-1.5,2.2-0.9,3.3l8,13.8c1.1,1.9,0.4,6.1-3.5,6.1
			l-13.9,0l4.9-6.4c0.8-1.1,0.6-2.6-0.5-3.4c-1.1-0.8-2.6-0.6-3.4,0.5l-7.8,10.3c-0.6,0.8-0.7,2,0,2.9l7.9,10.2
			c0.8,1.1,2.3,1.3,3.4,0.4c1.1-0.8,1.3-2.3,0.4-3.4l-4.9-6.4l13.9,0C362.6,66.6,367.1,59.1,363.7,53.3 M328.9,61.7l-16,0.1
			c-2.2,0-5.5-2.7-3.5-6.1l6.9-12.1l3.1,7.4c0.5,1.2,1.9,1.8,3.2,1.3c1.2-0.5,1.8-1.9,1.3-3.2l-5-11.9c-0.4-0.9-1.3-1.6-2.5-1.5
			l-12.8,1.7c-1.3,0.2-2.3,1.4-2.1,2.7c0.2,1.3,1.4,2.3,2.7,2.1l8-1.1l-6.9,12.1c-3.3,5.7,1,13.4,7.8,13.3l16-0.1
			c1.3,0,2.4-1.1,2.4-2.4C331.4,62.7,330.3,61.6,328.9,61.7 M334.7,31.4c-0.2,1.3,0.8,2.5,2.1,2.7l12.8,1.6c1,0.1,2.1-0.4,2.5-1.5
			l4.9-11.9c0.5-1.2-0.1-2.6-1.3-3.2c-1.2-0.5-2.6,0.1-3.2,1.3l-3.1,7.4l-7-12c-3.3-5.7-12.1-5.8-15.4,0.1l-7.9,13.9
			c-0.7,1.2-0.3,2.6,0.9,3.3c1.2,0.7,2.6,0.3,3.3-0.9l7.9-13.9c1.1-1.9,5.1-3.4,7,0l7,12l-8-1C336.1,29.1,334.9,30,334.7,31.4"/>
		<path class="st1" d="M498.8,53.3l-8-13.8c-0.7-1.2-2.2-1.5-3.3-0.9c-1.2,0.7-1.5,2.2-0.9,3.3l8,13.8c1.1,1.9,0.4,6.1-3.5,6.1
			l-13.9,0l4.9-6.4c0.8-1.1,0.6-2.6-0.5-3.4c-1.1-0.8-2.6-0.6-3.4,0.5l-7.8,10.3c-0.6,0.8-0.7,2,0,2.9l7.9,10.2
			c0.8,1.1,2.3,1.3,3.4,0.4c1.1-0.8,1.3-2.3,0.4-3.4l-4.9-6.4l13.9,0C497.8,66.6,502.2,59.1,498.8,53.3 M464.1,61.7l-16,0.1
			c-2.2,0-5.5-2.7-3.5-6.1l6.9-12.1l3.1,7.4c0.5,1.2,1.9,1.8,3.2,1.3c1.2-0.5,1.8-1.9,1.3-3.2l-5-11.9c-0.4-0.9-1.3-1.6-2.5-1.5
			l-12.8,1.7c-1.3,0.2-2.3,1.4-2.1,2.7c0.2,1.3,1.4,2.3,2.7,2.1l8-1.1l-6.9,12.1c-3.3,5.7,1,13.4,7.8,13.3l16-0.1
			c1.3,0,2.4-1.1,2.4-2.4C466.5,62.7,465.5,61.6,464.1,61.7 M469.9,31.4c-0.2,1.3,0.8,2.5,2.1,2.7l12.8,1.6c1,0.1,2.1-0.4,2.5-1.5
			l4.9-11.9c0.5-1.2-0.1-2.6-1.3-3.2c-1.2-0.5-2.6,0.1-3.2,1.3l-3.1,7.4l-7-12c-3.3-5.7-12.1-5.8-15.4,0.1l-7.9,13.9
			c-0.7,1.2-0.3,2.6,0.9,3.3c1.2,0.7,2.6,0.3,3.3-0.9l7.9-13.9c1.1-1.9,5.1-3.4,7,0l7,12l-8-1C471.3,29.1,470.1,30,469.9,31.4"/>
		<path class="st1" d="M634,53.3l-8-13.8c-0.7-1.2-2.2-1.5-3.3-0.9c-1.2,0.7-1.5,2.2-0.9,3.3l8,13.8c1.1,1.9,0.4,6.1-3.5,6.1
			l-13.9,0l4.9-6.4c0.8-1.1,0.6-2.6-0.5-3.4c-1.1-0.8-2.6-0.6-3.4,0.5l-7.8,10.3c-0.6,0.8-0.7,2,0,2.9l7.9,10.2
			c0.8,1.1,2.3,1.3,3.4,0.4c1.1-0.8,1.3-2.3,0.4-3.4l-4.9-6.4l13.9,0C632.9,66.6,637.4,59.1,634,53.3 M599.3,61.7l-16,0.1
			c-2.2,0-5.5-2.7-3.5-6.1l6.9-12.1l3.1,7.4c0.5,1.2,1.9,1.8,3.2,1.3c1.2-0.5,1.8-1.9,1.3-3.2l-5-11.9c-0.4-0.9-1.3-1.6-2.5-1.5
			l-12.8,1.7c-1.3,0.2-2.3,1.4-2.1,2.7c0.2,1.3,1.4,2.3,2.7,2.1l8-1.1l-6.9,12.1c-3.3,5.7,1,13.4,7.8,13.3l16-0.1
			c1.3,0,2.4-1.1,2.4-2.4C601.7,62.7,600.6,61.6,599.3,61.7 M605.1,31.4c-0.2,1.3,0.8,2.5,2.1,2.7l12.8,1.6c1,0.1,2.1-0.4,2.5-1.5
			l4.9-11.9c0.5-1.2-0.1-2.6-1.3-3.2c-1.2-0.5-2.6,0.1-3.2,1.3l-3.1,7.4l-7-12c-3.3-5.7-12.1-5.8-15.4,0.1l-7.9,13.9
			c-0.7,1.2-0.3,2.6,0.9,3.3c1.2,0.7,2.6,0.3,3.3-0.9l7.9-13.9c1.1-1.9,5.1-3.4,7,0l7,12l-8-1C606.5,29.1,605.3,30,605.1,31.4"/>
		<path class="st1" d="M769.2,53.3l-8-13.8c-0.7-1.2-2.2-1.5-3.3-0.9c-1.2,0.7-1.5,2.2-0.9,3.3l8,13.8c1.1,1.9,0.4,6.1-3.5,6.1
			l-13.9,0l4.9-6.4c0.8-1.1,0.6-2.6-0.5-3.4c-1.1-0.8-2.6-0.6-3.4,0.5l-7.8,10.3c-0.6,0.8-0.7,2,0,2.9l7.9,10.2
			c0.8,1.1,2.3,1.3,3.4,0.4c1.1-0.8,1.3-2.3,0.4-3.4l-4.9-6.4l13.9,0C768.1,66.6,772.6,59.1,769.2,53.3 M734.5,61.7l-16,0.1
			c-2.2,0-5.5-2.7-3.5-6.1l6.9-12.1l3.1,7.4c0.5,1.2,1.9,1.8,3.2,1.3c1.2-0.5,1.8-1.9,1.3-3.2l-5-11.9c-0.4-0.9-1.3-1.6-2.5-1.5
			l-12.8,1.7c-1.3,0.2-2.3,1.4-2.1,2.7c0.2,1.3,1.4,2.3,2.7,2.1l8-1.1l-6.9,12.1c-3.3,5.7,1,13.4,7.8,13.3l16-0.1
			c1.3,0,2.4-1.1,2.4-2.4C736.9,62.7,735.8,61.6,734.5,61.7 M740.3,31.4c-0.2,1.3,0.8,2.5,2.1,2.7l12.8,1.6c1,0.1,2.1-0.4,2.5-1.5
			l4.9-11.9c0.5-1.2-0.1-2.6-1.3-3.2c-1.2-0.5-2.6,0.1-3.2,1.3l-3.1,7.4l-7-12c-3.3-5.7-12.1-5.8-15.4,0.1l-7.9,13.9
			c-0.7,1.2-0.3,2.6,0.9,3.3c1.2,0.7,2.6,0.3,3.3-0.9l7.9-13.9c1.1-1.9,5.1-3.4,7,0l7,12l-8-1C741.6,29.1,740.4,30,740.3,31.4"/>
		<path class="st1" d="M904.3,53.3l-8-13.8c-0.7-1.2-2.2-1.5-3.3-0.9c-1.2,0.7-1.5,2.2-0.9,3.3l8,13.8c1.1,1.9,0.4,6.1-3.5,6.1
			l-13.9,0l4.9-6.4c0.8-1.1,0.6-2.6-0.5-3.4c-1.1-0.8-2.6-0.6-3.4,0.5l-7.8,10.3c-0.6,0.8-0.7,2,0,2.9l7.9,10.2
			c0.8,1.1,2.3,1.3,3.4,0.4c1.1-0.8,1.3-2.3,0.4-3.4l-4.9-6.4l13.9,0C903.3,66.6,907.8,59.1,904.3,53.3 M869.6,61.7l-16,0.1
			c-2.2,0-5.5-2.7-3.5-6.1l6.9-12.1l3.1,7.4c0.5,1.2,1.9,1.8,3.2,1.3c1.2-0.5,1.8-1.9,1.3-3.2l-5-11.9c-0.4-0.9-1.3-1.6-2.5-1.5
			l-12.8,1.7c-1.3,0.2-2.3,1.4-2.1,2.7c0.2,1.3,1.4,2.3,2.7,2.1l8-1.1l-6.9,12.1c-3.3,5.7,1,13.4,7.8,13.3l16-0.1
			c1.3,0,2.4-1.1,2.4-2.4C872.1,62.7,871,61.6,869.6,61.7 M875.4,31.4c-0.2,1.3,0.8,2.5,2.1,2.7l12.8,1.6c1,0.1,2.1-0.4,2.5-1.5
			l4.9-11.9c0.5-1.2-0.1-2.6-1.3-3.2c-1.2-0.5-2.6,0.1-3.2,1.3l-3.1,7.4l-7-12c-3.3-5.7-12.1-5.8-15.4,0.1l-7.9,13.9
			c-0.7,1.2-0.3,2.6,0.9,3.3c1.2,0.7,2.6,0.3,3.3-0.9l7.9-13.9c1.1-1.9,5.1-3.4,7,0l7,12l-8-1C876.8,29.1,875.6,30,875.4,31.4"/>
		<path class="st1" d="M1039.5,53.3l-8-13.8c-0.7-1.2-2.2-1.5-3.3-0.9c-1.2,0.7-1.5,2.2-0.9,3.3l8,13.8c1.1,1.9,0.4,6.1-3.5,6.1
			l-13.9,0l4.9-6.4c0.8-1.1,0.6-2.6-0.5-3.4c-1.1-0.8-2.6-0.6-3.4,0.5l-7.8,10.3c-0.6,0.8-0.7,2,0,2.9L1019,76
			c0.8,1.1,2.3,1.3,3.4,0.4c1.1-0.8,1.3-2.3,0.4-3.4l-4.9-6.4l13.9,0C1038.5,66.6,1042.9,59.1,1039.5,53.3 M1004.8,61.7l-16,0.1
			c-2.2,0-5.5-2.7-3.5-6.1l6.9-12.1l3.1,7.4c0.5,1.2,1.9,1.8,3.2,1.3c1.2-0.5,1.8-1.9,1.3-3.2l-5-11.9c-0.4-0.9-1.3-1.6-2.5-1.5
			l-12.8,1.7c-1.3,0.2-2.3,1.4-2.1,2.7c0.2,1.3,1.4,2.3,2.7,2.1l8-1.1l-6.9,12.1c-3.3,5.7,1,13.4,7.8,13.3l16-0.1
			c1.3,0,2.4-1.1,2.4-2.4C1007.2,62.7,1006.1,61.6,1004.8,61.7 M1010.6,31.4c-0.2,1.3,0.8,2.5,2.1,2.7l12.8,1.6
			c1,0.1,2.1-0.4,2.5-1.5l4.9-11.9c0.5-1.2-0.1-2.6-1.3-3.2c-1.2-0.5-2.6,0.1-3.2,1.3l-3.1,7.4l-7-12c-3.3-5.7-12.1-5.8-15.4,0.1
			l-7.9,13.9c-0.7,1.2-0.3,2.6,0.9,3.3c1.2,0.7,2.6,0.3,3.3-0.9l7.9-13.9c1.1-1.9,5.1-3.4,7,0l7,12l-8-1
			C1012,29.1,1010.8,30,1010.6,31.4"/>
	</g>
	<g>
		<path class="st1" d="M-41.9,227.8l-8-13.8c-0.7-1.2-2.2-1.5-3.3-0.9c-1.2,0.7-1.5,2.2-0.9,3.3l8,13.8c1.1,1.9,0.4,6.1-3.5,6.1
			l-13.9,0l4.9-6.4c0.8-1.1,0.6-2.6-0.5-3.4c-1.1-0.8-2.6-0.6-3.4,0.5l-7.8,10.3c-0.6,0.8-0.7,2,0,2.9l7.9,10.2
			c0.8,1.1,2.3,1.3,3.4,0.4c1.1-0.8,1.3-2.3,0.4-3.4l-4.9-6.4l13.9,0C-42.9,241.1-38.5,233.6-41.9,227.8 M-76.6,236.2l-16,0.1
			c-2.2,0-5.5-2.7-3.5-6.1l6.9-12.1l3.1,7.4c0.5,1.2,1.9,1.8,3.2,1.3c1.2-0.5,1.8-1.9,1.3-3.2l-5-11.9c-0.4-0.9-1.3-1.6-2.5-1.5
			l-12.8,1.7c-1.3,0.2-2.3,1.4-2.1,2.7c0.2,1.3,1.4,2.3,2.7,2.1l8-1.1l-6.9,12.1c-3.3,5.7,1,13.4,7.8,13.3l16-0.1
			c1.3,0,2.4-1.1,2.4-2.4C-74.1,237.2-75.2,236.2-76.6,236.2 M-70.8,205.9c-0.2,1.3,0.8,2.5,2.1,2.7l12.8,1.6c1,0.1,2.1-0.4,2.5-1.5
			l4.9-11.9c0.5-1.2-0.1-2.6-1.3-3.2c-1.2-0.5-2.6,0.1-3.2,1.3l-3.1,7.4l-7-12c-3.3-5.7-12.1-5.8-15.4,0.1l-7.9,13.9
			c-0.7,1.2-0.3,2.6,0.9,3.3c1.2,0.7,2.6,0.3,3.3-0.9l7.9-13.9c1.1-1.9,5.1-3.4,7,0l7,12l-8-1C-69.4,203.6-70.6,204.6-70.8,205.9"/>
		<path class="st1" d="M93.3,227.8l-8-13.8c-0.7-1.2-2.2-1.5-3.3-0.9c-1.2,0.7-1.5,2.2-0.9,3.3l8,13.8c1.1,1.9,0.4,6.1-3.5,6.1
			l-13.9,0l4.9-6.4c0.8-1.1,0.6-2.6-0.5-3.4c-1.1-0.8-2.6-0.6-3.4,0.5l-7.8,10.3c-0.6,0.8-0.7,2,0,2.9l7.9,10.2
			c0.8,1.1,2.3,1.3,3.4,0.4c1.1-0.8,1.3-2.3,0.4-3.4l-4.9-6.4l13.9,0C92.3,241.1,96.7,233.6,93.3,227.8 M58.6,236.2l-16,0.1
			c-2.2,0-5.5-2.7-3.5-6.1L46,218l3.1,7.4c0.5,1.2,1.9,1.8,3.2,1.3c1.2-0.5,1.8-1.9,1.3-3.2l-5-11.9c-0.4-0.9-1.3-1.6-2.5-1.5
			l-12.8,1.7c-1.3,0.2-2.3,1.4-2.1,2.7c0.2,1.3,1.4,2.3,2.7,2.1l8-1.1l-6.9,12.1c-3.3,5.7,1,13.4,7.8,13.3l16-0.1
			c1.3,0,2.4-1.1,2.4-2.4C61,237.2,59.9,236.2,58.6,236.2 M64.4,205.9c-0.2,1.3,0.8,2.5,2.1,2.7l12.8,1.6c1,0.1,2.1-0.4,2.5-1.5
			l4.9-11.9c0.5-1.2-0.1-2.6-1.3-3.2c-1.2-0.5-2.6,0.1-3.2,1.3l-3.1,7.4l-7-12c-3.3-5.7-12.1-5.8-15.4,0.1l-7.9,13.9
			c-0.7,1.2-0.3,2.6,0.9,3.3c1.2,0.7,2.6,0.3,3.3-0.9l7.9-13.9c1.1-1.9,5.1-3.4,7,0l7,12l-8-1C65.8,203.6,64.6,204.6,64.4,205.9"/>
		<path class="st1" d="M228.5,227.8l-8-13.8c-0.7-1.2-2.2-1.5-3.3-0.9c-1.2,0.7-1.5,2.2-0.9,3.3l8,13.8c1.1,1.9,0.4,6.1-3.5,6.1
			l-13.9,0l4.9-6.4c0.8-1.1,0.6-2.6-0.5-3.4c-1.1-0.8-2.6-0.6-3.4,0.5l-7.8,10.3c-0.6,0.8-0.7,2,0,2.9l7.9,10.2
			c0.8,1.1,2.3,1.3,3.4,0.4c1.1-0.8,1.3-2.3,0.4-3.4l-4.9-6.4l13.9,0C227.4,241.1,231.9,233.6,228.5,227.8 M193.8,236.2l-16,0.1
			c-2.2,0-5.5-2.7-3.5-6.1l6.9-12.1l3.1,7.4c0.5,1.2,1.9,1.8,3.2,1.3c1.2-0.5,1.8-1.9,1.3-3.2l-5-11.9c-0.4-0.9-1.3-1.6-2.5-1.5
			l-12.8,1.7c-1.3,0.2-2.3,1.4-2.1,2.7c0.2,1.3,1.4,2.3,2.7,2.1l8-1.1l-6.9,12.1c-3.3,5.7,1,13.4,7.8,13.3l16-0.1
			c1.3,0,2.4-1.1,2.4-2.4C196.2,237.2,195.1,236.2,193.8,236.2 M199.6,205.9c-0.2,1.3,0.8,2.5,2.1,2.7l12.8,1.6
			c1,0.1,2.1-0.4,2.5-1.5l4.9-11.9c0.5-1.2-0.1-2.6-1.3-3.2c-1.2-0.5-2.6,0.1-3.2,1.3l-3.1,7.4l-7-12c-3.3-5.7-12.1-5.8-15.4,0.1
			l-7.9,13.9c-0.7,1.2-0.3,2.6,0.9,3.3c1.2,0.7,2.6,0.3,3.3-0.9l7.9-13.9c1.1-1.9,5.1-3.4,7,0l7,12l-8-1
			C201,203.6,199.7,204.6,199.6,205.9"/>
		<path class="st1" d="M363.7,227.8l-8-13.8c-0.7-1.2-2.2-1.5-3.3-0.9c-1.2,0.7-1.5,2.2-0.9,3.3l8,13.8c1.1,1.9,0.4,6.1-3.5,6.1
			l-13.9,0l4.9-6.4c0.8-1.1,0.6-2.6-0.5-3.4c-1.1-0.8-2.6-0.6-3.4,0.5l-7.8,10.3c-0.6,0.8-0.7,2,0,2.9l7.9,10.2
			c0.8,1.1,2.3,1.3,3.4,0.4c1.1-0.8,1.3-2.3,0.4-3.4l-4.9-6.4l13.9,0C362.6,241.1,367.1,233.6,363.7,227.8 M328.9,236.2l-16,0.1
			c-2.2,0-5.5-2.7-3.5-6.1l6.9-12.1l3.1,7.4c0.5,1.2,1.9,1.8,3.2,1.3c1.2-0.5,1.8-1.9,1.3-3.2l-5-11.9c-0.4-0.9-1.3-1.6-2.5-1.5
			l-12.8,1.7c-1.3,0.2-2.3,1.4-2.1,2.7c0.2,1.3,1.4,2.3,2.7,2.1l8-1.1l-6.9,12.1c-3.3,5.7,1,13.4,7.8,13.3l16-0.1
			c1.3,0,2.4-1.1,2.4-2.4C331.4,237.2,330.3,236.2,328.9,236.2 M334.7,205.9c-0.2,1.3,0.8,2.5,2.1,2.7l12.8,1.6
			c1,0.1,2.1-0.4,2.5-1.5l4.9-11.9c0.5-1.2-0.1-2.6-1.3-3.2c-1.2-0.5-2.6,0.1-3.2,1.3l-3.1,7.4l-7-12c-3.3-5.7-12.1-5.8-15.4,0.1
			l-7.9,13.9c-0.7,1.2-0.3,2.6,0.9,3.3c1.2,0.7,2.6,0.3,3.3-0.9l7.9-13.9c1.1-1.9,5.1-3.4,7,0l7,12l-8-1
			C336.1,203.6,334.9,204.6,334.7,205.9"/>
		<path class="st1" d="M498.8,227.8l-8-13.8c-0.7-1.2-2.2-1.5-3.3-0.9c-1.2,0.7-1.5,2.2-0.9,3.3l8,13.8c1.1,1.9,0.4,6.1-3.5,6.1
			l-13.9,0l4.9-6.4c0.8-1.1,0.6-2.6-0.5-3.4c-1.1-0.8-2.6-0.6-3.4,0.5l-7.8,10.3c-0.6,0.8-0.7,2,0,2.9l7.9,10.2
			c0.8,1.1,2.3,1.3,3.4,0.4c1.1-0.8,1.3-2.3,0.4-3.4l-4.9-6.4l13.9,0C497.8,241.1,502.2,233.6,498.8,227.8 M464.1,236.2l-16,0.1
			c-2.2,0-5.5-2.7-3.5-6.1l6.9-12.1l3.1,7.4c0.5,1.2,1.9,1.8,3.2,1.3c1.2-0.5,1.8-1.9,1.3-3.2l-5-11.9c-0.4-0.9-1.3-1.6-2.5-1.5
			l-12.8,1.7c-1.3,0.2-2.3,1.4-2.1,2.7c0.2,1.3,1.4,2.3,2.7,2.1l8-1.1l-6.9,12.1c-3.3,5.7,1,13.4,7.8,13.3l16-0.1
			c1.3,0,2.4-1.1,2.4-2.4C466.5,237.2,465.5,236.2,464.1,236.2 M469.9,205.9c-0.2,1.3,0.8,2.5,2.1,2.7l12.8,1.6
			c1,0.1,2.1-0.4,2.5-1.5l4.9-11.9c0.5-1.2-0.1-2.6-1.3-3.2c-1.2-0.5-2.6,0.1-3.2,1.3l-3.1,7.4l-7-12c-3.3-5.7-12.1-5.8-15.4,0.1
			l-7.9,13.9c-0.7,1.2-0.3,2.6,0.9,3.3c1.2,0.7,2.6,0.3,3.3-0.9l7.9-13.9c1.1-1.9,5.1-3.4,7,0l7,12l-8-1
			C471.3,203.6,470.1,204.6,469.9,205.9"/>
		<path class="st1" d="M634,227.8l-8-13.8c-0.7-1.2-2.2-1.5-3.3-0.9c-1.2,0.7-1.5,2.2-0.9,3.3l8,13.8c1.1,1.9,0.4,6.1-3.5,6.1
			l-13.9,0l4.9-6.4c0.8-1.1,0.6-2.6-0.5-3.4c-1.1-0.8-2.6-0.6-3.4,0.5l-7.8,10.3c-0.6,0.8-0.7,2,0,2.9l7.9,10.2
			c0.8,1.1,2.3,1.3,3.4,0.4c1.1-0.8,1.3-2.3,0.4-3.4l-4.9-6.4l13.9,0C632.9,241.1,637.4,233.6,634,227.8 M599.3,236.2l-16,0.1
			c-2.2,0-5.5-2.7-3.5-6.1l6.9-12.1l3.1,7.4c0.5,1.2,1.9,1.8,3.2,1.3c1.2-0.5,1.8-1.9,1.3-3.2l-5-11.9c-0.4-0.9-1.3-1.6-2.5-1.5
			l-12.8,1.7c-1.3,0.2-2.3,1.4-2.1,2.7c0.2,1.3,1.4,2.3,2.7,2.1l8-1.1l-6.9,12.1c-3.3,5.7,1,13.4,7.8,13.3l16-0.1
			c1.3,0,2.4-1.1,2.4-2.4C601.7,237.2,600.6,236.2,599.3,236.2 M605.1,205.9c-0.2,1.3,0.8,2.5,2.1,2.7l12.8,1.6
			c1,0.1,2.1-0.4,2.5-1.5l4.9-11.9c0.5-1.2-0.1-2.6-1.3-3.2c-1.2-0.5-2.6,0.1-3.2,1.3l-3.1,7.4l-7-12c-3.3-5.7-12.1-5.8-15.4,0.1
			l-7.9,13.9c-0.7,1.2-0.3,2.6,0.9,3.3c1.2,0.7,2.6,0.3,3.3-0.9l7.9-13.9c1.1-1.9,5.1-3.4,7,0l7,12l-8-1
			C606.5,203.6,605.3,204.6,605.1,205.9"/>
		<path class="st1" d="M769.2,227.8l-8-13.8c-0.7-1.2-2.2-1.5-3.3-0.9c-1.2,0.7-1.5,2.2-0.9,3.3l8,13.8c1.1,1.9,0.4,6.1-3.5,6.1
			l-13.9,0l4.9-6.4c0.8-1.1,0.6-2.6-0.5-3.4c-1.1-0.8-2.6-0.6-3.4,0.5l-7.8,10.3c-0.6,0.8-0.7,2,0,2.9l7.9,10.2
			c0.8,1.1,2.3,1.3,3.4,0.4c1.1-0.8,1.3-2.3,0.4-3.4l-4.9-6.4l13.9,0C768.1,241.1,772.6,233.6,769.2,227.8 M734.5,236.2l-16,0.1
			c-2.2,0-5.5-2.7-3.5-6.1l6.9-12.1l3.1,7.4c0.5,1.2,1.9,1.8,3.2,1.3c1.2-0.5,1.8-1.9,1.3-3.2l-5-11.9c-0.4-0.9-1.3-1.6-2.5-1.5
			l-12.8,1.7c-1.3,0.2-2.3,1.4-2.1,2.7c0.2,1.3,1.4,2.3,2.7,2.1l8-1.1l-6.9,12.1c-3.3,5.7,1,13.4,7.8,13.3l16-0.1
			c1.3,0,2.4-1.1,2.4-2.4C736.9,237.2,735.8,236.2,734.5,236.2 M740.3,205.9c-0.2,1.3,0.8,2.5,2.1,2.7l12.8,1.6
			c1,0.1,2.1-0.4,2.5-1.5l4.9-11.9c0.5-1.2-0.1-2.6-1.3-3.2c-1.2-0.5-2.6,0.1-3.2,1.3l-3.1,7.4l-7-12c-3.3-5.7-12.1-5.8-15.4,0.1
			l-7.9,13.9c-0.7,1.2-0.3,2.6,0.9,3.3c1.2,0.7,2.6,0.3,3.3-0.9l7.9-13.9c1.1-1.9,5.1-3.4,7,0l7,12l-8-1
			C741.6,203.6,740.4,204.6,740.3,205.9"/>
		<path class="st1" d="M904.3,227.8l-8-13.8c-0.7-1.2-2.2-1.5-3.3-0.9c-1.2,0.7-1.5,2.2-0.9,3.3l8,13.8c1.1,1.9,0.4,6.1-3.5,6.1
			l-13.9,0l4.9-6.4c0.8-1.1,0.6-2.6-0.5-3.4c-1.1-0.8-2.6-0.6-3.4,0.5l-7.8,10.3c-0.6,0.8-0.7,2,0,2.9l7.9,10.2
			c0.8,1.1,2.3,1.3,3.4,0.4c1.1-0.8,1.3-2.3,0.4-3.4l-4.9-6.4l13.9,0C903.3,241.1,907.8,233.6,904.3,227.8 M869.6,236.2l-16,0.1
			c-2.2,0-5.5-2.7-3.5-6.1l6.9-12.1l3.1,7.4c0.5,1.2,1.9,1.8,3.2,1.3c1.2-0.5,1.8-1.9,1.3-3.2l-5-11.9c-0.4-0.9-1.3-1.6-2.5-1.5
			l-12.8,1.7c-1.3,0.2-2.3,1.4-2.1,2.7c0.2,1.3,1.4,2.3,2.7,2.1l8-1.1l-6.9,12.1c-3.3,5.7,1,13.4,7.8,13.3l16-0.1
			c1.3,0,2.4-1.1,2.4-2.4C872.1,237.2,871,236.2,869.6,236.2 M875.4,205.9c-0.2,1.3,0.8,2.5,2.1,2.7l12.8,1.6c1,0.1,2.1-0.4,2.5-1.5
			l4.9-11.9c0.5-1.2-0.1-2.6-1.3-3.2c-1.2-0.5-2.6,0.1-3.2,1.3l-3.1,7.4l-7-12c-3.3-5.7-12.1-5.8-15.4,0.1l-7.9,13.9
			c-0.7,1.2-0.3,2.6,0.9,3.3c1.2,0.7,2.6,0.3,3.3-0.9l7.9-13.9c1.1-1.9,5.1-3.4,7,0l7,12l-8-1C876.8,203.6,875.6,204.6,875.4,205.9"
			/>
		<path class="st1" d="M1039.5,227.8l-8-13.8c-0.7-1.2-2.2-1.5-3.3-0.9c-1.2,0.7-1.5,2.2-0.9,3.3l8,13.8c1.1,1.9,0.4,6.1-3.5,6.1
			l-13.9,0l4.9-6.4c0.8-1.1,0.6-2.6-0.5-3.4c-1.1-0.8-2.6-0.6-3.4,0.5l-7.8,10.3c-0.6,0.8-0.7,2,0,2.9l7.9,10.2
			c0.8,1.1,2.3,1.3,3.4,0.4c1.1-0.8,1.3-2.3,0.4-3.4l-4.9-6.4l13.9,0C1038.5,241.1,1042.9,233.6,1039.5,227.8 M1004.8,236.2l-16,0.1
			c-2.2,0-5.5-2.7-3.5-6.1l6.9-12.1l3.1,7.4c0.5,1.2,1.9,1.8,3.2,1.3c1.2-0.5,1.8-1.9,1.3-3.2l-5-11.9c-0.4-0.9-1.3-1.6-2.5-1.5
			l-12.8,1.7c-1.3,0.2-2.3,1.4-2.1,2.7c0.2,1.3,1.4,2.3,2.7,2.1l8-1.1l-6.9,12.1c-3.3,5.7,1,13.4,7.8,13.3l16-0.1
			c1.3,0,2.4-1.1,2.4-2.4C1007.2,237.2,1006.1,236.2,1004.8,236.2 M1010.6,205.9c-0.2,1.3,0.8,2.5,2.1,2.7l12.8,1.6
			c1,0.1,2.1-0.4,2.5-1.5l4.9-11.9c0.5-1.2-0.1-2.6-1.3-3.2c-1.2-0.5-2.6,0.1-3.2,1.3l-3.1,7.4l-7-12c-3.3-5.7-12.1-5.8-15.4,0.1
			l-7.9,13.9c-0.7,1.2-0.3,2.6,0.9,3.3c1.2,0.7,2.6,0.3,3.3-0.9l7.9-13.9c1.1-1.9,5.1-3.4,7,0l7,12l-8-1
			C1012,203.6,1010.8,204.6,1010.6,205.9"/>
	</g>
	<g>
		<path class="st1" d="M-41.9,402.3l-8-13.8c-0.7-1.2-2.2-1.5-3.3-0.9c-1.2,0.7-1.5,2.2-0.9,3.3l8,13.8c1.1,1.9,0.4,6.1-3.5,6.1
			l-13.9,0l4.9-6.4c0.8-1.1,0.6-2.6-0.5-3.4c-1.1-0.8-2.6-0.6-3.4,0.5l-7.8,10.3c-0.6,0.8-0.7,2,0,2.9l7.9,10.2
			c0.8,1.1,2.3,1.3,3.4,0.4c1.1-0.8,1.3-2.3,0.4-3.4l-4.9-6.4l13.9,0C-42.9,415.7-38.5,408.1-41.9,402.3 M-76.6,410.7l-16,0.1
			c-2.2,0-5.5-2.7-3.5-6.1l6.9-12.1l3.1,7.4c0.5,1.2,1.9,1.8,3.2,1.3c1.2-0.5,1.8-1.9,1.3-3.2l-5-11.9c-0.4-0.9-1.3-1.6-2.5-1.5
			l-12.8,1.7c-1.3,0.2-2.3,1.4-2.1,2.7c0.2,1.3,1.4,2.3,2.7,2.1l8-1.1l-6.9,12.1c-3.3,5.7,1,13.4,7.8,13.3l16-0.1
			c1.3,0,2.4-1.1,2.4-2.4C-74.1,411.8-75.2,410.7-76.6,410.7 M-70.8,380.4c-0.2,1.3,0.8,2.5,2.1,2.7l12.8,1.6c1,0.1,2.1-0.4,2.5-1.5
			l4.9-11.9c0.5-1.2-0.1-2.6-1.3-3.2c-1.2-0.5-2.6,0.1-3.2,1.3l-3.1,7.4l-7-12c-3.3-5.7-12.1-5.8-15.4,0.1l-7.9,13.9
			c-0.7,1.2-0.3,2.6,0.9,3.3c1.2,0.7,2.6,0.3,3.3-0.9l7.9-13.9c1.1-1.9,5.1-3.4,7,0l7,12l-8-1C-69.4,378.2-70.6,379.1-70.8,380.4"/>
		<path class="st1" d="M93.3,402.3l-8-13.8c-0.7-1.2-2.2-1.5-3.3-0.9c-1.2,0.7-1.5,2.2-0.9,3.3l8,13.8c1.1,1.9,0.4,6.1-3.5,6.1
			l-13.9,0l4.9-6.4c0.8-1.1,0.6-2.6-0.5-3.4c-1.1-0.8-2.6-0.6-3.4,0.5l-7.8,10.3c-0.6,0.8-0.7,2,0,2.9l7.9,10.2
			c0.8,1.1,2.3,1.3,3.4,0.4c1.1-0.8,1.3-2.3,0.4-3.4l-4.9-6.4l13.9,0C92.3,415.7,96.7,408.1,93.3,402.3 M58.6,410.7l-16,0.1
			c-2.2,0-5.5-2.7-3.5-6.1l6.9-12.1l3.1,7.4c0.5,1.2,1.9,1.8,3.2,1.3c1.2-0.5,1.8-1.9,1.3-3.2l-5-11.9c-0.4-0.9-1.3-1.6-2.5-1.5
			l-12.8,1.7c-1.3,0.2-2.3,1.4-2.1,2.7c0.2,1.3,1.4,2.3,2.7,2.1l8-1.1l-6.9,12.1c-3.3,5.7,1,13.4,7.8,13.3l16-0.1
			c1.3,0,2.4-1.1,2.4-2.4C61,411.8,59.9,410.7,58.6,410.7 M64.4,380.4c-0.2,1.3,0.8,2.5,2.1,2.7l12.8,1.6c1,0.1,2.1-0.4,2.5-1.5
			l4.9-11.9c0.5-1.2-0.1-2.6-1.3-3.2c-1.2-0.5-2.6,0.1-3.2,1.3l-3.1,7.4l-7-12c-3.3-5.7-12.1-5.8-15.4,0.1l-7.9,13.9
			c-0.7,1.2-0.3,2.6,0.9,3.3c1.2,0.7,2.6,0.3,3.3-0.9l7.9-13.9c1.1-1.9,5.1-3.4,7,0l7,12l-8-1C65.8,378.2,64.6,379.1,64.4,380.4"/>
		<path class="st1" d="M228.5,402.3l-8-13.8c-0.7-1.2-2.2-1.5-3.3-0.9c-1.2,0.7-1.5,2.2-0.9,3.3l8,13.8c1.1,1.9,0.4,6.1-3.5,6.1
			l-13.9,0l4.9-6.4c0.8-1.1,0.6-2.6-0.5-3.4c-1.1-0.8-2.6-0.6-3.4,0.5l-7.8,10.3c-0.6,0.8-0.7,2,0,2.9l7.9,10.2
			c0.8,1.1,2.3,1.3,3.4,0.4c1.1-0.8,1.3-2.3,0.4-3.4l-4.9-6.4l13.9,0C227.4,415.7,231.9,408.1,228.5,402.3 M193.8,410.7l-16,0.1
			c-2.2,0-5.5-2.7-3.5-6.1l6.9-12.1l3.1,7.4c0.5,1.2,1.9,1.8,3.2,1.3c1.2-0.5,1.8-1.9,1.3-3.2l-5-11.9c-0.4-0.9-1.3-1.6-2.5-1.5
			l-12.8,1.7c-1.3,0.2-2.3,1.4-2.1,2.7c0.2,1.3,1.4,2.3,2.7,2.1l8-1.1l-6.9,12.1c-3.3,5.7,1,13.4,7.8,13.3l16-0.1
			c1.3,0,2.4-1.1,2.4-2.4C196.2,411.8,195.1,410.7,193.8,410.7 M199.6,380.4c-0.2,1.3,0.8,2.5,2.1,2.7l12.8,1.6
			c1,0.1,2.1-0.4,2.5-1.5l4.9-11.9c0.5-1.2-0.1-2.6-1.3-3.2c-1.2-0.5-2.6,0.1-3.2,1.3l-3.1,7.4l-7-12c-3.3-5.7-12.1-5.8-15.4,0.1
			l-7.9,13.9c-0.7,1.2-0.3,2.6,0.9,3.3c1.2,0.7,2.6,0.3,3.3-0.9l7.9-13.9c1.1-1.9,5.1-3.4,7,0l7,12l-8-1
			C201,378.2,199.7,379.1,199.6,380.4"/>
		<path class="st1" d="M363.7,402.3l-8-13.8c-0.7-1.2-2.2-1.5-3.3-0.9c-1.2,0.7-1.5,2.2-0.9,3.3l8,13.8c1.1,1.9,0.4,6.1-3.5,6.1
			l-13.9,0l4.9-6.4c0.8-1.1,0.6-2.6-0.5-3.4c-1.1-0.8-2.6-0.6-3.4,0.5l-7.8,10.3c-0.6,0.8-0.7,2,0,2.9l7.9,10.2
			c0.8,1.1,2.3,1.3,3.4,0.4c1.1-0.8,1.3-2.3,0.4-3.4l-4.9-6.4l13.9,0C362.6,415.7,367.1,408.1,363.7,402.3 M328.9,410.7l-16,0.1
			c-2.2,0-5.5-2.7-3.5-6.1l6.9-12.1l3.1,7.4c0.5,1.2,1.9,1.8,3.2,1.3c1.2-0.5,1.8-1.9,1.3-3.2l-5-11.9c-0.4-0.9-1.3-1.6-2.5-1.5
			l-12.8,1.7c-1.3,0.2-2.3,1.4-2.1,2.7c0.2,1.3,1.4,2.3,2.7,2.1l8-1.1l-6.9,12.1c-3.3,5.7,1,13.4,7.8,13.3l16-0.1
			c1.3,0,2.4-1.1,2.4-2.4C331.4,411.8,330.3,410.7,328.9,410.7 M334.7,380.4c-0.2,1.3,0.8,2.5,2.1,2.7l12.8,1.6
			c1,0.1,2.1-0.4,2.5-1.5l4.9-11.9c0.5-1.2-0.1-2.6-1.3-3.2c-1.2-0.5-2.6,0.1-3.2,1.3l-3.1,7.4l-7-12c-3.3-5.7-12.1-5.8-15.4,0.1
			l-7.9,13.9c-0.7,1.2-0.3,2.6,0.9,3.3c1.2,0.7,2.6,0.3,3.3-0.9l7.9-13.9c1.1-1.9,5.1-3.4,7,0l7,12l-8-1
			C336.1,378.2,334.9,379.1,334.7,380.4"/>
		<path class="st1" d="M498.8,402.3l-8-13.8c-0.7-1.2-2.2-1.5-3.3-0.9c-1.2,0.7-1.5,2.2-0.9,3.3l8,13.8c1.1,1.9,0.4,6.1-3.5,6.1
			l-13.9,0l4.9-6.4c0.8-1.1,0.6-2.6-0.5-3.4c-1.1-0.8-2.6-0.6-3.4,0.5l-7.8,10.3c-0.6,0.8-0.7,2,0,2.9l7.9,10.2
			c0.8,1.1,2.3,1.3,3.4,0.4c1.1-0.8,1.3-2.3,0.4-3.4l-4.9-6.4l13.9,0C497.8,415.7,502.2,408.1,498.8,402.3 M464.1,410.7l-16,0.1
			c-2.2,0-5.5-2.7-3.5-6.1l6.9-12.1l3.1,7.4c0.5,1.2,1.9,1.8,3.2,1.3c1.2-0.5,1.8-1.9,1.3-3.2l-5-11.9c-0.4-0.9-1.3-1.6-2.5-1.5
			l-12.8,1.7c-1.3,0.2-2.3,1.4-2.1,2.7c0.2,1.3,1.4,2.3,2.7,2.1l8-1.1l-6.9,12.1c-3.3,5.7,1,13.4,7.8,13.3l16-0.1
			c1.3,0,2.4-1.1,2.4-2.4C466.5,411.8,465.5,410.7,464.1,410.7 M469.9,380.4c-0.2,1.3,0.8,2.5,2.1,2.7l12.8,1.6
			c1,0.1,2.1-0.4,2.5-1.5l4.9-11.9c0.5-1.2-0.1-2.6-1.3-3.2c-1.2-0.5-2.6,0.1-3.2,1.3l-3.1,7.4l-7-12c-3.3-5.7-12.1-5.8-15.4,0.1
			l-7.9,13.9c-0.7,1.2-0.3,2.6,0.9,3.3c1.2,0.7,2.6,0.3,3.3-0.9l7.9-13.9c1.1-1.9,5.1-3.4,7,0l7,12l-8-1
			C471.3,378.2,470.1,379.1,469.9,380.4"/>
		<path class="st1" d="M634,402.3l-8-13.8c-0.7-1.2-2.2-1.5-3.3-0.9c-1.2,0.7-1.5,2.2-0.9,3.3l8,13.8c1.1,1.9,0.4,6.1-3.5,6.1
			l-13.9,0l4.9-6.4c0.8-1.1,0.6-2.6-0.5-3.4c-1.1-0.8-2.6-0.6-3.4,0.5l-7.8,10.3c-0.6,0.8-0.7,2,0,2.9l7.9,10.2
			c0.8,1.1,2.3,1.3,3.4,0.4c1.1-0.8,1.3-2.3,0.4-3.4l-4.9-6.4l13.9,0C632.9,415.7,637.4,408.1,634,402.3 M599.3,410.7l-16,0.1
			c-2.2,0-5.5-2.7-3.5-6.1l6.9-12.1l3.1,7.4c0.5,1.2,1.9,1.8,3.2,1.3c1.2-0.5,1.8-1.9,1.3-3.2l-5-11.9c-0.4-0.9-1.3-1.6-2.5-1.5
			l-12.8,1.7c-1.3,0.2-2.3,1.4-2.1,2.7c0.2,1.3,1.4,2.3,2.7,2.1l8-1.1l-6.9,12.1c-3.3,5.7,1,13.4,7.8,13.3l16-0.1
			c1.3,0,2.4-1.1,2.4-2.4C601.7,411.8,600.6,410.7,599.3,410.7 M605.1,380.4c-0.2,1.3,0.8,2.5,2.1,2.7l12.8,1.6
			c1,0.1,2.1-0.4,2.5-1.5l4.9-11.9c0.5-1.2-0.1-2.6-1.3-3.2c-1.2-0.5-2.6,0.1-3.2,1.3l-3.1,7.4l-7-12c-3.3-5.7-12.1-5.8-15.4,0.1
			l-7.9,13.9c-0.7,1.2-0.3,2.6,0.9,3.3c1.2,0.7,2.6,0.3,3.3-0.9l7.9-13.9c1.1-1.9,5.1-3.4,7,0l7,12l-8-1
			C606.5,378.2,605.3,379.1,605.1,380.4"/>
		<path class="st1" d="M769.2,402.3l-8-13.8c-0.7-1.2-2.2-1.5-3.3-0.9c-1.2,0.7-1.5,2.2-0.9,3.3l8,13.8c1.1,1.9,0.4,6.1-3.5,6.1
			l-13.9,0l4.9-6.4c0.8-1.1,0.6-2.6-0.5-3.4c-1.1-0.8-2.6-0.6-3.4,0.5l-7.8,10.3c-0.6,0.8-0.7,2,0,2.9l7.9,10.2
			c0.8,1.1,2.3,1.3,3.4,0.4c1.1-0.8,1.3-2.3,0.4-3.4l-4.9-6.4l13.9,0C768.1,415.7,772.6,408.1,769.2,402.3 M734.5,410.7l-16,0.1
			c-2.2,0-5.5-2.7-3.5-6.1l6.9-12.1l3.1,7.4c0.5,1.2,1.9,1.8,3.2,1.3c1.2-0.5,1.8-1.9,1.3-3.2l-5-11.9c-0.4-0.9-1.3-1.6-2.5-1.5
			l-12.8,1.7c-1.3,0.2-2.3,1.4-2.1,2.7c0.2,1.3,1.4,2.3,2.7,2.1l8-1.1l-6.9,12.1c-3.3,5.7,1,13.4,7.8,13.3l16-0.1
			c1.3,0,2.4-1.1,2.4-2.4C736.9,411.8,735.8,410.7,734.5,410.7 M740.3,380.4c-0.2,1.3,0.8,2.5,2.1,2.7l12.8,1.6
			c1,0.1,2.1-0.4,2.5-1.5l4.9-11.9c0.5-1.2-0.1-2.6-1.3-3.2c-1.2-0.5-2.6,0.1-3.2,1.3l-3.1,7.4l-7-12c-3.3-5.7-12.1-5.8-15.4,0.1
			l-7.9,13.9c-0.7,1.2-0.3,2.6,0.9,3.3c1.2,0.7,2.6,0.3,3.3-0.9l7.9-13.9c1.1-1.9,5.1-3.4,7,0l7,12l-8-1
			C741.6,378.2,740.4,379.1,740.3,380.4"/>
		<path class="st1" d="M904.3,402.3l-8-13.8c-0.7-1.2-2.2-1.5-3.3-0.9c-1.2,0.7-1.5,2.2-0.9,3.3l8,13.8c1.1,1.9,0.4,6.1-3.5,6.1
			l-13.9,0l4.9-6.4c0.8-1.1,0.6-2.6-0.5-3.4c-1.1-0.8-2.6-0.6-3.4,0.5l-7.8,10.3c-0.6,0.8-0.7,2,0,2.9l7.9,10.2
			c0.8,1.1,2.3,1.3,3.4,0.4c1.1-0.8,1.3-2.3,0.4-3.4l-4.9-6.4l13.9,0C903.3,415.7,907.8,408.1,904.3,402.3 M869.6,410.7l-16,0.1
			c-2.2,0-5.5-2.7-3.5-6.1l6.9-12.1l3.1,7.4c0.5,1.2,1.9,1.8,3.2,1.3c1.2-0.5,1.8-1.9,1.3-3.2l-5-11.9c-0.4-0.9-1.3-1.6-2.5-1.5
			l-12.8,1.7c-1.3,0.2-2.3,1.4-2.1,2.7c0.2,1.3,1.4,2.3,2.7,2.1l8-1.1l-6.9,12.1c-3.3,5.7,1,13.4,7.8,13.3l16-0.1
			c1.3,0,2.4-1.1,2.4-2.4C872.1,411.8,871,410.7,869.6,410.7 M875.4,380.4c-0.2,1.3,0.8,2.5,2.1,2.7l12.8,1.6c1,0.1,2.1-0.4,2.5-1.5
			l4.9-11.9c0.5-1.2-0.1-2.6-1.3-3.2c-1.2-0.5-2.6,0.1-3.2,1.3l-3.1,7.4l-7-12c-3.3-5.7-12.1-5.8-15.4,0.1l-7.9,13.9
			c-0.7,1.2-0.3,2.6,0.9,3.3c1.2,0.7,2.6,0.3,3.3-0.9l7.9-13.9c1.1-1.9,5.1-3.4,7,0l7,12l-8-1C876.8,378.2,875.6,379.1,875.4,380.4"
			/>
		<path class="st1" d="M1039.5,402.3l-8-13.8c-0.7-1.2-2.2-1.5-3.3-0.9c-1.2,0.7-1.5,2.2-0.9,3.3l8,13.8c1.1,1.9,0.4,6.1-3.5,6.1
			l-13.9,0l4.9-6.4c0.8-1.1,0.6-2.6-0.5-3.4c-1.1-0.8-2.6-0.6-3.4,0.5l-7.8,10.3c-0.6,0.8-0.7,2,0,2.9l7.9,10.2
			c0.8,1.1,2.3,1.3,3.4,0.4c1.1-0.8,1.3-2.3,0.4-3.4l-4.9-6.4l13.9,0C1038.5,415.7,1042.9,408.1,1039.5,402.3 M1004.8,410.7l-16,0.1
			c-2.2,0-5.5-2.7-3.5-6.1l6.9-12.1l3.1,7.4c0.5,1.2,1.9,1.8,3.2,1.3c1.2-0.5,1.8-1.9,1.3-3.2l-5-11.9c-0.4-0.9-1.3-1.6-2.5-1.5
			l-12.8,1.7c-1.3,0.2-2.3,1.4-2.1,2.7c0.2,1.3,1.4,2.3,2.7,2.1l8-1.1l-6.9,12.1c-3.3,5.7,1,13.4,7.8,13.3l16-0.1
			c1.3,0,2.4-1.1,2.4-2.4C1007.2,411.8,1006.1,410.7,1004.8,410.7 M1010.6,380.4c-0.2,1.3,0.8,2.5,2.1,2.7l12.8,1.6
			c1,0.1,2.1-0.4,2.5-1.5l4.9-11.9c0.5-1.2-0.1-2.6-1.3-3.2c-1.2-0.5-2.6,0.1-3.2,1.3l-3.1,7.4l-7-12c-3.3-5.7-12.1-5.8-15.4,0.1
			l-7.9,13.9c-0.7,1.2-0.3,2.6,0.9,3.3c1.2,0.7,2.6,0.3,3.3-0.9l7.9-13.9c1.1-1.9,5.1-3.4,7,0l7,12l-8-1
			C1012,378.2,1010.8,379.1,1010.6,380.4"/>
	</g>
	<g>
		<path class="st1" d="M-41.9,576.8l-8-13.8c-0.7-1.2-2.2-1.5-3.3-0.9c-1.2,0.7-1.5,2.2-0.9,3.3l8,13.8c1.1,1.9,0.4,6.1-3.5,6.1
			l-13.9,0l4.9-6.4c0.8-1.1,0.6-2.6-0.5-3.4c-1.1-0.8-2.6-0.6-3.4,0.5l-7.8,10.3c-0.6,0.8-0.7,2,0,2.9l7.9,10.2
			c0.8,1.1,2.3,1.3,3.4,0.4c1.1-0.8,1.3-2.3,0.4-3.4l-4.9-6.4l13.9,0C-42.9,590.2-38.5,582.7-41.9,576.8 M-76.6,585.2l-16,0.1
			c-2.2,0-5.5-2.7-3.5-6.1l6.9-12.1l3.1,7.4c0.5,1.2,1.9,1.8,3.2,1.3c1.2-0.5,1.8-1.9,1.3-3.2l-5-11.9c-0.4-0.9-1.3-1.6-2.5-1.5
			l-12.8,1.7c-1.3,0.2-2.3,1.4-2.1,2.7c0.2,1.3,1.4,2.3,2.7,2.1l8-1.1l-6.9,12.1c-3.3,5.7,1,13.4,7.8,13.3l16-0.1
			c1.3,0,2.4-1.1,2.4-2.4C-74.1,586.3-75.2,585.2-76.6,585.2 M-70.8,554.9c-0.2,1.3,0.8,2.5,2.1,2.7l12.8,1.6c1,0.1,2.1-0.4,2.5-1.5
			l4.9-11.9c0.5-1.2-0.1-2.6-1.3-3.2c-1.2-0.5-2.6,0.1-3.2,1.3l-3.1,7.4l-7-12c-3.3-5.7-12.1-5.8-15.4,0.1l-7.9,13.9
			c-0.7,1.2-0.3,2.6,0.9,3.3c1.2,0.7,2.6,0.3,3.3-0.9l7.9-13.9c1.1-1.9,5.1-3.4,7,0l7,12l-8-1C-69.4,552.7-70.6,553.6-70.8,554.9"/>
		<path class="st1" d="M93.3,576.8l-8-13.8c-0.7-1.2-2.2-1.5-3.3-0.9c-1.2,0.7-1.5,2.2-0.9,3.3l8,13.8c1.1,1.9,0.4,6.1-3.5,6.1
			l-13.9,0l4.9-6.4c0.8-1.1,0.6-2.6-0.5-3.4c-1.1-0.8-2.6-0.6-3.4,0.5l-7.8,10.3c-0.6,0.8-0.7,2,0,2.9l7.9,10.2
			c0.8,1.1,2.3,1.3,3.4,0.4c1.1-0.8,1.3-2.3,0.4-3.4l-4.9-6.4l13.9,0C92.3,590.2,96.7,582.7,93.3,576.8 M58.6,585.2l-16,0.1
			c-2.2,0-5.5-2.7-3.5-6.1l6.9-12.1l3.1,7.4c0.5,1.2,1.9,1.8,3.2,1.3c1.2-0.5,1.8-1.9,1.3-3.2l-5-11.9c-0.4-0.9-1.3-1.6-2.5-1.5
			l-12.8,1.7c-1.3,0.2-2.3,1.4-2.1,2.7c0.2,1.3,1.4,2.3,2.7,2.1l8-1.1l-6.9,12.1c-3.3,5.7,1,13.4,7.8,13.3l16-0.1
			c1.3,0,2.4-1.1,2.4-2.4C61,586.3,59.9,585.2,58.6,585.2 M64.4,554.9c-0.2,1.3,0.8,2.5,2.1,2.7l12.8,1.6c1,0.1,2.1-0.4,2.5-1.5
			l4.9-11.9c0.5-1.2-0.1-2.6-1.3-3.2c-1.2-0.5-2.6,0.1-3.2,1.3l-3.1,7.4l-7-12c-3.3-5.7-12.1-5.8-15.4,0.1l-7.9,13.9
			c-0.7,1.2-0.3,2.6,0.9,3.3c1.2,0.7,2.6,0.3,3.3-0.9l7.9-13.9c1.1-1.9,5.1-3.4,7,0l7,12l-8-1C65.8,552.7,64.6,553.6,64.4,554.9"/>
		<path class="st1" d="M228.5,576.8l-8-13.8c-0.7-1.2-2.2-1.5-3.3-0.9c-1.2,0.7-1.5,2.2-0.9,3.3l8,13.8c1.1,1.9,0.4,6.1-3.5,6.1
			l-13.9,0l4.9-6.4c0.8-1.1,0.6-2.6-0.5-3.4c-1.1-0.8-2.6-0.6-3.4,0.5l-7.8,10.3c-0.6,0.8-0.7,2,0,2.9l7.9,10.2
			c0.8,1.1,2.3,1.3,3.4,0.4c1.1-0.8,1.3-2.3,0.4-3.4l-4.9-6.4l13.9,0C227.4,590.2,231.9,582.7,228.5,576.8 M193.8,585.2l-16,0.1
			c-2.2,0-5.5-2.7-3.5-6.1l6.9-12.1l3.1,7.4c0.5,1.2,1.9,1.8,3.2,1.3c1.2-0.5,1.8-1.9,1.3-3.2l-5-11.9c-0.4-0.9-1.3-1.6-2.5-1.5
			l-12.8,1.7c-1.3,0.2-2.3,1.4-2.1,2.7c0.2,1.3,1.4,2.3,2.7,2.1l8-1.1l-6.9,12.1c-3.3,5.7,1,13.4,7.8,13.3l16-0.1
			c1.3,0,2.4-1.1,2.4-2.4C196.2,586.3,195.1,585.2,193.8,585.2 M199.6,554.9c-0.2,1.3,0.8,2.5,2.1,2.7l12.8,1.6
			c1,0.1,2.1-0.4,2.5-1.5l4.9-11.9c0.5-1.2-0.1-2.6-1.3-3.2c-1.2-0.5-2.6,0.1-3.2,1.3l-3.1,7.4l-7-12c-3.3-5.7-12.1-5.8-15.4,0.1
			l-7.9,13.9c-0.7,1.2-0.3,2.6,0.9,3.3c1.2,0.7,2.6,0.3,3.3-0.9l7.9-13.9c1.1-1.9,5.1-3.4,7,0l7,12l-8-1
			C201,552.7,199.7,553.6,199.6,554.9"/>
		<path class="st1" d="M363.7,576.8l-8-13.8c-0.7-1.2-2.2-1.5-3.3-0.9c-1.2,0.7-1.5,2.2-0.9,3.3l8,13.8c1.1,1.9,0.4,6.1-3.5,6.1
			l-13.9,0l4.9-6.4c0.8-1.1,0.6-2.6-0.5-3.4c-1.1-0.8-2.6-0.6-3.4,0.5l-7.8,10.3c-0.6,0.8-0.7,2,0,2.9l7.9,10.2
			c0.8,1.1,2.3,1.3,3.4,0.4c1.1-0.8,1.3-2.3,0.4-3.4l-4.9-6.4l13.9,0C362.6,590.2,367.1,582.7,363.7,576.8 M328.9,585.2l-16,0.1
			c-2.2,0-5.5-2.7-3.5-6.1l6.9-12.1l3.1,7.4c0.5,1.2,1.9,1.8,3.2,1.3c1.2-0.5,1.8-1.9,1.3-3.2l-5-11.9c-0.4-0.9-1.3-1.6-2.5-1.5
			l-12.8,1.7c-1.3,0.2-2.3,1.4-2.1,2.7c0.2,1.3,1.4,2.3,2.7,2.1l8-1.1l-6.9,12.1c-3.3,5.7,1,13.4,7.8,13.3l16-0.1
			c1.3,0,2.4-1.1,2.4-2.4C331.4,586.3,330.3,585.2,328.9,585.2 M334.7,554.9c-0.2,1.3,0.8,2.5,2.1,2.7l12.8,1.6
			c1,0.1,2.1-0.4,2.5-1.5l4.9-11.9c0.5-1.2-0.1-2.6-1.3-3.2c-1.2-0.5-2.6,0.1-3.2,1.3l-3.1,7.4l-7-12c-3.3-5.7-12.1-5.8-15.4,0.1
			l-7.9,13.9c-0.7,1.2-0.3,2.6,0.9,3.3c1.2,0.7,2.6,0.3,3.3-0.9l7.9-13.9c1.1-1.9,5.1-3.4,7,0l7,12l-8-1
			C336.1,552.7,334.9,553.6,334.7,554.9"/>
		<path class="st1" d="M498.8,576.8l-8-13.8c-0.7-1.2-2.2-1.5-3.3-0.9c-1.2,0.7-1.5,2.2-0.9,3.3l8,13.8c1.1,1.9,0.4,6.1-3.5,6.1
			l-13.9,0l4.9-6.4c0.8-1.1,0.6-2.6-0.5-3.4c-1.1-0.8-2.6-0.6-3.4,0.5l-7.8,10.3c-0.6,0.8-0.7,2,0,2.9l7.9,10.2
			c0.8,1.1,2.3,1.3,3.4,0.4c1.1-0.8,1.3-2.3,0.4-3.4l-4.9-6.4l13.9,0C497.8,590.2,502.2,582.7,498.8,576.8 M464.1,585.2l-16,0.1
			c-2.2,0-5.5-2.7-3.5-6.1l6.9-12.1l3.1,7.4c0.5,1.2,1.9,1.8,3.2,1.3c1.2-0.5,1.8-1.9,1.3-3.2l-5-11.9c-0.4-0.9-1.3-1.6-2.5-1.5
			l-12.8,1.7c-1.3,0.2-2.3,1.4-2.1,2.7c0.2,1.3,1.4,2.3,2.7,2.1l8-1.1l-6.9,12.1c-3.3,5.7,1,13.4,7.8,13.3l16-0.1
			c1.3,0,2.4-1.1,2.4-2.4C466.5,586.3,465.5,585.2,464.1,585.2 M469.9,554.9c-0.2,1.3,0.8,2.5,2.1,2.7l12.8,1.6
			c1,0.1,2.1-0.4,2.5-1.5l4.9-11.9c0.5-1.2-0.1-2.6-1.3-3.2c-1.2-0.5-2.6,0.1-3.2,1.3l-3.1,7.4l-7-12c-3.3-5.7-12.1-5.8-15.4,0.1
			l-7.9,13.9c-0.7,1.2-0.3,2.6,0.9,3.3c1.2,0.7,2.6,0.3,3.3-0.9l7.9-13.9c1.1-1.9,5.1-3.4,7,0l7,12l-8-1
			C471.3,552.7,470.1,553.6,469.9,554.9"/>
		<path class="st1" d="M634,576.8l-8-13.8c-0.7-1.2-2.2-1.5-3.3-0.9c-1.2,0.7-1.5,2.2-0.9,3.3l8,13.8c1.1,1.9,0.4,6.1-3.5,6.1
			l-13.9,0l4.9-6.4c0.8-1.1,0.6-2.6-0.5-3.4c-1.1-0.8-2.6-0.6-3.4,0.5l-7.8,10.3c-0.6,0.8-0.7,2,0,2.9l7.9,10.2
			c0.8,1.1,2.3,1.3,3.4,0.4c1.1-0.8,1.3-2.3,0.4-3.4l-4.9-6.4l13.9,0C632.9,590.2,637.4,582.7,634,576.8 M599.3,585.2l-16,0.1
			c-2.2,0-5.5-2.7-3.5-6.1l6.9-12.1l3.1,7.4c0.5,1.2,1.9,1.8,3.2,1.3c1.2-0.5,1.8-1.9,1.3-3.2l-5-11.9c-0.4-0.9-1.3-1.6-2.5-1.5
			l-12.8,1.7c-1.3,0.2-2.3,1.4-2.1,2.7c0.2,1.3,1.4,2.3,2.7,2.1l8-1.1l-6.9,12.1c-3.3,5.7,1,13.4,7.8,13.3l16-0.1
			c1.3,0,2.4-1.1,2.4-2.4C601.7,586.3,600.6,585.2,599.3,585.2 M605.1,554.9c-0.2,1.3,0.8,2.5,2.1,2.7l12.8,1.6
			c1,0.1,2.1-0.4,2.5-1.5l4.9-11.9c0.5-1.2-0.1-2.6-1.3-3.2c-1.2-0.5-2.6,0.1-3.2,1.3l-3.1,7.4l-7-12c-3.3-5.7-12.1-5.8-15.4,0.1
			l-7.9,13.9c-0.7,1.2-0.3,2.6,0.9,3.3c1.2,0.7,2.6,0.3,3.3-0.9l7.9-13.9c1.1-1.9,5.1-3.4,7,0l7,12l-8-1
			C606.5,552.7,605.3,553.6,605.1,554.9"/>
		<path class="st1" d="M769.2,576.8l-8-13.8c-0.7-1.2-2.2-1.5-3.3-0.9c-1.2,0.7-1.5,2.2-0.9,3.3l8,13.8c1.1,1.9,0.4,6.1-3.5,6.1
			l-13.9,0l4.9-6.4c0.8-1.1,0.6-2.6-0.5-3.4c-1.1-0.8-2.6-0.6-3.4,0.5l-7.8,10.3c-0.6,0.8-0.7,2,0,2.9l7.9,10.2
			c0.8,1.1,2.3,1.3,3.4,0.4c1.1-0.8,1.3-2.3,0.4-3.4l-4.9-6.4l13.9,0C768.1,590.2,772.6,582.7,769.2,576.8 M734.5,585.2l-16,0.1
			c-2.2,0-5.5-2.7-3.5-6.1l6.9-12.1l3.1,7.4c0.5,1.2,1.9,1.8,3.2,1.3c1.2-0.5,1.8-1.9,1.3-3.2l-5-11.9c-0.4-0.9-1.3-1.6-2.5-1.5
			l-12.8,1.7c-1.3,0.2-2.3,1.4-2.1,2.7c0.2,1.3,1.4,2.3,2.7,2.1l8-1.1l-6.9,12.1c-3.3,5.7,1,13.4,7.8,13.3l16-0.1
			c1.3,0,2.4-1.1,2.4-2.4C736.9,586.3,735.8,585.2,734.5,585.2 M740.3,554.9c-0.2,1.3,0.8,2.5,2.1,2.7l12.8,1.6
			c1,0.1,2.1-0.4,2.5-1.5l4.9-11.9c0.5-1.2-0.1-2.6-1.3-3.2c-1.2-0.5-2.6,0.1-3.2,1.3l-3.1,7.4l-7-12c-3.3-5.7-12.1-5.8-15.4,0.1
			l-7.9,13.9c-0.7,1.2-0.3,2.6,0.9,3.3c1.2,0.7,2.6,0.3,3.3-0.9l7.9-13.9c1.1-1.9,5.1-3.4,7,0l7,12l-8-1
			C741.6,552.7,740.4,553.6,740.3,554.9"/>
		<path class="st1" d="M904.3,576.8l-8-13.8c-0.7-1.2-2.2-1.5-3.3-0.9c-1.2,0.7-1.5,2.2-0.9,3.3l8,13.8c1.1,1.9,0.4,6.1-3.5,6.1
			l-13.9,0l4.9-6.4c0.8-1.1,0.6-2.6-0.5-3.4c-1.1-0.8-2.6-0.6-3.4,0.5l-7.8,10.3c-0.6,0.8-0.7,2,0,2.9l7.9,10.2
			c0.8,1.1,2.3,1.3,3.4,0.4c1.1-0.8,1.3-2.3,0.4-3.4l-4.9-6.4l13.9,0C903.3,590.2,907.8,582.7,904.3,576.8 M869.6,585.2l-16,0.1
			c-2.2,0-5.5-2.7-3.5-6.1l6.9-12.1l3.1,7.4c0.5,1.2,1.9,1.8,3.2,1.3c1.2-0.5,1.8-1.9,1.3-3.2l-5-11.9c-0.4-0.9-1.3-1.6-2.5-1.5
			l-12.8,1.7c-1.3,0.2-2.3,1.4-2.1,2.7c0.2,1.3,1.4,2.3,2.7,2.1l8-1.1l-6.9,12.1c-3.3,5.7,1,13.4,7.8,13.3l16-0.1
			c1.3,0,2.4-1.1,2.4-2.4C872.1,586.3,871,585.2,869.6,585.2 M875.4,554.9c-0.2,1.3,0.8,2.5,2.1,2.7l12.8,1.6c1,0.1,2.1-0.4,2.5-1.5
			l4.9-11.9c0.5-1.2-0.1-2.6-1.3-3.2c-1.2-0.5-2.6,0.1-3.2,1.3l-3.1,7.4l-7-12c-3.3-5.7-12.1-5.8-15.4,0.1l-7.9,13.9
			c-0.7,1.2-0.3,2.6,0.9,3.3c1.2,0.7,2.6,0.3,3.3-0.9l7.9-13.9c1.1-1.9,5.1-3.4,7,0l7,12l-8-1C876.8,552.7,875.6,553.6,875.4,554.9"
			/>
		<path class="st1" d="M1039.5,576.8l-8-13.8c-0.7-1.2-2.2-1.5-3.3-0.9c-1.2,0.7-1.5,2.2-0.9,3.3l8,13.8c1.1,1.9,0.4,6.1-3.5,6.1
			l-13.9,0l4.9-6.4c0.8-1.1,0.6-2.6-0.5-3.4c-1.1-0.8-2.6-0.6-3.4,0.5l-7.8,10.3c-0.6,0.8-0.7,2,0,2.9l7.9,10.2
			c0.8,1.1,2.3,1.3,3.4,0.4c1.1-0.8,1.3-2.3,0.4-3.4l-4.9-6.4l13.9,0C1038.5,590.2,1042.9,582.7,1039.5,576.8 M1004.8,585.2l-16,0.1
			c-2.2,0-5.5-2.7-3.5-6.1l6.9-12.1l3.1,7.4c0.5,1.2,1.9,1.8,3.2,1.3c1.2-0.5,1.8-1.9,1.3-3.2l-5-11.9c-0.4-0.9-1.3-1.6-2.5-1.5
			l-12.8,1.7c-1.3,0.2-2.3,1.4-2.1,2.7c0.2,1.3,1.4,2.3,2.7,2.1l8-1.1l-6.9,12.1c-3.3,5.7,1,13.4,7.8,13.3l16-0.1
			c1.3,0,2.4-1.1,2.4-2.4C1007.2,586.3,1006.1,585.2,1004.8,585.2 M1010.6,554.9c-0.2,1.3,0.8,2.5,2.1,2.7l12.8,1.6
			c1,0.1,2.1-0.4,2.5-1.5l4.9-11.9c0.5-1.2-0.1-2.6-1.3-3.2c-1.2-0.5-2.6,0.1-3.2,1.3l-3.1,7.4l-7-12c-3.3-5.7-12.1-5.8-15.4,0.1
			l-7.9,13.9c-0.7,1.2-0.3,2.6,0.9,3.3c1.2,0.7,2.6,0.3,3.3-0.9l7.9-13.9c1.1-1.9,5.1-3.4,7,0l7,12l-8-1
			C1012,552.7,1010.8,553.6,1010.6,554.9"/>
	</g>
	<g>
		<path class="st1" d="M21.5,140.5l-8-13.8c-0.7-1.2-2.2-1.5-3.3-0.9c-1.2,0.7-1.5,2.2-0.9,3.3l8,13.8c1.1,1.9,0.4,6.1-3.5,6.1
			l-13.9,0l4.9-6.4c0.8-1.1,0.6-2.6-0.5-3.4c-1.1-0.8-2.6-0.6-3.4,0.5l-7.8,10.3c-0.6,0.8-0.7,2,0,2.9L1,163.3
			c0.8,1.1,2.3,1.3,3.4,0.4c1.1-0.8,1.3-2.3,0.4-3.4l-4.9-6.4l13.9,0C20.4,153.9,24.9,146.4,21.5,140.5 M-13.2,148.9l-16,0.1
			c-2.2,0-5.5-2.7-3.5-6.1l6.9-12.1l3.1,7.4c0.5,1.2,1.9,1.8,3.2,1.3c1.2-0.5,1.8-1.9,1.3-3.2l-5-11.9c-0.4-0.9-1.3-1.6-2.5-1.5
			l-12.8,1.7c-1.3,0.2-2.3,1.4-2.1,2.7c0.2,1.3,1.4,2.3,2.7,2.1l8-1.1l-6.9,12.1c-3.3,5.7,1,13.4,7.8,13.3l16-0.1
			c1.3,0,2.4-1.1,2.4-2.4C-10.8,150-11.9,148.9-13.2,148.9 M-7.4,118.6c-0.2,1.3,0.8,2.5,2.1,2.7L7.5,123c1,0.1,2.1-0.4,2.5-1.5
			l4.9-11.9c0.5-1.2-0.1-2.6-1.3-3.2c-1.2-0.5-2.6,0.1-3.2,1.3l-3.1,7.4l-7-12c-3.3-5.7-12.1-5.8-15.4,0.1l-7.9,13.9
			c-0.7,1.2-0.3,2.6,0.9,3.3c1.2,0.7,2.6,0.3,3.3-0.9l7.9-13.9c1.1-1.9,5.1-3.4,7,0l7,12l-8-1C-6,116.4-7.2,117.3-7.4,118.6"/>
		<path class="st1" d="M156.7,140.5l-8-13.8c-0.7-1.2-2.2-1.5-3.3-0.9c-1.2,0.7-1.5,2.2-0.9,3.3l8,13.8c1.1,1.9,0.4,6.1-3.5,6.1
			l-13.9,0l4.9-6.4c0.8-1.1,0.6-2.6-0.5-3.4c-1.1-0.8-2.6-0.6-3.4,0.5l-7.8,10.3c-0.6,0.8-0.7,2,0,2.9l7.9,10.2
			c0.8,1.1,2.3,1.3,3.4,0.4c1.1-0.8,1.3-2.3,0.4-3.4l-4.9-6.4l13.9,0C155.6,153.9,160.1,146.4,156.7,140.5 M122,148.9l-16,0.1
			c-2.2,0-5.5-2.7-3.5-6.1l6.9-12.1l3.1,7.4c0.5,1.2,1.9,1.8,3.2,1.3c1.2-0.5,1.8-1.9,1.3-3.2l-5-11.9c-0.4-0.9-1.3-1.6-2.5-1.5
			l-12.8,1.7c-1.3,0.2-2.3,1.4-2.1,2.7c0.2,1.3,1.4,2.3,2.7,2.1l8-1.1l-6.9,12.1c-3.3,5.7,1,13.4,7.8,13.3l16-0.1
			c1.3,0,2.4-1.1,2.4-2.4C124.4,150,123.3,148.9,122,148.9 M127.8,118.6c-0.2,1.3,0.8,2.5,2.1,2.7l12.8,1.6c1,0.1,2.1-0.4,2.5-1.5
			l4.9-11.9c0.5-1.2-0.1-2.6-1.3-3.2c-1.2-0.5-2.6,0.1-3.2,1.3l-3.1,7.4l-7-12c-3.3-5.7-12.1-5.8-15.4,0.1l-7.9,13.9
			c-0.7,1.2-0.3,2.6,0.9,3.3c1.2,0.7,2.6,0.3,3.3-0.9l7.9-13.9c1.1-1.9,5.1-3.4,7,0l7,12l-8-1C129.1,116.4,127.9,117.3,127.8,118.6"
			/>
		<path class="st1" d="M291.8,140.5l-8-13.8c-0.7-1.2-2.2-1.5-3.3-0.9c-1.2,0.7-1.5,2.2-0.9,3.3l8,13.8c1.1,1.9,0.4,6.1-3.5,6.1
			l-13.9,0l4.9-6.4c0.8-1.1,0.6-2.6-0.5-3.4c-1.1-0.8-2.6-0.6-3.4,0.5l-7.8,10.3c-0.6,0.8-0.7,2,0,2.9l7.9,10.2
			c0.8,1.1,2.3,1.3,3.4,0.4c1.1-0.8,1.3-2.3,0.4-3.4l-4.9-6.4l13.9,0C290.8,153.9,295.3,146.4,291.8,140.5 M257.1,148.9l-16,0.1
			c-2.2,0-5.5-2.7-3.5-6.1l6.9-12.1l3.1,7.4c0.5,1.2,1.9,1.8,3.2,1.3c1.2-0.5,1.8-1.9,1.3-3.2l-5-11.9c-0.4-0.9-1.3-1.6-2.5-1.5
			l-12.8,1.7c-1.3,0.2-2.3,1.4-2.1,2.7c0.2,1.3,1.4,2.3,2.7,2.1l8-1.1l-6.9,12.1c-3.3,5.7,1,13.4,7.8,13.3l16-0.1
			c1.3,0,2.4-1.1,2.4-2.4C259.6,150,258.5,148.9,257.1,148.9 M262.9,118.6c-0.2,1.3,0.8,2.5,2.1,2.7l12.8,1.6c1,0.1,2.1-0.4,2.5-1.5
			l4.9-11.9c0.5-1.2-0.1-2.6-1.3-3.2c-1.2-0.5-2.6,0.1-3.2,1.3l-3.1,7.4l-7-12c-3.3-5.7-12.1-5.8-15.4,0.1l-7.9,13.9
			c-0.7,1.2-0.3,2.6,0.9,3.3c1.2,0.7,2.6,0.3,3.3-0.9l7.9-13.9c1.1-1.9,5.1-3.4,7,0l7,12l-8-1C264.3,116.4,263.1,117.3,262.9,118.6"
			/>
		<path class="st1" d="M427,140.5l-8-13.8c-0.7-1.2-2.2-1.5-3.3-0.9c-1.2,0.7-1.5,2.2-0.9,3.3l8,13.8c1.1,1.9,0.4,6.1-3.5,6.1
			l-13.9,0l4.9-6.4c0.8-1.1,0.6-2.6-0.5-3.4c-1.1-0.8-2.6-0.6-3.4,0.5l-7.8,10.3c-0.6,0.8-0.7,2,0,2.9l7.9,10.2
			c0.8,1.1,2.3,1.3,3.4,0.4c1.1-0.8,1.3-2.3,0.4-3.4l-4.9-6.4l13.9,0C426,153.9,430.4,146.4,427,140.5 M392.3,148.9l-16,0.1
			c-2.2,0-5.5-2.7-3.5-6.1l6.9-12.1l3.1,7.4c0.5,1.2,1.9,1.8,3.2,1.3c1.2-0.5,1.8-1.9,1.3-3.2l-5-11.9c-0.4-0.9-1.3-1.6-2.5-1.5
			l-12.8,1.7c-1.3,0.2-2.3,1.4-2.1,2.7c0.2,1.3,1.4,2.3,2.7,2.1l8-1.1l-6.9,12.1c-3.3,5.7,1,13.4,7.8,13.3l16-0.1
			c1.3,0,2.4-1.1,2.4-2.4C394.7,150,393.6,148.9,392.3,148.9 M398.1,118.6c-0.2,1.3,0.8,2.5,2.1,2.7L413,123c1,0.1,2.1-0.4,2.5-1.5
			l4.9-11.9c0.5-1.2-0.1-2.6-1.3-3.2c-1.2-0.5-2.6,0.1-3.2,1.3l-3.1,7.4l-7-12c-3.3-5.7-12.1-5.8-15.4,0.1l-7.9,13.9
			c-0.7,1.2-0.3,2.6,0.9,3.3c1.2,0.7,2.6,0.3,3.3-0.9l7.9-13.9c1.1-1.9,5.1-3.4,7,0l7,12l-8-1C399.5,116.4,398.3,117.3,398.1,118.6"
			/>
		<path class="st1" d="M562.2,140.5l-8-13.8c-0.7-1.2-2.2-1.5-3.3-0.9c-1.2,0.7-1.5,2.2-0.9,3.3l8,13.8c1.1,1.9,0.4,6.1-3.5,6.1
			l-13.9,0l4.9-6.4c0.8-1.1,0.6-2.6-0.5-3.4c-1.1-0.8-2.6-0.6-3.4,0.5l-7.8,10.3c-0.6,0.8-0.7,2,0,2.9l7.9,10.2
			c0.8,1.1,2.3,1.3,3.4,0.4c1.1-0.8,1.3-2.3,0.4-3.4l-4.9-6.4l13.9,0C561.1,153.9,565.6,146.4,562.2,140.5 M527.5,148.9l-16,0.1
			c-2.2,0-5.5-2.7-3.5-6.1l6.9-12.1l3.1,7.4c0.5,1.2,1.9,1.8,3.2,1.3c1.2-0.5,1.8-1.9,1.3-3.2l-5-11.9c-0.4-0.9-1.3-1.6-2.5-1.5
			l-12.8,1.7c-1.3,0.2-2.3,1.4-2.1,2.7c0.2,1.3,1.4,2.3,2.7,2.1l8-1.1l-6.9,12.1c-3.3,5.7,1,13.4,7.8,13.3l16-0.1
			c1.3,0,2.4-1.1,2.4-2.4C529.9,150,528.8,148.9,527.5,148.9 M533.3,118.6c-0.2,1.3,0.8,2.5,2.1,2.7l12.8,1.6c1,0.1,2.1-0.4,2.5-1.5
			l4.9-11.9c0.5-1.2-0.1-2.6-1.3-3.2c-1.2-0.5-2.6,0.1-3.2,1.3l-3.1,7.4l-7-12c-3.3-5.7-12.1-5.8-15.4,0.1l-7.9,13.9
			c-0.7,1.2-0.3,2.6,0.9,3.3c1.2,0.7,2.6,0.3,3.3-0.9l7.9-13.9c1.1-1.9,5.1-3.4,7,0l7,12l-8-1C534.7,116.4,533.4,117.3,533.3,118.6"
			/>
		<path class="st1" d="M697.4,140.5l-8-13.8c-0.7-1.2-2.2-1.5-3.3-0.9c-1.2,0.7-1.5,2.2-0.9,3.3l8,13.8c1.1,1.9,0.4,6.1-3.5,6.1
			l-13.9,0l4.9-6.4c0.8-1.1,0.6-2.6-0.5-3.4c-1.1-0.8-2.6-0.6-3.4,0.5l-7.8,10.3c-0.6,0.8-0.7,2,0,2.9l7.9,10.2
			c0.8,1.1,2.3,1.3,3.4,0.4c1.1-0.8,1.3-2.3,0.4-3.4l-4.9-6.4l13.9,0C696.3,153.9,700.8,146.4,697.4,140.5 M662.7,148.9l-16,0.1
			c-2.2,0-5.5-2.7-3.5-6.1l6.9-12.1l3.1,7.4c0.5,1.2,1.9,1.8,3.2,1.3c1.2-0.5,1.8-1.9,1.3-3.2l-5-11.9c-0.4-0.9-1.3-1.6-2.5-1.5
			l-12.8,1.7c-1.3,0.2-2.3,1.4-2.1,2.7c0.2,1.3,1.4,2.3,2.7,2.1l8-1.1l-6.9,12.1c-3.3,5.7,1,13.4,7.8,13.3l16-0.1
			c1.3,0,2.4-1.1,2.4-2.4C665.1,150,664,148.9,662.7,148.9 M668.5,118.6c-0.2,1.3,0.8,2.5,2.1,2.7l12.8,1.6c1,0.1,2.1-0.4,2.5-1.5
			l4.9-11.9c0.5-1.2-0.1-2.6-1.3-3.2c-1.2-0.5-2.6,0.1-3.2,1.3l-3.1,7.4l-7-12c-3.3-5.7-12.1-5.8-15.4,0.1l-7.9,13.9
			c-0.7,1.2-0.3,2.6,0.9,3.3c1.2,0.7,2.6,0.3,3.3-0.9l7.9-13.9c1.1-1.9,5.1-3.4,7,0l7,12l-8-1C669.8,116.4,668.6,117.3,668.5,118.6"
			/>
		<path class="st1" d="M832.5,140.5l-8-13.8c-0.7-1.2-2.2-1.5-3.3-0.9c-1.2,0.7-1.5,2.2-0.9,3.3l8,13.8c1.1,1.9,0.4,6.1-3.5,6.1
			l-13.9,0l4.9-6.4c0.8-1.1,0.6-2.6-0.5-3.4c-1.1-0.8-2.6-0.6-3.4,0.5l-7.8,10.3c-0.6,0.8-0.7,2,0,2.9l7.9,10.2
			c0.8,1.1,2.3,1.3,3.4,0.4c1.1-0.8,1.3-2.3,0.4-3.4l-4.9-6.4l13.9,0C831.5,153.9,835.9,146.4,832.5,140.5 M797.8,148.9l-16,0.1
			c-2.2,0-5.5-2.7-3.5-6.1l6.9-12.1l3.1,7.4c0.5,1.2,1.9,1.8,3.2,1.3c1.2-0.5,1.8-1.9,1.3-3.2l-5-11.9c-0.4-0.9-1.3-1.6-2.5-1.5
			l-12.8,1.7c-1.3,0.2-2.3,1.4-2.1,2.7c0.2,1.3,1.4,2.3,2.7,2.1l8-1.1l-6.9,12.1c-3.3,5.7,1,13.4,7.8,13.3l16-0.1
			c1.3,0,2.4-1.1,2.4-2.4C800.3,150,799.2,148.9,797.8,148.9 M803.6,118.6c-0.2,1.3,0.8,2.5,2.1,2.7l12.8,1.6c1,0.1,2.1-0.4,2.5-1.5
			l4.9-11.9c0.5-1.2-0.1-2.6-1.3-3.2c-1.2-0.5-2.6,0.1-3.2,1.3l-3.1,7.4l-7-12c-3.3-5.7-12.1-5.8-15.4,0.1l-7.9,13.9
			c-0.7,1.2-0.3,2.6,0.9,3.3c1.2,0.7,2.6,0.3,3.3-0.9l7.9-13.9c1.1-1.9,5.1-3.4,7,0l7,12l-8-1C805,116.4,803.8,117.3,803.6,118.6"/>
		<path class="st1" d="M967.7,140.5l-8-13.8c-0.7-1.2-2.2-1.5-3.3-0.9c-1.2,0.7-1.5,2.2-0.9,3.3l8,13.8c1.1,1.9,0.4,6.1-3.5,6.1
			l-13.9,0l4.9-6.4c0.8-1.1,0.6-2.6-0.5-3.4c-1.1-0.8-2.6-0.6-3.4,0.5l-7.8,10.3c-0.6,0.8-0.7,2,0,2.9l7.9,10.2
			c0.8,1.1,2.3,1.3,3.4,0.4c1.1-0.8,1.3-2.3,0.4-3.4l-4.9-6.4l13.9,0C966.7,153.9,971.1,146.4,967.7,140.5 M933,148.9l-16,0.1
			c-2.2,0-5.5-2.7-3.5-6.1l6.9-12.1l3.1,7.4c0.5,1.2,1.9,1.8,3.2,1.3c1.2-0.5,1.8-1.9,1.3-3.2l-5-11.9c-0.4-0.9-1.3-1.6-2.5-1.5
			l-12.8,1.7c-1.3,0.2-2.3,1.4-2.1,2.7c0.2,1.3,1.4,2.3,2.7,2.1l8-1.1l-6.9,12.1c-3.3,5.7,1,13.4,7.8,13.3l16-0.1
			c1.3,0,2.4-1.1,2.4-2.4C935.4,150,934.3,148.9,933,148.9 M938.8,118.6c-0.2,1.3,0.8,2.5,2.1,2.7l12.8,1.6c1,0.1,2.1-0.4,2.5-1.5
			l4.9-11.9c0.5-1.2-0.1-2.6-1.3-3.2c-1.2-0.5-2.6,0.1-3.2,1.3l-3.1,7.4l-7-12c-3.3-5.7-12.1-5.8-15.4,0.1l-7.9,13.9
			c-0.7,1.2-0.3,2.6,0.9,3.3c1.2,0.7,2.6,0.3,3.3-0.9l7.9-13.9c1.1-1.9,5.1-3.4,7,0l7,12l-8-1C940.2,116.4,939,117.3,938.8,118.6"/>
		<path class="st1" d="M1102.9,140.5l-8-13.8c-0.7-1.2-2.2-1.5-3.3-0.9c-1.2,0.7-1.5,2.2-0.9,3.3l8,13.8c1.1,1.9,0.4,6.1-3.5,6.1
			l-13.9,0l4.9-6.4c0.8-1.1,0.6-2.6-0.5-3.4c-1.1-0.8-2.6-0.6-3.4,0.5l-7.8,10.3c-0.6,0.8-0.7,2,0,2.9l7.9,10.2
			c0.8,1.1,2.3,1.3,3.4,0.4c1.1-0.8,1.3-2.3,0.4-3.4l-4.9-6.4l13.9,0C1101.8,153.9,1106.3,146.4,1102.9,140.5 M1068.2,148.9l-16,0.1
			c-2.2,0-5.5-2.7-3.5-6.1l6.9-12.1l3.1,7.4c0.5,1.2,1.9,1.8,3.2,1.3c1.2-0.5,1.8-1.9,1.3-3.2l-5-11.9c-0.4-0.9-1.3-1.6-2.5-1.5
			l-12.8,1.7c-1.3,0.2-2.3,1.4-2.1,2.7c0.2,1.3,1.4,2.3,2.7,2.1l8-1.1l-6.9,12.1c-3.3,5.7,1,13.4,7.8,13.3l16-0.1
			c1.3,0,2.4-1.1,2.4-2.4C1070.6,150,1069.5,148.9,1068.2,148.9 M1074,118.6c-0.2,1.3,0.8,2.5,2.1,2.7l12.8,1.6
			c1,0.1,2.1-0.4,2.5-1.5l4.9-11.9c0.5-1.2-0.1-2.6-1.3-3.2c-1.2-0.5-2.6,0.1-3.2,1.3l-3.1,7.4l-7-12c-3.3-5.7-12.1-5.8-15.4,0.1
			l-7.9,13.9c-0.7,1.2-0.3,2.6,0.9,3.3c1.2,0.7,2.6,0.3,3.3-0.9l7.9-13.9c1.1-1.9,5.1-3.4,7,0l7,12l-8-1
			C1075.4,116.4,1074.1,117.3,1074,118.6"/>
	</g>
	<g>
		<path class="st1" d="M21.5,315l-8-13.8c-0.7-1.2-2.2-1.5-3.3-0.9c-1.2,0.7-1.5,2.2-0.9,3.3l8,13.8c1.1,1.9,0.4,6.1-3.5,6.1
			l-13.9,0l4.9-6.4c0.8-1.1,0.6-2.6-0.5-3.4c-1.1-0.8-2.6-0.6-3.4,0.5l-7.8,10.3c-0.6,0.8-0.7,2,0,2.9L1,337.8
			c0.8,1.1,2.3,1.3,3.4,0.4c1.1-0.8,1.3-2.3,0.4-3.4l-4.9-6.4l13.9,0C20.4,328.4,24.9,320.9,21.5,315 M-13.2,323.4l-16,0.1
			c-2.2,0-5.5-2.7-3.5-6.1l6.9-12.1l3.1,7.4c0.5,1.2,1.9,1.8,3.2,1.3c1.2-0.5,1.8-1.9,1.3-3.2l-5-11.9c-0.4-0.9-1.3-1.6-2.5-1.5
			l-12.8,1.7c-1.3,0.2-2.3,1.4-2.1,2.7c0.2,1.3,1.4,2.3,2.7,2.1l8-1.1l-6.9,12.1c-3.3,5.7,1,13.4,7.8,13.3l16-0.1
			c1.3,0,2.4-1.1,2.4-2.4C-10.8,324.5-11.9,323.4-13.2,323.4 M-7.4,293.2c-0.2,1.3,0.8,2.5,2.1,2.7l12.8,1.6c1,0.1,2.1-0.4,2.5-1.5
			l4.9-11.9c0.5-1.2-0.1-2.6-1.3-3.2c-1.2-0.5-2.6,0.1-3.2,1.3l-3.1,7.4l-7-12c-3.3-5.7-12.1-5.8-15.4,0.1l-7.9,13.9
			c-0.7,1.2-0.3,2.6,0.9,3.3c1.2,0.7,2.6,0.3,3.3-0.9l7.9-13.9c1.1-1.9,5.1-3.4,7,0l7,12l-8-1C-6,290.9-7.2,291.8-7.4,293.2"/>
		<path class="st1" d="M156.7,315l-8-13.8c-0.7-1.2-2.2-1.5-3.3-0.9c-1.2,0.7-1.5,2.2-0.9,3.3l8,13.8c1.1,1.9,0.4,6.1-3.5,6.1
			l-13.9,0l4.9-6.4c0.8-1.1,0.6-2.6-0.5-3.4c-1.1-0.8-2.6-0.6-3.4,0.5l-7.8,10.3c-0.6,0.8-0.7,2,0,2.9l7.9,10.2
			c0.8,1.1,2.3,1.3,3.4,0.4c1.1-0.8,1.3-2.3,0.4-3.4l-4.9-6.4l13.9,0C155.6,328.4,160.1,320.9,156.7,315 M122,323.4l-16,0.1
			c-2.2,0-5.5-2.7-3.5-6.1l6.9-12.1l3.1,7.4c0.5,1.2,1.9,1.8,3.2,1.3c1.2-0.5,1.8-1.9,1.3-3.2l-5-11.9c-0.4-0.9-1.3-1.6-2.5-1.5
			l-12.8,1.7c-1.3,0.2-2.3,1.4-2.1,2.7c0.2,1.3,1.4,2.3,2.7,2.1l8-1.1L98.3,315c-3.3,5.7,1,13.4,7.8,13.3l16-0.1
			c1.3,0,2.4-1.1,2.4-2.4C124.4,324.5,123.3,323.4,122,323.4 M127.8,293.2c-0.2,1.3,0.8,2.5,2.1,2.7l12.8,1.6c1,0.1,2.1-0.4,2.5-1.5
			l4.9-11.9c0.5-1.2-0.1-2.6-1.3-3.2c-1.2-0.5-2.6,0.1-3.2,1.3l-3.1,7.4l-7-12c-3.3-5.7-12.1-5.8-15.4,0.1l-7.9,13.9
			c-0.7,1.2-0.3,2.6,0.9,3.3c1.2,0.7,2.6,0.3,3.3-0.9l7.9-13.9c1.1-1.9,5.1-3.4,7,0l7,12l-8-1C129.1,290.9,127.9,291.8,127.8,293.2"
			/>
		<path class="st1" d="M291.8,315l-8-13.8c-0.7-1.2-2.2-1.5-3.3-0.9c-1.2,0.7-1.5,2.2-0.9,3.3l8,13.8c1.1,1.9,0.4,6.1-3.5,6.1
			l-13.9,0l4.9-6.4c0.8-1.1,0.6-2.6-0.5-3.4c-1.1-0.8-2.6-0.6-3.4,0.5l-7.8,10.3c-0.6,0.8-0.7,2,0,2.9l7.9,10.2
			c0.8,1.1,2.3,1.3,3.4,0.4c1.1-0.8,1.3-2.3,0.4-3.4l-4.9-6.4l13.9,0C290.8,328.4,295.3,320.9,291.8,315 M257.1,323.4l-16,0.1
			c-2.2,0-5.5-2.7-3.5-6.1l6.9-12.1l3.1,7.4c0.5,1.2,1.9,1.8,3.2,1.3c1.2-0.5,1.8-1.9,1.3-3.2l-5-11.9c-0.4-0.9-1.3-1.6-2.5-1.5
			l-12.8,1.7c-1.3,0.2-2.3,1.4-2.1,2.7c0.2,1.3,1.4,2.3,2.7,2.1l8-1.1l-6.9,12.1c-3.3,5.7,1,13.4,7.8,13.3l16-0.1
			c1.3,0,2.4-1.1,2.4-2.4C259.6,324.5,258.5,323.4,257.1,323.4 M262.9,293.2c-0.2,1.3,0.8,2.5,2.1,2.7l12.8,1.6
			c1,0.1,2.1-0.4,2.5-1.5l4.9-11.9c0.5-1.2-0.1-2.6-1.3-3.2c-1.2-0.5-2.6,0.1-3.2,1.3l-3.1,7.4l-7-12c-3.3-5.7-12.1-5.8-15.4,0.1
			l-7.9,13.9c-0.7,1.2-0.3,2.6,0.9,3.3c1.2,0.7,2.6,0.3,3.3-0.9l7.9-13.9c1.1-1.9,5.1-3.4,7,0l7,12l-8-1
			C264.3,290.9,263.1,291.8,262.9,293.2"/>
		<path class="st1" d="M427,315l-8-13.8c-0.7-1.2-2.2-1.5-3.3-0.9c-1.2,0.7-1.5,2.2-0.9,3.3l8,13.8c1.1,1.9,0.4,6.1-3.5,6.1l-13.9,0
			l4.9-6.4c0.8-1.1,0.6-2.6-0.5-3.4c-1.1-0.8-2.6-0.6-3.4,0.5l-7.8,10.3c-0.6,0.8-0.7,2,0,2.9l7.9,10.2c0.8,1.1,2.3,1.3,3.4,0.4
			c1.1-0.8,1.3-2.3,0.4-3.4l-4.9-6.4l13.9,0C426,328.4,430.4,320.9,427,315 M392.3,323.4l-16,0.1c-2.2,0-5.5-2.7-3.5-6.1l6.9-12.1
			l3.1,7.4c0.5,1.2,1.9,1.8,3.2,1.3c1.2-0.5,1.8-1.9,1.3-3.2l-5-11.9c-0.4-0.9-1.3-1.6-2.5-1.5l-12.8,1.7c-1.3,0.2-2.3,1.4-2.1,2.7
			c0.2,1.3,1.4,2.3,2.7,2.1l8-1.1l-6.9,12.1c-3.3,5.7,1,13.4,7.8,13.3l16-0.1c1.3,0,2.4-1.1,2.4-2.4
			C394.7,324.5,393.6,323.4,392.3,323.4 M398.1,293.2c-0.2,1.3,0.8,2.5,2.1,2.7l12.8,1.6c1,0.1,2.1-0.4,2.5-1.5l4.9-11.9
			c0.5-1.2-0.1-2.6-1.3-3.2c-1.2-0.5-2.6,0.1-3.2,1.3l-3.1,7.4l-7-12c-3.3-5.7-12.1-5.8-15.4,0.1l-7.9,13.9
			c-0.7,1.2-0.3,2.6,0.9,3.3c1.2,0.7,2.6,0.3,3.3-0.9l7.9-13.9c1.1-1.9,5.1-3.4,7,0l7,12l-8-1C399.5,290.9,398.3,291.8,398.1,293.2"
			/>
		<path class="st1" d="M562.2,315l-8-13.8c-0.7-1.2-2.2-1.5-3.3-0.9c-1.2,0.7-1.5,2.2-0.9,3.3l8,13.8c1.1,1.9,0.4,6.1-3.5,6.1
			l-13.9,0l4.9-6.4c0.8-1.1,0.6-2.6-0.5-3.4c-1.1-0.8-2.6-0.6-3.4,0.5l-7.8,10.3c-0.6,0.8-0.7,2,0,2.9l7.9,10.2
			c0.8,1.1,2.3,1.3,3.4,0.4c1.1-0.8,1.3-2.3,0.4-3.4l-4.9-6.4l13.9,0C561.1,328.4,565.6,320.9,562.2,315 M527.5,323.4l-16,0.1
			c-2.2,0-5.5-2.7-3.5-6.1l6.9-12.1l3.1,7.4c0.5,1.2,1.9,1.8,3.2,1.3c1.2-0.5,1.8-1.9,1.3-3.2l-5-11.9c-0.4-0.9-1.3-1.6-2.5-1.5
			l-12.8,1.7c-1.3,0.2-2.3,1.4-2.1,2.7c0.2,1.3,1.4,2.3,2.7,2.1l8-1.1l-6.9,12.1c-3.3,5.7,1,13.4,7.8,13.3l16-0.1
			c1.3,0,2.4-1.1,2.4-2.4C529.9,324.5,528.8,323.4,527.5,323.4 M533.3,293.2c-0.2,1.3,0.8,2.5,2.1,2.7l12.8,1.6
			c1,0.1,2.1-0.4,2.5-1.5l4.9-11.9c0.5-1.2-0.1-2.6-1.3-3.2c-1.2-0.5-2.6,0.1-3.2,1.3l-3.1,7.4l-7-12c-3.3-5.7-12.1-5.8-15.4,0.1
			l-7.9,13.9c-0.7,1.2-0.3,2.6,0.9,3.3c1.2,0.7,2.6,0.3,3.3-0.9l7.9-13.9c1.1-1.9,5.1-3.4,7,0l7,12l-8-1
			C534.7,290.9,533.4,291.8,533.3,293.2"/>
		<path class="st1" d="M697.4,315l-8-13.8c-0.7-1.2-2.2-1.5-3.3-0.9c-1.2,0.7-1.5,2.2-0.9,3.3l8,13.8c1.1,1.9,0.4,6.1-3.5,6.1
			l-13.9,0l4.9-6.4c0.8-1.1,0.6-2.6-0.5-3.4c-1.1-0.8-2.6-0.6-3.4,0.5l-7.8,10.3c-0.6,0.8-0.7,2,0,2.9l7.9,10.2
			c0.8,1.1,2.3,1.3,3.4,0.4c1.1-0.8,1.3-2.3,0.4-3.4l-4.9-6.4l13.9,0C696.3,328.4,700.8,320.9,697.4,315 M662.7,323.4l-16,0.1
			c-2.2,0-5.5-2.7-3.5-6.1l6.9-12.1l3.1,7.4c0.5,1.2,1.9,1.8,3.2,1.3c1.2-0.5,1.8-1.9,1.3-3.2l-5-11.9c-0.4-0.9-1.3-1.6-2.5-1.5
			l-12.8,1.7c-1.3,0.2-2.3,1.4-2.1,2.7c0.2,1.3,1.4,2.3,2.7,2.1l8-1.1l-6.9,12.1c-3.3,5.7,1,13.4,7.8,13.3l16-0.1
			c1.3,0,2.4-1.1,2.4-2.4C665.1,324.5,664,323.4,662.7,323.4 M668.5,293.2c-0.2,1.3,0.8,2.5,2.1,2.7l12.8,1.6c1,0.1,2.1-0.4,2.5-1.5
			l4.9-11.9c0.5-1.2-0.1-2.6-1.3-3.2c-1.2-0.5-2.6,0.1-3.2,1.3l-3.1,7.4l-7-12c-3.3-5.7-12.1-5.8-15.4,0.1l-7.9,13.9
			c-0.7,1.2-0.3,2.6,0.9,3.3c1.2,0.7,2.6,0.3,3.3-0.9l7.9-13.9c1.1-1.9,5.1-3.4,7,0l7,12l-8-1C669.8,290.9,668.6,291.8,668.5,293.2"
			/>
		<path class="st1" d="M832.5,315l-8-13.8c-0.7-1.2-2.2-1.5-3.3-0.9c-1.2,0.7-1.5,2.2-0.9,3.3l8,13.8c1.1,1.9,0.4,6.1-3.5,6.1
			l-13.9,0l4.9-6.4c0.8-1.1,0.6-2.6-0.5-3.4c-1.1-0.8-2.6-0.6-3.4,0.5l-7.8,10.3c-0.6,0.8-0.7,2,0,2.9l7.9,10.2
			c0.8,1.1,2.3,1.3,3.4,0.4c1.1-0.8,1.3-2.3,0.4-3.4l-4.9-6.4l13.9,0C831.5,328.4,835.9,320.9,832.5,315 M797.8,323.4l-16,0.1
			c-2.2,0-5.5-2.7-3.5-6.1l6.9-12.1l3.1,7.4c0.5,1.2,1.9,1.8,3.2,1.3c1.2-0.5,1.8-1.9,1.3-3.2l-5-11.9c-0.4-0.9-1.3-1.6-2.5-1.5
			l-12.8,1.7c-1.3,0.2-2.3,1.4-2.1,2.7c0.2,1.3,1.4,2.3,2.7,2.1l8-1.1l-6.9,12.1c-3.3,5.7,1,13.4,7.8,13.3l16-0.1
			c1.3,0,2.4-1.1,2.4-2.4C800.3,324.5,799.2,323.4,797.8,323.4 M803.6,293.2c-0.2,1.3,0.8,2.5,2.1,2.7l12.8,1.6
			c1,0.1,2.1-0.4,2.5-1.5l4.9-11.9c0.5-1.2-0.1-2.6-1.3-3.2c-1.2-0.5-2.6,0.1-3.2,1.3l-3.1,7.4l-7-12c-3.3-5.7-12.1-5.8-15.4,0.1
			l-7.9,13.9c-0.7,1.2-0.3,2.6,0.9,3.3c1.2,0.7,2.6,0.3,3.3-0.9l7.9-13.9c1.1-1.9,5.1-3.4,7,0l7,12l-8-1
			C805,290.9,803.8,291.8,803.6,293.2"/>
		<path class="st1" d="M967.7,315l-8-13.8c-0.7-1.2-2.2-1.5-3.3-0.9c-1.2,0.7-1.5,2.2-0.9,3.3l8,13.8c1.1,1.9,0.4,6.1-3.5,6.1
			l-13.9,0l4.9-6.4c0.8-1.1,0.6-2.6-0.5-3.4c-1.1-0.8-2.6-0.6-3.4,0.5l-7.8,10.3c-0.6,0.8-0.7,2,0,2.9l7.9,10.2
			c0.8,1.1,2.3,1.3,3.4,0.4c1.1-0.8,1.3-2.3,0.4-3.4l-4.9-6.4l13.9,0C966.7,328.4,971.1,320.9,967.7,315 M933,323.4l-16,0.1
			c-2.2,0-5.5-2.7-3.5-6.1l6.9-12.1l3.1,7.4c0.5,1.2,1.9,1.8,3.2,1.3c1.2-0.5,1.8-1.9,1.3-3.2l-5-11.9c-0.4-0.9-1.3-1.6-2.5-1.5
			l-12.8,1.7c-1.3,0.2-2.3,1.4-2.1,2.7c0.2,1.3,1.4,2.3,2.7,2.1l8-1.1l-6.9,12.1c-3.3,5.7,1,13.4,7.8,13.3l16-0.1
			c1.3,0,2.4-1.1,2.4-2.4C935.4,324.5,934.3,323.4,933,323.4 M938.8,293.2c-0.2,1.3,0.8,2.5,2.1,2.7l12.8,1.6c1,0.1,2.1-0.4,2.5-1.5
			l4.9-11.9c0.5-1.2-0.1-2.6-1.3-3.2c-1.2-0.5-2.6,0.1-3.2,1.3l-3.1,7.4l-7-12c-3.3-5.7-12.1-5.8-15.4,0.1l-7.9,13.9
			c-0.7,1.2-0.3,2.6,0.9,3.3c1.2,0.7,2.6,0.3,3.3-0.9l7.9-13.9c1.1-1.9,5.1-3.4,7,0l7,12l-8-1C940.2,290.9,939,291.8,938.8,293.2"/>
		<path class="st1" d="M1102.9,315l-8-13.8c-0.7-1.2-2.2-1.5-3.3-0.9c-1.2,0.7-1.5,2.2-0.9,3.3l8,13.8c1.1,1.9,0.4,6.1-3.5,6.1
			l-13.9,0l4.9-6.4c0.8-1.1,0.6-2.6-0.5-3.4c-1.1-0.8-2.6-0.6-3.4,0.5l-7.8,10.3c-0.6,0.8-0.7,2,0,2.9l7.9,10.2
			c0.8,1.1,2.3,1.3,3.4,0.4c1.1-0.8,1.3-2.3,0.4-3.4l-4.9-6.4l13.9,0C1101.8,328.4,1106.3,320.9,1102.9,315 M1068.2,323.4l-16,0.1
			c-2.2,0-5.5-2.7-3.5-6.1l6.9-12.1l3.1,7.4c0.5,1.2,1.9,1.8,3.2,1.3c1.2-0.5,1.8-1.9,1.3-3.2l-5-11.9c-0.4-0.9-1.3-1.6-2.5-1.5
			l-12.8,1.7c-1.3,0.2-2.3,1.4-2.1,2.7c0.2,1.3,1.4,2.3,2.7,2.1l8-1.1l-6.9,12.1c-3.3,5.7,1,13.4,7.8,13.3l16-0.1
			c1.3,0,2.4-1.1,2.4-2.4C1070.6,324.5,1069.5,323.4,1068.2,323.4 M1074,293.2c-0.2,1.3,0.8,2.5,2.1,2.7l12.8,1.6
			c1,0.1,2.1-0.4,2.5-1.5l4.9-11.9c0.5-1.2-0.1-2.6-1.3-3.2c-1.2-0.5-2.6,0.1-3.2,1.3l-3.1,7.4l-7-12c-3.3-5.7-12.1-5.8-15.4,0.1
			l-7.9,13.9c-0.7,1.2-0.3,2.6,0.9,3.3c1.2,0.7,2.6,0.3,3.3-0.9l7.9-13.9c1.1-1.9,5.1-3.4,7,0l7,12l-8-1
			C1075.4,290.9,1074.1,291.8,1074,293.2"/>
	</g>
	<g>
		<path class="st1" d="M21.5,489.6l-8-13.8c-0.7-1.2-2.2-1.5-3.3-0.9c-1.2,0.7-1.5,2.2-0.9,3.3l8,13.8c1.1,1.9,0.4,6.1-3.5,6.1
			l-13.9,0l4.9-6.4c0.8-1.1,0.6-2.6-0.5-3.4c-1.1-0.8-2.6-0.6-3.4,0.5l-7.8,10.3c-0.6,0.8-0.7,2,0,2.9L1,512.3
			c0.8,1.1,2.3,1.3,3.4,0.4c1.1-0.8,1.3-2.3,0.4-3.4l-4.9-6.4l13.9,0C20.4,502.9,24.9,495.4,21.5,489.6 M-13.2,498l-16,0.1
			c-2.2,0-5.5-2.7-3.5-6.1l6.9-12.1l3.1,7.4c0.5,1.2,1.9,1.8,3.2,1.3c1.2-0.5,1.8-1.9,1.3-3.2l-5-11.9c-0.4-0.9-1.3-1.6-2.5-1.5
			l-12.8,1.7c-1.3,0.2-2.3,1.4-2.1,2.7c0.2,1.3,1.4,2.3,2.7,2.1l8-1.1l-6.9,12.1c-3.3,5.7,1,13.4,7.8,13.3l16-0.1
			c1.3,0,2.4-1.1,2.4-2.4C-10.8,499-11.9,497.9-13.2,498 M-7.4,467.7c-0.2,1.3,0.8,2.5,2.1,2.7L7.5,472c1,0.1,2.1-0.4,2.5-1.5
			l4.9-11.9c0.5-1.2-0.1-2.6-1.3-3.2c-1.2-0.5-2.6,0.1-3.2,1.3l-3.1,7.4l-7-12c-3.3-5.7-12.1-5.8-15.4,0.1l-7.9,13.9
			c-0.7,1.2-0.3,2.6,0.9,3.3c1.2,0.7,2.6,0.3,3.3-0.9l7.9-13.9c1.1-1.9,5.1-3.4,7,0l7,12l-8-1C-6,465.4-7.2,466.4-7.4,467.7"/>
		<path class="st1" d="M156.7,489.6l-8-13.8c-0.7-1.2-2.2-1.5-3.3-0.9c-1.2,0.7-1.5,2.2-0.9,3.3l8,13.8c1.1,1.9,0.4,6.1-3.5,6.1
			l-13.9,0l4.9-6.4c0.8-1.1,0.6-2.6-0.5-3.4c-1.1-0.8-2.6-0.6-3.4,0.5l-7.8,10.3c-0.6,0.8-0.7,2,0,2.9l7.9,10.2
			c0.8,1.1,2.3,1.3,3.4,0.4c1.1-0.8,1.3-2.3,0.4-3.4l-4.9-6.4l13.9,0C155.6,502.9,160.1,495.4,156.7,489.6 M122,498l-16,0.1
			c-2.2,0-5.5-2.7-3.5-6.1l6.9-12.1l3.1,7.4c0.5,1.2,1.9,1.8,3.2,1.3c1.2-0.5,1.8-1.9,1.3-3.2l-5-11.9c-0.4-0.9-1.3-1.6-2.5-1.5
			l-12.8,1.7c-1.3,0.2-2.3,1.4-2.1,2.7c0.2,1.3,1.4,2.3,2.7,2.1l8-1.1l-6.9,12.1c-3.3,5.7,1,13.4,7.8,13.3l16-0.1
			c1.3,0,2.4-1.1,2.4-2.4C124.4,499,123.3,497.9,122,498 M127.8,467.7c-0.2,1.3,0.8,2.5,2.1,2.7l12.8,1.6c1,0.1,2.1-0.4,2.5-1.5
			l4.9-11.9c0.5-1.2-0.1-2.6-1.3-3.2c-1.2-0.5-2.6,0.1-3.2,1.3l-3.1,7.4l-7-12c-3.3-5.7-12.1-5.8-15.4,0.1l-7.9,13.9
			c-0.7,1.2-0.3,2.6,0.9,3.3c1.2,0.7,2.6,0.3,3.3-0.9l7.9-13.9c1.1-1.9,5.1-3.4,7,0l7,12l-8-1C129.1,465.4,127.9,466.4,127.8,467.7"
			/>
		<path class="st1" d="M291.8,489.6l-8-13.8c-0.7-1.2-2.2-1.5-3.3-0.9c-1.2,0.7-1.5,2.2-0.9,3.3l8,13.8c1.1,1.9,0.4,6.1-3.5,6.1
			l-13.9,0l4.9-6.4c0.8-1.1,0.6-2.6-0.5-3.4c-1.1-0.8-2.6-0.6-3.4,0.5l-7.8,10.3c-0.6,0.8-0.7,2,0,2.9l7.9,10.2
			c0.8,1.1,2.3,1.3,3.4,0.4c1.1-0.8,1.3-2.3,0.4-3.4l-4.9-6.4l13.9,0C290.8,502.9,295.3,495.4,291.8,489.6 M257.1,498l-16,0.1
			c-2.2,0-5.5-2.7-3.5-6.1l6.9-12.1l3.1,7.4c0.5,1.2,1.9,1.8,3.2,1.3c1.2-0.5,1.8-1.9,1.3-3.2l-5-11.9c-0.4-0.9-1.3-1.6-2.5-1.5
			l-12.8,1.7c-1.3,0.2-2.3,1.4-2.1,2.7c0.2,1.3,1.4,2.3,2.7,2.1l8-1.1l-6.9,12.1c-3.3,5.7,1,13.4,7.8,13.3l16-0.1
			c1.3,0,2.4-1.1,2.4-2.4C259.6,499,258.5,497.9,257.1,498 M262.9,467.7c-0.2,1.3,0.8,2.5,2.1,2.7l12.8,1.6c1,0.1,2.1-0.4,2.5-1.5
			l4.9-11.9c0.5-1.2-0.1-2.6-1.3-3.2c-1.2-0.5-2.6,0.1-3.2,1.3l-3.1,7.4l-7-12c-3.3-5.7-12.1-5.8-15.4,0.1l-7.9,13.9
			c-0.7,1.2-0.3,2.6,0.9,3.3c1.2,0.7,2.6,0.3,3.3-0.9l7.9-13.9c1.1-1.9,5.1-3.4,7,0l7,12l-8-1C264.3,465.4,263.1,466.4,262.9,467.7"
			/>
		<path class="st1" d="M427,489.6l-8-13.8c-0.7-1.2-2.2-1.5-3.3-0.9c-1.2,0.7-1.5,2.2-0.9,3.3l8,13.8c1.1,1.9,0.4,6.1-3.5,6.1
			l-13.9,0l4.9-6.4c0.8-1.1,0.6-2.6-0.5-3.4c-1.1-0.8-2.6-0.6-3.4,0.5l-7.8,10.3c-0.6,0.8-0.7,2,0,2.9l7.9,10.2
			c0.8,1.1,2.3,1.3,3.4,0.4c1.1-0.8,1.3-2.3,0.4-3.4l-4.9-6.4l13.9,0C426,502.9,430.4,495.4,427,489.6 M392.3,498l-16,0.1
			c-2.2,0-5.5-2.7-3.5-6.1l6.9-12.1l3.1,7.4c0.5,1.2,1.9,1.8,3.2,1.3c1.2-0.5,1.8-1.9,1.3-3.2l-5-11.9c-0.4-0.9-1.3-1.6-2.5-1.5
			l-12.8,1.7c-1.3,0.2-2.3,1.4-2.1,2.7c0.2,1.3,1.4,2.3,2.7,2.1l8-1.1l-6.9,12.1c-3.3,5.7,1,13.4,7.8,13.3l16-0.1
			c1.3,0,2.4-1.1,2.4-2.4C394.7,499,393.6,497.9,392.3,498 M398.1,467.7c-0.2,1.3,0.8,2.5,2.1,2.7L413,472c1,0.1,2.1-0.4,2.5-1.5
			l4.9-11.9c0.5-1.2-0.1-2.6-1.3-3.2c-1.2-0.5-2.6,0.1-3.2,1.3l-3.1,7.4l-7-12c-3.3-5.7-12.1-5.8-15.4,0.1l-7.9,13.9
			c-0.7,1.2-0.3,2.6,0.9,3.3c1.2,0.7,2.6,0.3,3.3-0.9l7.9-13.9c1.1-1.9,5.1-3.4,7,0l7,12l-8-1C399.5,465.4,398.3,466.4,398.1,467.7"
			/>
		<path class="st1" d="M562.2,489.6l-8-13.8c-0.7-1.2-2.2-1.5-3.3-0.9c-1.2,0.7-1.5,2.2-0.9,3.3l8,13.8c1.1,1.9,0.4,6.1-3.5,6.1
			l-13.9,0l4.9-6.4c0.8-1.1,0.6-2.6-0.5-3.4c-1.1-0.8-2.6-0.6-3.4,0.5l-7.8,10.3c-0.6,0.8-0.7,2,0,2.9l7.9,10.2
			c0.8,1.1,2.3,1.3,3.4,0.4c1.1-0.8,1.3-2.3,0.4-3.4l-4.9-6.4l13.9,0C561.1,502.9,565.6,495.4,562.2,489.6 M527.5,498l-16,0.1
			c-2.2,0-5.5-2.7-3.5-6.1l6.9-12.1l3.1,7.4c0.5,1.2,1.9,1.8,3.2,1.3c1.2-0.5,1.8-1.9,1.3-3.2l-5-11.9c-0.4-0.9-1.3-1.6-2.5-1.5
			l-12.8,1.7c-1.3,0.2-2.3,1.4-2.1,2.7c0.2,1.3,1.4,2.3,2.7,2.1l8-1.1l-6.9,12.1c-3.3,5.7,1,13.4,7.8,13.3l16-0.1
			c1.3,0,2.4-1.1,2.4-2.4C529.9,499,528.8,497.9,527.5,498 M533.3,467.7c-0.2,1.3,0.8,2.5,2.1,2.7l12.8,1.6c1,0.1,2.1-0.4,2.5-1.5
			l4.9-11.9c0.5-1.2-0.1-2.6-1.3-3.2c-1.2-0.5-2.6,0.1-3.2,1.3l-3.1,7.4l-7-12c-3.3-5.7-12.1-5.8-15.4,0.1l-7.9,13.9
			c-0.7,1.2-0.3,2.6,0.9,3.3c1.2,0.7,2.6,0.3,3.3-0.9l7.9-13.9c1.1-1.9,5.1-3.4,7,0l7,12l-8-1C534.7,465.4,533.4,466.4,533.3,467.7"
			/>
		<path class="st1" d="M697.4,489.6l-8-13.8c-0.7-1.2-2.2-1.5-3.3-0.9c-1.2,0.7-1.5,2.2-0.9,3.3l8,13.8c1.1,1.9,0.4,6.1-3.5,6.1
			l-13.9,0l4.9-6.4c0.8-1.1,0.6-2.6-0.5-3.4c-1.1-0.8-2.6-0.6-3.4,0.5l-7.8,10.3c-0.6,0.8-0.7,2,0,2.9l7.9,10.2
			c0.8,1.1,2.3,1.3,3.4,0.4c1.1-0.8,1.3-2.3,0.4-3.4l-4.9-6.4l13.9,0C696.3,502.9,700.8,495.4,697.4,489.6 M662.7,498l-16,0.1
			c-2.2,0-5.5-2.7-3.5-6.1l6.9-12.1l3.1,7.4c0.5,1.2,1.9,1.8,3.2,1.3c1.2-0.5,1.8-1.9,1.3-3.2l-5-11.9c-0.4-0.9-1.3-1.6-2.5-1.5
			l-12.8,1.7c-1.3,0.2-2.3,1.4-2.1,2.7c0.2,1.3,1.4,2.3,2.7,2.1l8-1.1l-6.9,12.1c-3.3,5.7,1,13.4,7.8,13.3l16-0.1
			c1.3,0,2.4-1.1,2.4-2.4C665.1,499,664,497.9,662.7,498 M668.5,467.7c-0.2,1.3,0.8,2.5,2.1,2.7l12.8,1.6c1,0.1,2.1-0.4,2.5-1.5
			l4.9-11.9c0.5-1.2-0.1-2.6-1.3-3.2c-1.2-0.5-2.6,0.1-3.2,1.3l-3.1,7.4l-7-12c-3.3-5.7-12.1-5.8-15.4,0.1l-7.9,13.9
			c-0.7,1.2-0.3,2.6,0.9,3.3c1.2,0.7,2.6,0.3,3.3-0.9l7.9-13.9c1.1-1.9,5.1-3.4,7,0l7,12l-8-1C669.8,465.4,668.6,466.4,668.5,467.7"
			/>
		<path class="st1" d="M832.5,489.6l-8-13.8c-0.7-1.2-2.2-1.5-3.3-0.9c-1.2,0.7-1.5,2.2-0.9,3.3l8,13.8c1.1,1.9,0.4,6.1-3.5,6.1
			l-13.9,0l4.9-6.4c0.8-1.1,0.6-2.6-0.5-3.4c-1.1-0.8-2.6-0.6-3.4,0.5l-7.8,10.3c-0.6,0.8-0.7,2,0,2.9l7.9,10.2
			c0.8,1.1,2.3,1.3,3.4,0.4c1.1-0.8,1.3-2.3,0.4-3.4l-4.9-6.4l13.9,0C831.5,502.9,835.9,495.4,832.5,489.6 M797.8,498l-16,0.1
			c-2.2,0-5.5-2.7-3.5-6.1l6.9-12.1l3.1,7.4c0.5,1.2,1.9,1.8,3.2,1.3c1.2-0.5,1.8-1.9,1.3-3.2l-5-11.9c-0.4-0.9-1.3-1.6-2.5-1.5
			l-12.8,1.7c-1.3,0.2-2.3,1.4-2.1,2.7c0.2,1.3,1.4,2.3,2.7,2.1l8-1.1l-6.9,12.1c-3.3,5.7,1,13.4,7.8,13.3l16-0.1
			c1.3,0,2.4-1.1,2.4-2.4C800.3,499,799.2,497.9,797.8,498 M803.6,467.7c-0.2,1.3,0.8,2.5,2.1,2.7l12.8,1.6c1,0.1,2.1-0.4,2.5-1.5
			l4.9-11.9c0.5-1.2-0.1-2.6-1.3-3.2c-1.2-0.5-2.6,0.1-3.2,1.3l-3.1,7.4l-7-12c-3.3-5.7-12.1-5.8-15.4,0.1l-7.9,13.9
			c-0.7,1.2-0.3,2.6,0.9,3.3c1.2,0.7,2.6,0.3,3.3-0.9l7.9-13.9c1.1-1.9,5.1-3.4,7,0l7,12l-8-1C805,465.4,803.8,466.4,803.6,467.7"/>
		<path class="st1" d="M967.7,489.6l-8-13.8c-0.7-1.2-2.2-1.5-3.3-0.9c-1.2,0.7-1.5,2.2-0.9,3.3l8,13.8c1.1,1.9,0.4,6.1-3.5,6.1
			l-13.9,0l4.9-6.4c0.8-1.1,0.6-2.6-0.5-3.4c-1.1-0.8-2.6-0.6-3.4,0.5l-7.8,10.3c-0.6,0.8-0.7,2,0,2.9l7.9,10.2
			c0.8,1.1,2.3,1.3,3.4,0.4c1.1-0.8,1.3-2.3,0.4-3.4l-4.9-6.4l13.9,0C966.7,502.9,971.1,495.4,967.7,489.6 M933,498l-16,0.1
			c-2.2,0-5.5-2.7-3.5-6.1l6.9-12.1l3.1,7.4c0.5,1.2,1.9,1.8,3.2,1.3c1.2-0.5,1.8-1.9,1.3-3.2l-5-11.9c-0.4-0.9-1.3-1.6-2.5-1.5
			l-12.8,1.7c-1.3,0.2-2.3,1.4-2.1,2.7c0.2,1.3,1.4,2.3,2.7,2.1l8-1.1l-6.9,12.1c-3.3,5.7,1,13.4,7.8,13.3l16-0.1
			c1.3,0,2.4-1.1,2.4-2.4C935.4,499,934.3,497.9,933,498 M938.8,467.7c-0.2,1.3,0.8,2.5,2.1,2.7l12.8,1.6c1,0.1,2.1-0.4,2.5-1.5
			l4.9-11.9c0.5-1.2-0.1-2.6-1.3-3.2c-1.2-0.5-2.6,0.1-3.2,1.3l-3.1,7.4l-7-12c-3.3-5.7-12.1-5.8-15.4,0.1l-7.9,13.9
			c-0.7,1.2-0.3,2.6,0.9,3.3c1.2,0.7,2.6,0.3,3.3-0.9l7.9-13.9c1.1-1.9,5.1-3.4,7,0l7,12l-8-1C940.2,465.4,939,466.4,938.8,467.7"/>
		<path class="st1" d="M1102.9,489.6l-8-13.8c-0.7-1.2-2.2-1.5-3.3-0.9c-1.2,0.7-1.5,2.2-0.9,3.3l8,13.8c1.1,1.9,0.4,6.1-3.5,6.1
			l-13.9,0l4.9-6.4c0.8-1.1,0.6-2.6-0.5-3.4c-1.1-0.8-2.6-0.6-3.4,0.5l-7.8,10.3c-0.6,0.8-0.7,2,0,2.9l7.9,10.2
			c0.8,1.1,2.3,1.3,3.4,0.4c1.1-0.8,1.3-2.3,0.4-3.4l-4.9-6.4l13.9,0C1101.8,502.9,1106.3,495.4,1102.9,489.6 M1068.2,498l-16,0.1
			c-2.2,0-5.5-2.7-3.5-6.1l6.9-12.1l3.1,7.4c0.5,1.2,1.9,1.8,3.2,1.3c1.2-0.5,1.8-1.9,1.3-3.2l-5-11.9c-0.4-0.9-1.3-1.6-2.5-1.5
			l-12.8,1.7c-1.3,0.2-2.3,1.4-2.1,2.7c0.2,1.3,1.4,2.3,2.7,2.1l8-1.1l-6.9,12.1c-3.3,5.7,1,13.4,7.8,13.3l16-0.1
			c1.3,0,2.4-1.1,2.4-2.4C1070.6,499,1069.5,497.9,1068.2,498 M1074,467.7c-0.2,1.3,0.8,2.5,2.1,2.7l12.8,1.6c1,0.1,2.1-0.4,2.5-1.5
			l4.9-11.9c0.5-1.2-0.1-2.6-1.3-3.2c-1.2-0.5-2.6,0.1-3.2,1.3l-3.1,7.4l-7-12c-3.3-5.7-12.1-5.8-15.4,0.1l-7.9,13.9
			c-0.7,1.2-0.3,2.6,0.9,3.3c1.2,0.7,2.6,0.3,3.3-0.9l7.9-13.9c1.1-1.9,5.1-3.4,7,0l7,12l-8-1C1075.4,465.4,1074.1,466.4,1074,467.7
			"/>
	</g>
	<g>
		<path class="st1" d="M21.5,664.1l-8-13.8c-0.7-1.2-2.2-1.5-3.3-0.9c-1.2,0.7-1.5,2.2-0.9,3.3l8,13.8c1.1,1.9,0.4,6.1-3.5,6.1
			l-13.9,0l4.9-6.4c0.8-1.1,0.6-2.6-0.5-3.4c-1.1-0.8-2.6-0.6-3.4,0.5l-7.8,10.3c-0.6,0.8-0.7,2,0,2.9L1,686.8
			c0.8,1.1,2.3,1.3,3.4,0.4c1.1-0.8,1.3-2.3,0.4-3.4l-4.9-6.4l13.9,0C20.4,677.4,24.9,669.9,21.5,664.1 M-13.2,672.5l-16,0.1
			c-2.2,0-5.5-2.7-3.5-6.1l6.9-12.1l3.1,7.4c0.5,1.2,1.9,1.8,3.2,1.3c1.2-0.5,1.8-1.9,1.3-3.2l-5-11.9c-0.4-0.9-1.3-1.6-2.5-1.5
			l-12.8,1.7c-1.3,0.2-2.3,1.4-2.1,2.7c0.2,1.3,1.4,2.3,2.7,2.1l8-1.1l-6.9,12.1c-3.3,5.7,1,13.4,7.8,13.3l16-0.1
			c1.3,0,2.4-1.1,2.4-2.4C-10.8,673.5-11.9,672.5-13.2,672.5 M-7.4,642.2c-0.2,1.3,0.8,2.5,2.1,2.7l12.8,1.6c1,0.1,2.1-0.4,2.5-1.5
			l4.9-11.9c0.5-1.2-0.1-2.6-1.3-3.2c-1.2-0.5-2.6,0.1-3.2,1.3l-3.1,7.4l-7-12c-3.3-5.7-12.1-5.8-15.4,0.1l-7.9,13.9
			c-0.7,1.2-0.3,2.6,0.9,3.3c1.2,0.7,2.6,0.3,3.3-0.9l7.9-13.9c1.1-1.9,5.1-3.4,7,0l7,12l-8-1C-6,639.9-7.2,640.9-7.4,642.2"/>
		<path class="st1" d="M156.7,664.1l-8-13.8c-0.7-1.2-2.2-1.5-3.3-0.9c-1.2,0.7-1.5,2.2-0.9,3.3l8,13.8c1.1,1.9,0.4,6.1-3.5,6.1
			l-13.9,0l4.9-6.4c0.8-1.1,0.6-2.6-0.5-3.4c-1.1-0.8-2.6-0.6-3.4,0.5l-7.8,10.3c-0.6,0.8-0.7,2,0,2.9l7.9,10.2
			c0.8,1.1,2.3,1.3,3.4,0.4c1.1-0.8,1.3-2.3,0.4-3.4l-4.9-6.4l13.9,0C155.6,677.4,160.1,669.9,156.7,664.1 M122,672.5l-16,0.1
			c-2.2,0-5.5-2.7-3.5-6.1l6.9-12.1l3.1,7.4c0.5,1.2,1.9,1.8,3.2,1.3c1.2-0.5,1.8-1.9,1.3-3.2l-5-11.9c-0.4-0.9-1.3-1.6-2.5-1.5
			l-12.8,1.7c-1.3,0.2-2.3,1.4-2.1,2.7c0.2,1.3,1.4,2.3,2.7,2.1l8-1.1L98.3,664c-3.3,5.7,1,13.4,7.8,13.3l16-0.1
			c1.3,0,2.4-1.1,2.4-2.4C124.4,673.5,123.3,672.5,122,672.5 M127.8,642.2c-0.2,1.3,0.8,2.5,2.1,2.7l12.8,1.6c1,0.1,2.1-0.4,2.5-1.5
			l4.9-11.9c0.5-1.2-0.1-2.6-1.3-3.2c-1.2-0.5-2.6,0.1-3.2,1.3l-3.1,7.4l-7-12c-3.3-5.7-12.1-5.8-15.4,0.1l-7.9,13.9
			c-0.7,1.2-0.3,2.6,0.9,3.3c1.2,0.7,2.6,0.3,3.3-0.9l7.9-13.9c1.1-1.9,5.1-3.4,7,0l7,12l-8-1C129.1,639.9,127.9,640.9,127.8,642.2"
			/>
		<path class="st1" d="M291.8,664.1l-8-13.8c-0.7-1.2-2.2-1.5-3.3-0.9c-1.2,0.7-1.5,2.2-0.9,3.3l8,13.8c1.1,1.9,0.4,6.1-3.5,6.1
			l-13.9,0l4.9-6.4c0.8-1.1,0.6-2.6-0.5-3.4c-1.1-0.8-2.6-0.6-3.4,0.5l-7.8,10.3c-0.6,0.8-0.7,2,0,2.9l7.9,10.2
			c0.8,1.1,2.3,1.3,3.4,0.4c1.1-0.8,1.3-2.3,0.4-3.4l-4.9-6.4l13.9,0C290.8,677.4,295.3,669.9,291.8,664.1 M257.1,672.5l-16,0.1
			c-2.2,0-5.5-2.7-3.5-6.1l6.9-12.1l3.1,7.4c0.5,1.2,1.9,1.8,3.2,1.3c1.2-0.5,1.8-1.9,1.3-3.2l-5-11.9c-0.4-0.9-1.3-1.6-2.5-1.5
			l-12.8,1.7c-1.3,0.2-2.3,1.4-2.1,2.7c0.2,1.3,1.4,2.3,2.7,2.1l8-1.1l-6.9,12.1c-3.3,5.7,1,13.4,7.8,13.3l16-0.1
			c1.3,0,2.4-1.1,2.4-2.4C259.6,673.5,258.5,672.5,257.1,672.5 M262.9,642.2c-0.2,1.3,0.8,2.5,2.1,2.7l12.8,1.6
			c1,0.1,2.1-0.4,2.5-1.5l4.9-11.9c0.5-1.2-0.1-2.6-1.3-3.2c-1.2-0.5-2.6,0.1-3.2,1.3l-3.1,7.4l-7-12c-3.3-5.7-12.1-5.8-15.4,0.1
			l-7.9,13.9c-0.7,1.2-0.3,2.6,0.9,3.3c1.2,0.7,2.6,0.3,3.3-0.9l7.9-13.9c1.1-1.9,5.1-3.4,7,0l7,12l-8-1
			C264.3,639.9,263.1,640.9,262.9,642.2"/>
		<path class="st1" d="M427,664.1l-8-13.8c-0.7-1.2-2.2-1.5-3.3-0.9c-1.2,0.7-1.5,2.2-0.9,3.3l8,13.8c1.1,1.9,0.4,6.1-3.5,6.1
			l-13.9,0l4.9-6.4c0.8-1.1,0.6-2.6-0.5-3.4c-1.1-0.8-2.6-0.6-3.4,0.5l-7.8,10.3c-0.6,0.8-0.7,2,0,2.9l7.9,10.2
			c0.8,1.1,2.3,1.3,3.4,0.4c1.1-0.8,1.3-2.3,0.4-3.4l-4.9-6.4l13.9,0C426,677.4,430.4,669.9,427,664.1 M392.3,672.5l-16,0.1
			c-2.2,0-5.5-2.7-3.5-6.1l6.9-12.1l3.1,7.4c0.5,1.2,1.9,1.8,3.2,1.3c1.2-0.5,1.8-1.9,1.3-3.2l-5-11.9c-0.4-0.9-1.3-1.6-2.5-1.5
			l-12.8,1.7c-1.3,0.2-2.3,1.4-2.1,2.7c0.2,1.3,1.4,2.3,2.7,2.1l8-1.1l-6.9,12.1c-3.3,5.7,1,13.4,7.8,13.3l16-0.1
			c1.3,0,2.4-1.1,2.4-2.4C394.7,673.5,393.6,672.5,392.3,672.5 M398.1,642.2c-0.2,1.3,0.8,2.5,2.1,2.7l12.8,1.6
			c1,0.1,2.1-0.4,2.5-1.5l4.9-11.9c0.5-1.2-0.1-2.6-1.3-3.2c-1.2-0.5-2.6,0.1-3.2,1.3l-3.1,7.4l-7-12c-3.3-5.7-12.1-5.8-15.4,0.1
			l-7.9,13.9c-0.7,1.2-0.3,2.6,0.9,3.3c1.2,0.7,2.6,0.3,3.3-0.9l7.9-13.9c1.1-1.9,5.1-3.4,7,0l7,12l-8-1
			C399.5,639.9,398.3,640.9,398.1,642.2"/>
		<path class="st1" d="M562.2,664.1l-8-13.8c-0.7-1.2-2.2-1.5-3.3-0.9c-1.2,0.7-1.5,2.2-0.9,3.3l8,13.8c1.1,1.9,0.4,6.1-3.5,6.1
			l-13.9,0l4.9-6.4c0.8-1.1,0.6-2.6-0.5-3.4c-1.1-0.8-2.6-0.6-3.4,0.5l-7.8,10.3c-0.6,0.8-0.7,2,0,2.9l7.9,10.2
			c0.8,1.1,2.3,1.3,3.4,0.4c1.1-0.8,1.3-2.3,0.4-3.4l-4.9-6.4l13.9,0C561.1,677.4,565.6,669.9,562.2,664.1 M527.5,672.5l-16,0.1
			c-2.2,0-5.5-2.7-3.5-6.1l6.9-12.1l3.1,7.4c0.5,1.2,1.9,1.8,3.2,1.3c1.2-0.5,1.8-1.9,1.3-3.2l-5-11.9c-0.4-0.9-1.3-1.6-2.5-1.5
			l-12.8,1.7c-1.3,0.2-2.3,1.4-2.1,2.7c0.2,1.3,1.4,2.3,2.7,2.1l8-1.1l-6.9,12.1c-3.3,5.7,1,13.4,7.8,13.3l16-0.1
			c1.3,0,2.4-1.1,2.4-2.4C529.9,673.5,528.8,672.5,527.5,672.5 M533.3,642.2c-0.2,1.3,0.8,2.5,2.1,2.7l12.8,1.6
			c1,0.1,2.1-0.4,2.5-1.5l4.9-11.9c0.5-1.2-0.1-2.6-1.3-3.2c-1.2-0.5-2.6,0.1-3.2,1.3l-3.1,7.4l-7-12c-3.3-5.7-12.1-5.8-15.4,0.1
			l-7.9,13.9c-0.7,1.2-0.3,2.6,0.9,3.3c1.2,0.7,2.6,0.3,3.3-0.9l7.9-13.9c1.1-1.9,5.1-3.4,7,0l7,12l-8-1
			C534.7,639.9,533.4,640.9,533.3,642.2"/>
		<path class="st1" d="M697.4,664.1l-8-13.8c-0.7-1.2-2.2-1.5-3.3-0.9c-1.2,0.7-1.5,2.2-0.9,3.3l8,13.8c1.1,1.9,0.4,6.1-3.5,6.1
			l-13.9,0l4.9-6.4c0.8-1.1,0.6-2.6-0.5-3.4c-1.1-0.8-2.6-0.6-3.4,0.5l-7.8,10.3c-0.6,0.8-0.7,2,0,2.9l7.9,10.2
			c0.8,1.1,2.3,1.3,3.4,0.4c1.1-0.8,1.3-2.3,0.4-3.4l-4.9-6.4l13.9,0C696.3,677.4,700.8,669.9,697.4,664.1 M662.7,672.5l-16,0.1
			c-2.2,0-5.5-2.7-3.5-6.1l6.9-12.1l3.1,7.4c0.5,1.2,1.9,1.8,3.2,1.3c1.2-0.5,1.8-1.9,1.3-3.2l-5-11.9c-0.4-0.9-1.3-1.6-2.5-1.5
			l-12.8,1.7c-1.3,0.2-2.3,1.4-2.1,2.7c0.2,1.3,1.4,2.3,2.7,2.1l8-1.1l-6.9,12.1c-3.3,5.7,1,13.4,7.8,13.3l16-0.1
			c1.3,0,2.4-1.1,2.4-2.4C665.1,673.5,664,672.5,662.7,672.5 M668.5,642.2c-0.2,1.3,0.8,2.5,2.1,2.7l12.8,1.6c1,0.1,2.1-0.4,2.5-1.5
			l4.9-11.9c0.5-1.2-0.1-2.6-1.3-3.2c-1.2-0.5-2.6,0.1-3.2,1.3l-3.1,7.4l-7-12c-3.3-5.7-12.1-5.8-15.4,0.1l-7.9,13.9
			c-0.7,1.2-0.3,2.6,0.9,3.3c1.2,0.7,2.6,0.3,3.3-0.9l7.9-13.9c1.1-1.9,5.1-3.4,7,0l7,12l-8-1C669.8,639.9,668.6,640.9,668.5,642.2"
			/>
		<path class="st1" d="M832.5,664.1l-8-13.8c-0.7-1.2-2.2-1.5-3.3-0.9c-1.2,0.7-1.5,2.2-0.9,3.3l8,13.8c1.1,1.9,0.4,6.1-3.5,6.1
			l-13.9,0l4.9-6.4c0.8-1.1,0.6-2.6-0.5-3.4c-1.1-0.8-2.6-0.6-3.4,0.5l-7.8,10.3c-0.6,0.8-0.7,2,0,2.9l7.9,10.2
			c0.8,1.1,2.3,1.3,3.4,0.4c1.1-0.8,1.3-2.3,0.4-3.4l-4.9-6.4l13.9,0C831.5,677.4,835.9,669.9,832.5,664.1 M797.8,672.5l-16,0.1
			c-2.2,0-5.5-2.7-3.5-6.1l6.9-12.1l3.1,7.4c0.5,1.2,1.9,1.8,3.2,1.3c1.2-0.5,1.8-1.9,1.3-3.2l-5-11.9c-0.4-0.9-1.3-1.6-2.5-1.5
			l-12.8,1.7c-1.3,0.2-2.3,1.4-2.1,2.7c0.2,1.3,1.4,2.3,2.7,2.1l8-1.1l-6.9,12.1c-3.3,5.7,1,13.4,7.8,13.3l16-0.1
			c1.3,0,2.4-1.1,2.4-2.4C800.3,673.5,799.2,672.5,797.8,672.5 M803.6,642.2c-0.2,1.3,0.8,2.5,2.1,2.7l12.8,1.6
			c1,0.1,2.1-0.4,2.5-1.5l4.9-11.9c0.5-1.2-0.1-2.6-1.3-3.2c-1.2-0.5-2.6,0.1-3.2,1.3l-3.1,7.4l-7-12c-3.3-5.7-12.1-5.8-15.4,0.1
			l-7.9,13.9c-0.7,1.2-0.3,2.6,0.9,3.3c1.2,0.7,2.6,0.3,3.3-0.9l7.9-13.9c1.1-1.9,5.1-3.4,7,0l7,12l-8-1
			C805,639.9,803.8,640.9,803.6,642.2"/>
		<path class="st1" d="M967.7,664.1l-8-13.8c-0.7-1.2-2.2-1.5-3.3-0.9c-1.2,0.7-1.5,2.2-0.9,3.3l8,13.8c1.1,1.9,0.4,6.1-3.5,6.1
			l-13.9,0l4.9-6.4c0.8-1.1,0.6-2.6-0.5-3.4c-1.1-0.8-2.6-0.6-3.4,0.5l-7.8,10.3c-0.6,0.8-0.7,2,0,2.9l7.9,10.2
			c0.8,1.1,2.3,1.3,3.4,0.4c1.1-0.8,1.3-2.3,0.4-3.4l-4.9-6.4l13.9,0C966.7,677.4,971.1,669.9,967.7,664.1 M933,672.5l-16,0.1
			c-2.2,0-5.5-2.7-3.5-6.1l6.9-12.1l3.1,7.4c0.5,1.2,1.9,1.8,3.2,1.3c1.2-0.5,1.8-1.9,1.3-3.2l-5-11.9c-0.4-0.9-1.3-1.6-2.5-1.5
			l-12.8,1.7c-1.3,0.2-2.3,1.4-2.1,2.7c0.2,1.3,1.4,2.3,2.7,2.1l8-1.1l-6.9,12.1c-3.3,5.7,1,13.4,7.8,13.3l16-0.1
			c1.3,0,2.4-1.1,2.4-2.4C935.4,673.5,934.3,672.5,933,672.5 M938.8,642.2c-0.2,1.3,0.8,2.5,2.1,2.7l12.8,1.6c1,0.1,2.1-0.4,2.5-1.5
			l4.9-11.9c0.5-1.2-0.1-2.6-1.3-3.2c-1.2-0.5-2.6,0.1-3.2,1.3l-3.1,7.4l-7-12c-3.3-5.7-12.1-5.8-15.4,0.1l-7.9,13.9
			c-0.7,1.2-0.3,2.6,0.9,3.3c1.2,0.7,2.6,0.3,3.3-0.9l7.9-13.9c1.1-1.9,5.1-3.4,7,0l7,12l-8-1C940.2,639.9,939,640.9,938.8,642.2"/>
		<path class="st1" d="M1102.9,664.1l-8-13.8c-0.7-1.2-2.2-1.5-3.3-0.9c-1.2,0.7-1.5,2.2-0.9,3.3l8,13.8c1.1,1.9,0.4,6.1-3.5,6.1
			l-13.9,0l4.9-6.4c0.8-1.1,0.6-2.6-0.5-3.4c-1.1-0.8-2.6-0.6-3.4,0.5l-7.8,10.3c-0.6,0.8-0.7,2,0,2.9l7.9,10.2
			c0.8,1.1,2.3,1.3,3.4,0.4c1.1-0.8,1.3-2.3,0.4-3.4l-4.9-6.4l13.9,0C1101.8,677.4,1106.3,669.9,1102.9,664.1 M1068.2,672.5l-16,0.1
			c-2.2,0-5.5-2.7-3.5-6.1l6.9-12.1l3.1,7.4c0.5,1.2,1.9,1.8,3.2,1.3c1.2-0.5,1.8-1.9,1.3-3.2l-5-11.9c-0.4-0.9-1.3-1.6-2.5-1.5
			l-12.8,1.7c-1.3,0.2-2.3,1.4-2.1,2.7c0.2,1.3,1.4,2.3,2.7,2.1l8-1.1l-6.9,12.1c-3.3,5.7,1,13.4,7.8,13.3l16-0.1
			c1.3,0,2.4-1.1,2.4-2.4C1070.6,673.5,1069.5,672.5,1068.2,672.5 M1074,642.2c-0.2,1.3,0.8,2.5,2.1,2.7l12.8,1.6
			c1,0.1,2.1-0.4,2.5-1.5l4.9-11.9c0.5-1.2-0.1-2.6-1.3-3.2c-1.2-0.5-2.6,0.1-3.2,1.3l-3.1,7.4l-7-12c-3.3-5.7-12.1-5.8-15.4,0.1
			l-7.9,13.9c-0.7,1.2-0.3,2.6,0.9,3.3c1.2,0.7,2.6,0.3,3.3-0.9l7.9-13.9c1.1-1.9,5.1-3.4,7,0l7,12l-8-1
			C1075.4,639.9,1074.1,640.9,1074,642.2"/>
	</g>
</g>
</svg>
