<?xml version="1.0" encoding="utf-8"?>
<!-- Generator: Adobe Illustrator 19.1.0, SVG Export Plug-In . SVG Version: 6.00 Build 0)  -->
<svg version="1.1" xmlns="http://www.w3.org/2000/svg" xmlns:xlink="http://www.w3.org/1999/xlink" x="0px" y="0px"
	 viewBox="0 0 1194.9 755.6" style="enable-background:new 0 0 1194.9 755.6;" xml:space="preserve">
<style type="text/css">
	.st0{display:none;}
	.st1{display:inline;}
	.st2{display:inline;fill:none;}
	.st3{fill:#FFE400;}
	.st4{fill:#00A651;}
	.st5{fill:#FFFFFF;}
	.st6{fill:#00AEEF;}
	.st7{fill:#DF4954;}
	.st8{clip-path:url(#SVGID_2_);}
	.st9{clip-path:url(#SVGID_4_);}
	.st10{fill:#FFDC00;}
	.st11{fill:#2FB44A;}
	.st12{fill:#FBAC1F;}
	.st13{fill:#ECD1E5;}
	.st14{fill:none;}
	.st15{clip-path:url(#SVGID_6_);}
	.st16{fill:#FEE5D9;}
	.st17{opacity:0.1;}
	.st18{clip-path:url(#SVGID_8_);}
	.st19{fill:#36C2D9;stroke:#FFFFFF;stroke-width:18.6054;stroke-miterlimit:10;}
	.st20{fill:none;stroke:#FFFFFF;stroke-width:14.6002;stroke-linecap:round;stroke-miterlimit:10;}
	.st21{clip-path:url(#SVGID_12_);}
	.st22{fill:#F9D019;}
</style>
<g id="Layer_1" class="st0">
</g>
<g id="d_x5F_1">
</g>
<g id="d_x5F_2">
</g>
<g id="TT">
	<g>
		<defs>
			<path id="SVGID_5_" d="M-751.1,755.6V0h629.7v226.3h-392.7v298.8h397v230.5H-751.1z"/>
		</defs>
		<clipPath id="SVGID_2_">
			<use xlink:href="#SVGID_5_"  style="overflow:visible;"/>
		</clipPath>
		<g class="st8">
			<rect x="-903.1" y="-77" class="st16" width="1268.2" height="881.5"/>
			<g class="st17">
				<defs>
					<rect id="SVGID_7_" x="-892.7" y="-40.2" class="st17" width="1247.5" height="808"/>
				</defs>
				<clipPath id="SVGID_4_">
					<use xlink:href="#SVGID_7_"  style="overflow:visible;"/>
				</clipPath>
				<g id="gNE04x_1_" class="st9">
					
						<image style="overflow:visible;" width="5472" height="3648" id="gNE04x_2_" xlink:href="7EE7AE0C639B5D49.png"  transform="matrix(2.461780e-11 -0.2298 0.5483 1.031932e-11 -1261.136 861.5988)">
					</image>
				</g>
			</g>
			<path class="st19" d="M-68.8,283.9c-21.5-15.6-25.7,16.9-31.9,36.4c-9.1,28.7-27.2,53.7-46.8,76.2c-32.2,37-73.6,71.6-90.1,119.2
				c-2.3,6.7-4.1,13.5-5.4,20.4c-1.7,9.2-2.3,18.6-1.7,27.9c4,70,74.3,95.6,134.7,100.1c45.2,3.3,94-5.5,124-42.4
				c48.8-59.9,17-152.4-7.5-215.9c-16.1-41.6-36.1-80.4-66.4-113.5C-63.1,288.5-66.1,285.8-68.8,283.9z"/>
		</g>
	</g>
	<polygon points="236.9,525.1 236.9,226.3 450.1,226.3 450.1,0 0,0 0,755.6 450.1,755.6 450.1,525.1 	"/>
	<g>
		<defs>
			<path id="SVGID_9_" d="M560.9,755.6V0h629.7v226.3H797.8v298.8h397v230.5H560.9z"/>
		</defs>
		<use xlink:href="#SVGID_9_"  style="overflow:visible;fill:#F9D019;"/>
		<clipPath id="SVGID_6_">
			<use xlink:href="#SVGID_9_"  style="overflow:visible;"/>
		</clipPath>
	</g>
	<g>
		<defs>
			<path id="SVGID_11_" d="M560.9,755.6V0h629.7v226.3H797.8v298.8h397v230.5H560.9z"/>
		</defs>
		<clipPath id="SVGID_8_">
			<use xlink:href="#SVGID_11_"  style="overflow:visible;"/>
		</clipPath>
		<g class="st18">
			<polygon class="st22" points="709.7,28.4 792.3,38.5 706.1,178.1 787.4,188.1 664,381.4 711.6,231.3 634.4,221.9 			"/>
			<polygon class="st22" points="943.7,116 1026.3,126.1 940.1,265.7 1021.4,275.7 898,469 945.6,318.9 868.4,309.5 			"/>
			<polygon class="st22" points="1137.6,-198.4 1220.1,-188.3 1134,-48.7 1215.3,-38.7 1091.9,154.6 1139.4,4.5 1062.3,-5 			"/>
			<polygon class="st22" points="525.3,377.8 607.9,387.9 521.7,527.5 603.1,537.5 479.7,730.8 527.2,580.7 450.1,571.2 			"/>
			<polygon class="st22" points="762.1,567.5 844.6,577.6 758.5,717.2 839.8,727.2 716.4,920.5 763.9,770.4 686.8,760.9 			"/>
			<polygon class="st22" points="1077.7,412.6 1160.3,422.7 1074.1,562.3 1155.5,572.3 1032,765.6 1079.6,615.5 1002.5,606 			"/>
		</g>
	</g>
</g>
</svg>
