<?xml version="1.0" encoding="utf-8"?>
<!-- Generator: Adobe Illustrator 19.1.0, SVG Export Plug-In . SVG Version: 6.00 Build 0)  -->
<svg version="1.1" xmlns="http://www.w3.org/2000/svg" xmlns:xlink="http://www.w3.org/1999/xlink" x="0px" y="0px"
	 viewBox="0 0 1194.9 755.6" style="enable-background:new 0 0 1194.9 755.6;" xml:space="preserve">
<style type="text/css">
	.st0{display:none;}
	.st1{display:inline;}
	.st2{display:inline;fill:none;}
	.st3{fill:#FFE400;}
	.st4{fill:#00A651;}
	.st5{clip-path:url(#SVGID_2_);}
	.st6{fill:#FFFFFF;}
	.st7{fill:#DF4954;}
	.st8{clip-path:url(#SVGID_6_);}
	.st9{clip-path:url(#SVGID_8_);}
	.st10{fill:#FFDC00;}
	.st11{fill:#2FB44A;}
	.st12{fill:#FBAC1F;}
	.st13{fill:#ECD1E5;}
	.st14{fill:none;}
	.st15{clip-path:url(#SVGID_10_);}
	.st16{fill:#FEE5D9;}
	.st17{opacity:0.1;}
	.st18{clip-path:url(#SVGID_12_);}
	.st19{fill:#36C2D9;stroke:#FFFFFF;stroke-width:18.6054;stroke-miterlimit:10;}
	.st20{fill:none;stroke:#FFFFFF;stroke-width:14.6002;stroke-linecap:round;stroke-miterlimit:10;}
	.st21{clip-path:url(#SVGID_16_);}
	.st22{fill:#F9D019;}
	.st23{clip-path:url(#SVGID_22_);}
	.st24{fill:#A2BADC;}
	.st25{fill:#E4CB1F;}
	.st26{clip-path:url(#SVGID_24_);}
	.st27{fill:#73C485;}
	.st28{fill:#DE68A8;}
	.st29{fill:#6481C1;}
	.st30{fill:#FCB65D;}
	.st31{fill:#E7EDF7;stroke:#E7EDF7;stroke-miterlimit:10;}
	.st32{clip-path:url(#SVGID_28_);}
	.st33{clip-path:url(#SVGID_34_);}
	.st34{fill:#E2542D;}
	.st35{fill:#41803C;}
	.st36{fill:#010101;}
	.st37{opacity:0.34;}
	.st38{fill:#C4DDEA;}
	.st39{clip-path:url(#SVGID_42_);fill:#C4DDEA;}
	.st40{fill:#D77081;}
	.st41{clip-path:url(#SVGID_48_);}
	.st42{fill:#EC008C;}
	.st43{fill:#00AEEF;}
	.st44{fill:#FFF200;}
	.st45{clip-path:url(#SVGID_56_);}
	.st46{fill:#E7BE32;}
	.st47{fill:#E6E7E8;}
	.st48{fill:#F1C634;}
	.st49{fill:#FFD336;}
	.st50{fill:#F1F2F2;}
	.st51{fill:#D1D3D4;}
	.st52{fill:#DCDDDE;}
	.st53{fill:#F7F7F7;}
	.st54{clip-path:url(#SVGID_58_);fill:#E6E7E8;}
	.st55{clip-path:url(#SVGID_58_);fill:#C7C8CA;}
	.st56{clip-path:url(#SVGID_60_);fill:#E6E7E8;}
	.st57{clip-path:url(#SVGID_60_);fill:#C7C8CA;}
	.st58{fill:#ECB810;}
	.st59{fill:#FFC70F;}
	.st60{fill:#939598;}
	.st61{fill:#0C113B;}
	.st62{fill:#6D6E71;}
	.st63{clip-path:url(#SVGID_62_);}
	.st64{fill:#1D3564;}
	.st65{fill:#26B8EB;}
	.st66{fill:#EE4035;}
	.st67{fill:#FFCB05;}
	.st68{clip-path:url(#SVGID_64_);}
	.st69{fill:#F59226;}
	.st70{fill:#98D6D4;}
	.st71{clip-path:url(#SVGID_66_);}
	.st72{fill:#F15E47;}
	.st73{fill:#938C8E;}
	.st74{fill:#FECE08;}
	.st75{clip-path:url(#SVGID_68_);}
	.st76{fill:#EF4847;}
	.st77{fill:#B9D547;}
	.st78{fill:#0A2947;}
</style>
<g id="Layer_1" class="st0">
</g>
<g id="d_x5F_1">
</g>
<g id="d_x5F_2">
</g>
<g id="TT">
	<g>
		<defs>
			<path id="SVGID_53_" d="M-2200.5-1266.1v-755.6h629.7v226.3h-392.7v298.8h397v230.5H-2200.5z"/>
		</defs>
		<clipPath id="SVGID_2_">
			<use xlink:href="#SVGID_53_"  style="overflow:visible;"/>
		</clipPath>
		<g transform="matrix(1 0 0 1 0 0)" class="st5">
			
				<image style="overflow:visible;" width="1280" height="720" xlink:href="../../../../../Documents/RISD/4_1.5/Assignment5/example2/2/2-001620.png"  transform="matrix(5.4414 0 0 5.4414 -5365.9907 -3889.0117)">
			</image>
		</g>
	</g>
	<g>
		<defs>
			<path id="SVGID_61_" d="M560.9-1266.1v-755.6h629.7v226.3H797.8v298.8h397v230.5H560.9z"/>
		</defs>
		<clipPath id="SVGID_4_">
			<use xlink:href="#SVGID_61_"  style="overflow:visible;"/>
		</clipPath>
		<g style="clip-path:url(#SVGID_4_);">
			<rect x="-1304.1" y="-713" class="st64" width="1930.3" height="1175.4"/>
		</g>
	</g>
	<g>
		<defs>
			<path id="SVGID_63_" d="M560.9-372.8v-755.6h629.7v226.3H797.8v298.8h397v230.5H560.9z"/>
		</defs>
		<clipPath id="SVGID_6_">
			<use xlink:href="#SVGID_63_"  style="overflow:visible;"/>
		</clipPath>
		<g class="st8">
			<rect x="-1304.1" y="180.2" class="st64" width="1930.3" height="1175.4"/>
		</g>
	</g>
	<polygon points="236.9,525.1 236.9,226.3 450.1,226.3 450.1,0 0,0 0,755.6 450.1,755.6 450.1,525.1 	"/>
	<g>
		<path class="st70" d="M560.9,755.6V0h629.7v226.3H797.8v298.8h397v230.5H560.9z"/>
	</g>
	<g>
		<defs>
			<path id="SVGID_67_" d="M560.9,755.6V0h629.7v226.3H797.8v298.8h397v230.5H560.9z"/>
		</defs>
		<clipPath id="SVGID_8_">
			<use xlink:href="#SVGID_67_"  style="overflow:visible;"/>
		</clipPath>
		<g class="st9">
			<circle class="st76" cx="1165.8" cy="652" r="165.3"/>
			<circle class="st77" cx="630.5" cy="97.5" r="165.3"/>
			<g>
				<g>
					<g>
						<path class="st78" d="M1160.7,442.2c112.9-2.8,207.1,86.9,209.8,199.8s-86.9,207.1-199.8,209.8
							c-112.9,2.8-207.1-86.9-209.8-199.8S1047.7,445,1160.7,442.2z M1169.1,786c76.6-1.9,137.4-65.7,135.5-142.3
							c-1.9-76.6-65.7-137.4-142.3-135.5c-76.6,1.9-137.4,65.7-135.5,142.3C1028.6,727.1,1092.5,787.9,1169.1,786z"/>
					</g>
					<g>
						<path class="st78" d="M625.4-112.2C738.4-115,832.5-25.4,835.2,87.6c2.8,112.9-86.9,207.1-199.8,209.8S428.3,210.6,425.6,97.6
							S512.5-109.5,625.4-112.2z M633.8,231.5c76.6-1.9,137.4-65.7,135.5-142.3S703.6-48.2,627-46.3S489.6,19.4,491.5,96
							C493.3,172.6,557.2,233.4,633.8,231.5z"/>
					</g>
				</g>
				<g>
					<path class="st78" d="M1244.2-36.2c8.4-0.2,16.9,2.8,23.5,9.1c13.2,12.6,13.7,33.4,1.1,46.6l-711,746.6
						c-12.6,13.2-33.4,13.7-46.6,1.1c-13.2-12.6-13.7-33.4-1.1-46.6l711-746.6C1227.4-32.6,1235.8-36,1244.2-36.2z"/>
				</g>
			</g>
		</g>
	</g>
</g>
</svg>
