<?xml version="1.0" encoding="utf-8"?>
<!-- Generator: Adobe Illustrator 19.1.0, SVG Export Plug-In . SVG Version: 6.00 Build 0)  -->
<svg version="1.1" xmlns="http://www.w3.org/2000/svg" xmlns:xlink="http://www.w3.org/1999/xlink" x="0px" y="0px"
	 viewBox="0 0 1194.9 755.6" style="enable-background:new 0 0 1194.9 755.6;" xml:space="preserve">
<style type="text/css">
	.st0{display:none;}
	.st1{display:inline;}
	.st2{display:inline;fill:none;}
	.st3{fill:#FFE400;}
	.st4{fill:#00A651;}
	.st5{clip-path:url(#SVGID_2_);}
	.st6{fill:#FFFFFF;}
	.st7{fill:#DF4954;}
	.st8{clip-path:url(#SVGID_6_);}
	.st9{clip-path:url(#SVGID_8_);}
	.st10{fill:#FFDC00;}
	.st11{fill:#2FB44A;}
	.st12{fill:#FBAC1F;}
	.st13{fill:#ECD1E5;}
	.st14{fill:none;}
	.st15{clip-path:url(#SVGID_10_);}
	.st16{fill:#FEE5D9;}
	.st17{opacity:0.1;}
	.st18{clip-path:url(#SVGID_12_);}
	.st19{fill:#36C2D9;stroke:#FFFFFF;stroke-width:18.6054;stroke-miterlimit:10;}
	.st20{fill:none;stroke:#FFFFFF;stroke-width:14.6002;stroke-linecap:round;stroke-miterlimit:10;}
	.st21{clip-path:url(#SVGID_16_);}
	.st22{fill:#F9D019;}
	.st23{clip-path:url(#SVGID_22_);}
	.st24{fill:#A2BADC;}
	.st25{fill:#E4CB1F;}
	.st26{clip-path:url(#SVGID_24_);}
	.st27{fill:#73C485;}
	.st28{fill:#DE68A8;}
	.st29{fill:#6481C1;}
	.st30{fill:#FCB65D;}
	.st31{clip-path:url(#SVGID_28_);}
	.st32{clip-path:url(#SVGID_34_);}
	.st33{fill:#E2542D;}
	.st34{fill:#41803C;}
	.st35{fill:#010101;}
	.st36{opacity:0.34;}
	.st37{fill:#C4DDEA;}
	.st38{clip-path:url(#SVGID_42_);fill:#C4DDEA;}
	.st39{fill:#D77081;}
	.st40{clip-path:url(#SVGID_48_);}
	.st41{fill:#EC008C;}
	.st42{fill:#00AEEF;}
	.st43{fill:#FFF200;}
	.st44{clip-path:url(#SVGID_56_);}
	.st45{fill:#E7BE32;}
	.st46{fill:#E6E7E8;}
	.st47{fill:#F1C634;}
	.st48{fill:#FFD336;}
	.st49{fill:#F1F2F2;}
	.st50{fill:#D1D3D4;}
	.st51{fill:#DCDDDE;}
	.st52{fill:#F7F7F7;}
	.st53{clip-path:url(#SVGID_58_);fill:#E6E7E8;}
	.st54{clip-path:url(#SVGID_58_);fill:#C7C8CA;}
	.st55{clip-path:url(#SVGID_60_);fill:#E6E7E8;}
	.st56{clip-path:url(#SVGID_60_);fill:#C7C8CA;}
	.st57{fill:#ECB810;}
	.st58{fill:#FFC70F;}
	.st59{fill:#939598;}
	.st60{fill:#0C113B;}
	.st61{fill:#6D6E71;}
	.st62{clip-path:url(#SVGID_62_);}
	.st63{fill:#1D3564;}
	.st64{fill:#26B8EB;}
	.st65{fill:#EE4035;}
	.st66{fill:#FFCB05;}
	.st67{clip-path:url(#SVGID_64_);}
	.st68{fill:#F59226;}
</style>
<g id="Layer_1" class="st0">
</g>
<g id="d_x5F_1">
</g>
<g id="d_x5F_2">
</g>
<g id="TT">
	<polygon points="236.9,525.1 236.9,226.3 450.1,226.3 450.1,0 0,0 0,755.6 450.1,755.6 450.1,525.1 	"/>
	<g>
		<defs>
			<path id="SVGID_23_" d="M560.9,755.6V0h629.7v226.3H797.8v298.8h397v230.5H560.9z"/>
		</defs>
		<clipPath id="SVGID_2_">
			<use xlink:href="#SVGID_23_"  style="overflow:visible;"/>
		</clipPath>
		<g class="st5">
			<polygon class="st27" points="1703.1,937.3 1332.6,557.3 1640.8,557.3 1259.3,134.3 1412.2,134.3 877.9,-711.8 343.6,134.3 
				496.5,134.3 115,557.3 423.2,557.3 52.6,937.3 			"/>
			<path class="st28" d="M681.8,18.8c0,30-25.6,54.3-57.1,54.3c-31.6,0-57.1-24.3-57.1-54.3s25.6-54.3,57.1-54.3
				C656.2-35.5,681.8-11.2,681.8,18.8z"/>
			<path class="st28" d="M1080.5,515.3c0,30-25.6,54.3-57.1,54.3c-31.6,0-57.1-24.3-57.1-54.3c0-30,25.6-54.3,57.1-54.3
				C1054.9,461,1080.5,485.3,1080.5,515.3z"/>
			<path class="st28" d="M618.1,733.1c0,30-25.6,54.3-57.1,54.3c-31.6,0-57.1-24.3-57.1-54.3s25.6-54.3,57.1-54.3
				C592.5,678.8,618.1,703.1,618.1,733.1z"/>
			<path class="st29" d="M796,593.8c0,30-25.6,54.3-57.1,54.3c-31.6,0-57.1-24.3-57.1-54.3s25.6-54.3,57.1-54.3
				C770.4,539.4,796,563.8,796,593.8z"/>
			<path class="st30" d="M624.6,378.8c0,30-25.6,54.3-57.1,54.3c-31.6,0-57.1-24.3-57.1-54.3s25.6-54.3,57.1-54.3
				C599,324.5,624.6,348.8,624.6,378.8z"/>
			<path class="st30" d="M1112.4,221.4c0,30-25.6,54.3-57.1,54.3c-31.6,0-57.1-24.3-57.1-54.3s25.6-54.3,57.1-54.3
				C1086.8,167.1,1112.4,191.4,1112.4,221.4z"/>
			<path class="st30" d="M1194.9,18.8c0,30-25.6,54.3-57.1,54.3c-31.6,0-57.1-24.3-57.1-54.3s25.6-54.3,57.1-54.3
				C1169.3-35.5,1194.9-11.2,1194.9,18.8z"/>
			<path class="st29" d="M1169.6,733.1c0,30-25.6,54.3-57.1,54.3c-31.6,0-57.1-24.3-57.1-54.3s25.6-54.3,57.1-54.3
				C1144,678.8,1169.6,703.1,1169.6,733.1z"/>
			<path class="st29" d="M910.3,112.7c0,30-25.6,54.3-57.1,54.3c-31.6,0-57.1-24.3-57.1-54.3s25.6-54.3,57.1-54.3
				C884.7,58.4,910.3,82.7,910.3,112.7z"/>
		</g>
	</g>
</g>
</svg>
