<?xml version="1.0" encoding="utf-8"?>
<!-- Generator: Adobe Illustrator 19.1.0, SVG Export Plug-In . SVG Version: 6.00 Build 0)  -->
<svg version="1.1" xmlns="http://www.w3.org/2000/svg" xmlns:xlink="http://www.w3.org/1999/xlink" x="0px" y="0px"
	 viewBox="0 0 1194.9 755.6" style="enable-background:new 0 0 1194.9 755.6;" xml:space="preserve">
<style type="text/css">
	.st0{display:none;}
	.st1{display:inline;}
	.st2{display:inline;fill:none;}
	.st3{fill:#FFE400;}
	.st4{fill:#00A651;}
	.st5{clip-path:url(#SVGID_2_);}
	.st6{fill:#FFFFFF;}
	.st7{fill:#DF4954;}
	.st8{clip-path:url(#SVGID_6_);}
	.st9{clip-path:url(#SVGID_8_);}
	.st10{fill:#FFDC00;}
	.st11{fill:#2FB44A;}
	.st12{fill:#FBAC1F;}
	.st13{fill:#ECD1E5;}
	.st14{fill:none;}
	.st15{clip-path:url(#SVGID_10_);}
	.st16{fill:#FEE5D9;}
	.st17{opacity:0.1;}
	.st18{clip-path:url(#SVGID_12_);}
	.st19{fill:#36C2D9;stroke:#FFFFFF;stroke-width:18.6054;stroke-miterlimit:10;}
	.st20{fill:none;stroke:#FFFFFF;stroke-width:14.6002;stroke-linecap:round;stroke-miterlimit:10;}
	.st21{clip-path:url(#SVGID_16_);}
	.st22{fill:#F9D019;}
	.st23{clip-path:url(#SVGID_22_);}
	.st24{fill:#A2BADC;}
	.st25{fill:#E4CB1F;}
	.st26{clip-path:url(#SVGID_24_);}
	.st27{fill:#73C485;}
	.st28{fill:#DE68A8;}
	.st29{fill:#6481C1;}
	.st30{fill:#FCB65D;}
	.st31{fill:#E7EDF7;stroke:#E7EDF7;stroke-miterlimit:10;}
	.st32{clip-path:url(#SVGID_28_);}
	.st33{clip-path:url(#SVGID_34_);}
	.st34{fill:#E2542D;}
	.st35{fill:#41803C;}
	.st36{fill:#010101;}
	.st37{opacity:0.34;}
	.st38{fill:#C4DDEA;}
	.st39{clip-path:url(#SVGID_42_);fill:#C4DDEA;}
	.st40{fill:#D77081;}
	.st41{clip-path:url(#SVGID_48_);}
	.st42{fill:#EC008C;}
	.st43{fill:#00AEEF;}
	.st44{fill:#FFF200;}
	.st45{clip-path:url(#SVGID_56_);}
	.st46{fill:#E7BE32;}
	.st47{fill:#E6E7E8;}
	.st48{fill:#F1C634;}
	.st49{fill:#FFD336;}
	.st50{fill:#F1F2F2;}
	.st51{fill:#D1D3D4;}
	.st52{fill:#DCDDDE;}
	.st53{fill:#F7F7F7;}
	.st54{clip-path:url(#SVGID_58_);fill:#E6E7E8;}
	.st55{clip-path:url(#SVGID_58_);fill:#C7C8CA;}
	.st56{clip-path:url(#SVGID_60_);fill:#E6E7E8;}
	.st57{clip-path:url(#SVGID_60_);fill:#C7C8CA;}
	.st58{fill:#ECB810;}
	.st59{fill:#FFC70F;}
	.st60{fill:#939598;}
	.st61{fill:#0C113B;}
	.st62{fill:#6D6E71;}
	.st63{clip-path:url(#SVGID_62_);}
	.st64{fill:#1D3564;}
	.st65{fill:#26B8EB;}
	.st66{fill:#EE4035;}
	.st67{fill:#FFCB05;}
	.st68{clip-path:url(#SVGID_64_);}
	.st69{fill:#F59226;}
	.st70{clip-path:url(#SVGID_66_);}
	.st71{fill:#F15E47;}
	.st72{fill:#938C8E;}
	.st73{fill:#FECE08;}
</style>
<g id="Layer_1" class="st0">
</g>
<g id="d_x5F_1">
</g>
<g id="d_x5F_2">
</g>
<g id="TT">
	<g>
		<defs>
			<path id="SVGID_23_" d="M-994.5,755.6V0h629.7v226.3h-392.7v298.8h397v230.5H-994.5z"/>
		</defs>
		<clipPath id="SVGID_2_">
			<use xlink:href="#SVGID_23_"  style="overflow:visible;"/>
		</clipPath>
		<g class="st5">
			<polygon class="st27" points="147.7,937.3 -222.9,557.3 85.3,557.3 -296.1,134.3 -143.2,134.3 -677.5,-711.8 -1211.9,134.3 
				-1059,134.3 -1440.4,557.3 -1132.2,557.3 -1502.8,937.3 			"/>
		</g>
	</g>
	<polygon points="236.9,525.1 236.9,226.3 450.1,226.3 450.1,0 0,0 0,755.6 450.1,755.6 450.1,525.1 	"/>
	<g>
		<path class="st31" d="M560.9,755.6V0h629.7v226.3H797.8v298.8h397v230.5H560.9z"/>
	</g>
	<g>
		<defs>
			<path id="SVGID_65_" d="M560.9,755.6V0h629.7v226.3H797.8v298.8h397v230.5H560.9z"/>
		</defs>
		<clipPath id="SVGID_4_">
			<use xlink:href="#SVGID_65_"  style="overflow:visible;"/>
		</clipPath>
		<g style="clip-path:url(#SVGID_4_);">
			<circle class="st71" cx="820.3" cy="15.6" r="66"/>
			<circle class="st71" cx="560.9" cy="742.3" r="66"/>
			<circle class="st71" cx="1161.3" cy="536.6" r="66"/>
			<path class="st72" d="M1162.9,189c-9.4-0.6-18.4-3.9-27.4-6.8c-21.2-6.9-43.4-12.4-65.5-10.1c12.8-7.9,23.3-19.8,28.4-34
				s4.7-30.4-2.1-43.8c-11.8-23.3-41.4-34-67-28.9c-10.1,2-20.1,6.3-26.7,14.2c-9.6,11.3-15.2,40.5-35.3,36.9
				c-3.9-0.7-7.4-3-11.4-3.7c-15.8-2.7-6.1,19.1-1.9,25.1c6.9,9.9,18.2,17,30.3,17.6c5.9,0.3,12.7-0.3,16.6,4
				c2.9,3.2,3,8.2,1.5,12.2c-1.5,4-4.4,7.3-7.2,10.6c-10.9,13-20.9,27.8-22.6,44.7c-1.3,13.2,2.9,26.8,11.4,37
				c8.5,10.2,20.9,16.6,33.7,20s26.2,4.1,39.4,4.5c30,0.8,61.9-0.7,86.7-17.7c14.4-9.9,25.2-24.4,32.4-40.3s11-33.1,13.1-50.4
				c-6.4,7-16.7,9.6-26.2,9C1163.2,189,1163.1,189,1162.9,189z M1012.9,111.4c0-5.6,4.6-10.2,10.2-10.2c5.6,0,10.2,4.6,10.2,10.2
				c0,5.6-4.6,10.2-10.2,10.2C1017.5,121.6,1012.9,117,1012.9,111.4z M1119.2,234.3l-22.6,12.3l14.5,11.4c-0.6-0.5-7.3,2.3-8.1,2.5
				c-7.1,1.9-14.4,3.3-21.8,4c-16.5,1.6-35.4-0.9-49.1-10.9c-7.3-5.4-12.9-13.3-14.4-22.2c-3.4-21,16-28.3,33.3-29.9
				c9.2-0.8,18.4-0.5,27.6,0.2c8.7,0.6,17.3,1.6,25.9,3c4.3,0.7,8.5,1.4,12.8,2.1c2,0.3,10,3.1,11.6,2.1c0,0-26.6,16.6-26.6,16.6
				L1119.2,234.3z"/>
			<path class="st72" d="M1310.9,797.3c-9.4-0.6-18.4-3.9-27.4-6.8c-21.2-6.9-43.4-12.4-65.5-10.1c12.8-7.9,23.3-19.8,28.4-34
				c5.2-14.1,4.7-30.4-2.1-43.8c-11.8-23.3-41.4-34-67-28.9c-10.1,2-20.1,6.3-26.7,14.2c-9.6,11.3-15.2,40.5-35.3,36.9
				c-3.9-0.7-7.4-3-11.4-3.7c-15.8-2.7-6.1,19.1-1.9,25.1c6.9,9.9,18.2,17,30.3,17.6c5.9,0.3,12.7-0.3,16.6,4
				c2.9,3.2,3,8.2,1.5,12.2c-1.5,4-4.4,7.3-7.2,10.6c-10.9,13-20.9,27.8-22.6,44.7c-1.3,13.2,2.9,26.8,11.4,37
				c8.5,10.2,20.9,16.6,33.7,20c12.8,3.4,26.2,4.1,39.4,4.5c30,0.8,61.9-0.7,86.7-17.7c14.4-9.9,25.2-24.4,32.4-40.3
				s11-33.1,13.1-50.4c-6.4,7-16.7,9.6-26.2,9C1311.1,797.3,1311,797.3,1310.9,797.3z M1160.9,719.7c0-5.6,4.6-10.2,10.2-10.2
				c5.6,0,10.2,4.6,10.2,10.2c0,5.6-4.6,10.2-10.2,10.2C1165.4,729.9,1160.9,725.4,1160.9,719.7z M1267.2,842.6l-22.6,12.3
				l14.5,11.4c-0.6-0.5-7.3,2.3-8.1,2.5c-7.1,1.9-14.4,3.3-21.8,4c-16.5,1.6-35.4-0.9-49.1-10.9c-7.3-5.4-12.9-13.3-14.4-22.2
				c-3.4-21,16-28.3,33.3-29.9c9.2-0.8,18.4-0.5,27.6,0.2c8.7,0.6,17.3,1.6,25.9,3c4.3,0.7,8.5,1.4,12.8,2.1c2,0.3,10,3.1,11.6,2.1
				c0,0-26.6,16.6-26.6,16.6L1267.2,842.6z"/>
			<path class="st72" d="M659.4,502.7c-9.5,0.6-19.7-2-26.2-9c2.2,17.3,5.9,34.5,13.1,50.4c7.2,15.9,18,30.4,32.4,40.3
				c24.7,17,56.7,18.4,86.7,17.7c13.3-0.3,26.6-1,39.4-4.5s25.2-9.8,33.7-20c8.5-10.1,12.7-23.8,11.4-37
				c-1.7-16.9-11.7-31.7-22.6-44.7c-2.8-3.3-5.7-6.6-7.2-10.6c-1.5-4-1.4-9,1.5-12.2c3.9-4.4,10.8-3.7,16.6-4
				c12.2-0.6,23.5-7.7,30.3-17.6c4.2-6,13.8-27.9-1.9-25.1c-3.9,0.7-7.4,3-11.4,3.7c-20.1,3.6-25.7-25.5-35.3-36.9
				c-6.6-7.8-16.6-12.2-26.7-14.2c-25.6-5.1-55.1,5.6-67,28.9c-6.8,13.4-7.2,29.7-2.1,43.8s15.6,26.1,28.4,34
				c-22.1-2.3-44.3,3.2-65.5,10.1c-9,2.9-18,6.2-27.4,6.8C659.6,502.7,659.5,502.7,659.4,502.7z M799.6,435.2
				c-5.6,0-10.2-4.6-10.2-10.2s4.6-10.2,10.2-10.2c5.6,0,10.2,4.6,10.2,10.2S805.2,435.2,799.6,435.2z M720.3,539.1
				c0,0-26.6-16.6-26.6-16.6c1.5,1,9.6-1.8,11.6-2.1c4.3-0.8,8.5-1.5,12.8-2.1c8.6-1.3,17.2-2.4,25.9-3c9.2-0.6,18.4-1,27.6-0.2
				c17.3,1.6,36.7,8.9,33.3,29.9c-1.4,8.9-7.1,16.9-14.4,22.2c-13.7,10.1-32.6,12.5-49.1,10.9c-7.3-0.7-14.6-2.1-21.8-4
				c-0.8-0.2-7.5-2.9-8.1-2.5l14.5-11.4l-22.6-12.3L720.3,539.1z"/>
			<g>
				<circle class="st73" cx="588.4" cy="308.3" r="66"/>
				<circle class="st73" cx="588.4" cy="176.3" r="66"/>
			</g>
			<g>
				<circle class="st73" cx="886.3" cy="775.3" r="66"/>
				<circle class="st73" cx="953.4" cy="661.6" r="66"/>
			</g>
		</g>
	</g>
</g>
</svg>
