<?xml version="1.0" encoding="utf-8"?>
<!-- Generator: Adobe Illustrator 19.1.0, SVG Export Plug-In . SVG Version: 6.00 Build 0)  -->
<svg version="1.1" id="Layer_1" xmlns="http://www.w3.org/2000/svg" xmlns:xlink="http://www.w3.org/1999/xlink" x="0px" y="0px"
	 viewBox="0 0 1000 392.3" style="enable-background:new 0 0 1000 392.3;" xml:space="preserve">
<style type="text/css">
	.st0{fill:#E04750;}
	.st1{fill:#FFFFFF;}
</style>
<rect class="st0" width="1000" height="612"/>
<g>
	<g>
		<path class="st1" d="M71.1,1.2l-7.2-12.4c-0.6-1-1.9-1.4-3-0.8c-1,0.6-1.4,1.9-0.8,3l7.2,12.4c1,1.7,0.3,5.5-3.1,5.5l-12.5,0
			l4.4-5.7c0.7-1,0.5-2.3-0.4-3c-1-0.7-2.3-0.5-3,0.4l-7,9.2c-0.5,0.7-0.7,1.8,0,2.6l7.1,9.2c0.7,0.9,2.1,1.1,3,0.4
			c1-0.7,1.1-2.1,0.4-3l-4.4-5.7l12.5,0C70.2,13.2,74.2,6.5,71.1,1.2 M40,8.8l-14.3,0c-2,0-4.9-2.5-3.2-5.5l6.2-10.8l2.8,6.6
			c0.5,1.1,1.7,1.6,2.8,1.2c1.1-0.5,1.6-1.7,1.2-2.8L31-13.2c-0.3-0.8-1.2-1.5-2.3-1.3L17.2-13c-1.2,0.2-2,1.2-1.9,2.4
			c0.2,1.2,1.2,2,2.4,1.9l7.1-1L18.7,1.2c-2.9,5.1,0.9,12,7,12l14.3,0c1.2,0,2.2-1,2.2-2.2C42.2,9.7,41.2,8.8,40,8.8 M45.2-18.4
			c-0.2,1.2,0.7,2.3,1.9,2.4l11.5,1.5c0.9,0.1,1.9-0.3,2.3-1.3l4.4-10.7c0.5-1.1-0.1-2.4-1.2-2.8c-1.1-0.5-2.4,0.1-2.8,1.2l-2.7,6.7
			l-6.3-10.8c-3-5.1-10.8-5.2-13.8,0l-7.1,12.4c-0.6,1-0.2,2.4,0.8,3c1,0.6,2.4,0.2,3-0.8l7.1-12.4c1-1.7,4.6-3,6.3,0l6.3,10.8
			l-7.1-0.9C46.4-20.4,45.3-19.6,45.2-18.4"/>
		<path class="st1" d="M192.3,1.2l-7.2-12.4c-0.6-1-1.9-1.4-3-0.8c-1,0.6-1.4,1.9-0.8,3l7.2,12.4c1,1.7,0.3,5.5-3.1,5.5l-12.5,0
			l4.4-5.7c0.7-1,0.5-2.3-0.4-3c-1-0.7-2.3-0.5-3,0.4l-7,9.2c-0.5,0.7-0.7,1.8,0,2.6l7.1,9.2c0.7,0.9,2.1,1.1,3,0.4
			c1-0.7,1.1-2.1,0.4-3l-4.4-5.7l12.5,0C191.3,13.2,195.3,6.5,192.3,1.2 M161.2,8.8l-14.3,0c-2,0-4.9-2.5-3.2-5.5l6.2-10.8l2.8,6.6
			c0.5,1.1,1.7,1.6,2.8,1.2c1.1-0.5,1.6-1.7,1.2-2.8l-4.5-10.7c-0.3-0.8-1.2-1.5-2.3-1.3L138.4-13c-1.2,0.2-2,1.2-1.9,2.4
			c0.2,1.2,1.2,2,2.4,1.9l7.1-1l-6.2,10.8c-2.9,5.1,0.9,12,7,12l14.3,0c1.2,0,2.2-1,2.2-2.2C163.3,9.7,162.3,8.8,161.2,8.8
			 M166.3-18.4c-0.2,1.2,0.7,2.3,1.9,2.4l11.5,1.5c0.9,0.1,1.9-0.3,2.3-1.3l4.4-10.7c0.5-1.1-0.1-2.4-1.2-2.8
			c-1.1-0.5-2.4,0.1-2.8,1.2l-2.7,6.7l-6.3-10.8c-3-5.1-10.8-5.2-13.8,0l-7.1,12.4c-0.6,1-0.2,2.4,0.8,3c1,0.6,2.4,0.2,3-0.8
			l7.1-12.4c1-1.7,4.6-3,6.3,0l6.3,10.8l-7.1-0.9C167.6-20.4,166.5-19.6,166.3-18.4"/>
		<path class="st1" d="M313.4,1.2l-7.2-12.4c-0.6-1-1.9-1.4-3-0.8c-1,0.6-1.4,1.9-0.8,3l7.2,12.4c1,1.7,0.3,5.5-3.1,5.5l-12.5,0
			l4.4-5.7c0.7-1,0.5-2.3-0.4-3c-1-0.7-2.3-0.5-3,0.4l-7,9.2c-0.5,0.7-0.7,1.8,0,2.6l7.1,9.2c0.7,0.9,2.1,1.1,3,0.4
			c1-0.7,1.1-2.1,0.4-3l-4.4-5.7l12.5,0C312.5,13.2,316.5,6.5,313.4,1.2 M282.3,8.8l-14.3,0c-2,0-4.9-2.5-3.2-5.5L271-7.5l2.8,6.6
			c0.5,1.1,1.7,1.6,2.8,1.2c1.1-0.5,1.6-1.7,1.2-2.8l-4.5-10.7c-0.3-0.8-1.2-1.5-2.3-1.3L259.6-13c-1.2,0.2-2,1.2-1.9,2.4
			c0.2,1.2,1.2,2,2.4,1.9l7.1-1l-6.2,10.8c-2.9,5.1,0.9,12,7,12l14.3,0c1.2,0,2.2-1,2.2-2.2C284.5,9.7,283.5,8.8,282.3,8.8
			 M287.5-18.4c-0.2,1.2,0.7,2.3,1.9,2.4l11.5,1.5c0.9,0.1,1.9-0.3,2.3-1.3l4.4-10.7c0.5-1.1-0.1-2.4-1.2-2.8
			c-1.1-0.5-2.4,0.1-2.8,1.2l-2.7,6.7l-6.3-10.8c-3-5.1-10.8-5.2-13.8,0l-7.1,12.4c-0.6,1-0.2,2.4,0.8,3c1,0.6,2.4,0.2,3-0.8
			l7.1-12.4c1-1.7,4.6-3,6.3,0l6.3,10.8l-7.1-0.9C288.7-20.4,287.7-19.6,287.5-18.4"/>
		<path class="st1" d="M434.6,1.2l-7.2-12.4c-0.6-1-1.9-1.4-3-0.8c-1,0.6-1.4,1.9-0.8,3l7.2,12.4c1,1.7,0.3,5.5-3.1,5.5l-12.5,0
			l4.4-5.7c0.7-1,0.5-2.3-0.4-3c-1-0.7-2.3-0.5-3,0.4l-7,9.2c-0.5,0.7-0.7,1.8,0,2.6l7.1,9.2c0.7,0.9,2.1,1.1,3,0.4
			c1-0.7,1.1-2.1,0.4-3l-4.4-5.7l12.5,0C433.6,13.2,437.6,6.5,434.6,1.2 M403.5,8.8l-14.3,0c-2,0-4.9-2.5-3.2-5.5l6.2-10.8l2.8,6.6
			c0.5,1.1,1.7,1.6,2.8,1.2c1.1-0.5,1.6-1.7,1.2-2.8l-4.5-10.7c-0.3-0.8-1.2-1.5-2.3-1.3L380.7-13c-1.2,0.2-2,1.2-1.9,2.4
			c0.2,1.2,1.2,2,2.4,1.9l7.1-1l-6.2,10.8c-2.9,5.1,0.9,12,7,12l14.3,0c1.2,0,2.2-1,2.2-2.2C405.6,9.7,404.7,8.8,403.5,8.8
			 M408.7-18.4c-0.2,1.2,0.7,2.3,1.9,2.4l11.5,1.5c0.9,0.1,1.9-0.3,2.3-1.3l4.4-10.7c0.5-1.1-0.1-2.4-1.2-2.8
			c-1.1-0.5-2.4,0.1-2.8,1.2l-2.7,6.7l-6.3-10.8c-3-5.1-10.8-5.2-13.8,0l-7.1,12.4c-0.6,1-0.2,2.4,0.8,3c1,0.6,2.4,0.2,3-0.8
			l7.1-12.4c1-1.7,4.6-3,6.3,0l6.3,10.8l-7.1-0.9C409.9-20.4,408.8-19.6,408.7-18.4"/>
		<path class="st1" d="M555.7,1.2l-7.2-12.4c-0.6-1-1.9-1.4-3-0.8c-1,0.6-1.4,1.9-0.8,3L552,3.4c1,1.7,0.3,5.5-3.1,5.5l-12.5,0
			l4.4-5.7c0.7-1,0.5-2.3-0.4-3c-1-0.7-2.3-0.5-3,0.4l-7,9.2c-0.5,0.7-0.7,1.8,0,2.6l7.1,9.2c0.7,0.9,2.1,1.1,3,0.4
			c1-0.7,1.1-2.1,0.4-3l-4.4-5.7l12.5,0C554.8,13.2,558.8,6.5,555.7,1.2 M524.6,8.8l-14.3,0c-2,0-4.9-2.5-3.2-5.5l6.2-10.8l2.8,6.6
			c0.5,1.1,1.7,1.6,2.8,1.2c1.1-0.5,1.6-1.7,1.2-2.8l-4.5-10.7c-0.3-0.8-1.2-1.5-2.3-1.3L501.9-13c-1.2,0.2-2,1.2-1.9,2.4
			c0.2,1.2,1.2,2,2.4,1.9l7.1-1l-6.2,10.8c-2.9,5.1,0.9,12,7,12l14.3,0c1.2,0,2.2-1,2.2-2.2C526.8,9.7,525.8,8.8,524.6,8.8
			 M529.8-18.4c-0.2,1.2,0.7,2.3,1.9,2.4l11.5,1.5c0.9,0.1,1.9-0.3,2.3-1.3l4.4-10.7c0.5-1.1-0.1-2.4-1.2-2.8
			c-1.1-0.5-2.4,0.1-2.8,1.2l-2.7,6.7l-6.3-10.8c-3-5.1-10.8-5.2-13.8,0l-7.1,12.4c-0.6,1-0.2,2.4,0.8,3c1,0.6,2.4,0.2,3-0.8
			l7.1-12.4c1-1.7,4.6-3,6.3,0l6.3,10.8l-7.1-0.9C531.1-20.4,530-19.6,529.8-18.4"/>
		<path class="st1" d="M676.9,1.2l-7.2-12.4c-0.6-1-1.9-1.4-3-0.8c-1,0.6-1.4,1.9-0.8,3l7.2,12.4c1,1.7,0.3,5.5-3.1,5.5l-12.5,0
			l4.4-5.7c0.7-1,0.5-2.3-0.4-3c-1-0.7-2.3-0.5-3,0.4l-7,9.2c-0.5,0.7-0.7,1.8,0,2.6l7.1,9.2c0.7,0.9,2.1,1.1,3,0.4
			c1-0.7,1.1-2.1,0.4-3l-4.4-5.7l12.5,0C676,13.2,680,6.5,676.9,1.2 M645.8,8.8l-14.3,0c-2,0-4.9-2.5-3.2-5.5l6.2-10.8l2.8,6.6
			c0.5,1.1,1.7,1.6,2.8,1.2c1.1-0.5,1.6-1.7,1.2-2.8l-4.5-10.7c-0.3-0.8-1.2-1.5-2.3-1.3L623-13c-1.2,0.2-2,1.2-1.9,2.4
			c0.2,1.2,1.2,2,2.4,1.9l7.1-1l-6.2,10.8c-2.9,5.1,0.9,12,7,12l14.3,0c1.2,0,2.2-1,2.2-2.2C648,9.7,647,8.8,645.8,8.8 M651-18.4
			c-0.2,1.2,0.7,2.3,1.9,2.4l11.5,1.5c0.9,0.1,1.9-0.3,2.3-1.3l4.4-10.7c0.5-1.1-0.1-2.4-1.2-2.8c-1.1-0.5-2.4,0.1-2.8,1.2l-2.7,6.7
			L658-32.3c-3-5.1-10.8-5.2-13.8,0l-7.1,12.4c-0.6,1-0.2,2.4,0.8,3c1,0.6,2.4,0.2,3-0.8l7.1-12.4c1-1.7,4.6-3,6.3,0l6.3,10.8
			l-7.1-0.9C652.2-20.4,651.1-19.6,651-18.4"/>
		<path class="st1" d="M798.1,1.2l-7.2-12.4c-0.6-1-1.9-1.4-3-0.8c-1,0.6-1.4,1.9-0.8,3l7.2,12.4c1,1.7,0.3,5.5-3.1,5.5l-12.5,0
			l4.4-5.7c0.7-1,0.5-2.3-0.4-3c-1-0.7-2.3-0.5-3,0.4l-7,9.2c-0.5,0.7-0.7,1.8,0,2.6l7.1,9.2c0.7,0.9,2.1,1.1,3,0.4
			c1-0.7,1.1-2.1,0.4-3l-4.4-5.7l12.5,0C797.1,13.2,801.1,6.5,798.1,1.2 M767,8.8l-14.3,0c-2,0-4.9-2.5-3.2-5.5l6.2-10.8l2.8,6.6
			c0.5,1.1,1.7,1.6,2.8,1.2c1.1-0.5,1.6-1.7,1.2-2.8L758-13.2c-0.3-0.8-1.2-1.5-2.3-1.3L744.2-13c-1.2,0.2-2,1.2-1.9,2.4
			c0.2,1.2,1.2,2,2.4,1.9l7.1-1l-6.2,10.8c-2.9,5.1,0.9,12,7,12l14.3,0c1.2,0,2.2-1,2.2-2.2C769.1,9.7,768.2,8.8,767,8.8
			 M772.2-18.4c-0.2,1.2,0.7,2.3,1.9,2.4l11.5,1.5c0.9,0.1,1.9-0.3,2.3-1.3l4.4-10.7c0.5-1.1-0.1-2.4-1.2-2.8
			c-1.1-0.5-2.4,0.1-2.8,1.2l-2.7,6.7l-6.3-10.8c-3-5.1-10.8-5.2-13.8,0l-7.1,12.4c-0.6,1-0.2,2.4,0.8,3c1,0.6,2.4,0.2,3-0.8
			l7.1-12.4c1-1.7,4.6-3,6.3,0l6.3,10.8l-7.1-0.9C773.4-20.4,772.3-19.6,772.2-18.4"/>
		<path class="st1" d="M919.2,1.2L912-11.1c-0.6-1-1.9-1.4-3-0.8c-1,0.6-1.4,1.9-0.8,3l7.2,12.4c1,1.7,0.3,5.5-3.1,5.5l-12.5,0
			l4.4-5.7c0.7-1,0.5-2.3-0.4-3c-1-0.7-2.3-0.5-3,0.4l-7,9.2c-0.5,0.7-0.7,1.8,0,2.6l7.1,9.2c0.7,0.9,2.1,1.1,3,0.4
			c1-0.7,1.1-2.1,0.4-3l-4.4-5.7l12.5,0C918.3,13.2,922.3,6.5,919.2,1.2 M888.1,8.8l-14.3,0c-2,0-4.9-2.5-3.2-5.5l6.2-10.8l2.8,6.6
			c0.5,1.1,1.7,1.6,2.8,1.2c1.1-0.5,1.6-1.7,1.2-2.8l-4.5-10.7c-0.3-0.8-1.2-1.5-2.3-1.3L865.4-13c-1.2,0.2-2,1.2-1.9,2.4
			c0.2,1.2,1.2,2,2.4,1.9l7.1-1l-6.2,10.8c-2.9,5.1,0.9,12,7,12l14.3,0c1.2,0,2.2-1,2.2-2.2C890.3,9.7,889.3,8.8,888.1,8.8
			 M893.3-18.4c-0.2,1.2,0.7,2.3,1.9,2.4l11.5,1.5c0.9,0.1,1.9-0.3,2.3-1.3l4.4-10.7c0.5-1.1-0.1-2.4-1.2-2.8
			c-1.1-0.5-2.4,0.1-2.8,1.2l-2.7,6.7l-6.3-10.8c-3-5.1-10.8-5.2-13.8,0l-7.1,12.4c-0.6,1-0.2,2.4,0.8,3c1,0.6,2.4,0.2,3-0.8
			l7.1-12.4c1-1.7,4.6-3,6.3,0l6.3,10.8l-7.1-0.9C894.6-20.4,893.5-19.6,893.3-18.4"/>
		<path class="st1" d="M1040.4,1.2l-7.2-12.4c-0.6-1-1.9-1.4-3-0.8c-1,0.6-1.4,1.9-0.8,3l7.2,12.4c1,1.7,0.3,5.5-3.1,5.5l-12.5,0
			l4.4-5.7c0.7-1,0.5-2.3-0.4-3c-1-0.7-2.3-0.5-3,0.4l-7,9.2c-0.5,0.7-0.7,1.8,0,2.6l7.1,9.2c0.7,0.9,2.1,1.1,3,0.4
			c1-0.7,1.1-2.1,0.4-3l-4.4-5.7l12.5,0C1039.4,13.2,1043.4,6.5,1040.4,1.2 M1009.3,8.8l-14.3,0c-2,0-4.9-2.5-3.2-5.5L998-7.5
			l2.8,6.6c0.5,1.1,1.7,1.6,2.8,1.2c1.1-0.5,1.6-1.7,1.2-2.8l-4.5-10.7c-0.3-0.8-1.2-1.5-2.3-1.3L986.5-13c-1.2,0.2-2,1.2-1.9,2.4
			c0.2,1.2,1.2,2,2.4,1.9l7.1-1L988,1.2c-2.9,5.1,0.9,12,7,12l14.3,0c1.2,0,2.2-1,2.2-2.2C1011.5,9.7,1010.5,8.8,1009.3,8.8
			 M1014.5-18.4c-0.2,1.2,0.7,2.3,1.9,2.4l11.5,1.5c0.9,0.1,1.9-0.3,2.3-1.3l4.4-10.7c0.5-1.1-0.1-2.4-1.2-2.8
			c-1.1-0.5-2.4,0.1-2.8,1.2l-2.7,6.7l-6.3-10.8c-3-5.1-10.8-5.2-13.8,0l-7.1,12.4c-0.6,1-0.2,2.4,0.8,3c1,0.6,2.4,0.2,3-0.8
			l7.1-12.4c1-1.7,4.6-3,6.3,0l6.3,10.8l-7.1-0.9C1015.7-20.4,1014.6-19.6,1014.5-18.4"/>
	</g>
	<g>
		<path class="st1" d="M14.3,79.5L7.1,67.1c-0.6-1-1.9-1.4-3-0.8c-1,0.6-1.4,1.9-0.8,3l7.2,12.4c1,1.7,0.3,5.5-3.1,5.5l-12.5,0
			l4.4-5.7c0.7-1,0.5-2.3-0.4-3c-1-0.7-2.3-0.5-3,0.4l-7,9.2c-0.5,0.7-0.7,1.8,0,2.6l7.1,9.2c0.7,0.9,2.1,1.1,3,0.4
			c1-0.7,1.1-2.1,0.4-3l-4.4-5.7l12.5,0C13.4,91.4,17.4,84.7,14.3,79.5 M-16.8,87l-14.3,0c-2,0-4.9-2.5-3.2-5.5l6.2-10.8l2.8,6.6
			c0.5,1.1,1.7,1.6,2.8,1.2c1.1-0.5,1.6-1.7,1.2-2.8L-25.8,65c-0.3-0.8-1.2-1.5-2.3-1.3l-11.5,1.5c-1.2,0.2-2,1.2-1.9,2.4
			c0.2,1.2,1.2,2,2.4,1.9l7.1-1l-6.2,10.8c-2.9,5.1,0.9,12,7,12l14.3,0c1.2,0,2.2-1,2.2-2.2C-14.6,87.9-15.6,87-16.8,87 M-11.6,59.8
			c-0.2,1.2,0.7,2.3,1.9,2.4l11.5,1.5c0.9,0.1,1.9-0.3,2.3-1.3l4.4-10.7c0.5-1.1-0.1-2.4-1.2-2.8c-1.1-0.5-2.4,0.1-2.8,1.2l-2.7,6.7
			l-6.3-10.8c-3-5.1-10.8-5.2-13.8,0l-7.1,12.4c-0.6,1-0.2,2.4,0.8,3c1,0.6,2.4,0.2,3-0.8l7.1-12.4c1-1.7,4.6-3,6.3,0L-2,58.9
			L-9.2,58C-10.4,57.8-11.5,58.7-11.6,59.8"/>
		<path class="st1" d="M135.5,79.5l-7.2-12.4c-0.6-1-1.9-1.4-3-0.8c-1,0.6-1.4,1.9-0.8,3l7.2,12.4c1,1.7,0.3,5.5-3.1,5.5l-12.5,0
			l4.4-5.7c0.7-1,0.5-2.3-0.4-3c-1-0.7-2.3-0.5-3,0.4l-7,9.2c-0.5,0.7-0.7,1.8,0,2.6l7.1,9.2c0.7,0.9,2.1,1.1,3,0.4
			c1-0.7,1.1-2.1,0.4-3l-4.4-5.7l12.5,0C134.5,91.4,138.5,84.7,135.5,79.5 M104.4,87L90,87c-2,0-4.9-2.5-3.2-5.5l6.2-10.8l2.8,6.6
			c0.5,1.1,1.7,1.6,2.8,1.2c1.1-0.5,1.6-1.7,1.2-2.8L95.4,65c-0.3-0.8-1.2-1.5-2.3-1.3l-11.5,1.5c-1.2,0.2-2,1.2-1.9,2.4
			c0.2,1.2,1.2,2,2.4,1.9l7.1-1l-6.2,10.8c-2.9,5.1,0.9,12,7,12l14.3,0c1.2,0,2.2-1,2.2-2.2C106.5,87.9,105.6,87,104.4,87
			 M109.6,59.8c-0.2,1.2,0.7,2.3,1.9,2.4l11.5,1.5c0.9,0.1,1.9-0.3,2.3-1.3l4.4-10.7c0.5-1.1-0.1-2.4-1.2-2.8
			c-1.1-0.5-2.4,0.1-2.8,1.2l-2.7,6.7l-6.3-10.8c-3-5.1-10.8-5.2-13.8,0l-7.1,12.4c-0.6,1-0.2,2.4,0.8,3c1,0.6,2.4,0.2,3-0.8
			l7.1-12.4c1-1.7,4.6-3,6.3,0l6.3,10.8L112,58C110.8,57.8,109.7,58.7,109.6,59.8"/>
		<path class="st1" d="M256.6,79.5l-7.2-12.4c-0.6-1-1.9-1.4-3-0.8c-1,0.6-1.4,1.9-0.8,3l7.2,12.4c1,1.7,0.3,5.5-3.1,5.5l-12.5,0
			l4.4-5.7c0.7-1,0.5-2.3-0.4-3c-1-0.7-2.3-0.5-3,0.4l-7,9.2c-0.5,0.7-0.7,1.8,0,2.6l7.1,9.2c0.7,0.9,2.1,1.1,3,0.4
			c1-0.7,1.1-2.1,0.4-3l-4.4-5.7l12.5,0C255.7,91.4,259.7,84.7,256.6,79.5 M225.5,87l-14.3,0c-2,0-4.9-2.5-3.2-5.5l6.2-10.8l2.8,6.6
			c0.5,1.1,1.7,1.6,2.8,1.2c1.1-0.5,1.6-1.7,1.2-2.8L216.5,65c-0.3-0.8-1.2-1.5-2.3-1.3l-11.5,1.5c-1.2,0.2-2,1.2-1.9,2.4
			c0.2,1.2,1.2,2,2.4,1.9l7.1-1l-6.2,10.8c-2.9,5.1,0.9,12,7,12l14.3,0c1.2,0,2.2-1,2.2-2.2C227.7,87.9,226.7,87,225.5,87
			 M230.7,59.8c-0.2,1.2,0.7,2.3,1.9,2.4l11.5,1.5c0.9,0.1,1.9-0.3,2.3-1.3l4.4-10.7c0.5-1.1-0.1-2.4-1.2-2.8
			c-1.1-0.5-2.4,0.1-2.8,1.2l-2.7,6.7l-6.3-10.8c-3-5.1-10.8-5.2-13.8,0l-7.1,12.4c-0.6,1-0.2,2.4,0.8,3c1,0.6,2.4,0.2,3-0.8
			l7.1-12.4c1-1.7,4.6-3,6.3,0l6.3,10.8l-7.1-0.9C232,57.8,230.9,58.7,230.7,59.8"/>
		<path class="st1" d="M377.8,79.5l-7.2-12.4c-0.6-1-1.9-1.4-3-0.8c-1,0.6-1.4,1.9-0.8,3l7.2,12.4c1,1.7,0.3,5.5-3.1,5.5l-12.5,0
			l4.4-5.7c0.7-1,0.5-2.3-0.4-3c-1-0.7-2.3-0.5-3,0.4l-7,9.2c-0.5,0.7-0.7,1.8,0,2.6l7.1,9.2c0.7,0.9,2.1,1.1,3,0.4
			c1-0.7,1.1-2.1,0.4-3l-4.4-5.7l12.5,0C376.8,91.4,380.8,84.7,377.8,79.5 M346.7,87l-14.3,0c-2,0-4.9-2.5-3.2-5.5l6.2-10.8l2.8,6.6
			c0.5,1.1,1.7,1.6,2.8,1.2c1.1-0.5,1.6-1.7,1.2-2.8L337.7,65c-0.3-0.8-1.2-1.5-2.3-1.3l-11.5,1.5c-1.2,0.2-2,1.2-1.9,2.4
			c0.2,1.2,1.2,2,2.4,1.9l7.1-1l-6.2,10.8c-2.9,5.1,0.9,12,7,12l14.3,0c1.2,0,2.2-1,2.2-2.2C348.8,87.9,347.9,87,346.7,87
			 M351.9,59.8c-0.2,1.2,0.7,2.3,1.9,2.4l11.5,1.5c0.9,0.1,1.9-0.3,2.3-1.3l4.4-10.7c0.5-1.1-0.1-2.4-1.2-2.8
			c-1.1-0.5-2.4,0.1-2.8,1.2l-2.7,6.7l-6.3-10.8c-3-5.1-10.8-5.2-13.8,0L338,58.4c-0.6,1-0.2,2.4,0.8,3c1,0.6,2.4,0.2,3-0.8
			l7.1-12.4c1-1.7,4.6-3,6.3,0l6.3,10.8l-7.1-0.9C353.1,57.8,352,58.7,351.9,59.8"/>
		<path class="st1" d="M499,79.5l-7.2-12.4c-0.6-1-1.9-1.4-3-0.8c-1,0.6-1.4,1.9-0.8,3l7.2,12.4c1,1.7,0.3,5.5-3.1,5.5l-12.5,0
			l4.4-5.7c0.7-1,0.5-2.3-0.4-3c-1-0.7-2.3-0.5-3,0.4l-7,9.2c-0.5,0.7-0.7,1.8,0,2.6l7.1,9.2c0.7,0.9,2.1,1.1,3,0.4
			c1-0.7,1.1-2.1,0.4-3l-4.4-5.7l12.5,0C498,91.4,502,84.7,499,79.5 M467.8,87l-14.3,0c-2,0-4.9-2.5-3.2-5.5l6.2-10.8l2.8,6.6
			c0.5,1.1,1.7,1.6,2.8,1.2c1.1-0.5,1.6-1.7,1.2-2.8L458.9,65c-0.3-0.8-1.2-1.5-2.3-1.3l-11.5,1.5c-1.2,0.2-2,1.2-1.9,2.4
			c0.2,1.2,1.2,2,2.4,1.9l7.1-1l-6.2,10.8c-2.9,5.1,0.9,12,7,12l14.3,0c1.2,0,2.2-1,2.2-2.2C470,87.9,469,87,467.8,87 M473,59.8
			c-0.2,1.2,0.7,2.3,1.9,2.4l11.5,1.5c0.9,0.1,1.9-0.3,2.3-1.3l4.4-10.7c0.5-1.1-0.1-2.4-1.2-2.8c-1.1-0.5-2.4,0.1-2.8,1.2l-2.7,6.7
			l-6.3-10.8c-3-5.1-10.8-5.2-13.8,0l-7.1,12.4c-0.6,1-0.2,2.4,0.8,3c1,0.6,2.4,0.2,3-0.8l7.1-12.4c1-1.7,4.6-3,6.3,0l6.3,10.8
			l-7.1-0.9C474.3,57.8,473.2,58.7,473,59.8"/>
		<path class="st1" d="M620.1,79.5l-7.2-12.4c-0.6-1-1.9-1.4-3-0.8c-1,0.6-1.4,1.9-0.8,3l7.2,12.4c1,1.7,0.3,5.5-3.1,5.5l-12.5,0
			l4.4-5.7c0.7-1,0.5-2.3-0.4-3c-1-0.7-2.3-0.5-3,0.4l-7,9.2c-0.5,0.7-0.7,1.8,0,2.6l7.1,9.2c0.7,0.9,2.1,1.1,3,0.4
			c1-0.7,1.1-2.1,0.4-3l-4.4-5.7l12.5,0C619.2,91.4,623.2,84.7,620.1,79.5 M589,87l-14.3,0c-2,0-4.9-2.5-3.2-5.5l6.2-10.8l2.8,6.6
			c0.5,1.1,1.7,1.6,2.8,1.2c1.1-0.5,1.6-1.7,1.2-2.8L580,65c-0.3-0.8-1.2-1.5-2.3-1.3l-11.5,1.5c-1.2,0.2-2,1.2-1.9,2.4
			c0.2,1.2,1.2,2,2.4,1.9l7.1-1l-6.2,10.8c-2.9,5.1,0.9,12,7,12l14.3,0c1.2,0,2.2-1,2.2-2.2C591.2,87.9,590.2,87,589,87 M594.2,59.8
			c-0.2,1.2,0.7,2.3,1.9,2.4l11.5,1.5c0.9,0.1,1.9-0.3,2.3-1.3l4.4-10.7c0.5-1.1-0.1-2.4-1.2-2.8c-1.1-0.5-2.4,0.1-2.8,1.2l-2.7,6.7
			l-6.3-10.8c-3-5.1-10.8-5.2-13.8,0l-7.1,12.4c-0.6,1-0.2,2.4,0.8,3c1,0.6,2.4,0.2,3-0.8l7.1-12.4c1-1.7,4.6-3,6.3,0l6.3,10.8
			l-7.1-0.9C595.4,57.8,594.3,58.7,594.2,59.8"/>
		<path class="st1" d="M741.3,79.5l-7.2-12.4c-0.6-1-1.9-1.4-3-0.8c-1,0.6-1.4,1.9-0.8,3l7.2,12.4c1,1.7,0.3,5.5-3.1,5.5l-12.5,0
			l4.4-5.7c0.7-1,0.5-2.3-0.4-3c-1-0.7-2.3-0.5-3,0.4l-7,9.2c-0.5,0.7-0.7,1.8,0,2.6l7.1,9.2c0.7,0.9,2.1,1.1,3,0.4
			c1-0.7,1.1-2.1,0.4-3l-4.4-5.7l12.5,0C740.3,91.4,744.3,84.7,741.3,79.5 M710.2,87l-14.3,0c-2,0-4.9-2.5-3.2-5.5l6.2-10.8l2.8,6.6
			c0.5,1.1,1.7,1.6,2.8,1.2c1.1-0.5,1.6-1.7,1.2-2.8L701.2,65c-0.3-0.8-1.2-1.5-2.3-1.3l-11.5,1.5c-1.2,0.2-2,1.2-1.9,2.4
			c0.2,1.2,1.2,2,2.4,1.9l7.1-1l-6.2,10.8c-2.9,5.1,0.9,12,7,12l14.3,0c1.2,0,2.2-1,2.2-2.2C712.3,87.9,711.4,87,710.2,87
			 M715.4,59.8c-0.2,1.2,0.7,2.3,1.9,2.4l11.5,1.5c0.9,0.1,1.9-0.3,2.3-1.3l4.4-10.7c0.5-1.1-0.1-2.4-1.2-2.8
			c-1.1-0.5-2.4,0.1-2.8,1.2l-2.7,6.7l-6.3-10.8c-3-5.1-10.8-5.2-13.8,0l-7.1,12.4c-0.6,1-0.2,2.4,0.8,3c1,0.6,2.4,0.2,3-0.8
			l7.1-12.4c1-1.7,4.6-3,6.3,0l6.3,10.8l-7.1-0.9C716.6,57.8,715.5,58.7,715.4,59.8"/>
		<path class="st1" d="M862.4,79.5l-7.2-12.4c-0.6-1-1.9-1.4-3-0.8c-1,0.6-1.4,1.9-0.8,3l7.2,12.4c1,1.7,0.3,5.5-3.1,5.5l-12.5,0
			l4.4-5.7c0.7-1,0.5-2.3-0.4-3c-1-0.7-2.3-0.5-3,0.4l-7,9.2c-0.5,0.7-0.7,1.8,0,2.6l7.1,9.2c0.7,0.9,2.1,1.1,3,0.4
			c1-0.7,1.1-2.1,0.4-3l-4.4-5.7l12.5,0C861.5,91.4,865.5,84.7,862.4,79.5 M831.3,87L817,87c-2,0-4.9-2.5-3.2-5.5l6.2-10.8l2.8,6.6
			c0.5,1.1,1.7,1.6,2.8,1.2c1.1-0.5,1.6-1.7,1.2-2.8L822.3,65c-0.3-0.8-1.2-1.5-2.3-1.3l-11.5,1.5c-1.2,0.2-2,1.2-1.9,2.4
			c0.2,1.2,1.2,2,2.4,1.9l7.1-1l-6.2,10.8c-2.9,5.1,0.9,12,7,12l14.3,0c1.2,0,2.2-1,2.2-2.2C833.5,87.9,832.5,87,831.3,87
			 M836.5,59.8c-0.2,1.2,0.7,2.3,1.9,2.4l11.5,1.5c0.9,0.1,1.9-0.3,2.3-1.3l4.4-10.7c0.5-1.1-0.1-2.4-1.2-2.8
			c-1.1-0.5-2.4,0.1-2.8,1.2l-2.7,6.7l-6.3-10.8c-3-5.1-10.8-5.2-13.8,0l-7.1,12.4c-0.6,1-0.2,2.4,0.8,3c1,0.6,2.4,0.2,3-0.8
			l7.1-12.4c1-1.7,4.6-3,6.3,0l6.3,10.8l-7.1-0.9C837.8,57.8,836.7,58.7,836.5,59.8"/>
		<path class="st1" d="M983.6,79.5l-7.2-12.4c-0.6-1-1.9-1.4-3-0.8c-1,0.6-1.4,1.9-0.8,3l7.2,12.4c1,1.7,0.3,5.5-3.1,5.5l-12.5,0
			l4.4-5.7c0.7-1,0.5-2.3-0.4-3c-1-0.7-2.3-0.5-3,0.4l-7,9.2c-0.5,0.7-0.7,1.8,0,2.6l7.1,9.2c0.7,0.9,2.1,1.1,3,0.4
			c1-0.7,1.1-2.1,0.4-3l-4.4-5.7l12.5,0C982.6,91.4,986.6,84.7,983.6,79.5 M952.5,87l-14.3,0c-2,0-4.9-2.5-3.2-5.5l6.2-10.8l2.8,6.6
			c0.5,1.1,1.7,1.6,2.8,1.2c1.1-0.5,1.6-1.7,1.2-2.8L943.5,65c-0.3-0.8-1.2-1.5-2.3-1.3l-11.5,1.5c-1.2,0.2-2,1.2-1.9,2.4
			c0.2,1.2,1.2,2,2.4,1.9l7.1-1l-6.2,10.8c-2.9,5.1,0.9,12,7,12l14.3,0c1.2,0,2.2-1,2.2-2.2C954.7,87.9,953.7,87,952.5,87
			 M957.7,59.8c-0.2,1.2,0.7,2.3,1.9,2.4l11.5,1.5c0.9,0.1,1.9-0.3,2.3-1.3l4.4-10.7c0.5-1.1-0.1-2.4-1.2-2.8
			c-1.1-0.5-2.4,0.1-2.8,1.2l-2.7,6.7l-6.3-10.8c-3-5.1-10.8-5.2-13.8,0l-7.1,12.4c-0.6,1-0.2,2.4,0.8,3c1,0.6,2.4,0.2,3-0.8
			l7.1-12.4c1-1.7,4.6-3,6.3,0l6.3,10.8l-7.1-0.9C958.9,57.8,957.8,58.7,957.7,59.8"/>
	</g>
	<g>
		<path class="st1" d="M14.3,235.9l-7.2-12.4c-0.6-1-1.9-1.4-3-0.8c-1,0.6-1.4,1.9-0.8,3l7.2,12.4c1,1.7,0.3,5.5-3.1,5.5l-12.5,0
			l4.4-5.7c0.7-1,0.5-2.3-0.4-3c-1-0.7-2.3-0.5-3,0.4l-7,9.2c-0.5,0.7-0.7,1.8,0,2.6l7.1,9.2c0.7,0.9,2.1,1.1,3,0.4
			c1-0.7,1.1-2.1,0.4-3l-4.4-5.7l12.5,0C13.4,247.9,17.4,241.1,14.3,235.9 M-16.8,243.4l-14.3,0c-2,0-4.9-2.5-3.2-5.5l6.2-10.8
			l2.8,6.6c0.5,1.1,1.7,1.6,2.8,1.2c1.1-0.5,1.6-1.7,1.2-2.8l-4.5-10.7c-0.3-0.8-1.2-1.5-2.3-1.3l-11.5,1.5c-1.2,0.2-2,1.2-1.9,2.4
			c0.2,1.2,1.2,2,2.4,1.9l7.1-1l-6.2,10.8c-2.9,5.1,0.9,12,7,12l14.3,0c1.2,0,2.2-1,2.2-2.2C-14.6,244.4-15.6,243.4-16.8,243.4
			 M-11.6,216.3c-0.2,1.2,0.7,2.3,1.9,2.4l11.5,1.5c0.9,0.1,1.9-0.3,2.3-1.3l4.4-10.7c0.5-1.1-0.1-2.4-1.2-2.8
			c-1.1-0.5-2.4,0.1-2.8,1.2l-2.7,6.7l-6.3-10.8c-3-5.1-10.8-5.2-13.8,0l-7.1,12.4c-0.6,1-0.2,2.4,0.8,3c1,0.6,2.4,0.2,3-0.8
			l7.1-12.4c1-1.7,4.6-3,6.3,0l6.3,10.8l-7.1-0.9C-10.4,214.2-11.5,215.1-11.6,216.3"/>
		<path class="st1" d="M135.5,235.9l-7.2-12.4c-0.6-1-1.9-1.4-3-0.8c-1,0.6-1.4,1.9-0.8,3l7.2,12.4c1,1.7,0.3,5.5-3.1,5.5l-12.5,0
			l4.4-5.7c0.7-1,0.5-2.3-0.4-3c-1-0.7-2.3-0.5-3,0.4l-7,9.2c-0.5,0.7-0.7,1.8,0,2.6l7.1,9.2c0.7,0.9,2.1,1.1,3,0.4
			c1-0.7,1.1-2.1,0.4-3l-4.4-5.7l12.5,0C134.5,247.9,138.5,241.1,135.5,235.9 M104.4,243.4l-14.3,0c-2,0-4.9-2.5-3.2-5.5l6.2-10.8
			l2.8,6.6c0.5,1.1,1.7,1.6,2.8,1.2c1.1-0.5,1.6-1.7,1.2-2.8l-4.5-10.7c-0.3-0.8-1.2-1.5-2.3-1.3l-11.5,1.5c-1.2,0.2-2,1.2-1.9,2.4
			c0.2,1.2,1.2,2,2.4,1.9l7.1-1l-6.2,10.8c-2.9,5.1,0.9,12,7,12l14.3,0c1.2,0,2.2-1,2.2-2.2C106.5,244.4,105.6,243.4,104.4,243.4
			 M109.6,216.3c-0.2,1.2,0.7,2.3,1.9,2.4l11.5,1.5c0.9,0.1,1.9-0.3,2.3-1.3l4.4-10.7c0.5-1.1-0.1-2.4-1.2-2.8
			c-1.1-0.5-2.4,0.1-2.8,1.2l-2.7,6.7l-6.3-10.8c-3-5.1-10.8-5.2-13.8,0l-7.1,12.4c-0.6,1-0.2,2.4,0.8,3c1,0.6,2.4,0.2,3-0.8
			l7.1-12.4c1-1.7,4.6-3,6.3,0l6.3,10.8l-7.1-0.9C110.8,214.2,109.7,215.1,109.6,216.3"/>
		<path class="st1" d="M256.6,235.9l-7.2-12.4c-0.6-1-1.9-1.4-3-0.8c-1,0.6-1.4,1.9-0.8,3l7.2,12.4c1,1.7,0.3,5.5-3.1,5.5l-12.5,0
			l4.4-5.7c0.7-1,0.5-2.3-0.4-3c-1-0.7-2.3-0.5-3,0.4l-7,9.2c-0.5,0.7-0.7,1.8,0,2.6l7.1,9.2c0.7,0.9,2.1,1.1,3,0.4
			c1-0.7,1.1-2.1,0.4-3l-4.4-5.7l12.5,0C255.7,247.9,259.7,241.1,256.6,235.9 M225.5,243.4l-14.3,0c-2,0-4.9-2.5-3.2-5.5l6.2-10.8
			l2.8,6.6c0.5,1.1,1.7,1.6,2.8,1.2c1.1-0.5,1.6-1.7,1.2-2.8l-4.5-10.7c-0.3-0.8-1.2-1.5-2.3-1.3l-11.5,1.5c-1.2,0.2-2,1.2-1.9,2.4
			c0.2,1.2,1.2,2,2.4,1.9l7.1-1l-6.2,10.8c-2.9,5.1,0.9,12,7,12l14.3,0c1.2,0,2.2-1,2.2-2.2C227.7,244.4,226.7,243.4,225.5,243.4
			 M230.7,216.3c-0.2,1.2,0.7,2.3,1.9,2.4l11.5,1.5c0.9,0.1,1.9-0.3,2.3-1.3l4.4-10.7c0.5-1.1-0.1-2.4-1.2-2.8
			c-1.1-0.5-2.4,0.1-2.8,1.2l-2.7,6.7l-6.3-10.8c-3-5.1-10.8-5.2-13.8,0l-7.1,12.4c-0.6,1-0.2,2.4,0.8,3c1,0.6,2.4,0.2,3-0.8
			l7.1-12.4c1-1.7,4.6-3,6.3,0l6.3,10.8l-7.1-0.9C232,214.2,230.9,215.1,230.7,216.3"/>
		<path class="st1" d="M377.8,235.9l-7.2-12.4c-0.6-1-1.9-1.4-3-0.8c-1,0.6-1.4,1.9-0.8,3l7.2,12.4c1,1.7,0.3,5.5-3.1,5.5l-12.5,0
			l4.4-5.7c0.7-1,0.5-2.3-0.4-3c-1-0.7-2.3-0.5-3,0.4l-7,9.2c-0.5,0.7-0.7,1.8,0,2.6l7.1,9.2c0.7,0.9,2.1,1.1,3,0.4
			c1-0.7,1.1-2.1,0.4-3l-4.4-5.7l12.5,0C376.8,247.9,380.8,241.1,377.8,235.9 M346.7,243.4l-14.3,0c-2,0-4.9-2.5-3.2-5.5l6.2-10.8
			l2.8,6.6c0.5,1.1,1.7,1.6,2.8,1.2c1.1-0.5,1.6-1.7,1.2-2.8l-4.5-10.7c-0.3-0.8-1.2-1.5-2.3-1.3l-11.5,1.5c-1.2,0.2-2,1.2-1.9,2.4
			c0.2,1.2,1.2,2,2.4,1.9l7.1-1l-6.2,10.8c-2.9,5.1,0.9,12,7,12l14.3,0c1.2,0,2.2-1,2.2-2.2C348.8,244.4,347.9,243.4,346.7,243.4
			 M351.9,216.3c-0.2,1.2,0.7,2.3,1.9,2.4l11.5,1.5c0.9,0.1,1.9-0.3,2.3-1.3l4.4-10.7c0.5-1.1-0.1-2.4-1.2-2.8
			c-1.1-0.5-2.4,0.1-2.8,1.2l-2.7,6.7l-6.3-10.8c-3-5.1-10.8-5.2-13.8,0l-7.1,12.4c-0.6,1-0.2,2.4,0.8,3c1,0.6,2.4,0.2,3-0.8
			l7.1-12.4c1-1.7,4.6-3,6.3,0l6.3,10.8l-7.1-0.9C353.1,214.2,352,215.1,351.9,216.3"/>
		<path class="st1" d="M499,235.9l-7.2-12.4c-0.6-1-1.9-1.4-3-0.8c-1,0.6-1.4,1.9-0.8,3l7.2,12.4c1,1.7,0.3,5.5-3.1,5.5l-12.5,0
			l4.4-5.7c0.7-1,0.5-2.3-0.4-3c-1-0.7-2.3-0.5-3,0.4l-7,9.2c-0.5,0.7-0.7,1.8,0,2.6l7.1,9.2c0.7,0.9,2.1,1.1,3,0.4
			c1-0.7,1.1-2.1,0.4-3l-4.4-5.7l12.5,0C498,247.9,502,241.1,499,235.9 M467.8,243.4l-14.3,0c-2,0-4.9-2.5-3.2-5.5l6.2-10.8l2.8,6.6
			c0.5,1.1,1.7,1.6,2.8,1.2c1.1-0.5,1.6-1.7,1.2-2.8l-4.5-10.7c-0.3-0.8-1.2-1.5-2.3-1.3l-11.5,1.5c-1.2,0.2-2,1.2-1.9,2.4
			c0.2,1.2,1.2,2,2.4,1.9l7.1-1l-6.2,10.8c-2.9,5.1,0.9,12,7,12l14.3,0c1.2,0,2.2-1,2.2-2.2C470,244.4,469,243.4,467.8,243.4
			 M473,216.3c-0.2,1.2,0.7,2.3,1.9,2.4l11.5,1.5c0.9,0.1,1.9-0.3,2.3-1.3l4.4-10.7c0.5-1.1-0.1-2.4-1.2-2.8
			c-1.1-0.5-2.4,0.1-2.8,1.2l-2.7,6.7l-6.3-10.8c-3-5.1-10.8-5.2-13.8,0l-7.1,12.4c-0.6,1-0.2,2.4,0.8,3c1,0.6,2.4,0.2,3-0.8
			l7.1-12.4c1-1.7,4.6-3,6.3,0l6.3,10.8l-7.1-0.9C474.3,214.2,473.2,215.1,473,216.3"/>
		<path class="st1" d="M620.1,235.9l-7.2-12.4c-0.6-1-1.9-1.4-3-0.8c-1,0.6-1.4,1.9-0.8,3l7.2,12.4c1,1.7,0.3,5.5-3.1,5.5l-12.5,0
			l4.4-5.7c0.7-1,0.5-2.3-0.4-3c-1-0.7-2.3-0.5-3,0.4l-7,9.2c-0.5,0.7-0.7,1.8,0,2.6l7.1,9.2c0.7,0.9,2.1,1.1,3,0.4
			c1-0.7,1.1-2.1,0.4-3l-4.4-5.7l12.5,0C619.2,247.9,623.2,241.1,620.1,235.9 M589,243.4l-14.3,0c-2,0-4.9-2.5-3.2-5.5l6.2-10.8
			l2.8,6.6c0.5,1.1,1.7,1.6,2.8,1.2c1.1-0.5,1.6-1.7,1.2-2.8l-4.5-10.7c-0.3-0.8-1.2-1.5-2.3-1.3l-11.5,1.5c-1.2,0.2-2,1.2-1.9,2.4
			c0.2,1.2,1.2,2,2.4,1.9l7.1-1l-6.2,10.8c-2.9,5.1,0.9,12,7,12l14.3,0c1.2,0,2.2-1,2.2-2.2C591.2,244.4,590.2,243.4,589,243.4
			 M594.2,216.3c-0.2,1.2,0.7,2.3,1.9,2.4l11.5,1.5c0.9,0.1,1.9-0.3,2.3-1.3l4.4-10.7c0.5-1.1-0.1-2.4-1.2-2.8
			c-1.1-0.5-2.4,0.1-2.8,1.2l-2.7,6.7l-6.3-10.8c-3-5.1-10.8-5.2-13.8,0l-7.1,12.4c-0.6,1-0.2,2.4,0.8,3c1,0.6,2.4,0.2,3-0.8
			l7.1-12.4c1-1.7,4.6-3,6.3,0l6.3,10.8l-7.1-0.9C595.4,214.2,594.3,215.1,594.2,216.3"/>
		<path class="st1" d="M741.3,235.9l-7.2-12.4c-0.6-1-1.9-1.4-3-0.8c-1,0.6-1.4,1.9-0.8,3l7.2,12.4c1,1.7,0.3,5.5-3.1,5.5l-12.5,0
			l4.4-5.7c0.7-1,0.5-2.3-0.4-3c-1-0.7-2.3-0.5-3,0.4l-7,9.2c-0.5,0.7-0.7,1.8,0,2.6l7.1,9.2c0.7,0.9,2.1,1.1,3,0.4
			c1-0.7,1.1-2.1,0.4-3l-4.4-5.7l12.5,0C740.3,247.9,744.3,241.1,741.3,235.9 M710.2,243.4l-14.3,0c-2,0-4.9-2.5-3.2-5.5l6.2-10.8
			l2.8,6.6c0.5,1.1,1.7,1.6,2.8,1.2c1.1-0.5,1.6-1.7,1.2-2.8l-4.5-10.7c-0.3-0.8-1.2-1.5-2.3-1.3l-11.5,1.5c-1.2,0.2-2,1.2-1.9,2.4
			c0.2,1.2,1.2,2,2.4,1.9l7.1-1l-6.2,10.8c-2.9,5.1,0.9,12,7,12l14.3,0c1.2,0,2.2-1,2.2-2.2C712.3,244.4,711.4,243.4,710.2,243.4
			 M715.4,216.3c-0.2,1.2,0.7,2.3,1.9,2.4l11.5,1.5c0.9,0.1,1.9-0.3,2.3-1.3l4.4-10.7c0.5-1.1-0.1-2.4-1.2-2.8
			c-1.1-0.5-2.4,0.1-2.8,1.2l-2.7,6.7l-6.3-10.8c-3-5.1-10.8-5.2-13.8,0l-7.1,12.4c-0.6,1-0.2,2.4,0.8,3c1,0.6,2.4,0.2,3-0.8
			l7.1-12.4c1-1.7,4.6-3,6.3,0l6.3,10.8l-7.1-0.9C716.6,214.2,715.5,215.1,715.4,216.3"/>
		<path class="st1" d="M862.4,235.9l-7.2-12.4c-0.6-1-1.9-1.4-3-0.8c-1,0.6-1.4,1.9-0.8,3l7.2,12.4c1,1.7,0.3,5.5-3.1,5.5l-12.5,0
			l4.4-5.7c0.7-1,0.5-2.3-0.4-3c-1-0.7-2.3-0.5-3,0.4l-7,9.2c-0.5,0.7-0.7,1.8,0,2.6l7.1,9.2c0.7,0.9,2.1,1.1,3,0.4
			c1-0.7,1.1-2.1,0.4-3l-4.4-5.7l12.5,0C861.5,247.9,865.5,241.1,862.4,235.9 M831.3,243.4l-14.3,0c-2,0-4.9-2.5-3.2-5.5l6.2-10.8
			l2.8,6.6c0.5,1.1,1.7,1.6,2.8,1.2c1.1-0.5,1.6-1.7,1.2-2.8l-4.5-10.7c-0.3-0.8-1.2-1.5-2.3-1.3l-11.5,1.5c-1.2,0.2-2,1.2-1.9,2.4
			c0.2,1.2,1.2,2,2.4,1.9l7.1-1l-6.2,10.8c-2.9,5.1,0.9,12,7,12l14.3,0c1.2,0,2.2-1,2.2-2.2C833.5,244.4,832.5,243.4,831.3,243.4
			 M836.5,216.3c-0.2,1.2,0.7,2.3,1.9,2.4l11.5,1.5c0.9,0.1,1.9-0.3,2.3-1.3l4.4-10.7c0.5-1.1-0.1-2.4-1.2-2.8
			c-1.1-0.5-2.4,0.1-2.8,1.2l-2.7,6.7l-6.3-10.8c-3-5.1-10.8-5.2-13.8,0l-7.1,12.4c-0.6,1-0.2,2.4,0.8,3c1,0.6,2.4,0.2,3-0.8
			l7.1-12.4c1-1.7,4.6-3,6.3,0l6.3,10.8l-7.1-0.9C837.8,214.2,836.7,215.1,836.5,216.3"/>
		<path class="st1" d="M983.6,235.9l-7.2-12.4c-0.6-1-1.9-1.4-3-0.8c-1,0.6-1.4,1.9-0.8,3l7.2,12.4c1,1.7,0.3,5.5-3.1,5.5l-12.5,0
			l4.4-5.7c0.7-1,0.5-2.3-0.4-3c-1-0.7-2.3-0.5-3,0.4l-7,9.2c-0.5,0.7-0.7,1.8,0,2.6l7.1,9.2c0.7,0.9,2.1,1.1,3,0.4
			c1-0.7,1.1-2.1,0.4-3l-4.4-5.7l12.5,0C982.6,247.9,986.6,241.1,983.6,235.9 M952.5,243.4l-14.3,0c-2,0-4.9-2.5-3.2-5.5l6.2-10.8
			l2.8,6.6c0.5,1.1,1.7,1.6,2.8,1.2c1.1-0.5,1.6-1.7,1.2-2.8l-4.5-10.7c-0.3-0.8-1.2-1.5-2.3-1.3l-11.5,1.5c-1.2,0.2-2,1.2-1.9,2.4
			c0.2,1.2,1.2,2,2.4,1.9l7.1-1l-6.2,10.8c-2.9,5.1,0.9,12,7,12l14.3,0c1.2,0,2.2-1,2.2-2.2C954.7,244.4,953.7,243.4,952.5,243.4
			 M957.7,216.3c-0.2,1.2,0.7,2.3,1.9,2.4l11.5,1.5c0.9,0.1,1.9-0.3,2.3-1.3l4.4-10.7c0.5-1.1-0.1-2.4-1.2-2.8
			c-1.1-0.5-2.4,0.1-2.8,1.2l-2.7,6.7l-6.3-10.8c-3-5.1-10.8-5.2-13.8,0l-7.1,12.4c-0.6,1-0.2,2.4,0.8,3c1,0.6,2.4,0.2,3-0.8
			l7.1-12.4c1-1.7,4.6-3,6.3,0l6.3,10.8l-7.1-0.9C958.9,214.2,957.8,215.1,957.7,216.3"/>
	</g>
	<g>
		<path class="st1" d="M14.3,392.3l-7.2-12.4c-0.6-1-1.9-1.4-3-0.8c-1,0.6-1.4,1.9-0.8,3l7.2,12.4c1,1.7,0.3,5.5-3.1,5.5l-12.5,0
			l4.4-5.7c0.7-1,0.5-2.3-0.4-3c-1-0.7-2.3-0.5-3,0.4l-7,9.2c-0.5,0.7-0.7,1.8,0,2.6l7.1,9.2c0.7,0.9,2.1,1.1,3,0.4
			c1-0.7,1.1-2.1,0.4-3l-4.4-5.7l12.5,0C13.4,404.3,17.4,397.6,14.3,392.3 M-16.8,399.8l-14.3,0c-2,0-4.9-2.5-3.2-5.5l6.2-10.8
			l2.8,6.6c0.5,1.1,1.7,1.6,2.8,1.2c1.1-0.5,1.6-1.7,1.2-2.8l-4.5-10.7c-0.3-0.8-1.2-1.5-2.3-1.3l-11.5,1.5c-1.2,0.2-2,1.2-1.9,2.4
			c0.2,1.2,1.2,2,2.4,1.9l7.1-1l-6.2,10.8c-2.9,5.1,0.9,12,7,12l14.3,0c1.2,0,2.2-1,2.2-2.2C-14.6,400.8-15.6,399.8-16.8,399.8
			 M-11.6,372.7c-0.2,1.2,0.7,2.3,1.9,2.4l11.5,1.5c0.9,0.1,1.9-0.3,2.3-1.3l4.4-10.7c0.5-1.1-0.1-2.4-1.2-2.8
			c-1.1-0.5-2.4,0.1-2.8,1.2l-2.7,6.7l-6.3-10.8c-3-5.1-10.8-5.2-13.8,0l-7.1,12.4c-0.6,1-0.2,2.4,0.8,3c1,0.6,2.4,0.2,3-0.8
			l7.1-12.4c1-1.7,4.6-3,6.3,0l6.3,10.8l-7.1-0.9C-10.4,370.7-11.5,371.5-11.6,372.7"/>
		<path class="st1" d="M135.5,392.3l-7.2-12.4c-0.6-1-1.9-1.4-3-0.8c-1,0.6-1.4,1.9-0.8,3l7.2,12.4c1,1.7,0.3,5.5-3.1,5.5l-12.5,0
			l4.4-5.7c0.7-1,0.5-2.3-0.4-3c-1-0.7-2.3-0.5-3,0.4l-7,9.2c-0.5,0.7-0.7,1.8,0,2.6l7.1,9.2c0.7,0.9,2.1,1.1,3,0.4
			c1-0.7,1.1-2.1,0.4-3l-4.4-5.7l12.5,0C134.5,404.3,138.5,397.6,135.5,392.3 M104.4,399.8l-14.3,0c-2,0-4.9-2.5-3.2-5.5l6.2-10.8
			l2.8,6.6c0.5,1.1,1.7,1.6,2.8,1.2c1.1-0.5,1.6-1.7,1.2-2.8l-4.5-10.7c-0.3-0.8-1.2-1.5-2.3-1.3l-11.5,1.5c-1.2,0.2-2,1.2-1.9,2.4
			c0.2,1.2,1.2,2,2.4,1.9l7.1-1l-6.2,10.8c-2.9,5.1,0.9,12,7,12l14.3,0c1.2,0,2.2-1,2.2-2.2C106.5,400.8,105.6,399.8,104.4,399.8
			 M109.6,372.7c-0.2,1.2,0.7,2.3,1.9,2.4l11.5,1.5c0.9,0.1,1.9-0.3,2.3-1.3l4.4-10.7c0.5-1.1-0.1-2.4-1.2-2.8
			c-1.1-0.5-2.4,0.1-2.8,1.2l-2.7,6.7l-6.3-10.8c-3-5.1-10.8-5.2-13.8,0l-7.1,12.4c-0.6,1-0.2,2.4,0.8,3c1,0.6,2.4,0.2,3-0.8
			l7.1-12.4c1-1.7,4.6-3,6.3,0l6.3,10.8l-7.1-0.9C110.8,370.7,109.7,371.5,109.6,372.7"/>
		<path class="st1" d="M256.6,392.3l-7.2-12.4c-0.6-1-1.9-1.4-3-0.8c-1,0.6-1.4,1.9-0.8,3l7.2,12.4c1,1.7,0.3,5.5-3.1,5.5l-12.5,0
			l4.4-5.7c0.7-1,0.5-2.3-0.4-3c-1-0.7-2.3-0.5-3,0.4l-7,9.2c-0.5,0.7-0.7,1.8,0,2.6l7.1,9.2c0.7,0.9,2.1,1.1,3,0.4
			c1-0.7,1.1-2.1,0.4-3l-4.4-5.7l12.5,0C255.7,404.3,259.7,397.6,256.6,392.3 M225.5,399.8l-14.3,0c-2,0-4.9-2.5-3.2-5.5l6.2-10.8
			l2.8,6.6c0.5,1.1,1.7,1.6,2.8,1.2c1.1-0.5,1.6-1.7,1.2-2.8l-4.5-10.7c-0.3-0.8-1.2-1.5-2.3-1.3l-11.5,1.5c-1.2,0.2-2,1.2-1.9,2.4
			c0.2,1.2,1.2,2,2.4,1.9l7.1-1l-6.2,10.8c-2.9,5.1,0.9,12,7,12l14.3,0c1.2,0,2.2-1,2.2-2.2C227.7,400.8,226.7,399.8,225.5,399.8
			 M230.7,372.7c-0.2,1.2,0.7,2.3,1.9,2.4l11.5,1.5c0.9,0.1,1.9-0.3,2.3-1.3l4.4-10.7c0.5-1.1-0.1-2.4-1.2-2.8
			c-1.1-0.5-2.4,0.1-2.8,1.2l-2.7,6.7l-6.3-10.8c-3-5.1-10.8-5.2-13.8,0l-7.1,12.4c-0.6,1-0.2,2.4,0.8,3c1,0.6,2.4,0.2,3-0.8
			l7.1-12.4c1-1.7,4.6-3,6.3,0l6.3,10.8l-7.1-0.9C232,370.7,230.9,371.5,230.7,372.7"/>
		<path class="st1" d="M377.8,392.3l-7.2-12.4c-0.6-1-1.9-1.4-3-0.8c-1,0.6-1.4,1.9-0.8,3l7.2,12.4c1,1.7,0.3,5.5-3.1,5.5l-12.5,0
			l4.4-5.7c0.7-1,0.5-2.3-0.4-3c-1-0.7-2.3-0.5-3,0.4l-7,9.2c-0.5,0.7-0.7,1.8,0,2.6l7.1,9.2c0.7,0.9,2.1,1.1,3,0.4
			c1-0.7,1.1-2.1,0.4-3l-4.4-5.7l12.5,0C376.8,404.3,380.8,397.6,377.8,392.3 M346.7,399.8l-14.3,0c-2,0-4.9-2.5-3.2-5.5l6.2-10.8
			l2.8,6.6c0.5,1.1,1.7,1.6,2.8,1.2c1.1-0.5,1.6-1.7,1.2-2.8l-4.5-10.7c-0.3-0.8-1.2-1.5-2.3-1.3l-11.5,1.5c-1.2,0.2-2,1.2-1.9,2.4
			c0.2,1.2,1.2,2,2.4,1.9l7.1-1l-6.2,10.8c-2.9,5.1,0.9,12,7,12l14.3,0c1.2,0,2.2-1,2.2-2.2C348.8,400.8,347.9,399.8,346.7,399.8
			 M351.9,372.7c-0.2,1.2,0.7,2.3,1.9,2.4l11.5,1.5c0.9,0.1,1.9-0.3,2.3-1.3l4.4-10.7c0.5-1.1-0.1-2.4-1.2-2.8
			c-1.1-0.5-2.4,0.1-2.8,1.2l-2.7,6.7l-6.3-10.8c-3-5.1-10.8-5.2-13.8,0l-7.1,12.4c-0.6,1-0.2,2.4,0.8,3c1,0.6,2.4,0.2,3-0.8
			l7.1-12.4c1-1.7,4.6-3,6.3,0l6.3,10.8l-7.1-0.9C353.1,370.7,352,371.5,351.9,372.7"/>
		<path class="st1" d="M499,392.3l-7.2-12.4c-0.6-1-1.9-1.4-3-0.8c-1,0.6-1.4,1.9-0.8,3l7.2,12.4c1,1.7,0.3,5.5-3.1,5.5l-12.5,0
			l4.4-5.7c0.7-1,0.5-2.3-0.4-3c-1-0.7-2.3-0.5-3,0.4l-7,9.2c-0.5,0.7-0.7,1.8,0,2.6l7.1,9.2c0.7,0.9,2.1,1.1,3,0.4
			c1-0.7,1.1-2.1,0.4-3l-4.4-5.7l12.5,0C498,404.3,502,397.6,499,392.3 M467.8,399.8l-14.3,0c-2,0-4.9-2.5-3.2-5.5l6.2-10.8l2.8,6.6
			c0.5,1.1,1.7,1.6,2.8,1.2c1.1-0.5,1.6-1.7,1.2-2.8l-4.5-10.7c-0.3-0.8-1.2-1.5-2.3-1.3l-11.5,1.5c-1.2,0.2-2,1.2-1.9,2.4
			c0.2,1.2,1.2,2,2.4,1.9l7.1-1l-6.2,10.8c-2.9,5.1,0.9,12,7,12l14.3,0c1.2,0,2.2-1,2.2-2.2C470,400.8,469,399.8,467.8,399.8
			 M473,372.7c-0.2,1.2,0.7,2.3,1.9,2.4l11.5,1.5c0.9,0.1,1.9-0.3,2.3-1.3l4.4-10.7c0.5-1.1-0.1-2.4-1.2-2.8
			c-1.1-0.5-2.4,0.1-2.8,1.2l-2.7,6.7l-6.3-10.8c-3-5.1-10.8-5.2-13.8,0l-7.1,12.4c-0.6,1-0.2,2.4,0.8,3c1,0.6,2.4,0.2,3-0.8
			l7.1-12.4c1-1.7,4.6-3,6.3,0l6.3,10.8l-7.1-0.9C474.3,370.7,473.2,371.5,473,372.7"/>
		<path class="st1" d="M620.1,392.3l-7.2-12.4c-0.6-1-1.9-1.4-3-0.8c-1,0.6-1.4,1.9-0.8,3l7.2,12.4c1,1.7,0.3,5.5-3.1,5.5l-12.5,0
			l4.4-5.7c0.7-1,0.5-2.3-0.4-3c-1-0.7-2.3-0.5-3,0.4l-7,9.2c-0.5,0.7-0.7,1.8,0,2.6l7.1,9.2c0.7,0.9,2.1,1.1,3,0.4
			c1-0.7,1.1-2.1,0.4-3l-4.4-5.7l12.5,0C619.2,404.3,623.2,397.6,620.1,392.3 M589,399.8l-14.3,0c-2,0-4.9-2.5-3.2-5.5l6.2-10.8
			l2.8,6.6c0.5,1.1,1.7,1.6,2.8,1.2c1.1-0.5,1.6-1.7,1.2-2.8l-4.5-10.7c-0.3-0.8-1.2-1.5-2.3-1.3l-11.5,1.5c-1.2,0.2-2,1.2-1.9,2.4
			c0.2,1.2,1.2,2,2.4,1.9l7.1-1l-6.2,10.8c-2.9,5.1,0.9,12,7,12l14.3,0c1.2,0,2.2-1,2.2-2.2C591.2,400.8,590.2,399.8,589,399.8
			 M594.2,372.7c-0.2,1.2,0.7,2.3,1.9,2.4l11.5,1.5c0.9,0.1,1.9-0.3,2.3-1.3l4.4-10.7c0.5-1.1-0.1-2.4-1.2-2.8
			c-1.1-0.5-2.4,0.1-2.8,1.2l-2.7,6.7l-6.3-10.8c-3-5.1-10.8-5.2-13.8,0l-7.1,12.4c-0.6,1-0.2,2.4,0.8,3c1,0.6,2.4,0.2,3-0.8
			l7.1-12.4c1-1.7,4.6-3,6.3,0l6.3,10.8l-7.1-0.9C595.4,370.7,594.3,371.5,594.2,372.7"/>
		<path class="st1" d="M741.3,392.3l-7.2-12.4c-0.6-1-1.9-1.4-3-0.8c-1,0.6-1.4,1.9-0.8,3l7.2,12.4c1,1.7,0.3,5.5-3.1,5.5l-12.5,0
			l4.4-5.7c0.7-1,0.5-2.3-0.4-3c-1-0.7-2.3-0.5-3,0.4l-7,9.2c-0.5,0.7-0.7,1.8,0,2.6l7.1,9.2c0.7,0.9,2.1,1.1,3,0.4
			c1-0.7,1.1-2.1,0.4-3l-4.4-5.7l12.5,0C740.3,404.3,744.3,397.6,741.3,392.3 M710.2,399.8l-14.3,0c-2,0-4.9-2.5-3.2-5.5l6.2-10.8
			l2.8,6.6c0.5,1.1,1.7,1.6,2.8,1.2c1.1-0.5,1.6-1.7,1.2-2.8l-4.5-10.7c-0.3-0.8-1.2-1.5-2.3-1.3l-11.5,1.5c-1.2,0.2-2,1.2-1.9,2.4
			c0.2,1.2,1.2,2,2.4,1.9l7.1-1l-6.2,10.8c-2.9,5.1,0.9,12,7,12l14.3,0c1.2,0,2.2-1,2.2-2.2C712.3,400.8,711.4,399.8,710.2,399.8
			 M715.4,372.7c-0.2,1.2,0.7,2.3,1.9,2.4l11.5,1.5c0.9,0.1,1.9-0.3,2.3-1.3l4.4-10.7c0.5-1.1-0.1-2.4-1.2-2.8
			c-1.1-0.5-2.4,0.1-2.8,1.2l-2.7,6.7l-6.3-10.8c-3-5.1-10.8-5.2-13.8,0l-7.1,12.4c-0.6,1-0.2,2.4,0.8,3c1,0.6,2.4,0.2,3-0.8
			l7.1-12.4c1-1.7,4.6-3,6.3,0l6.3,10.8l-7.1-0.9C716.6,370.7,715.5,371.5,715.4,372.7"/>
		<path class="st1" d="M862.4,392.3l-7.2-12.4c-0.6-1-1.9-1.4-3-0.8c-1,0.6-1.4,1.9-0.8,3l7.2,12.4c1,1.7,0.3,5.5-3.1,5.5l-12.5,0
			l4.4-5.7c0.7-1,0.5-2.3-0.4-3c-1-0.7-2.3-0.5-3,0.4l-7,9.2c-0.5,0.7-0.7,1.8,0,2.6l7.1,9.2c0.7,0.9,2.1,1.1,3,0.4
			c1-0.7,1.1-2.1,0.4-3l-4.4-5.7l12.5,0C861.5,404.3,865.5,397.6,862.4,392.3 M831.3,399.8l-14.3,0c-2,0-4.9-2.5-3.2-5.5l6.2-10.8
			l2.8,6.6c0.5,1.1,1.7,1.6,2.8,1.2c1.1-0.5,1.6-1.7,1.2-2.8l-4.5-10.7c-0.3-0.8-1.2-1.5-2.3-1.3l-11.5,1.5c-1.2,0.2-2,1.2-1.9,2.4
			c0.2,1.2,1.2,2,2.4,1.9l7.1-1l-6.2,10.8c-2.9,5.1,0.9,12,7,12l14.3,0c1.2,0,2.2-1,2.2-2.2C833.5,400.8,832.5,399.8,831.3,399.8
			 M836.5,372.7c-0.2,1.2,0.7,2.3,1.9,2.4l11.5,1.5c0.9,0.1,1.9-0.3,2.3-1.3l4.4-10.7c0.5-1.1-0.1-2.4-1.2-2.8
			c-1.1-0.5-2.4,0.1-2.8,1.2l-2.7,6.7l-6.3-10.8c-3-5.1-10.8-5.2-13.8,0l-7.1,12.4c-0.6,1-0.2,2.4,0.8,3c1,0.6,2.4,0.2,3-0.8
			l7.1-12.4c1-1.7,4.6-3,6.3,0l6.3,10.8l-7.1-0.9C837.8,370.7,836.7,371.5,836.5,372.7"/>
		<path class="st1" d="M983.6,392.3l-7.2-12.4c-0.6-1-1.9-1.4-3-0.8c-1,0.6-1.4,1.9-0.8,3l7.2,12.4c1,1.7,0.3,5.5-3.1,5.5l-12.5,0
			l4.4-5.7c0.7-1,0.5-2.3-0.4-3c-1-0.7-2.3-0.5-3,0.4l-7,9.2c-0.5,0.7-0.7,1.8,0,2.6l7.1,9.2c0.7,0.9,2.1,1.1,3,0.4
			c1-0.7,1.1-2.1,0.4-3l-4.4-5.7l12.5,0C982.6,404.3,986.6,397.6,983.6,392.3 M952.5,399.8l-14.3,0c-2,0-4.9-2.5-3.2-5.5l6.2-10.8
			l2.8,6.6c0.5,1.1,1.7,1.6,2.8,1.2c1.1-0.5,1.6-1.7,1.2-2.8l-4.5-10.7c-0.3-0.8-1.2-1.5-2.3-1.3l-11.5,1.5c-1.2,0.2-2,1.2-1.9,2.4
			c0.2,1.2,1.2,2,2.4,1.9l7.1-1l-6.2,10.8c-2.9,5.1,0.9,12,7,12l14.3,0c1.2,0,2.2-1,2.2-2.2C954.7,400.8,953.7,399.8,952.5,399.8
			 M957.7,372.7c-0.2,1.2,0.7,2.3,1.9,2.4l11.5,1.5c0.9,0.1,1.9-0.3,2.3-1.3l4.4-10.7c0.5-1.1-0.1-2.4-1.2-2.8
			c-1.1-0.5-2.4,0.1-2.8,1.2l-2.7,6.7l-6.3-10.8c-3-5.1-10.8-5.2-13.8,0l-7.1,12.4c-0.6,1-0.2,2.4,0.8,3c1,0.6,2.4,0.2,3-0.8
			l7.1-12.4c1-1.7,4.6-3,6.3,0l6.3,10.8l-7.1-0.9C958.9,370.7,957.8,371.5,957.7,372.7"/>
	</g>
	<g>
		<path class="st1" d="M71.1,157.7l-7.2-12.4c-0.6-1-1.9-1.4-3-0.8c-1,0.6-1.4,1.9-0.8,3l7.2,12.4c1,1.7,0.3,5.5-3.1,5.5l-12.5,0
			l4.4-5.7c0.7-1,0.5-2.3-0.4-3c-1-0.7-2.3-0.5-3,0.4l-7,9.2c-0.5,0.7-0.7,1.8,0,2.6l7.1,9.2c0.7,0.9,2.1,1.1,3,0.4
			c1-0.7,1.1-2.1,0.4-3l-4.4-5.7l12.5,0C70.2,169.7,74.2,162.9,71.1,157.7 M40,165.2l-14.3,0c-2,0-4.9-2.5-3.2-5.5l6.2-10.8l2.8,6.6
			c0.5,1.1,1.7,1.6,2.8,1.2c1.1-0.5,1.6-1.7,1.2-2.8L31,143.2c-0.3-0.8-1.2-1.5-2.3-1.3l-11.5,1.5c-1.2,0.2-2,1.2-1.9,2.4
			c0.2,1.2,1.2,2,2.4,1.9l7.1-1l-6.2,10.8c-2.9,5.1,0.9,12,7,12l14.3,0c1.2,0,2.2-1,2.2-2.2C42.2,166.2,41.2,165.2,40,165.2
			 M45.2,138.1c-0.2,1.2,0.7,2.3,1.9,2.4l11.5,1.5c0.9,0.1,1.9-0.3,2.3-1.3l4.4-10.7c0.5-1.1-0.1-2.4-1.2-2.8
			c-1.1-0.5-2.4,0.1-2.8,1.2l-2.7,6.7l-6.3-10.8c-3-5.1-10.8-5.2-13.8,0l-7.1,12.4c-0.6,1-0.2,2.4,0.8,3c1,0.6,2.4,0.2,3-0.8
			l7.1-12.4c1-1.7,4.6-3,6.3,0l6.3,10.8l-7.1-0.9C46.4,136,45.3,136.9,45.2,138.1"/>
		<path class="st1" d="M192.3,157.7l-7.2-12.4c-0.6-1-1.9-1.4-3-0.8c-1,0.6-1.4,1.9-0.8,3l7.2,12.4c1,1.7,0.3,5.5-3.1,5.5l-12.5,0
			l4.4-5.7c0.7-1,0.5-2.3-0.4-3c-1-0.7-2.3-0.5-3,0.4l-7,9.2c-0.5,0.7-0.7,1.8,0,2.6l7.1,9.2c0.7,0.9,2.1,1.1,3,0.4
			c1-0.7,1.1-2.1,0.4-3l-4.4-5.7l12.5,0C191.3,169.7,195.3,162.9,192.3,157.7 M161.2,165.2l-14.3,0c-2,0-4.9-2.5-3.2-5.5l6.2-10.8
			l2.8,6.6c0.5,1.1,1.7,1.6,2.8,1.2c1.1-0.5,1.6-1.7,1.2-2.8l-4.5-10.7c-0.3-0.8-1.2-1.5-2.3-1.3l-11.5,1.5c-1.2,0.2-2,1.2-1.9,2.4
			c0.2,1.2,1.2,2,2.4,1.9l7.1-1l-6.2,10.8c-2.9,5.1,0.9,12,7,12l14.3,0c1.2,0,2.2-1,2.2-2.2C163.3,166.2,162.3,165.2,161.2,165.2
			 M166.3,138.1c-0.2,1.2,0.7,2.3,1.9,2.4l11.5,1.5c0.9,0.1,1.9-0.3,2.3-1.3l4.4-10.7c0.5-1.1-0.1-2.4-1.2-2.8
			c-1.1-0.5-2.4,0.1-2.8,1.2l-2.7,6.7l-6.3-10.8c-3-5.1-10.8-5.2-13.8,0l-7.1,12.4c-0.6,1-0.2,2.4,0.8,3c1,0.6,2.4,0.2,3-0.8
			l7.1-12.4c1-1.7,4.6-3,6.3,0l6.3,10.8l-7.1-0.9C167.6,136,166.5,136.9,166.3,138.1"/>
		<path class="st1" d="M313.4,157.7l-7.2-12.4c-0.6-1-1.9-1.4-3-0.8c-1,0.6-1.4,1.9-0.8,3l7.2,12.4c1,1.7,0.3,5.5-3.1,5.5l-12.5,0
			l4.4-5.7c0.7-1,0.5-2.3-0.4-3c-1-0.7-2.3-0.5-3,0.4l-7,9.2c-0.5,0.7-0.7,1.8,0,2.6l7.1,9.2c0.7,0.9,2.1,1.1,3,0.4
			c1-0.7,1.1-2.1,0.4-3l-4.4-5.7l12.5,0C312.5,169.7,316.5,162.9,313.4,157.7 M282.3,165.2l-14.3,0c-2,0-4.9-2.5-3.2-5.5l6.2-10.8
			l2.8,6.6c0.5,1.1,1.7,1.6,2.8,1.2c1.1-0.5,1.6-1.7,1.2-2.8l-4.5-10.7c-0.3-0.8-1.2-1.5-2.3-1.3l-11.5,1.5c-1.2,0.2-2,1.2-1.9,2.4
			c0.2,1.2,1.2,2,2.4,1.9l7.1-1l-6.2,10.8c-2.9,5.1,0.9,12,7,12l14.3,0c1.2,0,2.2-1,2.2-2.2C284.5,166.2,283.5,165.2,282.3,165.2
			 M287.5,138.1c-0.2,1.2,0.7,2.3,1.9,2.4l11.5,1.5c0.9,0.1,1.9-0.3,2.3-1.3l4.4-10.7c0.5-1.1-0.1-2.4-1.2-2.8
			c-1.1-0.5-2.4,0.1-2.8,1.2l-2.7,6.7l-6.3-10.8c-3-5.1-10.8-5.2-13.8,0l-7.1,12.4c-0.6,1-0.2,2.4,0.8,3c1,0.6,2.4,0.2,3-0.8
			l7.1-12.4c1-1.7,4.6-3,6.3,0l6.3,10.8l-7.1-0.9C288.7,136,287.7,136.9,287.5,138.1"/>
		<path class="st1" d="M434.6,157.7l-7.2-12.4c-0.6-1-1.9-1.4-3-0.8c-1,0.6-1.4,1.9-0.8,3l7.2,12.4c1,1.7,0.3,5.5-3.1,5.5l-12.5,0
			l4.4-5.7c0.7-1,0.5-2.3-0.4-3c-1-0.7-2.3-0.5-3,0.4l-7,9.2c-0.5,0.7-0.7,1.8,0,2.6l7.1,9.2c0.7,0.9,2.1,1.1,3,0.4
			c1-0.7,1.1-2.1,0.4-3l-4.4-5.7l12.5,0C433.6,169.7,437.6,162.9,434.6,157.7 M403.5,165.2l-14.3,0c-2,0-4.9-2.5-3.2-5.5l6.2-10.8
			l2.8,6.6c0.5,1.1,1.7,1.6,2.8,1.2c1.1-0.5,1.6-1.7,1.2-2.8l-4.5-10.7c-0.3-0.8-1.2-1.5-2.3-1.3l-11.5,1.5c-1.2,0.2-2,1.2-1.9,2.4
			c0.2,1.2,1.2,2,2.4,1.9l7.1-1l-6.2,10.8c-2.9,5.1,0.9,12,7,12l14.3,0c1.2,0,2.2-1,2.2-2.2C405.6,166.2,404.7,165.2,403.5,165.2
			 M408.7,138.1c-0.2,1.2,0.7,2.3,1.9,2.4l11.5,1.5c0.9,0.1,1.9-0.3,2.3-1.3l4.4-10.7c0.5-1.1-0.1-2.4-1.2-2.8
			c-1.1-0.5-2.4,0.1-2.8,1.2l-2.7,6.7l-6.3-10.8c-3-5.1-10.8-5.2-13.8,0l-7.1,12.4c-0.6,1-0.2,2.4,0.8,3c1,0.6,2.4,0.2,3-0.8
			l7.1-12.4c1-1.7,4.6-3,6.3,0l6.3,10.8l-7.1-0.9C409.9,136,408.8,136.9,408.7,138.1"/>
		<path class="st1" d="M555.7,157.7l-7.2-12.4c-0.6-1-1.9-1.4-3-0.8c-1,0.6-1.4,1.9-0.8,3l7.2,12.4c1,1.7,0.3,5.5-3.1,5.5l-12.5,0
			l4.4-5.7c0.7-1,0.5-2.3-0.4-3c-1-0.7-2.3-0.5-3,0.4l-7,9.2c-0.5,0.7-0.7,1.8,0,2.6l7.1,9.2c0.7,0.9,2.1,1.1,3,0.4
			c1-0.7,1.1-2.1,0.4-3l-4.4-5.7l12.5,0C554.8,169.7,558.8,162.9,555.7,157.7 M524.6,165.2l-14.3,0c-2,0-4.9-2.5-3.2-5.5l6.2-10.8
			l2.8,6.6c0.5,1.1,1.7,1.6,2.8,1.2c1.1-0.5,1.6-1.7,1.2-2.8l-4.5-10.7c-0.3-0.8-1.2-1.5-2.3-1.3l-11.5,1.5c-1.2,0.2-2,1.2-1.9,2.4
			c0.2,1.2,1.2,2,2.4,1.9l7.1-1l-6.2,10.8c-2.9,5.1,0.9,12,7,12l14.3,0c1.2,0,2.2-1,2.2-2.2C526.8,166.2,525.8,165.2,524.6,165.2
			 M529.8,138.1c-0.2,1.2,0.7,2.3,1.9,2.4l11.5,1.5c0.9,0.1,1.9-0.3,2.3-1.3l4.4-10.7c0.5-1.1-0.1-2.4-1.2-2.8
			c-1.1-0.5-2.4,0.1-2.8,1.2l-2.7,6.7l-6.3-10.8c-3-5.1-10.8-5.2-13.8,0l-7.1,12.4c-0.6,1-0.2,2.4,0.8,3c1,0.6,2.4,0.2,3-0.8
			l7.1-12.4c1-1.7,4.6-3,6.3,0l6.3,10.8l-7.1-0.9C531.1,136,530,136.9,529.8,138.1"/>
		<path class="st1" d="M676.9,157.7l-7.2-12.4c-0.6-1-1.9-1.4-3-0.8c-1,0.6-1.4,1.9-0.8,3l7.2,12.4c1,1.7,0.3,5.5-3.1,5.5l-12.5,0
			l4.4-5.7c0.7-1,0.5-2.3-0.4-3c-1-0.7-2.3-0.5-3,0.4l-7,9.2c-0.5,0.7-0.7,1.8,0,2.6l7.1,9.2c0.7,0.9,2.1,1.1,3,0.4
			c1-0.7,1.1-2.1,0.4-3l-4.4-5.7l12.5,0C676,169.7,680,162.9,676.9,157.7 M645.8,165.2l-14.3,0c-2,0-4.9-2.5-3.2-5.5l6.2-10.8
			l2.8,6.6c0.5,1.1,1.7,1.6,2.8,1.2c1.1-0.5,1.6-1.7,1.2-2.8l-4.5-10.7c-0.3-0.8-1.2-1.5-2.3-1.3l-11.5,1.5c-1.2,0.2-2,1.2-1.9,2.4
			c0.2,1.2,1.2,2,2.4,1.9l7.1-1l-6.2,10.8c-2.9,5.1,0.9,12,7,12l14.3,0c1.2,0,2.2-1,2.2-2.2C648,166.2,647,165.2,645.8,165.2
			 M651,138.1c-0.2,1.2,0.7,2.3,1.9,2.4l11.5,1.5c0.9,0.1,1.9-0.3,2.3-1.3l4.4-10.7c0.5-1.1-0.1-2.4-1.2-2.8
			c-1.1-0.5-2.4,0.1-2.8,1.2l-2.7,6.7l-6.3-10.8c-3-5.1-10.8-5.2-13.8,0l-7.1,12.4c-0.6,1-0.2,2.4,0.8,3c1,0.6,2.4,0.2,3-0.8
			l7.1-12.4c1-1.7,4.6-3,6.3,0l6.3,10.8l-7.1-0.9C652.2,136,651.1,136.9,651,138.1"/>
		<path class="st1" d="M798.1,157.7l-7.2-12.4c-0.6-1-1.9-1.4-3-0.8c-1,0.6-1.4,1.9-0.8,3l7.2,12.4c1,1.7,0.3,5.5-3.1,5.5l-12.5,0
			l4.4-5.7c0.7-1,0.5-2.3-0.4-3c-1-0.7-2.3-0.5-3,0.4l-7,9.2c-0.5,0.7-0.7,1.8,0,2.6l7.1,9.2c0.7,0.9,2.1,1.1,3,0.4
			c1-0.7,1.1-2.1,0.4-3l-4.4-5.7l12.5,0C797.1,169.7,801.1,162.9,798.1,157.7 M767,165.2l-14.3,0c-2,0-4.9-2.5-3.2-5.5l6.2-10.8
			l2.8,6.6c0.5,1.1,1.7,1.6,2.8,1.2c1.1-0.5,1.6-1.7,1.2-2.8l-4.5-10.7c-0.3-0.8-1.2-1.5-2.3-1.3l-11.5,1.5c-1.2,0.2-2,1.2-1.9,2.4
			c0.2,1.2,1.2,2,2.4,1.9l7.1-1l-6.2,10.8c-2.9,5.1,0.9,12,7,12l14.3,0c1.2,0,2.2-1,2.2-2.2C769.1,166.2,768.2,165.2,767,165.2
			 M772.2,138.1c-0.2,1.2,0.7,2.3,1.9,2.4l11.5,1.5c0.9,0.1,1.9-0.3,2.3-1.3l4.4-10.7c0.5-1.1-0.1-2.4-1.2-2.8
			c-1.1-0.5-2.4,0.1-2.8,1.2l-2.7,6.7l-6.3-10.8c-3-5.1-10.8-5.2-13.8,0l-7.1,12.4c-0.6,1-0.2,2.4,0.8,3c1,0.6,2.4,0.2,3-0.8
			l7.1-12.4c1-1.7,4.6-3,6.3,0l6.3,10.8l-7.1-0.9C773.4,136,772.3,136.9,772.2,138.1"/>
		<path class="st1" d="M919.2,157.7l-7.2-12.4c-0.6-1-1.9-1.4-3-0.8c-1,0.6-1.4,1.9-0.8,3l7.2,12.4c1,1.7,0.3,5.5-3.1,5.5l-12.5,0
			l4.4-5.7c0.7-1,0.5-2.3-0.4-3c-1-0.7-2.3-0.5-3,0.4l-7,9.2c-0.5,0.7-0.7,1.8,0,2.6l7.1,9.2c0.7,0.9,2.1,1.1,3,0.4
			c1-0.7,1.1-2.1,0.4-3l-4.4-5.7l12.5,0C918.3,169.7,922.3,162.9,919.2,157.7 M888.1,165.2l-14.3,0c-2,0-4.9-2.5-3.2-5.5l6.2-10.8
			l2.8,6.6c0.5,1.1,1.7,1.6,2.8,1.2c1.1-0.5,1.6-1.7,1.2-2.8l-4.5-10.7c-0.3-0.8-1.2-1.5-2.3-1.3l-11.5,1.5c-1.2,0.2-2,1.2-1.9,2.4
			c0.2,1.2,1.2,2,2.4,1.9l7.1-1l-6.2,10.8c-2.9,5.1,0.9,12,7,12l14.3,0c1.2,0,2.2-1,2.2-2.2C890.3,166.2,889.3,165.2,888.1,165.2
			 M893.3,138.1c-0.2,1.2,0.7,2.3,1.9,2.4l11.5,1.5c0.9,0.1,1.9-0.3,2.3-1.3l4.4-10.7c0.5-1.1-0.1-2.4-1.2-2.8
			c-1.1-0.5-2.4,0.1-2.8,1.2l-2.7,6.7l-6.3-10.8c-3-5.1-10.8-5.2-13.8,0l-7.1,12.4c-0.6,1-0.2,2.4,0.8,3c1,0.6,2.4,0.2,3-0.8
			l7.1-12.4c1-1.7,4.6-3,6.3,0l6.3,10.8l-7.1-0.9C894.6,136,893.5,136.9,893.3,138.1"/>
		<path class="st1" d="M1040.4,157.7l-7.2-12.4c-0.6-1-1.9-1.4-3-0.8c-1,0.6-1.4,1.9-0.8,3l7.2,12.4c1,1.7,0.3,5.5-3.1,5.5l-12.5,0
			l4.4-5.7c0.7-1,0.5-2.3-0.4-3c-1-0.7-2.3-0.5-3,0.4l-7,9.2c-0.5,0.7-0.7,1.8,0,2.6l7.1,9.2c0.7,0.9,2.1,1.1,3,0.4
			c1-0.7,1.1-2.1,0.4-3l-4.4-5.7l12.5,0C1039.4,169.7,1043.4,162.9,1040.4,157.7 M1009.3,165.2l-14.3,0c-2,0-4.9-2.5-3.2-5.5
			l6.2-10.8l2.8,6.6c0.5,1.1,1.7,1.6,2.8,1.2c1.1-0.5,1.6-1.7,1.2-2.8l-4.5-10.7c-0.3-0.8-1.2-1.5-2.3-1.3l-11.5,1.5
			c-1.2,0.2-2,1.2-1.9,2.4c0.2,1.2,1.2,2,2.4,1.9l7.1-1l-6.2,10.8c-2.9,5.1,0.9,12,7,12l14.3,0c1.2,0,2.2-1,2.2-2.2
			C1011.5,166.2,1010.5,165.2,1009.3,165.2 M1014.5,138.1c-0.2,1.2,0.7,2.3,1.9,2.4l11.5,1.5c0.9,0.1,1.9-0.3,2.3-1.3l4.4-10.7
			c0.5-1.1-0.1-2.4-1.2-2.8c-1.1-0.5-2.4,0.1-2.8,1.2l-2.7,6.7l-6.3-10.8c-3-5.1-10.8-5.2-13.8,0l-7.1,12.4c-0.6,1-0.2,2.4,0.8,3
			c1,0.6,2.4,0.2,3-0.8l7.1-12.4c1-1.7,4.6-3,6.3,0l6.3,10.8l-7.1-0.9C1015.7,136,1014.6,136.9,1014.5,138.1"/>
	</g>
	<g>
		<path class="st1" d="M71.1,314.1l-7.2-12.4c-0.6-1-1.9-1.4-3-0.8c-1,0.6-1.4,1.9-0.8,3l7.2,12.4c1,1.7,0.3,5.5-3.1,5.5l-12.5,0
			l4.4-5.7c0.7-1,0.5-2.3-0.4-3c-1-0.7-2.3-0.5-3,0.4l-7,9.2c-0.5,0.7-0.7,1.8,0,2.6l7.1,9.2c0.7,0.9,2.1,1.1,3,0.4
			c1-0.7,1.1-2.1,0.4-3l-4.4-5.7l12.5,0C70.2,326.1,74.2,319.3,71.1,314.1 M40,321.6l-14.3,0c-2,0-4.9-2.5-3.2-5.5l6.2-10.8l2.8,6.6
			c0.5,1.1,1.7,1.6,2.8,1.2c1.1-0.5,1.6-1.7,1.2-2.8L31,299.6c-0.3-0.8-1.2-1.5-2.3-1.3l-11.5,1.5c-1.2,0.2-2,1.2-1.9,2.4
			c0.2,1.2,1.2,2,2.4,1.9l7.1-1l-6.2,10.8c-2.9,5.1,0.9,12,7,12l14.3,0c1.2,0,2.2-1,2.2-2.2C42.2,322.6,41.2,321.6,40,321.6
			 M45.2,294.5c-0.2,1.2,0.7,2.3,1.9,2.4l11.5,1.5c0.9,0.1,1.9-0.3,2.3-1.3l4.4-10.7c0.5-1.1-0.1-2.4-1.2-2.8
			c-1.1-0.5-2.4,0.1-2.8,1.2l-2.7,6.7l-6.3-10.8c-3-5.1-10.8-5.2-13.8,0L31.3,293c-0.6,1-0.2,2.4,0.8,3c1,0.6,2.4,0.2,3-0.8
			l7.1-12.4c1-1.7,4.6-3,6.3,0l6.3,10.8l-7.1-0.9C46.4,292.5,45.3,293.3,45.2,294.5"/>
		<path class="st1" d="M192.3,314.1l-7.2-12.4c-0.6-1-1.9-1.4-3-0.8c-1,0.6-1.4,1.9-0.8,3l7.2,12.4c1,1.7,0.3,5.5-3.1,5.5l-12.5,0
			l4.4-5.7c0.7-1,0.5-2.3-0.4-3c-1-0.7-2.3-0.5-3,0.4l-7,9.2c-0.5,0.7-0.7,1.8,0,2.6l7.1,9.2c0.7,0.9,2.1,1.1,3,0.4
			c1-0.7,1.1-2.1,0.4-3l-4.4-5.7l12.5,0C191.3,326.1,195.3,319.3,192.3,314.1 M161.2,321.6l-14.3,0c-2,0-4.9-2.5-3.2-5.5l6.2-10.8
			l2.8,6.6c0.5,1.1,1.7,1.6,2.8,1.2c1.1-0.5,1.6-1.7,1.2-2.8l-4.5-10.7c-0.3-0.8-1.2-1.5-2.3-1.3l-11.5,1.5c-1.2,0.2-2,1.2-1.9,2.4
			c0.2,1.2,1.2,2,2.4,1.9l7.1-1l-6.2,10.8c-2.9,5.1,0.9,12,7,12l14.3,0c1.2,0,2.2-1,2.2-2.2C163.3,322.6,162.3,321.6,161.2,321.6
			 M166.3,294.5c-0.2,1.2,0.7,2.3,1.9,2.4l11.5,1.5c0.9,0.1,1.9-0.3,2.3-1.3l4.4-10.7c0.5-1.1-0.1-2.4-1.2-2.8
			c-1.1-0.5-2.4,0.1-2.8,1.2l-2.7,6.7l-6.3-10.8c-3-5.1-10.8-5.2-13.8,0l-7.1,12.4c-0.6,1-0.2,2.4,0.8,3c1,0.6,2.4,0.2,3-0.8
			l7.1-12.4c1-1.7,4.6-3,6.3,0l6.3,10.8l-7.1-0.9C167.6,292.5,166.5,293.3,166.3,294.5"/>
		<path class="st1" d="M313.4,314.1l-7.2-12.4c-0.6-1-1.9-1.4-3-0.8c-1,0.6-1.4,1.9-0.8,3l7.2,12.4c1,1.7,0.3,5.5-3.1,5.5l-12.5,0
			l4.4-5.7c0.7-1,0.5-2.3-0.4-3c-1-0.7-2.3-0.5-3,0.4l-7,9.2c-0.5,0.7-0.7,1.8,0,2.6l7.1,9.2c0.7,0.9,2.1,1.1,3,0.4
			c1-0.7,1.1-2.1,0.4-3l-4.4-5.7l12.5,0C312.5,326.1,316.5,319.3,313.4,314.1 M282.3,321.6l-14.3,0c-2,0-4.9-2.5-3.2-5.5l6.2-10.8
			l2.8,6.6c0.5,1.1,1.7,1.6,2.8,1.2c1.1-0.5,1.6-1.7,1.2-2.8l-4.5-10.7c-0.3-0.8-1.2-1.5-2.3-1.3l-11.5,1.5c-1.2,0.2-2,1.2-1.9,2.4
			c0.2,1.2,1.2,2,2.4,1.9l7.1-1l-6.2,10.8c-2.9,5.1,0.9,12,7,12l14.3,0c1.2,0,2.2-1,2.2-2.2C284.5,322.6,283.5,321.6,282.3,321.6
			 M287.5,294.5c-0.2,1.2,0.7,2.3,1.9,2.4l11.5,1.5c0.9,0.1,1.9-0.3,2.3-1.3l4.4-10.7c0.5-1.1-0.1-2.4-1.2-2.8
			c-1.1-0.5-2.4,0.1-2.8,1.2l-2.7,6.7l-6.3-10.8c-3-5.1-10.8-5.2-13.8,0l-7.1,12.4c-0.6,1-0.2,2.4,0.8,3c1,0.6,2.4,0.2,3-0.8
			l7.1-12.4c1-1.7,4.6-3,6.3,0l6.3,10.8l-7.1-0.9C288.7,292.5,287.7,293.3,287.5,294.5"/>
		<path class="st1" d="M434.6,314.1l-7.2-12.4c-0.6-1-1.9-1.4-3-0.8c-1,0.6-1.4,1.9-0.8,3l7.2,12.4c1,1.7,0.3,5.5-3.1,5.5l-12.5,0
			l4.4-5.7c0.7-1,0.5-2.3-0.4-3c-1-0.7-2.3-0.5-3,0.4l-7,9.2c-0.5,0.7-0.7,1.8,0,2.6l7.1,9.2c0.7,0.9,2.1,1.1,3,0.4
			c1-0.7,1.1-2.1,0.4-3l-4.4-5.7l12.5,0C433.6,326.1,437.6,319.3,434.6,314.1 M403.5,321.6l-14.3,0c-2,0-4.9-2.5-3.2-5.5l6.2-10.8
			l2.8,6.6c0.5,1.1,1.7,1.6,2.8,1.2c1.1-0.5,1.6-1.7,1.2-2.8l-4.5-10.7c-0.3-0.8-1.2-1.5-2.3-1.3l-11.5,1.5c-1.2,0.2-2,1.2-1.9,2.4
			c0.2,1.2,1.2,2,2.4,1.9l7.1-1l-6.2,10.8c-2.9,5.1,0.9,12,7,12l14.3,0c1.2,0,2.2-1,2.2-2.2C405.6,322.6,404.7,321.6,403.5,321.6
			 M408.7,294.5c-0.2,1.2,0.7,2.3,1.9,2.4l11.5,1.5c0.9,0.1,1.9-0.3,2.3-1.3l4.4-10.7c0.5-1.1-0.1-2.4-1.2-2.8
			c-1.1-0.5-2.4,0.1-2.8,1.2l-2.7,6.7l-6.3-10.8c-3-5.1-10.8-5.2-13.8,0l-7.1,12.4c-0.6,1-0.2,2.4,0.8,3c1,0.6,2.4,0.2,3-0.8
			l7.1-12.4c1-1.7,4.6-3,6.3,0l6.3,10.8l-7.1-0.9C409.9,292.5,408.8,293.3,408.7,294.5"/>
		<path class="st1" d="M555.7,314.1l-7.2-12.4c-0.6-1-1.9-1.4-3-0.8c-1,0.6-1.4,1.9-0.8,3l7.2,12.4c1,1.7,0.3,5.5-3.1,5.5l-12.5,0
			l4.4-5.7c0.7-1,0.5-2.3-0.4-3c-1-0.7-2.3-0.5-3,0.4l-7,9.2c-0.5,0.7-0.7,1.8,0,2.6l7.1,9.2c0.7,0.9,2.1,1.1,3,0.4
			c1-0.7,1.1-2.1,0.4-3l-4.4-5.7l12.5,0C554.8,326.1,558.8,319.3,555.7,314.1 M524.6,321.6l-14.3,0c-2,0-4.9-2.5-3.2-5.5l6.2-10.8
			l2.8,6.6c0.5,1.1,1.7,1.6,2.8,1.2c1.1-0.5,1.6-1.7,1.2-2.8l-4.5-10.7c-0.3-0.8-1.2-1.5-2.3-1.3l-11.5,1.5c-1.2,0.2-2,1.2-1.9,2.4
			c0.2,1.2,1.2,2,2.4,1.9l7.1-1l-6.2,10.8c-2.9,5.1,0.9,12,7,12l14.3,0c1.2,0,2.2-1,2.2-2.2C526.8,322.6,525.8,321.6,524.6,321.6
			 M529.8,294.5c-0.2,1.2,0.7,2.3,1.9,2.4l11.5,1.5c0.9,0.1,1.9-0.3,2.3-1.3l4.4-10.7c0.5-1.1-0.1-2.4-1.2-2.8
			c-1.1-0.5-2.4,0.1-2.8,1.2l-2.7,6.7l-6.3-10.8c-3-5.1-10.8-5.2-13.8,0l-7.1,12.4c-0.6,1-0.2,2.4,0.8,3c1,0.6,2.4,0.2,3-0.8
			l7.1-12.4c1-1.7,4.6-3,6.3,0l6.3,10.8l-7.1-0.9C531.1,292.5,530,293.3,529.8,294.5"/>
		<path class="st1" d="M676.9,314.1l-7.2-12.4c-0.6-1-1.9-1.4-3-0.8c-1,0.6-1.4,1.9-0.8,3l7.2,12.4c1,1.7,0.3,5.5-3.1,5.5l-12.5,0
			l4.4-5.7c0.7-1,0.5-2.3-0.4-3c-1-0.7-2.3-0.5-3,0.4l-7,9.2c-0.5,0.7-0.7,1.8,0,2.6l7.1,9.2c0.7,0.9,2.1,1.1,3,0.4
			c1-0.7,1.1-2.1,0.4-3l-4.4-5.7l12.5,0C676,326.1,680,319.3,676.9,314.1 M645.8,321.6l-14.3,0c-2,0-4.9-2.5-3.2-5.5l6.2-10.8
			l2.8,6.6c0.5,1.1,1.7,1.6,2.8,1.2c1.1-0.5,1.6-1.7,1.2-2.8l-4.5-10.7c-0.3-0.8-1.2-1.5-2.3-1.3l-11.5,1.5c-1.2,0.2-2,1.2-1.9,2.4
			c0.2,1.2,1.2,2,2.4,1.9l7.1-1l-6.2,10.8c-2.9,5.1,0.9,12,7,12l14.3,0c1.2,0,2.2-1,2.2-2.2C648,322.6,647,321.6,645.8,321.6
			 M651,294.5c-0.2,1.2,0.7,2.3,1.9,2.4l11.5,1.5c0.9,0.1,1.9-0.3,2.3-1.3l4.4-10.7c0.5-1.1-0.1-2.4-1.2-2.8
			c-1.1-0.5-2.4,0.1-2.8,1.2l-2.7,6.7l-6.3-10.8c-3-5.1-10.8-5.2-13.8,0l-7.1,12.4c-0.6,1-0.2,2.4,0.8,3c1,0.6,2.4,0.2,3-0.8
			l7.1-12.4c1-1.7,4.6-3,6.3,0l6.3,10.8l-7.1-0.9C652.2,292.5,651.1,293.3,651,294.5"/>
		<path class="st1" d="M798.1,314.1l-7.2-12.4c-0.6-1-1.9-1.4-3-0.8c-1,0.6-1.4,1.9-0.8,3l7.2,12.4c1,1.7,0.3,5.5-3.1,5.5l-12.5,0
			l4.4-5.7c0.7-1,0.5-2.3-0.4-3c-1-0.7-2.3-0.5-3,0.4l-7,9.2c-0.5,0.7-0.7,1.8,0,2.6l7.1,9.2c0.7,0.9,2.1,1.1,3,0.4
			c1-0.7,1.1-2.1,0.4-3l-4.4-5.7l12.5,0C797.1,326.1,801.1,319.3,798.1,314.1 M767,321.6l-14.3,0c-2,0-4.9-2.5-3.2-5.5l6.2-10.8
			l2.8,6.6c0.5,1.1,1.7,1.6,2.8,1.2c1.1-0.5,1.6-1.7,1.2-2.8l-4.5-10.7c-0.3-0.8-1.2-1.5-2.3-1.3l-11.5,1.5c-1.2,0.2-2,1.2-1.9,2.4
			c0.2,1.2,1.2,2,2.4,1.9l7.1-1l-6.2,10.8c-2.9,5.1,0.9,12,7,12l14.3,0c1.2,0,2.2-1,2.2-2.2C769.1,322.6,768.2,321.6,767,321.6
			 M772.2,294.5c-0.2,1.2,0.7,2.3,1.9,2.4l11.5,1.5c0.9,0.1,1.9-0.3,2.3-1.3l4.4-10.7c0.5-1.1-0.1-2.4-1.2-2.8
			c-1.1-0.5-2.4,0.1-2.8,1.2l-2.7,6.7l-6.3-10.8c-3-5.1-10.8-5.2-13.8,0l-7.1,12.4c-0.6,1-0.2,2.4,0.8,3c1,0.6,2.4,0.2,3-0.8
			l7.1-12.4c1-1.7,4.6-3,6.3,0l6.3,10.8l-7.1-0.9C773.4,292.5,772.3,293.3,772.2,294.5"/>
		<path class="st1" d="M919.2,314.1l-7.2-12.4c-0.6-1-1.9-1.4-3-0.8c-1,0.6-1.4,1.9-0.8,3l7.2,12.4c1,1.7,0.3,5.5-3.1,5.5l-12.5,0
			l4.4-5.7c0.7-1,0.5-2.3-0.4-3c-1-0.7-2.3-0.5-3,0.4l-7,9.2c-0.5,0.7-0.7,1.8,0,2.6l7.1,9.2c0.7,0.9,2.1,1.1,3,0.4
			c1-0.7,1.1-2.1,0.4-3l-4.4-5.7l12.5,0C918.3,326.1,922.3,319.3,919.2,314.1 M888.1,321.6l-14.3,0c-2,0-4.9-2.5-3.2-5.5l6.2-10.8
			l2.8,6.6c0.5,1.1,1.7,1.6,2.8,1.2c1.1-0.5,1.6-1.7,1.2-2.8l-4.5-10.7c-0.3-0.8-1.2-1.5-2.3-1.3l-11.5,1.5c-1.2,0.2-2,1.2-1.9,2.4
			c0.2,1.2,1.2,2,2.4,1.9l7.1-1l-6.2,10.8c-2.9,5.1,0.9,12,7,12l14.3,0c1.2,0,2.2-1,2.2-2.2C890.3,322.6,889.3,321.6,888.1,321.6
			 M893.3,294.5c-0.2,1.2,0.7,2.3,1.9,2.4l11.5,1.5c0.9,0.1,1.9-0.3,2.3-1.3l4.4-10.7c0.5-1.1-0.1-2.4-1.2-2.8
			c-1.1-0.5-2.4,0.1-2.8,1.2l-2.7,6.7l-6.3-10.8c-3-5.1-10.8-5.2-13.8,0l-7.1,12.4c-0.6,1-0.2,2.4,0.8,3c1,0.6,2.4,0.2,3-0.8
			l7.1-12.4c1-1.7,4.6-3,6.3,0l6.3,10.8l-7.1-0.9C894.6,292.5,893.5,293.3,893.3,294.5"/>
		<path class="st1" d="M1040.4,314.1l-7.2-12.4c-0.6-1-1.9-1.4-3-0.8c-1,0.6-1.4,1.9-0.8,3l7.2,12.4c1,1.7,0.3,5.5-3.1,5.5l-12.5,0
			l4.4-5.7c0.7-1,0.5-2.3-0.4-3c-1-0.7-2.3-0.5-3,0.4l-7,9.2c-0.5,0.7-0.7,1.8,0,2.6l7.1,9.2c0.7,0.9,2.1,1.1,3,0.4
			c1-0.7,1.1-2.1,0.4-3l-4.4-5.7l12.5,0C1039.4,326.1,1043.4,319.3,1040.4,314.1 M1009.3,321.6l-14.3,0c-2,0-4.9-2.5-3.2-5.5
			l6.2-10.8l2.8,6.6c0.5,1.1,1.7,1.6,2.8,1.2c1.1-0.5,1.6-1.7,1.2-2.8l-4.5-10.7c-0.3-0.8-1.2-1.5-2.3-1.3l-11.5,1.5
			c-1.2,0.2-2,1.2-1.9,2.4c0.2,1.2,1.2,2,2.4,1.9l7.1-1l-6.2,10.8c-2.9,5.1,0.9,12,7,12l14.3,0c1.2,0,2.2-1,2.2-2.2
			C1011.5,322.6,1010.5,321.6,1009.3,321.6 M1014.5,294.5c-0.2,1.2,0.7,2.3,1.9,2.4l11.5,1.5c0.9,0.1,1.9-0.3,2.3-1.3l4.4-10.7
			c0.5-1.1-0.1-2.4-1.2-2.8c-1.1-0.5-2.4,0.1-2.8,1.2l-2.7,6.7l-6.3-10.8c-3-5.1-10.8-5.2-13.8,0l-7.1,12.4c-0.6,1-0.2,2.4,0.8,3
			c1,0.6,2.4,0.2,3-0.8l7.1-12.4c1-1.7,4.6-3,6.3,0l6.3,10.8l-7.1-0.9C1015.7,292.5,1014.6,293.3,1014.5,294.5"/>
	</g>
</g>
</svg>
