<?xml version="1.0" encoding="utf-8"?>
<!-- Generator: Adobe Illustrator 19.1.0, SVG Export Plug-In . SVG Version: 6.00 Build 0)  -->
<svg version="1.1" id="Layer_1" xmlns="http://www.w3.org/2000/svg" xmlns:xlink="http://www.w3.org/1999/xlink" x="0px" y="0px"
	 viewBox="0 0 431 411" style="enable-background:new 0 0 431 411;" xml:space="preserve">
<style type="text/css">
	.st0{fill:#F7DDD2;}
	.st1{fill:#32B9E9;}
	.st2{fill:#FFDA2E;}
	.st3{fill:#FFCA30;}
	.st4{fill:#B09E7A;}
	.st5{fill:#113E62;}
	.st6{fill:none;}
	.st7{fill:#EBE9E9;}
	.st8{fill:#F9EB30;}
	.st9{fill:#FFFFFF;}
	.st10{fill:#FDE5DA;}
	.st11{opacity:0.1;}
	.st12{clip-path:url(#SVGID_4_);}
	.st13{fill:#FEE1C7;}
	.st14{fill:#A97038;stroke:#FFFFFF;stroke-width:1.8085;stroke-miterlimit:10;}
	.st15{fill:#EB3137;}
	.st16{fill:#2EB150;}
	.st17{fill:none;stroke:#000000;stroke-width:1.8085;stroke-miterlimit:10;}
	.st18{fill:none;stroke:#FFFFFF;stroke-width:1.8085;stroke-miterlimit:10;}
	.st19{fill:#FFDA39;}
	.st20{fill:none;stroke:#FFFFFF;stroke-width:1.8085;stroke-linecap:round;stroke-miterlimit:10;}
	.st21{clip-path:url(#SVGID_6_);}
	.st22{fill:#010101;}
	.st23{fill:#BABCBE;stroke:#FFFFFF;stroke-width:1.8085;stroke-miterlimit:10;}
	.st24{fill:#B5E1E7;stroke:#FFFFFF;stroke-width:1.8085;stroke-miterlimit:10;}
	.st25{fill:#97BCC1;stroke:#FFFFFF;stroke-width:1.8085;stroke-miterlimit:10;}
	.st26{fill:#3FC2D8;stroke:#FFFFFF;stroke-width:1.8085;stroke-miterlimit:10;}
	.st27{fill:#DCDDDE;stroke:#FFFFFF;stroke-width:1.8085;stroke-miterlimit:10;}
	.st28{fill:#8A5B2A;stroke:#FFFFFF;stroke-width:1.8085;stroke-miterlimit:10;}
	.st29{fill:#EB3137;stroke:#FFFFFF;stroke-width:1.8085;stroke-miterlimit:10;}
	.st30{fill:#666666;}
	.st31{fill:#37B250;}
	.st32{fill:#EBD1E4;}
	.st33{fill:#F9AB35;}
	.st34{clip-path:url(#SVGID_8_);}
	.st35{fill:#D57182;}
	.st36{clip-path:url(#SVGID_10_);}
	.st37{fill:#C5E6F8;}
	.st38{fill:#25638A;}
	.st39{fill:#276E93;}
	.st40{fill:#225C82;}
	.st41{fill:#F1CEC2;}
	.st42{fill:#956A50;}
	.st43{fill:#69767F;}
	.st44{fill:#112D4D;}
	.st45{fill:#1F4561;}
	.st46{fill:#39667E;}
	.st47{fill:#26526B;}
	.st48{fill:#1E4461;}
	.st49{fill:#455F7A;}
	.st50{fill:#224A64;}
	.st51{fill:#1C4963;}
	.st52{fill:#35596C;}
	.st53{fill:#29495D;}
	.st54{fill:#294D65;}
	.st55{fill:#4D7188;}
	.st56{fill:#4F6F83;}
	.st57{fill:#5B768B;}
	.st58{fill:#E0E6EC;}
	.st59{fill:#235269;}
	.st60{fill:#19466D;}
	.st61{fill:none;stroke:#FAFAFD;stroke-width:0.4573;stroke-miterlimit:10;}
	.st62{fill:#FAFAFD;}
	.st63{fill:#DFE8EE;}
	.st64{fill:#657B92;}
	.st65{fill:#F7EEE4;}
	.st66{fill:#8894A2;}
	.st67{fill:#737E89;}
	.st68{fill:#E2E3E6;}
	.st69{fill:#BC542E;}
	.st70{fill:#1A192B;}
	.st71{fill:#BDA399;}
	.st72{fill:#636557;}
	.st73{fill:#703E46;}
	.st74{fill:#627487;}
	.st75{fill:#C8AB99;}
	.st76{fill:#925B47;}
	.st77{fill:#363242;}
	.st78{fill:#3F3B4C;}
	.st79{fill:#0E0D16;}
	.st80{fill:#282840;}
	.st81{fill:#DCC0B0;}
	.st82{fill:#DABCAB;}
	.st83{fill:#CEAE94;}
	.st84{fill:#756567;}
	.st85{fill:#BA9E88;}
	.st86{fill:#695B5E;}
	.st87{fill:#F1EEF0;}
	.st88{fill:#E0D1B6;}
	.st89{fill:#534250;}
	.st90{fill:#271D2E;}
	.st91{fill:#938B96;}
	.st92{fill:#A8734B;}
	.st93{fill:#F3D1C5;}
	.st94{fill:#E5CDB3;}
	.st95{fill:#B65D3D;}
	.st96{fill:#6F4E44;}
	.st97{fill:#1E1218;}
	.st98{fill:#676365;}
	.st99{fill:#E6BB9C;}
	.st100{fill:#7E6056;}
	.st101{fill:#F9EEEC;}
	.st102{fill:#C5AE7A;}
	.st103{fill:#5E5047;}
	.st104{fill:#C6AA75;}
	.st105{fill:#E7B693;}
	.st106{fill:#534348;}
	.st107{fill:#091124;}
	.st108{fill:#92947E;}
	.st109{fill:#E69659;}
	.st110{fill:#222848;}
	.st111{fill:#141C2E;}
	.st112{fill:#393F3B;}
	.st113{fill:#7D9676;}
	.st114{fill:#61715C;}
	.st115{fill:#AEB07B;}
	.st116{fill:#707668;}
	.st117{fill:#6B544C;}
	.st118{fill:#483433;}
	.st119{fill:#5E7166;}
	.st120{fill:#F4BD8D;}
	.st121{fill:#CC935F;}
	.st122{fill:#6E4D4B;}
	.st123{fill:#2D2E33;}
	.st124{fill:#FAC497;}
	.st125{fill:#3C2E3D;}
	.st126{fill:#F9E1C0;}
	.st127{fill:#EAC08A;}
	.st128{fill:#A6704A;}
	.st129{fill:#F1C1A0;}
	.st130{fill:#B38C61;}
	.st131{fill:#1E2F5A;}
	.st132{fill:#564B50;}
	.st133{fill:#E79D5D;}
	.st134{fill:#1B161A;}
	.st135{fill:#A16938;}
	.st136{fill:#2B1E22;}
	.st137{fill:#574A41;}
	.st138{fill:#899A41;}
	.st139{fill:#402416;}
	.st140{fill:#9CB445;}
	.st141{fill:#6F3D2B;}
	.st142{fill:#734432;}
	.st143{fill:#65321F;}
	.st144{fill:#693725;}
	.st145{fill:#713F2B;}
	.st146{fill:#744130;}
	.st147{fill:#62341D;}
	.st148{fill:#4C2A25;}
	.st149{fill:#69392E;}
	.st150{fill:#6D3A25;}
	.st151{fill:#73402A;}
	.st152{fill:#6F4030;}
	.st153{fill:#744533;}
	.st154{fill:#744334;}
	.st155{fill:#7B4C3E;}
	.st156{fill:#7D4D3F;}
	.st157{fill:#7E4A3C;}
	.st158{fill:#703D28;}
	.st159{fill:#623321;}
	.st160{fill:#794633;}
	.st161{fill:#83513F;}
	.st162{fill:#623220;}
	.st163{fill:#5D2E1D;}
	.st164{fill:#542E25;}
	.st165{fill:#431D15;}
	.st166{fill:#774838;}
	.st167{fill:#3F1C14;}
	.st168{fill:#4B2421;}
	.st169{fill:#572F29;}
	.st170{fill:#6D3E2D;}
	.st171{fill:#754739;}
	.st172{fill:#5E3323;}
	.st173{fill:#5F2F22;}
	.st174{fill:#472929;}
	.st175{fill:#562E24;}
	.st176{fill:#714234;}
	.st177{fill:#442117;}
	.st178{fill:#683D36;}
	.st179{fill:#422218;}
	.st180{fill:#744536;}
	.st181{fill:#6B3726;}
	.st182{fill:#7F4F40;}
	.st183{fill:#52241A;}
	.st184{fill:#6D402B;}
	.st185{fill:#513337;}
	.st186{fill:#794C3C;}
	.st187{fill:#5D3E3E;}
	.st188{fill:#6D3B2D;}
	.st189{fill:#7A4836;}
	.st190{fill:#6A3A26;}
	.st191{fill:#4A221A;}
	.st192{fill:#5A2A1F;}
	.st193{fill:#421A16;}
	.st194{fill:#441B15;}
	.st195{fill:#562C1F;}
	.st196{fill:#572C1C;}
	.st197{fill:#7D4B43;}
	.st198{fill:#592E1E;}
	.st199{fill:#4F2C1F;}
	.st200{fill:#4D2822;}
	.st201{fill:#542A1E;}
	.st202{fill:#2C120F;}
	.st203{fill:#401B12;}
	.st204{fill:#61362F;}
	.st205{fill:#613C34;}
	.st206{fill:#361E2B;}
	.st207{fill:#462422;}
	.st208{fill:#472A2C;}
	.st209{fill:#3B1D1F;}
	.st210{fill:#1E1019;}
	.st211{fill:#170E19;}
	.st212{fill:#3A1510;}
	.st213{fill:#4C2116;}
	.st214{fill:#6C4136;}
	.st215{fill:#2F1314;}
	.st216{fill:#5A2A20;}
	.st217{fill:#5C2C20;}
	.st218{fill:#57322A;}
	.st219{fill:#795044;}
	.st220{fill:#663829;}
	.st221{fill:#4D2113;}
	.st222{fill:#977655;}
	.st223{fill:#0A0907;}
	.st224{fill:#BFA88C;}
	.st225{fill:#F2C1A0;}
	.st226{fill:#DBAF91;}
	.st227{fill:#F6C197;}
	.st228{fill:#DDAF89;}
	.st229{fill:#2C1624;}
	.st230{fill:#EFD4C9;}
	.st231{fill:#35353A;}
	.st232{fill:#E7714D;}
	.st233{fill:#FCF5E9;}
	.st234{fill:#584642;}
	.st235{fill:#A6774B;}
	.st236{fill:#5D463A;}
	.st237{fill:#7F8F62;}
	.st238{fill:#EDB984;}
	.st239{fill:#4F272F;}
	.st240{fill:#F7D3B8;}
	.st241{fill:#D7A979;}
	.st242{fill:#ECC29B;}
	.st243{fill:#C6925B;}
	.st244{fill:#FEF2EE;}
	.st245{fill:#F8DABF;}
	.st246{fill:#2D2B42;}
	.st247{fill:#B39684;}
	.st248{fill:#B69B76;}
	.st249{fill:#301616;}
	.st250{clip-path:url(#SVGID_12_);}
	.st251{fill:none;stroke:#8B714F;stroke-width:0.7178;stroke-miterlimit:10;}
	.st252{fill:#FCE8E1;}
	.st253{fill:#FDDDCA;}
	.st254{fill:#E5C8B9;}
	.st255{fill:#070A0C;}
	.st256{fill:#ECAE77;}
	.st257{fill:#C79163;}
	.st258{fill:#E6A977;}
	.st259{fill:#E5A379;}
	.st260{fill:#EFA872;}
	.st261{fill:#7B6055;}
	.st262{fill:#2F252B;}
	.st263{fill:#E7E5DE;}
	.st264{fill:#BC9A7E;}
	.st265{fill:#32263C;}
	.st266{fill:#D51E29;}
	.st267{fill:#1C1217;}
	.st268{fill:#DFE0E5;}
	.st269{clip-path:url(#SVGID_14_);}
	.st270{fill:#97D6D9;}
	.st271{fill:#49A94D;}
	.st272{fill:#F4F0D6;}
	.st273{fill:#E8B246;}
	.st274{fill:#BAE4F8;}
	.st275{fill:#745025;}
	.st276{fill:#F7CF36;}
	.st277{fill:#E77B43;}
	.st278{fill:none;stroke:#E77B43;stroke-width:1.1308;stroke-linecap:round;stroke-miterlimit:10;}
	.st279{clip-path:url(#SVGID_16_);}
	.st280{fill:#080E35;}
	.st281{fill:#60442F;}
	.st282{fill:#ECECEC;}
	.st283{fill:#F9F9F9;}
	.st284{fill:#00ABDC;}
	.st285{fill:#E6E7E8;}
	.st286{fill:#DCDDDE;}
	.st287{fill:#F1F2F2;}
	.st288{fill:#0D133A;}
	.st289{fill:#D2D2D2;}
	.st290{fill:#DFDFDF;}
	.st291{fill:#D1D3D4;}
	.st292{fill:#0096C1;}
	.st293{fill:#BCBEC0;}
	.st294{fill:#E5BD42;}
	.st295{fill:#F0C544;}
	.st296{fill:#FFD248;}
	.st297{fill:#F7F7F7;}
	.st298{clip-path:url(#SVGID_18_);fill:#E6E7E8;}
	.st299{clip-path:url(#SVGID_18_);fill:#C7C8CA;}
	.st300{clip-path:url(#SVGID_20_);fill:#E6E7E8;}
	.st301{clip-path:url(#SVGID_20_);fill:#C7C8CA;}
	.st302{fill:#EAB72E;}
	.st303{fill:#FEC632;}
	.st304{fill:#E3C4D6;}
	.st305{fill:#EFCEE1;}
	.st306{fill:#D9BCCD;}
	.st307{fill:#6D6F71;}
	.st308{fill:#939598;}
	.st309{fill:#FFF02A;}
	.st310{opacity:0.15;}
	.st311{clip-path:url(#SVGID_22_);}
	.st312{fill:#F5EEE9;}
	.st313{fill:#E7EDF7;stroke:#E7EDF7;stroke-miterlimit:10;}
	.st314{fill:#E9E5E1;}
	.st315{fill:#B7B3B5;}
	.st316{fill:#7F7F7F;}
	.st317{clip-path:url(#SVGID_34_);}
	.st318{fill:#EE522F;}
	.st319{fill:#080808;}
	.st320{opacity:0.8;fill:#828282;}
	.st321{opacity:0.8;fill:none;}
	.st322{opacity:0.8;fill:#ABABAB;}
	.st323{opacity:0.5;fill:#ADADAD;}
	.st324{opacity:0.8;fill:#C9C9C9;}
	.st325{opacity:0.2;}
	.st326{opacity:0.5;}
	.st327{fill:#7D6A4D;}
	.st328{fill:#947450;}
	.st329{opacity:0.3;}
	.st330{fill:#50C1BE;}
	.st331{opacity:0.95;fill:#208983;}
	.st332{opacity:0.95;fill:#1CB4AB;}
	.st333{fill:#4F332B;}
	.st334{fill:#7A271B;}
	.st335{fill:#924831;}
	.st336{fill:#2FADE1;}
	.st337{opacity:0.8;fill:#2489A9;}
	.st338{opacity:0.8;fill:#49BEE3;}
	.st339{fill:#2489A9;}
	.st340{fill:#FBF083;}
	.st341{fill:#FEC83A;}
	.st342{fill:#E7A454;}
	.st343{fill:#F8A231;}
	.st344{fill:#E7AD72;}
	.st345{fill:#D0954D;}
	.st346{fill:#8B7EB8;}
	.st347{fill:#E6C736;}
	.st348{fill:#CDAC3A;}
	.st349{fill:#EAD070;}
	.st350{fill:#80788E;}
</style>
<rect class="st0" width="431" height="412.2"/>
<g>
	<defs>
		<rect id="SVGID_33_" width="431" height="412.2"/>
	</defs>
	<clipPath id="SVGID_2_">
		<use xlink:href="#SVGID_33_"  style="overflow:visible;"/>
	</clipPath>
	<g style="clip-path:url(#SVGID_2_);">
		<g>
			<path class="st318" d="M76.6,286c0.4,19.2,2.4,119.5,2.4,119.5s0,16.7,15.9,27c1,0.7,2,1.3,3.1,1.8c14.2,7.8,31.3,8.1,47.6,8.1
				c12.9,0,26.4-0.1,38.4-4.7c2.2-0.8,4.5-1.9,6.8-3.2c8.5-4.7,17.1-12.2,17.9-20.6c0.8-8.9,1.2-60.7,1.6-73.6
				c0.4-13,0.4-45.2,0-54.1L76.6,286z"/>
			<path class="st318" d="M76.6,256.1c0.4,19.2,2.4,149.4,2.4,149.4s0,16.7,15.9,27c1,0.7,2,1.3,3.1,1.8c14.2,7.8,31.3,8.1,47.6,8.1
				c12.9,0,26.4-0.1,38.4-4.7c2.2-0.8,4.5-1.9,6.8-3.2c8.5-4.7,17.1-12.2,17.9-20.6c0.8-8.9,1.2-60.7,1.6-73.6
				c0.4-13,0.7-75.4,0.3-84.3c0,0-13.6,7.9-67,7.9C86.6,264,76.6,256.1,76.6,256.1z"/>
			
				<ellipse transform="matrix(0.9622 0.2723 -0.2723 0.9622 97.6009 -32.6525)" class="st319" cx="166.4" cy="335.3" rx="3" ry="4.6"/>
			
				<ellipse transform="matrix(0.9672 -0.2538 0.2538 0.9672 -91.425 47.0235)" class="st319" cx="136.5" cy="377.8" rx="3" ry="4.6"/>
			
				<ellipse transform="matrix(0.953 0.3031 -0.3031 0.953 94.7539 -17.5592)" class="st319" cx="103.9" cy="296.5" rx="3" ry="4.6"/>
			
				<ellipse transform="matrix(0.9114 -0.4115 0.4115 0.9114 -100.5258 104.9665)" class="st319" cx="193.5" cy="286" rx="3" ry="4.6"/>
			
				<ellipse transform="matrix(0.9596 0.2813 -0.2813 0.9596 117.1596 -38.2811)" class="st319" cx="191.9" cy="388.9" rx="3" ry="4.6"/>
			<ellipse class="st319" cx="86.6" cy="349.2" rx="3" ry="4.6"/>
			<path class="st320" d="M177,210.6c-7.6-1.3-17.5-2.2-30.4-2.2c-13.9,0-24.8,0.7-33.3,1.7c8.3,1.4,19.2,2.3,33.3,2.3
				C156.5,212.4,167,212.3,177,210.6z"/>
			<path class="st321" d="M113.4,210L113.4,210c8.3,1.4,19.2,2.3,33.3,2.3c9.8,0,20.4-0.1,30.4-1.8c-7.6-1.3-17.5-2.2-30.4-2.2
				C132.7,208.3,121.8,209.1,113.4,210z"/>
			<path class="st322" d="M113.4,210c8.4-1,19.3-1.7,33.3-1.7c12.8,0,22.8,0.9,30.4,2.2h0c4.4-0.8,8.7-1.8,12.9-3.3
				c4.1-1.5,8.7-3.6,10.8-7.6c0,0-13.5-8.9-56.2-8.9s-57.8,7.9-57.8,7.9S90,206.1,113.4,210z"/>
			<path class="st323" d="M214.2,261.4c-0.4-10.3-3.3-15.5-10.2-24.9c-4-5.4-4.8-9.4-4.8-12.8c-1.6,1.1-3.6,2-5.8,2.7
				c-8.3,2.9-19.3,3.3-24.1,3.6c-16.2,1.1-32.7,0.7-48.9-0.7c-7.4-0.7-15.1-1.1-22.3-3c-0.4-0.1-0.8-0.2-1.3-0.4
				c-2.7-0.8-5.5-1.9-7.9-3.5c-0.2,2.5-1.3,6-4.2,10.6c-7.3,11.6-12.4,11.2-12,33.5s2.6,138.7,2.6,138.7s0,19.3,16.8,31.4
				c1.1,0.8,2.1,1.5,3.2,2.1c15,9.1,33.1,9.4,50.3,9.4c13.6,0,27.8-0.1,40.6-5.4c2.3-1,4.8-2.2,7.2-3.7c9-5.4,18.1-14.1,18.9-23.9
				c0.9-10.3,1.3-70.4,1.7-85.5C214.6,314.6,214.6,271.7,214.2,261.4z"/>
			<path class="st324" d="M203.9,214.4c-0.2-1.7-0.5-3.4-0.9-5.1c-0.7-3.3-1.5-6.6-2.4-9.7c-2.1,4-6.7,6.1-10.8,7.6
				c-4.1,1.5-8.4,2.6-12.9,3.3h0c-10,1.7-20.5,1.8-30.4,1.8c-14.1,0-25-0.9-33.3-2.3c-23.4-3.9-26.8-11.4-26.8-11.4
				c0,4,0.3,4.8-0.5,9.7c-0.6,3.7-2.2,9.7,0.9,12.6c0.6,0.6,1.3,1.1,2,1.5c2.4,1.6,5.2,2.7,7.9,3.5c0.4,0.1,0.8,0.2,1.3,0.4
				c7.2,1.9,14.9,2.3,22.3,3c16.1,1.4,32.7,1.8,48.9,0.7c4.8-0.3,15.8-0.8,24.1-3.6c2.2-0.7,4.1-1.6,5.8-2.7
				C202.5,221.4,204.5,218.5,203.9,214.4z"/>
			<g class="st325">
				<defs>
					<path id="SVGID_35_" class="st325" d="M214.2,261.4c-0.4-10.3-3.3-15.5-10.2-24.9c-4-5.4-4.8-9.4-4.8-12.8
						c3.3-2.2,5.2-5.2,4.7-9.2c-0.2-1.7-0.5-3.4-0.9-5.1c-0.7-3.3-1.5-6.6-2.4-9.7c-2.1,4-6.7,6.1-10.8,7.6
						c-4.1,1.5-8.4,2.6-12.9,3.3h0c-10,1.7-20.5,1.8-30.4,1.8c-14.1,0-25-0.9-33.3-2.3c-23.4-3.9-26.8-11.4-26.8-11.4
						c0,4,0.3,4.8-0.5,9.7c-0.6,3.7-2.2,9.7,0.9,12.6c0.6,0.6,1.3,1.1,2,1.5c-0.2,2.5-1.3,6-4.2,10.6c-7.3,11.6-12.4,11.2-12,33.5
						s2.6,138.7,2.6,138.7s0,19.3,16.8,31.4c1.1,0.8,2.1,1.5,3.2,2.1c2.6,5,11.9,13.2,45.7,13.2c42,0,51-7.9,52.4-12.9
						c9-5.4,18.1-14.1,18.9-23.9c0.9-10.3,1.3-70.4,1.7-85.5C214.6,314.6,214.6,271.7,214.2,261.4z"/>
				</defs>
				<clipPath id="SVGID_4_">
					<use xlink:href="#SVGID_35_"  style="overflow:visible;"/>
				</clipPath>
				<g class="st12">
					
						<image style="overflow:visible;" width="1095" height="730" xlink:href="../../../../Creative Cloud Files (archived) (1)/strawberry/texute.jpg"  transform="matrix(0.1343 0 0 0.3547 70.7441 195.8286)">
					</image>
				</g>
			</g>
			<g class="st326">
				
					<image style="overflow:visible;" width="394" height="762" xlink:href="C1C2A589C8F90D40.png"  transform="matrix(0.24 0 0 0.24 149.8718 205.1435)">
				</image>
			</g>
			<g class="st326">
				
					<image style="overflow:visible;" width="361" height="363" xlink:href="C1C2A589C8F90D47.png"  transform="matrix(0.24 0 0 0.24 155.9127 320.714)">
				</image>
			</g>
			<g>
				<path class="st327" d="M203.8,210l-2-9.5c0,6.8-26,12.4-58.2,12.4s-58.2-5.5-58.2-12.4l-2,9.5c-0.1,0.3-0.2,0.7-0.2,1
					c0,6.8,27,12.4,60.4,12.4S204,217.8,204,211C204,210.6,203.9,210.3,203.8,210z"/>
				<ellipse class="st328" cx="143.6" cy="200.4" rx="58.2" ry="12.4"/>
			</g>
			<g class="st329">
				<defs>
					<path id="SVGID_37_" class="st329" d="M203.8,210l-2-9.5c0-6.8-26-12.4-58.2-12.4s-58.2,5.5-58.2,12.4l-2,9.5
						c-0.1,0.3-0.2,0.7-0.2,1c0,6.8,27,12.4,60.4,12.4S204,217.8,204,211C204,210.6,203.9,210.3,203.8,210z"/>
				</defs>
				<clipPath id="SVGID_6_">
					<use xlink:href="#SVGID_37_"  style="overflow:visible;"/>
				</clipPath>
				<g class="st21">
					
						<image style="overflow:visible;" width="1095" height="730" xlink:href="../../../../Creative Cloud Files (archived) (1)/strawberry/texute.jpg"  transform="matrix(0.1153 0 0 5.792669e-02 80.229 184.831)">
					</image>
				</g>
			</g>
			<path class="st330" d="M143.3,216.4c0.3,1.8,5.3,17.1,5.8,18.7c2.5,9.4,5.6,18.6,9.2,27.7c0.6,1.6,1.3,3.1,1.9,4.7
				c0.3,0.6,2.2,3.8,2,4.3c0.4-0.8,0.7-1.5,1.1-2.3c1.2,0.6,2.5,1.2,3.7,1.8c-0.6-0.3-1.3-2.4-1.6-3c-0.6-1.2-1.2-2.4-1.8-3.6
				c-1.1-2.3-2.2-4.6-3.2-7c-2-4.7-3.8-9.6-5.3-14.5c-2.4-7.9-5.6-15.8-7.1-23.9c0-0.1,0-0.1,0-0.2
				C147.5,216.7,143.3,216.4,143.3,216.4z"/>
			<path class="st330" d="M141.3,216.2c0.2,0-5.1,18.6-5.8,20.3c-1.4,3.3-3.1,6.4-5.1,9.4c-1.8,2.7-3.7,6.4-6.9,7.8l3-0.4
				c0,0,0.4,3.1,0.4,3.1c-0.1-0.6,3.5-3.9,4-4.6c8.1-10.3,10.5-22.6,14.1-34.9c0-0.1,0.1-0.2,0.1-0.4
				C145.1,216.6,141.3,216.2,141.3,216.2z"/>
			<path class="st331" d="M144.6,215.1c0,0-10.2-15.9-15.5-14.2s-11.3,18-10.5,22.9l3.9-0.5c0,0,3.3-16.4,5.6-17.2
				c2.3-0.8,14.1,11,14.1,11L144.6,215.1z"/>
			<path class="st332" d="M118.6,223.8c0,0,1.4,2.9,5.4,2.7c3.9-0.3,21.6-8.7,21.6-8.7l-1-2.6C144.6,215.1,121.9,222.6,118.6,223.8z
				"/>
			<path class="st332" d="M144.6,215.1c2.7-2.7,5.5-5.5,8.6-7.8c3.7-2.8,9.3-6.5,13.4-2.4c2.3,2.4,4.1,5.4,5.7,8.3
				c0.2,0.3,2.2,5,2.4,5l-4.2,0.5c-0.7-2.6-1.7-5.2-3-7.5c-0.9-1.6-2.6-5.5-4.9-5.2c-1.8,0.3-3.1,1.9-4.6,2.9
				c-2,1.3-3.8,2.8-5.8,4.2c-0.5,0.3-6.8,4.3-6.7,4.6L144.6,215.1z"/>
			<path class="st331" d="M141.3,216.2c0,0,13.7,8.2,18.5,8c4.8-0.2,14.9-5.9,14.9-5.9l-4.6-0.8c0,0-3.9,3.6-8.7,3.4
				c-4.8-0.1-16.9-5.8-16.9-5.8L141.3,216.2z"/>
			<polygon class="st330" points="139.9,214.9 140.1,216.6 144.6,219.2 149.9,214.7 			"/>
		</g>
		<g>
			<path class="st333" d="M500,342.9c-14.4-20.2-41.8-18.5-57.5,0.4c-15.1,18.2-42.7-11-54.2-12.3c0.1,8.5,0.3,17,0.4,25
				c6.3,15.6,18.2,33.1,32.1,35c25.3,3.4,47.4,18.6,64.4,3.8c11.6-10.1,24.9-22.1,35.1-23.8c0.1-8.3,0.2-16.2,0.4-22.2
				C515.7,353.7,507.8,353.8,500,342.9z"/>
			<path class="st334" d="M423.8,331c11.2-4,25.3-4.9,31.1-19.9s22.6-38.2,36.7-23.6c11.6,12,23,22.3,29.5,34.2
				c0.2-23.5,0.3-58.9,0-65.4c0,0-13.6,7.9-67,7.9c-57.1,0-67-7.9-67-7.9c0.1,6,0.4,22.6,0.7,42.7c0.1,0.1,0.2,0.1,0.3,0.2
				C396.3,304.3,412.6,335,423.8,331z"/>
			<path class="st333" d="M405.8,397.5c-7.2,1.5-12.5,1.4-16.5,1c0.1,4.6,0.1,7.2,0.1,7.2s0,16.7,15.9,27c1,0.7,2,1.3,3.1,1.8
				c14.2,7.8,31.3,8.1,47.6,8.1c3.7,0,7.4,0,11.1-0.1c-2.9-0.9-5.7-2.1-8.5-3.6C429.8,424.1,430.8,392.3,405.8,397.5z"/>
			<path class="st334" d="M501.3,434.8c8.5-4.7,17.1-12.2,17.9-20.6c0.5-5.2,0.8-25,1.1-43.1c-10.2,1.7-23.6,13.7-35.1,23.8
				c-17,14.8-39-0.4-64.4-3.8c-13.9-1.9-25.8-19.3-32.1-35c0.3,18,0.5,33.7,0.7,42.4c4,0.4,9.2,0.5,16.5-1c25-5.2,24,26.6,52.7,41.5
				c2.8,1.5,5.7,2.6,8.5,3.6c9.3-0.3,18.7-1.3,27.3-4.5C496.6,437.2,499,436.1,501.3,434.8z"/>
			<path class="st335" d="M442.5,343.3c15.7-18.9,43.1-20.6,57.5-0.4c7.7,10.9,15.7,10.8,20.6,5.9c0.1-3.5,0.1-6.3,0.2-8.3
				c0.1-3.4,0.2-10.4,0.3-18.9c-6.4-11.9-17.8-22.2-29.5-34.2c-14.2-14.6-30.9,8.6-36.7,23.6S435,327,423.8,331
				c-11.2,4-27.5-26.8-35.7-31.9c-0.1-0.1-0.2-0.1-0.3-0.2c0.2,10.1,0.3,21.2,0.5,32.1C399.8,332.4,427.4,361.5,442.5,343.3z"/>
			<path class="st6" d="M387.1,331c-4.8,0.4-3.5,12.1,1.7,25.1c-0.1-8-0.3-16.5-0.4-25C387.9,331,387.5,331,387.1,331z"/>
			<path class="st320" d="M487.4,210.8c-7.6-1.3-17.5-2.2-30.4-2.2c-13.9,0-24.8,0.7-33.3,1.7c8.3,1.4,19.2,2.3,33.3,2.3
				C466.9,212.6,477.4,212.5,487.4,210.8z"/>
			<path class="st321" d="M423.8,210.2L423.8,210.2c8.3,1.4,19.2,2.3,33.3,2.3c9.8,0,20.4-0.1,30.4-1.8c-7.6-1.3-17.5-2.2-30.4-2.2
				C443.1,208.5,432.2,209.3,423.8,210.2z"/>
			<path class="st322" d="M423.8,210.2c8.4-1,19.3-1.7,33.3-1.7c12.8,0,22.8,0.9,30.4,2.2h0c4.4-0.8,8.7-1.8,12.9-3.3
				c4.1-1.5,8.7-3.6,10.8-7.6c0,0-13.5-8.9-56.2-8.9s-57.8,7.9-57.8,7.9S400.4,206.3,423.8,210.2z"/>
			<path class="st323" d="M524.6,261.6c-0.4-10.3-3.3-15.5-10.2-24.9c-4-5.4-4.8-9.4-4.8-12.8c-1.6,1.1-3.6,2-5.8,2.7
				c-8.3,2.9-19.3,3.3-24.1,3.6c-16.2,1.1-32.7,0.7-48.9-0.7c-7.4-0.7-15.1-1.1-22.3-3c-0.4-0.1-0.8-0.2-1.3-0.4
				c-2.7-0.8-5.5-1.9-7.9-3.5c-0.2,2.5-1.3,6-4.2,10.6c-7.3,11.6-12.4,11.2-12,33.5c0.4,22.3,2.6,138.7,2.6,138.7s0,19.3,16.8,31.4
				c1.1,0.8,2.1,1.5,3.2,2.1c15,9.1,33.1,9.4,50.3,9.4c13.6,0,27.8-0.1,40.6-5.4c2.3-1,4.8-2.2,7.2-3.7c9-5.4,18.1-14.1,18.9-23.9
				c0.9-10.3,1.3-70.4,1.7-85.5C525,314.8,525,271.9,524.6,261.6z"/>
			<path class="st324" d="M514.4,214.6c-0.2-1.7-0.5-3.4-0.9-5.1c-0.7-3.3-1.5-6.6-2.4-9.7c-2.1,4-6.7,6.1-10.8,7.6
				c-4.1,1.5-8.4,2.6-12.9,3.3h0c-10,1.7-20.5,1.8-30.4,1.8c-14.1,0-25-0.9-33.3-2.3c-23.4-3.9-26.8-11.4-26.8-11.4
				c0,4,0.3,4.8-0.5,9.7c-0.6,3.7-2.2,9.7,0.9,12.6c0.6,0.6,1.3,1.1,2,1.5c2.4,1.6,5.2,2.7,7.9,3.5c0.4,0.1,0.8,0.2,1.3,0.4
				c7.2,1.9,14.9,2.3,22.3,3c16.1,1.4,32.7,1.8,48.9,0.7c4.8-0.3,15.8-0.8,24.1-3.6c2.2-0.7,4.1-1.6,5.8-2.7
				C512.9,221.6,514.9,218.6,514.4,214.6z"/>
			<g class="st325">
				<defs>
					<path id="SVGID_39_" class="st325" d="M524.6,261.6c-0.4-10.3-3.3-15.5-10.2-24.9c-4-5.4-4.8-9.4-4.8-12.8
						c3.3-2.2,5.2-5.2,4.7-9.2c-0.2-1.7-0.5-3.4-0.9-5.1c-0.7-3.3-1.5-6.6-2.4-9.7c-2.1,4-6.7,6.1-10.8,7.6
						c-4.1,1.5-8.4,2.6-12.9,3.3h0c-10,1.7-20.5,1.8-30.4,1.8c-14.1,0-25-0.9-33.3-2.3c-23.4-3.9-26.8-11.4-26.8-11.4
						c0,4,0.3,4.8-0.5,9.7c-0.6,3.7-2.2,9.7,0.9,12.6c0.6,0.6,1.3,1.1,2,1.5c-0.2,2.5-1.3,6-4.2,10.6c-7.3,11.6-12.4,11.2-12,33.5
						c0.4,22.3,2.6,138.7,2.6,138.7s0,19.3,16.8,31.4c1.1,0.8,2.1,1.5,3.2,2.1c2.6,5,11.9,13.2,45.7,13.2c42,0,51-7.9,52.4-12.9
						c9-5.4,18.1-14.1,18.9-23.9c0.9-10.3,1.3-70.4,1.7-85.5C525,314.8,525,271.9,524.6,261.6z"/>
				</defs>
				<clipPath id="SVGID_8_">
					<use xlink:href="#SVGID_39_"  style="overflow:visible;"/>
				</clipPath>
				<g transform="matrix(1 0 0 1 0 -1.525879e-05)" class="st34">
					
						<image style="overflow:visible;" width="1095" height="730" xlink:href="../../../../Creative Cloud Files (archived) (1)/strawberry/texute.jpg"  transform="matrix(0.1343 0 0 0.3547 381.1913 196.0233)">
					</image>
				</g>
			</g>
			<g>
				<path class="st327" d="M514.2,210.2l-2-9.5c0,6.8-26,12.4-58.2,12.4s-58.2-5.5-58.2-12.4l-2,9.5c-0.1,0.3-0.2,0.7-0.2,1
					c0,6.8,27,12.4,60.4,12.4s60.4-5.5,60.4-12.4C514.4,210.8,514.4,210.5,514.2,210.2z"/>
				<ellipse class="st328" cx="454.1" cy="200.6" rx="58.2" ry="12.4"/>
			</g>
			<g class="st329">
				<defs>
					<path id="SVGID_41_" class="st329" d="M514.2,210.2l-2-9.5c0-6.8-26-12.4-58.2-12.4s-58.2,5.5-58.2,12.4l-2,9.5
						c-0.1,0.3-0.2,0.7-0.2,1c0,6.8,27,12.4,60.4,12.4s60.4-5.5,60.4-12.4C514.4,210.8,514.4,210.5,514.2,210.2z"/>
				</defs>
				<clipPath id="SVGID_10_">
					<use xlink:href="#SVGID_41_"  style="overflow:visible;"/>
				</clipPath>
				<g class="st36">
					
						<image style="overflow:visible;" width="1095" height="730" xlink:href="../../../../Creative Cloud Files (archived) (1)/strawberry/texute.jpg"  transform="matrix(0.1153 0 0 5.792669e-02 390.6761 185.0256)">
					</image>
				</g>
			</g>
			<path class="st336" d="M394.6,207c0,0,30.4,9.7,59.7,9.7s59.4-9.7,59.4-9.7l0.8,3.5c0,0-22.3,9.7-60.2,9.7s-60.1-10.9-60.1-10.9
				L394.6,207z"/>
			<path class="st337" d="M455,215.3c0,0-10.2-15.9-15.5-14.2c-5.4,1.7-11.3,18-10.5,22.9l3.9-0.5c0,0,3.3-16.4,5.6-17.2
				c2.3-0.8,14.1,11,14.1,11L455,215.3z"/>
			<path class="st338" d="M429,224c0,0,1.4,2.9,5.4,2.7c3.9-0.3,21.6-8.7,21.6-8.7l-1-2.6C455,215.3,432.4,222.8,429,224z"/>
		</g>
		<g>
			<ellipse transform="matrix(0.9622 0.2723 -0.2723 0.9622 91.6797 9.6109)" class="st319" cx="11.2" cy="335.1" rx="3" ry="4.6"/>
			<path class="st340" d="M-78.6,255.8c0.4,19.2,2.4,149.4,2.4,149.4s0,16.7,15.9,27c1,0.7,2,1.3,3.1,1.8
				c14.2,7.8,31.3,8.1,47.6,8.1c12.9,0,26.4-0.1,38.4-4.7c2.2-0.8,4.5-1.9,6.8-3.2c8.5-4.7,17.1-12.2,17.9-20.6
				c0.8-8.9,1.2-60.7,1.6-73.6c0.4-13,0.7-75.4,0.3-84.3c0,0-13.6,7.9-67,7.9C-68.7,263.8-78.6,255.8-78.6,255.8z"/>
			<path class="st320" d="M21.8,210.4c-7.6-1.3-17.5-2.2-30.4-2.2c-13.9,0-24.8,0.7-33.3,1.7c8.3,1.4,19.2,2.3,33.3,2.3
				C1.2,212.2,11.8,212.1,21.8,210.4z"/>
			<path class="st341" d="M48.8,365.9c0.7,0.1,1.4,0.2,2.2,0.4c0,0-9.5,10.7-8.7,5C42.9,366.6,45.5,365.5,48.8,365.9"/>
			<path class="st341" d="M8.2,339.5c0,0,3.2-13.9,5.3-8.6C15.6,336.3,12.6,338.4,8.2,339.5z"/>
			<path class="st341" d="M23,402.8c0,0,3.2-13.9,5.3-8.6C30.4,399.6,27.4,401.7,23,402.8z"/>
			<path class="st341" d="M0.7,301.3c0,0-11.1-9-5.3-8.5S1.6,296.9,0.7,301.3z"/>
			<path class="st341" d="M48.7,292.4c0,0-11.1-9-5.3-8.5S49.6,288,48.7,292.4z"/>
			<path class="st321" d="M-41.9,209.8L-41.9,209.8c8.3,1.4,19.2,2.3,33.3,2.3c9.8,0,20.4-0.1,30.4-1.8c-7.6-1.3-17.5-2.2-30.4-2.2
				C-22.5,208.1-33.4,208.9-41.9,209.8z"/>
			<path class="st322" d="M-41.9,209.8c8.4-1,19.3-1.7,33.3-1.7c12.8,0,22.8,0.9,30.4,2.2h0c4.4-0.8,8.7-1.8,12.9-3.3
				c4.1-1.5,8.7-3.6,10.8-7.6c0,0-13.5-8.9-56.2-8.9s-57.8,7.9-57.8,7.9S-65.2,205.9-41.9,209.8z"/>
			<path class="st323" d="M58.9,261.2c-0.4-10.3-3.3-15.5-10.2-24.9c-4-5.4-4.8-9.4-4.8-12.8c-1.6,1.1-3.6,2-5.8,2.7
				c-8.3,2.9-19.3,3.3-24.1,3.6c-16.2,1.1-32.7,0.7-48.9-0.7c-7.4-0.7-15.1-1.1-22.3-3c-0.4-0.1-0.8-0.2-1.3-0.4
				c-2.7-0.8-5.5-1.9-7.9-3.5c-0.2,2.5-1.3,6-4.2,10.6c-7.3,11.6-12.4,11.2-12,33.5s2.6,138.7,2.6,138.7s0,19.3,16.8,31.4
				c1.1,0.8,2.1,1.5,3.2,2.1c15,9.1,33.1,9.4,50.3,9.4c13.6,0,27.8-0.1,40.6-5.4c2.3-1,4.8-2.2,7.2-3.7c9-5.4,18.1-14.1,18.9-23.9
				c0.9-10.3,1.3-70.4,1.7-85.5C59.4,314.4,59.4,271.5,58.9,261.2z"/>
			<path class="st324" d="M48.7,214.2c-0.2-1.7-0.5-3.4-0.9-5.1c-0.7-3.3-1.5-6.6-2.4-9.7c-2.1,4-6.7,6.1-10.8,7.6
				c-4.1,1.5-8.4,2.6-12.9,3.3h0c-10,1.7-20.5,1.8-30.4,1.8c-14.1,0-25-0.9-33.3-2.3c-23.4-3.9-26.8-11.4-26.8-11.4
				c0,4,0.3,4.8-0.5,9.7c-0.6,3.7-2.2,9.7,0.9,12.6c0.6,0.6,1.3,1.1,2,1.5c2.4,1.6,5.2,2.7,7.9,3.5c0.4,0.1,0.8,0.2,1.3,0.4
				c7.2,1.9,14.9,2.3,22.3,3c16.1,1.4,32.7,1.8,48.9,0.7c4.8-0.3,15.8-0.8,24.1-3.6c2.2-0.7,4.1-1.6,5.8-2.7
				C47.3,221.2,49.2,218.3,48.7,214.2z"/>
			<g>
				<path class="st327" d="M48.6,209.8l-2-9.5c0,6.8-26,12.4-58.2,12.4s-58.2-5.5-58.2-12.4l-2,9.5c-0.1,0.3-0.2,0.7-0.2,1
					c0,6.8,27,12.4,60.4,12.4s60.4-5.5,60.4-12.4C48.8,210.4,48.7,210.1,48.6,209.8z"/>
				<ellipse class="st328" cx="-11.6" cy="200.2" rx="58.2" ry="12.4"/>
			</g>
			<path class="st342" d="M-71.1,206.6c0,0,30.4,9.7,59.7,9.7s59.4-9.7,59.4-9.7l0.8,3.5c0,0-22.3,9.7-60.2,9.7S-71.6,209-71.6,209
				L-71.1,206.6z"/>
			<g class="st329">
				<defs>
					<path id="SVGID_43_" class="st329" d="M48.6,209.8l-2-9.5c0-6.8-26-12.4-58.2-12.4s-58.2,5.5-58.2,12.4l-2,9.5
						c-0.1,0.3-0.2,0.7-0.2,1c0,6.8,27,12.4,60.4,12.4s60.4-5.5,60.4-12.4C48.8,210.4,48.7,210.1,48.6,209.8z"/>
				</defs>
				<clipPath id="SVGID_12_">
					<use xlink:href="#SVGID_43_"  style="overflow:visible;"/>
				</clipPath>
				<g class="st250">
					
						<image style="overflow:visible;" width="1095" height="730" xlink:href="../../../../Creative Cloud Files (archived) (1)/strawberry/texute.jpg"  transform="matrix(0.1153 0 0 5.792669e-02 -74.9946 184.6304)">
					</image>
				</g>
			</g>
			<path class="st343" d="M-11.9,216.2c0.3,1.8,5.3,17.1,5.8,18.7c2.5,9.4,5.6,18.6,9.2,27.7c0.6,1.6,1.3,3.1,1.9,4.7
				c0.3,0.6,2.2,3.8,2,4.3c0.4-0.8,0.7-1.5,1.1-2.3c1.2,0.6,2.5,1.2,3.7,1.8c-0.6-0.3-1.3-2.4-1.6-3c-0.6-1.2-1.2-2.4-1.8-3.6
				c-1.1-2.3-2.2-4.6-3.2-7c-2-4.7-3.8-9.6-5.3-14.5c-2.4-7.9-5.6-15.8-7.1-23.9c0-0.1,0-0.1,0-0.2
				C-7.7,216.5-11.9,216.2-11.9,216.2z"/>
			<path class="st344" d="M-10.6,214.9c2.7-2.7,5.5-5.5,8.6-7.8c3.7-2.8,9.3-6.5,13.4-2.4c2.3,2.4,4.1,5.4,5.7,8.3
				c0.2,0.3,2.2,5,2.4,5l-4.2,0.5c-0.7-2.6-1.7-5.2-3-7.5c-0.9-1.6-2.6-5.5-4.9-5.2c-1.8,0.3-3.1,1.9-4.6,2.9
				c-2,1.3-3.8,2.8-5.8,4.2c-0.5,0.3-6.8,4.3-6.7,4.6L-10.6,214.9z"/>
			<path class="st343" d="M-14,216c0,0,13.7,8.2,18.5,8s14.9-5.9,14.9-5.9l-4.6-0.8c0,0-3.9,3.6-8.7,3.4s-16.9-5.8-16.9-5.8L-14,216
				z"/>
			<g class="st325">
				<defs>
					<path id="SVGID_45_" class="st325" d="M58.9,261.2c-0.4-10.3-3.3-15.5-10.2-24.9c-4-5.4-4.8-9.4-4.8-12.8
						c3.3-2.2,5.2-5.2,4.7-9.2c-0.2-1.7-0.5-3.4-0.9-5.1c-0.7-3.3-1.5-6.6-2.4-9.7c-2.1,4-6.7,6.1-10.8,7.6
						c-4.1,1.5-8.4,2.6-12.9,3.3h0c-10,1.7-20.5,1.8-30.4,1.8c-14.1,0-25-0.9-33.3-2.3c-23.4-3.9-26.8-11.4-26.8-11.4
						c0,4,0.3,4.8-0.5,9.7c-0.6,3.7-2.2,9.7,0.9,12.6c0.6,0.6,1.3,1.1,2,1.5c-0.2,2.5-1.3,6-4.2,10.6c-7.3,11.6-12.4,11.2-12,33.5
						s2.6,138.7,2.6,138.7s0,19.3,16.8,31.4c1.1,0.8,2.1,1.5,3.2,2.1c2.6,5,11.9,13.2,45.7,13.2c42,0,51-7.9,52.4-12.9
						c9-5.4,18.1-14.1,18.9-23.9c0.9-10.3,1.3-70.4,1.7-85.5C59.4,314.4,59.4,271.5,58.9,261.2z"/>
				</defs>
				<clipPath id="SVGID_14_">
					<use xlink:href="#SVGID_45_"  style="overflow:visible;"/>
				</clipPath>
				<g transform="matrix(1 0 0 1 -7.629395e-06 0)" class="st269">
					
						<image style="overflow:visible;" width="1095" height="730" xlink:href="../../../../Creative Cloud Files (archived) (1)/strawberry/texute.jpg"  transform="matrix(0.1343 0 0 0.3547 -84.4795 195.6281)">
					</image>
				</g>
			</g>
			<g class="st326">
				
					<image style="overflow:visible;" width="452" height="721" xlink:href="C1C2A589C8F90D43.png"  transform="matrix(0.24 0 0 0.24 -22.9429 289.1157)">
				</image>
			</g>
		</g>
		<g>
			
				<ellipse transform="matrix(0.9622 0.2723 -0.2723 0.9622 103.4128 -74.9311)" class="st319" cx="321.7" cy="335.1" rx="3" ry="4.6"/>
			<path class="st346" d="M231.8,255.8c0.4,19.2,2.4,149.4,2.4,149.4s0,16.7,15.9,27c1,0.7,2,1.3,3.1,1.8
				c14.2,7.8,31.3,8.1,47.6,8.1c12.9,0,26.4-0.1,38.4-4.7c2.2-0.8,4.5-1.9,6.8-3.2c8.5-4.7,17.1-12.2,17.9-20.6
				c0.8-8.9,1.2-60.7,1.6-73.6c0.4-13,0.7-75.4,0.3-84.3c0,0-13.6,7.9-67,7.9C241.8,263.8,231.8,255.8,231.8,255.8z"/>
			<path class="st320" d="M332.2,210.4c-7.6-1.3-17.5-2.2-30.4-2.2c-13.9,0-24.8,0.7-33.3,1.7c8.3,1.4,19.2,2.3,33.3,2.3
				C311.7,212.2,322.2,212.1,332.2,210.4z"/>
			<path class="st321" d="M268.6,209.8L268.6,209.8c8.3,1.4,19.2,2.3,33.3,2.3c9.8,0,20.4-0.1,30.4-1.8c-7.6-1.3-17.5-2.2-30.4-2.2
				C287.9,208.1,277,208.9,268.6,209.8z"/>
			<path class="st322" d="M268.6,209.8c8.4-1,19.3-1.7,33.3-1.7c12.8,0,22.8,0.9,30.4,2.2h0c4.4-0.8,8.7-1.8,12.9-3.3
				c4.1-1.5,8.7-3.6,10.8-7.6c0,0-13.5-8.9-56.2-8.9s-57.8,7.9-57.8,7.9S245.2,205.9,268.6,209.8z"/>
			<path class="st323" d="M369.4,261.2c-0.4-10.3-3.3-15.5-10.2-24.9c-4-5.4-4.8-9.4-4.8-12.8c-1.6,1.1-3.6,2-5.8,2.7
				c-8.3,2.9-19.3,3.3-24.1,3.6c-16.2,1.1-32.7,0.7-48.9-0.7c-7.4-0.7-15.1-1.1-22.3-3c-0.4-0.1-0.8-0.2-1.3-0.4
				c-2.7-0.8-5.5-1.9-7.9-3.5c-0.2,2.5-1.3,6-4.2,10.6c-7.3,11.6-12.4,11.2-12,33.5c0.4,22.3,2.6,138.7,2.6,138.7s0,19.3,16.8,31.4
				c1.1,0.8,2.1,1.5,3.2,2.1c15,9.1,33.1,9.4,50.3,9.4c13.6,0,27.8-0.1,40.6-5.4c2.3-1,4.8-2.2,7.2-3.7c9-5.4,18.1-14.1,18.9-23.9
				c0.9-10.3,1.3-70.4,1.7-85.5S369.8,271.5,369.4,261.2z"/>
			<path class="st324" d="M359.1,214.2c-0.2-1.7-0.5-3.4-0.9-5.1c-0.7-3.3-1.5-6.6-2.4-9.7c-2.1,4-6.7,6.1-10.8,7.6
				c-4.1,1.5-8.4,2.6-12.9,3.3h0c-10,1.7-20.5,1.8-30.4,1.8c-14.1,0-25-0.9-33.3-2.3c-23.4-3.9-26.8-11.4-26.8-11.4
				c0,4,0.3,4.8-0.5,9.7c-0.6,3.7-2.2,9.7,0.9,12.6c0.6,0.6,1.3,1.1,2,1.5c2.4,1.6,5.2,2.7,7.9,3.5c0.4,0.1,0.8,0.2,1.3,0.4
				c7.2,1.9,14.9,2.3,22.3,3c16.1,1.4,32.7,1.8,48.9,0.7c4.8-0.3,15.8-0.8,24.1-3.6c2.2-0.7,4.1-1.6,5.8-2.7
				C357.7,221.2,359.7,218.3,359.1,214.2z"/>
			<g>
				<path class="st327" d="M359,209.8l-2-9.5c0,6.8-26,12.4-58.2,12.4s-58.2-5.5-58.2-12.4l-2,9.5c-0.1,0.3-0.2,0.7-0.2,1
					c0,6.8,27,12.4,60.4,12.4s60.4-5.5,60.4-12.4C359.2,210.4,359.1,210.1,359,209.8z"/>
				<ellipse class="st328" cx="298.9" cy="200.2" rx="58.2" ry="12.4"/>
			</g>
			<g class="st329">
				<defs>
					<path id="SVGID_47_" class="st329" d="M359,209.8l-2-9.5c0-6.8-26-12.4-58.2-12.4s-58.2,5.5-58.2,12.4l-2,9.5
						c-0.1,0.3-0.2,0.7-0.2,1c0,6.8,27,12.4,60.4,12.4s60.4-5.5,60.4-12.4C359.2,210.4,359.1,210.1,359,209.8z"/>
				</defs>
				<clipPath id="SVGID_16_">
					<use xlink:href="#SVGID_47_"  style="overflow:visible;"/>
				</clipPath>
				<g class="st279">
					
						<image style="overflow:visible;" width="1095" height="730" xlink:href="../../../../Creative Cloud Files (archived) (1)/strawberry/texute.jpg"  transform="matrix(0.1153 0 0 5.792669e-02 235.4526 184.6304)">
					</image>
				</g>
			</g>
			<path class="st347" d="M239.4,206.6c0,0,30.4,9.7,59.7,9.7s59.4-9.7,59.4-9.7l0.8,3.5c0,0-22.3,9.7-60.2,9.7S238.9,209,238.9,209
				L239.4,206.6z"/>
			<path class="st348" d="M298.5,216.2c0.3,1.8,5.3,17.1,5.8,18.7c2.5,9.4,5.6,18.6,9.2,27.7c0.6,1.6,1.3,3.1,1.9,4.7
				c0.3,0.6,2.2,3.8,2,4.3c0.4-0.8,0.7-1.5,1.1-2.3c1.2,0.6,2.5,1.2,3.7,1.8c-0.6-0.3-1.3-2.4-1.6-3c-0.6-1.2-1.2-2.4-1.8-3.6
				c-1.1-2.3-2.2-4.6-3.2-7c-2-4.7-3.8-9.6-5.3-14.5c-2.4-7.9-5.6-15.8-7.1-23.9c0-0.1,0-0.1,0-0.2
				C302.8,216.5,298.5,216.2,298.5,216.2z"/>
			<path class="st349" d="M296.5,216c0.2,0-5.1,18.6-5.8,20.3c-1.4,3.3-3.1,6.4-5.1,9.4c-1.8,2.7-3.7,6.4-6.9,7.8l3-0.4l0.4,3.1
				c-0.1-0.6,3.5-3.9,4-4.6c8.1-10.3,10.5-22.6,14.1-34.9c0-0.1,0.1-0.2,0.1-0.4C300.4,216.4,296.5,216,296.5,216z"/>
			<path class="st348" d="M299.8,214.9c0,0-10.2-15.9-15.5-14.2s-11.3,18-10.5,22.9l3.9-0.5c0,0,3.3-16.4,5.6-17.2
				c2.3-0.8,14.1,11,14.1,11L299.8,214.9z"/>
			<path class="st349" d="M273.8,223.6c0,0,1.4,2.9,5.4,2.7c3.9-0.3,21.6-8.7,21.6-8.7l-1-2.6C299.8,214.9,277.2,222.4,273.8,223.6z
				"/>
			<path class="st349" d="M299.8,214.9c2.7-2.7,5.5-5.5,8.6-7.8c3.7-2.8,9.3-6.5,13.4-2.4c2.3,2.4,4.1,5.4,5.7,8.3
				c0.2,0.3,2.2,5,2.4,5l-4.2,0.5c-0.7-2.6-1.7-5.2-3-7.5c-0.9-1.6-2.6-5.5-4.9-5.2c-1.8,0.3-3.1,1.9-4.6,2.9
				c-2,1.3-3.8,2.8-5.8,4.2c-0.5,0.3-6.8,4.3-6.7,4.6L299.8,214.9z"/>
			<path class="st348" d="M296.5,216c0,0,13.7,8.2,18.5,8c4.8-0.2,14.9-5.9,14.9-5.9l-4.6-0.8c0,0-3.9,3.6-8.7,3.4
				s-16.9-5.8-16.9-5.8L296.5,216z"/>
			<polygon class="st347" points="295.1,214.7 295.3,216.4 299.8,219 305.1,214.5 			"/>
			<path class="st350" d="M241.8,293.6c0,0,0.9,14.6,15.5,11.2c14.6-3.4,11.3-14.2,11.3-14.2S259.4,311.2,241.8,293.6z"/>
			<path class="st350" d="M300.7,357.1c0,0,9.8-10.9-2.9-18.9s-18,1.9-18,1.9S300.9,332.2,300.7,357.1z"/>
			<path class="st350" d="M291.7,295c0,0-8.4,12,5.1,18.4c13.6,6.4,17.7-4,17.7-4S294.5,319.8,291.7,295z"/>
			<path class="st350" d="M323.3,382.1c0,0,4.6,13.9,17.8,6.7s7.2-16.6,7.2-16.6S344.9,394.5,323.3,382.1z"/>
			<path class="st350" d="M352.3,297.9c0,0,11.2-9.5-0.4-19.1s-18.1-0.5-18.1-0.5S355.8,273.2,352.3,297.9z"/>
			<path class="st350" d="M247.1,397.7c0,0-9.8,10.8,2.8,18.9c12.7,8,18-1.8,18-1.8S246.8,422.6,247.1,397.7z"/>
			<path class="st350" d="M268.3,355.4c0,0-9.8,10.8,2.8,18.9c12.7,8,18-1.8,18-1.8S268,380.3,268.3,355.4z"/>
			<g class="st325">
				<defs>
					<path id="SVGID_49_" class="st325" d="M369.4,261.2c-0.4-10.3-3.3-15.5-10.2-24.9c-4-5.4-4.8-9.4-4.8-12.8
						c3.3-2.2,5.2-5.2,4.7-9.2c-0.2-1.7-0.5-3.4-0.9-5.1c-0.7-3.3-1.5-6.6-2.4-9.7c-2.1,4-6.7,6.1-10.8,7.6
						c-4.1,1.5-8.4,2.6-12.9,3.3h0c-10,1.7-20.5,1.8-30.4,1.8c-14.1,0-25-0.9-33.3-2.3c-23.4-3.9-26.8-11.4-26.8-11.4
						c0,4,0.3,4.8-0.5,9.7c-0.6,3.7-2.2,9.7,0.9,12.6c0.6,0.6,1.3,1.1,2,1.5c-0.2,2.5-1.3,6-4.2,10.6c-7.3,11.6-12.4,11.2-12,33.5
						c0.4,22.3,2.6,138.7,2.6,138.7s0,19.3,16.8,31.4c1.1,0.8,2.1,1.5,3.2,2.1c2.6,5,11.9,13.2,45.7,13.2c42,0,51-7.9,52.4-12.9
						c9-5.4,18.1-14.1,18.9-23.9c0.9-10.3,1.3-70.4,1.7-85.5S369.8,271.5,369.4,261.2z"/>
				</defs>
				<clipPath id="SVGID_18_">
					<use xlink:href="#SVGID_49_"  style="overflow:visible;"/>
				</clipPath>
				<g style="clip-path:url(#SVGID_18_);">
					
						<image style="overflow:visible;" width="1095" height="730" xlink:href="../../../../Creative Cloud Files (archived) (1)/strawberry/texute.jpg"  transform="matrix(0.1343 0 0 0.3547 225.9677 195.6281)">
					</image>
				</g>
			</g>
			<g class="st326">
				
					<image style="overflow:visible;" width="495" height="736" xlink:href="121ECEA0BFEEA9B.png"  transform="matrix(0.24 0 0 0.24 277.1525 289.1157)">
				</image>
			</g>
			<g class="st326">
				
					<image style="overflow:visible;" width="370" height="363" xlink:href="121ECEA0BFEEA95.png"  transform="matrix(0.24 0 0 0.24 256.0522 384.2332)">
				</image>
			</g>
		</g>
	</g>
</g>
</svg>
