<?xml version="1.0" encoding="utf-8"?>
<!-- Generator: Adobe Illustrator 19.1.0, SVG Export Plug-In . SVG Version: 6.00 Build 0)  -->
<svg version="1.1" id="Layer_1" xmlns="http://www.w3.org/2000/svg" xmlns:xlink="http://www.w3.org/1999/xlink" x="0px" y="0px"
	 viewBox="0 0 431 411" style="enable-background:new 0 0 431 411;" xml:space="preserve">
<style type="text/css">
	.st0{fill:#FFDA2E;}
	.st1{fill:#FFCA30;}
	.st2{fill:#B09E7A;}
	.st3{fill:#113E62;}
	.st4{fill:none;}
	.st5{fill:#EBE9E9;}
	.st6{fill:#F9EB30;}
	.st7{fill:#FFFFFF;}
	.st8{fill:#FDE5DA;}
	.st9{opacity:0.1;}
	.st10{clip-path:url(#SVGID_4_);}
	.st11{fill:#FEE1C7;}
	.st12{fill:#A97038;stroke:#FFFFFF;stroke-width:1.8085;stroke-miterlimit:10;}
	.st13{fill:#EB3137;}
	.st14{fill:#2EB150;}
	.st15{fill:none;stroke:#000000;stroke-width:1.8085;stroke-miterlimit:10;}
	.st16{fill:none;stroke:#FFFFFF;stroke-width:1.8085;stroke-miterlimit:10;}
	.st17{fill:#FFDA39;}
	.st18{fill:none;stroke:#FFFFFF;stroke-width:1.8085;stroke-linecap:round;stroke-miterlimit:10;}
	.st19{clip-path:url(#SVGID_6_);}
	.st20{fill:#010101;}
	.st21{fill:#BABCBE;stroke:#FFFFFF;stroke-width:1.8085;stroke-miterlimit:10;}
	.st22{fill:#B5E1E7;stroke:#FFFFFF;stroke-width:1.8085;stroke-miterlimit:10;}
	.st23{fill:#97BCC1;stroke:#FFFFFF;stroke-width:1.8085;stroke-miterlimit:10;}
	.st24{fill:#3FC2D8;stroke:#FFFFFF;stroke-width:1.8085;stroke-miterlimit:10;}
	.st25{fill:#DCDDDE;stroke:#FFFFFF;stroke-width:1.8085;stroke-miterlimit:10;}
	.st26{fill:#8A5B2A;stroke:#FFFFFF;stroke-width:1.8085;stroke-miterlimit:10;}
	.st27{fill:#EB3137;stroke:#FFFFFF;stroke-width:1.8085;stroke-miterlimit:10;}
	.st28{fill:#666666;}
	.st29{fill:#37B250;}
	.st30{fill:#EBD1E4;}
	.st31{fill:#F9AB35;}
	.st32{clip-path:url(#SVGID_8_);}
	.st33{fill:#D57182;}
	.st34{clip-path:url(#SVGID_10_);}
	.st35{fill:#C5E6F8;}
	.st36{fill:#25638A;}
	.st37{fill:#276E93;}
	.st38{fill:#225C82;}
	.st39{fill:#F1CEC2;}
	.st40{fill:#956A50;}
	.st41{fill:#69767F;}
	.st42{fill:#112D4D;}
	.st43{fill:#1F4561;}
	.st44{fill:#39667E;}
	.st45{fill:#26526B;}
	.st46{fill:#1E4461;}
	.st47{fill:#455F7A;}
	.st48{fill:#224A64;}
	.st49{fill:#1C4963;}
	.st50{fill:#35596C;}
	.st51{fill:#29495D;}
	.st52{fill:#294D65;}
	.st53{fill:#4D7188;}
	.st54{fill:#4F6F83;}
	.st55{fill:#5B768B;}
	.st56{fill:#E0E6EC;}
	.st57{fill:#235269;}
	.st58{fill:#19466D;}
	.st59{fill:none;stroke:#FAFAFD;stroke-width:0.4573;stroke-miterlimit:10;}
	.st60{fill:#FAFAFD;}
	.st61{fill:#DFE8EE;}
	.st62{fill:#657B92;}
	.st63{fill:#F7EEE4;}
	.st64{fill:#8894A2;}
	.st65{fill:#737E89;}
	.st66{fill:#E2E3E6;}
	.st67{fill:#BC542E;}
	.st68{fill:#1A192B;}
	.st69{fill:#BDA399;}
	.st70{fill:#636557;}
	.st71{fill:#703E46;}
	.st72{fill:#627487;}
	.st73{fill:#C8AB99;}
	.st74{fill:#925B47;}
	.st75{fill:#363242;}
	.st76{fill:#3F3B4C;}
	.st77{fill:#0E0D16;}
	.st78{fill:#282840;}
	.st79{fill:#DCC0B0;}
	.st80{fill:#DABCAB;}
	.st81{fill:#CEAE94;}
	.st82{fill:#756567;}
	.st83{fill:#BA9E88;}
	.st84{fill:#695B5E;}
	.st85{fill:#F1EEF0;}
	.st86{fill:#E0D1B6;}
	.st87{fill:#534250;}
	.st88{fill:#271D2E;}
	.st89{fill:#938B96;}
	.st90{fill:#A8734B;}
	.st91{fill:#F3D1C5;}
	.st92{fill:#E5CDB3;}
	.st93{fill:#B65D3D;}
	.st94{fill:#6F4E44;}
	.st95{fill:#1E1218;}
	.st96{fill:#676365;}
	.st97{fill:#E6BB9C;}
	.st98{fill:#7E6056;}
	.st99{fill:#F9EEEC;}
	.st100{fill:#C5AE7A;}
	.st101{fill:#5E5047;}
	.st102{fill:#C6AA75;}
	.st103{fill:#E7B693;}
	.st104{fill:#534348;}
	.st105{fill:#091124;}
	.st106{fill:#92947E;}
	.st107{fill:#E69659;}
	.st108{fill:#222848;}
	.st109{fill:#141C2E;}
	.st110{fill:#393F3B;}
	.st111{fill:#7D9676;}
	.st112{fill:#61715C;}
	.st113{fill:#AEB07B;}
	.st114{fill:#707668;}
	.st115{fill:#6B544C;}
	.st116{fill:#483433;}
	.st117{fill:#5E7166;}
	.st118{fill:#F4BD8D;}
	.st119{fill:#CC935F;}
	.st120{fill:#6E4D4B;}
	.st121{fill:#2D2E33;}
	.st122{fill:#FAC497;}
	.st123{fill:#3C2E3D;}
	.st124{fill:#F9E1C0;}
	.st125{fill:#EAC08A;}
	.st126{fill:#A6704A;}
	.st127{fill:#F1C1A0;}
	.st128{fill:#B38C61;}
	.st129{fill:#1E2F5A;}
	.st130{fill:#564B50;}
	.st131{fill:#E79D5D;}
	.st132{fill:#1B161A;}
	.st133{fill:#A16938;}
	.st134{fill:#2B1E22;}
	.st135{fill:#574A41;}
	.st136{fill:#899A41;}
	.st137{fill:#402416;}
	.st138{fill:#9CB445;}
	.st139{fill:#6F3D2B;}
	.st140{fill:#734432;}
	.st141{fill:#65321F;}
	.st142{fill:#693725;}
	.st143{fill:#713F2B;}
	.st144{fill:#744130;}
	.st145{fill:#62341D;}
	.st146{fill:#4C2A25;}
	.st147{fill:#69392E;}
	.st148{fill:#6D3A25;}
	.st149{fill:#73402A;}
	.st150{fill:#6F4030;}
	.st151{fill:#744533;}
	.st152{fill:#744334;}
	.st153{fill:#7B4C3E;}
	.st154{fill:#7D4D3F;}
	.st155{fill:#7E4A3C;}
	.st156{fill:#703D28;}
	.st157{fill:#623321;}
	.st158{fill:#794633;}
	.st159{fill:#83513F;}
	.st160{fill:#623220;}
	.st161{fill:#5D2E1D;}
	.st162{fill:#542E25;}
	.st163{fill:#431D15;}
	.st164{fill:#774838;}
	.st165{fill:#3F1C14;}
	.st166{fill:#4B2421;}
	.st167{fill:#572F29;}
	.st168{fill:#6D3E2D;}
	.st169{fill:#754739;}
	.st170{fill:#5E3323;}
	.st171{fill:#5F2F22;}
	.st172{fill:#472929;}
	.st173{fill:#562E24;}
	.st174{fill:#714234;}
	.st175{fill:#442117;}
	.st176{fill:#683D36;}
	.st177{fill:#422218;}
	.st178{fill:#744536;}
	.st179{fill:#6B3726;}
	.st180{fill:#7F4F40;}
	.st181{fill:#52241A;}
	.st182{fill:#6D402B;}
	.st183{fill:#513337;}
	.st184{fill:#794C3C;}
	.st185{fill:#5D3E3E;}
	.st186{fill:#6D3B2D;}
	.st187{fill:#7A4836;}
	.st188{fill:#6A3A26;}
	.st189{fill:#4A221A;}
	.st190{fill:#5A2A1F;}
	.st191{fill:#421A16;}
	.st192{fill:#441B15;}
	.st193{fill:#562C1F;}
	.st194{fill:#572C1C;}
	.st195{fill:#7D4B43;}
	.st196{fill:#592E1E;}
	.st197{fill:#4F2C1F;}
	.st198{fill:#4D2822;}
	.st199{fill:#542A1E;}
	.st200{fill:#2C120F;}
	.st201{fill:#401B12;}
	.st202{fill:#61362F;}
	.st203{fill:#613C34;}
	.st204{fill:#361E2B;}
	.st205{fill:#462422;}
	.st206{fill:#472A2C;}
	.st207{fill:#3B1D1F;}
	.st208{fill:#1E1019;}
	.st209{fill:#170E19;}
	.st210{fill:#3A1510;}
	.st211{fill:#4C2116;}
	.st212{fill:#6C4136;}
	.st213{fill:#2F1314;}
	.st214{fill:#5A2A20;}
	.st215{fill:#5C2C20;}
	.st216{fill:#57322A;}
	.st217{fill:#795044;}
	.st218{fill:#663829;}
	.st219{fill:#4D2113;}
	.st220{fill:#977655;}
	.st221{fill:#0A0907;}
	.st222{fill:#BFA88C;}
	.st223{fill:#F2C1A0;}
	.st224{fill:#DBAF91;}
	.st225{fill:#F6C197;}
	.st226{fill:#DDAF89;}
	.st227{fill:#2C1624;}
	.st228{fill:#EFD4C9;}
	.st229{fill:#35353A;}
	.st230{fill:#E7714D;}
	.st231{fill:#FCF5E9;}
	.st232{fill:#584642;}
	.st233{fill:#A6774B;}
	.st234{fill:#5D463A;}
	.st235{fill:#7F8F62;}
	.st236{fill:#EDB984;}
	.st237{fill:#4F272F;}
	.st238{fill:#F7D3B8;}
	.st239{fill:#D7A979;}
	.st240{fill:#ECC29B;}
	.st241{fill:#C6925B;}
	.st242{fill:#FEF2EE;}
	.st243{fill:#F8DABF;}
	.st244{fill:#2D2B42;}
	.st245{fill:#B39684;}
	.st246{fill:#B69B76;}
	.st247{fill:#301616;}
	.st248{clip-path:url(#SVGID_12_);}
	.st249{fill:none;stroke:#8B714F;stroke-width:0.7178;stroke-miterlimit:10;}
	.st250{fill:#FCE8E1;}
	.st251{fill:#FDDDCA;}
	.st252{fill:#E5C8B9;}
	.st253{fill:#070A0C;}
	.st254{fill:#ECAE77;}
	.st255{fill:#C79163;}
	.st256{fill:#E6A977;}
	.st257{fill:#E5A379;}
	.st258{fill:#EFA872;}
	.st259{fill:#7B6055;}
	.st260{fill:#2F252B;}
	.st261{fill:#E7E5DE;}
	.st262{fill:#BC9A7E;}
	.st263{fill:#32263C;}
	.st264{fill:#D51E29;}
	.st265{fill:#1C1217;}
	.st266{fill:#DFE0E5;}
	.st267{clip-path:url(#SVGID_14_);}
	.st268{fill:#97D6D9;}
	.st269{fill:#49A94D;}
	.st270{fill:#F4F0D6;}
	.st271{fill:#E8B246;}
	.st272{fill:#BAE4F8;}
	.st273{fill:#745025;}
	.st274{fill:#F7CF36;}
	.st275{fill:#E77B43;}
	.st276{fill:none;stroke:#E77B43;stroke-width:1.1308;stroke-linecap:round;stroke-miterlimit:10;}
</style>
<rect x="0" class="st2" width="431" height="411"/>
<g>
	<g>
		<path class="st7" d="M216.9,260.5v3c-1,0.8-1.5,1.1-2.2,1.5c-1.2,0.6-2.5,0.9-3.9,0.9c-5.5,0-9.6-4.1-9.6-9.6
			c0-5.7,3.8-9.7,8.9-9.7c1.2,0,2.2,0.2,3.1,0.5c1,0.4,1.4,0.6,2.3,1.5l0.3-1.6h1.1v5.2h-1.1c-0.4-2.7-2.3-4.1-5.3-4.1
			c-4.3,0-7.4,3.4-7.4,8c0,4.6,3.3,7.9,7.9,7.9c1.7,0,3.1-0.5,4.1-1.5c0.5-0.5,0.7-1,0.8-2.1H216.9z"/>
		<path class="st7" d="M222.8,246.8v9.4c1-1.3,2-1.9,3.5-1.9c2.3,0,3.8,1.5,3.8,3.9v5.8h1.5v1.5h-3.2v-6.6c0-2-0.9-3.1-2.6-3.1
			c-1.8,0-3,1.4-3,3.6v4.6h1.5v1.5h-4.7V264h1.5v-15.7h-1.5v-1.5H222.8z"/>
		<path class="st7" d="M234.5,257.3v-2.4c0.1,0,0.3,0,0.3,0c0.2,0,0.4,0,0.4,0c0.1,0,0.3,0,0.6-0.1c1-0.3,1.8-0.4,2.7-0.4
			c2.7,0,4.3,1.3,4.3,3.4v6.2h1.4v1.5h-3.2v-1.2c-1.1,1-2.1,1.4-3.4,1.4c-2.2,0-3.8-1.5-3.8-3.6c0-2.1,1.7-3.7,4-3.7
			c1.2,0,2,0.3,3.2,1.3v-1.6c0-1.6-1-2.5-2.8-2.5c-1.5,0-2.4,0.5-2.6,1.6H234.5z M241.2,261.5c-1-1.3-1.7-1.7-2.9-1.7
			c-1.5,0-2.6,1-2.6,2.3c0,1.3,1.1,2.4,2.7,2.4c1.2,0,2.2-0.6,2.8-1.7V261.5z"/>
		<path class="st7" d="M249.9,254.6v1.5c1-1.2,2-1.7,3.5-1.7c2.3,0,3.9,1.5,3.9,3.9v5.8h1.5v1.5h-3.3v-6.6c0-2-0.9-3.1-2.6-3.1
			c-1.8,0-3,1.4-3,3.6v4.6h1.4v1.5h-4.7V264h1.5v-8h-1.5v-1.5H249.9z"/>
		<path class="st7" d="M276.5,260.5v3c-1,0.8-1.5,1.1-2.2,1.5c-1.2,0.6-2.5,0.9-3.9,0.9c-5.5,0-9.6-4.1-9.6-9.6
			c0-5.7,3.8-9.7,8.9-9.7c1.2,0,2.2,0.2,3.1,0.5c1,0.4,1.4,0.6,2.3,1.5l0.3-1.6h1.1v5.2h-1.1c-0.4-2.7-2.3-4.1-5.3-4.1
			c-4.3,0-7.4,3.4-7.4,8c0,4.6,3.3,7.9,7.9,7.9c1.7,0,3.1-0.5,4.1-1.5c0.5-0.5,0.7-1,0.8-2.1H276.5z"/>
		<path class="st7" d="M282.4,246.8v9.4c1-1.3,2-1.9,3.5-1.9c2.3,0,3.8,1.5,3.8,3.9v5.8h1.5v1.5H288v-6.6c0-2-0.9-3.1-2.6-3.1
			c-1.8,0-3,1.4-3,3.6v4.6h1.5v1.5h-4.7V264h1.5v-15.7h-1.5v-1.5H282.4z"/>
		<path class="st7" d="M294,257.3v-2.4c0.1,0,0.3,0,0.3,0c0.2,0,0.4,0,0.4,0c0.1,0,0.3,0,0.6-0.1c1-0.3,1.8-0.4,2.7-0.4
			c2.7,0,4.3,1.3,4.3,3.4v6.2h1.4v1.5h-3.2v-1.2c-1.1,1-2.1,1.4-3.4,1.4c-2.2,0-3.8-1.5-3.8-3.6c0-2.1,1.7-3.7,4-3.7
			c1.2,0,2,0.3,3.2,1.3v-1.6c0-1.6-1-2.5-2.8-2.5c-1.5,0-2.4,0.5-2.6,1.6H294z M300.7,261.5c-1-1.3-1.7-1.7-2.9-1.7
			c-1.5,0-2.6,1-2.6,2.3c0,1.3,1.1,2.4,2.7,2.4c1.2,0,2.2-0.6,2.8-1.7V261.5z"/>
		<path class="st7" d="M309.5,254.6v1.5c1-1.2,2-1.7,3.5-1.7c2.3,0,3.9,1.5,3.9,3.9v5.8h1.5v1.5H315v-6.6c0-2-0.9-3.1-2.6-3.1
			c-1.8,0-3,1.4-3,3.6v4.6h1.4v1.5h-4.7V264h1.5v-8h-1.5v-1.5H309.5z"/>
	</g>
	<g>
		<g>
			<path class="st7" d="M130.8,227.8c-2-2.4-6.2-2.4-8.2,0l-8.9,10.6c-1.3,1.5-1.3,3.6,0,5.1l8.9,10.6c2,2.4,6.2,2.4,8.2,0l8.9-10.6
				c1.3-1.5,1.3-3.6,0-5.1L130.8,227.8z"/>
		</g>
		<g>
			<path class="st7" d="M158.3,231.1l-8.9,10.5c-1.3,1.5-1.3,3.6,0,5.1l8.9,10.5c2,2.4,6.1,2.4,8.1,0l8.9-10.5
				c1.3-1.5,1.3-3.6,0-5.1l-8.9-10.5C164.4,228.7,160.3,228.7,158.3,231.1z"/>
		</g>
		<g>
			<path class="st7" d="M184.6,157.1l-8.5-10.1c-1.9-2.3-5.9-2.3-7.8,0l-8.5,10.1c-1.2,1.5-1.2,3.4,0,4.9l8.5,10.1
				c1.7,2,5.1,2.3,7.1,0.6l9.7-11.6C185.7,159.9,185.6,158.3,184.6,157.1z"/>
		</g>
		<g>
			<path class="st7" d="M148.3,187.4l-9.2-11c-2.1-2.5-6.4-2.5-8.5,0l-9.2,11c-1.3,1.6-1.3,3.7,0,5.3l9.2,11c2.1,2.5,6.4,2.5,8.5,0
				l9.2-11C149.6,191.1,149.6,189,148.3,187.4z"/>
		</g>
		<g>
			<path class="st7" d="M155.9,205.8l11.1,11.8c2.5,2.7,7.6,2.7,10.1,0l11.1-11.8c1.6-1.7,1.6-4,0-5.7l-11.1-11.8
				c-2.5-2.7-7.6-2.7-10.1,0l-11.1,11.8C154.3,201.8,154.3,204.1,155.9,205.8z"/>
		</g>
		<g>
			<path class="st7" d="M183.6,180.4l10.4,12.3c2.3,2.8,7.1,2.8,9.5,0l10.4-12.3c1.5-1.8,1.5-4.2,0-5.9l-10.4-12.3
				c-2.3-2.8-7.1-2.8-9.5,0l-10.4,12.3C182.1,176.3,182.1,178.7,183.6,180.4z"/>
		</g>
		<g>
			<path class="st7" d="M143.8,208.3l-2.4,2.9c-0.4,0.5-1,1-1.5,1.4l-4.7,5.6c-1.1,1.3-1.1,3,0,4.3l7.5,9c1.7,2,5.2,2,6.9,0l7.5-9
				c1-1.2,1.1-2.9,0.1-4.1l-9.8-10.5C146.2,207.5,144.9,207.7,143.8,208.3z"/>
		</g>
		<g>
			<path class="st7" d="M227.4,190.2c-2.5-3-7.8-3-10.3,0l-11.3,13.4c-1.6,1.9-1.6,4.6,0,6.5l11.3,13.4c2.5,3,7.8,3,10.3,0
				l11.3-13.4c1.6-1.9,1.6-4.6,0-6.5L227.4,190.2z"/>
		</g>
		<g>
			<path class="st7" d="M189.7,215.6l-9,10.6c-1.3,1.5-1.3,3.6,0,5.2l9,10.6c2,2.4,6.2,2.4,8.2,0l9-10.6c1.3-1.5,1.3-3.6,0-5.2
				l-9-10.6C195.8,213.2,191.7,213.2,189.7,215.6z"/>
		</g>
		<g>
			<path class="st7" d="M141.4,211.2l2.4-2.9c-0.4,0.2-0.8,0.5-1.1,0.9l-2.8,3.3C140.4,212.2,140.9,211.7,141.4,211.2z"/>
		</g>
		<g>
			<path class="st7" d="M149.6,209.2c-0.6-0.7-1.3-1.1-2.1-1.3l9.8,10.5c0-0.1-0.1-0.1-0.1-0.2L149.6,209.2z"/>
		</g>
		<g>
			<path class="st7" d="M184.6,162c0.2-0.2,0.4-0.5,0.5-0.8l-9.7,11.6c0.2-0.2,0.5-0.4,0.7-0.6L184.6,162z"/>
		</g>
	</g>
</g>
</svg>
