<?xml version="1.0" encoding="utf-8"?>
<!-- Generator: Adobe Illustrator 19.1.0, SVG Export Plug-In . SVG Version: 6.00 Build 0)  -->
<svg version="1.1" id="Layer_1" xmlns="http://www.w3.org/2000/svg" xmlns:xlink="http://www.w3.org/1999/xlink" x="0px" y="0px"
	 viewBox="0 0 431 411" style="enable-background:new 0 0 431 411;" xml:space="preserve">
<style type="text/css">
	.st0{fill:#FFDA2E;}
	.st1{fill:#FFCA30;}
	.st2{fill:#B09E7A;}
	.st3{fill:#113E62;}
	.st4{fill:none;}
	.st5{fill:#EBE9E9;}
	.st6{fill:#F9EB30;}
	.st7{fill:#FFFFFF;}
	.st8{fill:#FDE5DA;}
	.st9{opacity:0.1;}
	.st10{clip-path:url(#SVGID_4_);}
	.st11{fill:#FEE1C7;}
	.st12{fill:#A97038;stroke:#FFFFFF;stroke-width:1.8085;stroke-miterlimit:10;}
	.st13{fill:#EB3137;}
	.st14{fill:#2EB150;}
	.st15{fill:none;stroke:#000000;stroke-width:1.8085;stroke-miterlimit:10;}
	.st16{fill:none;stroke:#FFFFFF;stroke-width:1.8085;stroke-miterlimit:10;}
	.st17{fill:#FFDA39;}
	.st18{fill:none;stroke:#FFFFFF;stroke-width:1.8085;stroke-linecap:round;stroke-miterlimit:10;}
	.st19{clip-path:url(#SVGID_6_);}
	.st20{fill:#010101;}
	.st21{fill:#BABCBE;stroke:#FFFFFF;stroke-width:1.8085;stroke-miterlimit:10;}
	.st22{fill:#B5E1E7;stroke:#FFFFFF;stroke-width:1.8085;stroke-miterlimit:10;}
	.st23{fill:#97BCC1;stroke:#FFFFFF;stroke-width:1.8085;stroke-miterlimit:10;}
	.st24{fill:#3FC2D8;stroke:#FFFFFF;stroke-width:1.8085;stroke-miterlimit:10;}
	.st25{fill:#DCDDDE;stroke:#FFFFFF;stroke-width:1.8085;stroke-miterlimit:10;}
	.st26{fill:#8A5B2A;stroke:#FFFFFF;stroke-width:1.8085;stroke-miterlimit:10;}
	.st27{fill:#EB3137;stroke:#FFFFFF;stroke-width:1.8085;stroke-miterlimit:10;}
	.st28{fill:#666666;}
	.st29{fill:#37B250;}
	.st30{fill:#EBD1E4;}
	.st31{fill:#F9AB35;}
	.st32{clip-path:url(#SVGID_8_);}
	.st33{fill:#D57182;}
	.st34{clip-path:url(#SVGID_10_);}
	.st35{fill:#C5E6F8;}
	.st36{fill:#25638A;}
	.st37{fill:#276E93;}
	.st38{fill:#225C82;}
	.st39{fill:#F1CEC2;}
	.st40{fill:#956A50;}
	.st41{fill:#69767F;}
	.st42{fill:#112D4D;}
	.st43{fill:#1F4561;}
	.st44{fill:#39667E;}
	.st45{fill:#26526B;}
	.st46{fill:#1E4461;}
	.st47{fill:#455F7A;}
	.st48{fill:#224A64;}
	.st49{fill:#1C4963;}
	.st50{fill:#35596C;}
	.st51{fill:#29495D;}
	.st52{fill:#294D65;}
	.st53{fill:#4D7188;}
	.st54{fill:#4F6F83;}
	.st55{fill:#5B768B;}
	.st56{fill:#E0E6EC;}
	.st57{fill:#235269;}
	.st58{fill:#19466D;}
	.st59{fill:none;stroke:#FAFAFD;stroke-width:0.4573;stroke-miterlimit:10;}
	.st60{fill:#FAFAFD;}
	.st61{fill:#DFE8EE;}
	.st62{fill:#657B92;}
	.st63{fill:#F7EEE4;}
	.st64{fill:#8894A2;}
	.st65{fill:#737E89;}
	.st66{fill:#E2E3E6;}
	.st67{fill:#BC542E;}
	.st68{fill:#1A192B;}
	.st69{fill:#BDA399;}
	.st70{fill:#636557;}
	.st71{fill:#703E46;}
	.st72{fill:#627487;}
	.st73{fill:#C8AB99;}
	.st74{fill:#925B47;}
	.st75{fill:#363242;}
	.st76{fill:#3F3B4C;}
	.st77{fill:#0E0D16;}
	.st78{fill:#282840;}
	.st79{fill:#DCC0B0;}
	.st80{fill:#DABCAB;}
	.st81{fill:#CEAE94;}
	.st82{fill:#756567;}
	.st83{fill:#BA9E88;}
	.st84{fill:#695B5E;}
	.st85{fill:#F1EEF0;}
	.st86{fill:#E0D1B6;}
	.st87{fill:#534250;}
	.st88{fill:#271D2E;}
	.st89{fill:#938B96;}
	.st90{fill:#A8734B;}
	.st91{fill:#F3D1C5;}
	.st92{fill:#E5CDB3;}
	.st93{fill:#B65D3D;}
	.st94{fill:#6F4E44;}
	.st95{fill:#1E1218;}
	.st96{fill:#676365;}
	.st97{fill:#E6BB9C;}
	.st98{fill:#7E6056;}
	.st99{fill:#F9EEEC;}
	.st100{fill:#C5AE7A;}
	.st101{fill:#5E5047;}
	.st102{fill:#C6AA75;}
	.st103{fill:#E7B693;}
	.st104{fill:#534348;}
	.st105{fill:#091124;}
	.st106{fill:#92947E;}
	.st107{fill:#E69659;}
	.st108{fill:#222848;}
	.st109{fill:#141C2E;}
	.st110{fill:#393F3B;}
	.st111{fill:#7D9676;}
	.st112{fill:#61715C;}
	.st113{fill:#AEB07B;}
	.st114{fill:#707668;}
	.st115{fill:#6B544C;}
	.st116{fill:#483433;}
	.st117{fill:#5E7166;}
	.st118{fill:#F4BD8D;}
	.st119{fill:#CC935F;}
	.st120{fill:#6E4D4B;}
	.st121{fill:#2D2E33;}
	.st122{fill:#FAC497;}
	.st123{fill:#3C2E3D;}
	.st124{fill:#F9E1C0;}
	.st125{fill:#EAC08A;}
	.st126{fill:#A6704A;}
	.st127{fill:#F1C1A0;}
	.st128{fill:#B38C61;}
	.st129{fill:#1E2F5A;}
	.st130{fill:#564B50;}
	.st131{fill:#E79D5D;}
	.st132{fill:#1B161A;}
	.st133{fill:#A16938;}
	.st134{fill:#2B1E22;}
	.st135{fill:#574A41;}
	.st136{fill:#899A41;}
	.st137{fill:#402416;}
	.st138{fill:#9CB445;}
	.st139{fill:#6F3D2B;}
	.st140{fill:#734432;}
	.st141{fill:#65321F;}
	.st142{fill:#693725;}
	.st143{fill:#713F2B;}
	.st144{fill:#744130;}
	.st145{fill:#62341D;}
	.st146{fill:#4C2A25;}
	.st147{fill:#69392E;}
	.st148{fill:#6D3A25;}
	.st149{fill:#73402A;}
	.st150{fill:#6F4030;}
	.st151{fill:#744533;}
	.st152{fill:#744334;}
	.st153{fill:#7B4C3E;}
	.st154{fill:#7D4D3F;}
	.st155{fill:#7E4A3C;}
	.st156{fill:#703D28;}
	.st157{fill:#623321;}
	.st158{fill:#794633;}
	.st159{fill:#83513F;}
	.st160{fill:#623220;}
	.st161{fill:#5D2E1D;}
	.st162{fill:#542E25;}
	.st163{fill:#431D15;}
	.st164{fill:#774838;}
	.st165{fill:#3F1C14;}
	.st166{fill:#4B2421;}
	.st167{fill:#572F29;}
	.st168{fill:#6D3E2D;}
	.st169{fill:#754739;}
	.st170{fill:#5E3323;}
	.st171{fill:#5F2F22;}
	.st172{fill:#472929;}
	.st173{fill:#562E24;}
	.st174{fill:#714234;}
	.st175{fill:#442117;}
	.st176{fill:#683D36;}
	.st177{fill:#422218;}
	.st178{fill:#744536;}
	.st179{fill:#6B3726;}
	.st180{fill:#7F4F40;}
	.st181{fill:#52241A;}
	.st182{fill:#6D402B;}
	.st183{fill:#513337;}
	.st184{fill:#794C3C;}
	.st185{fill:#5D3E3E;}
	.st186{fill:#6D3B2D;}
	.st187{fill:#7A4836;}
	.st188{fill:#6A3A26;}
	.st189{fill:#4A221A;}
	.st190{fill:#5A2A1F;}
	.st191{fill:#421A16;}
	.st192{fill:#441B15;}
	.st193{fill:#562C1F;}
	.st194{fill:#572C1C;}
	.st195{fill:#7D4B43;}
	.st196{fill:#592E1E;}
	.st197{fill:#4F2C1F;}
	.st198{fill:#4D2822;}
	.st199{fill:#542A1E;}
	.st200{fill:#2C120F;}
	.st201{fill:#401B12;}
	.st202{fill:#61362F;}
	.st203{fill:#613C34;}
	.st204{fill:#361E2B;}
	.st205{fill:#462422;}
	.st206{fill:#472A2C;}
	.st207{fill:#3B1D1F;}
	.st208{fill:#1E1019;}
	.st209{fill:#170E19;}
	.st210{fill:#3A1510;}
	.st211{fill:#4C2116;}
	.st212{fill:#6C4136;}
	.st213{fill:#2F1314;}
	.st214{fill:#5A2A20;}
	.st215{fill:#5C2C20;}
	.st216{fill:#57322A;}
	.st217{fill:#795044;}
	.st218{fill:#663829;}
	.st219{fill:#4D2113;}
	.st220{fill:#977655;}
	.st221{fill:#0A0907;}
	.st222{fill:#BFA88C;}
	.st223{fill:#F2C1A0;}
	.st224{fill:#DBAF91;}
	.st225{fill:#F6C197;}
	.st226{fill:#DDAF89;}
	.st227{fill:#2C1624;}
	.st228{fill:#EFD4C9;}
	.st229{fill:#35353A;}
	.st230{fill:#E7714D;}
	.st231{fill:#FCF5E9;}
	.st232{fill:#584642;}
	.st233{fill:#A6774B;}
	.st234{fill:#5D463A;}
	.st235{fill:#7F8F62;}
	.st236{fill:#EDB984;}
	.st237{fill:#4F272F;}
	.st238{fill:#F7D3B8;}
	.st239{fill:#D7A979;}
	.st240{fill:#ECC29B;}
	.st241{fill:#C6925B;}
	.st242{fill:#FEF2EE;}
	.st243{fill:#F8DABF;}
	.st244{fill:#2D2B42;}
	.st245{fill:#B39684;}
	.st246{fill:#B69B76;}
	.st247{fill:#301616;}
	.st248{clip-path:url(#SVGID_12_);}
	.st249{fill:none;stroke:#8B714F;stroke-width:0.7178;stroke-miterlimit:10;}
	.st250{fill:#FCE8E1;}
	.st251{fill:#FDDDCA;}
	.st252{fill:#E5C8B9;}
	.st253{fill:#070A0C;}
	.st254{fill:#ECAE77;}
	.st255{fill:#C79163;}
	.st256{fill:#E6A977;}
	.st257{fill:#E5A379;}
	.st258{fill:#EFA872;}
	.st259{fill:#7B6055;}
	.st260{fill:#2F252B;}
	.st261{fill:#E7E5DE;}
	.st262{fill:#BC9A7E;}
	.st263{fill:#32263C;}
	.st264{fill:#D51E29;}
	.st265{fill:#1C1217;}
	.st266{fill:#DFE0E5;}
	.st267{clip-path:url(#SVGID_14_);}
	.st268{fill:#97D6D9;}
	.st269{fill:#49A94D;}
	.st270{fill:#F4F0D6;}
	.st271{fill:#E8B246;}
	.st272{fill:#BAE4F8;}
	.st273{fill:#745025;}
	.st274{fill:#F7CF36;}
	.st275{fill:#E77B43;}
	.st276{fill:none;stroke:#E77B43;stroke-width:1.1308;stroke-linecap:round;stroke-miterlimit:10;}
</style>
<rect y="0" class="st1" width="431" height="411"/>
<polygon class="st3" points="173.6,228.7 173.6,228.7 173.6,228.7 "/>
<path class="st4" d="M292.4,198.4c-8.5,0-14,6.7-14,16.1c0,9.4,5,16.4,13.9,16.4c8.5,0,13.7-7.1,13.7-16.5
	C306,204.8,300.9,198.4,292.4,198.4z"/>
<path class="st4" d="M133.8,197.9c-4.7,0-7.9,2.9-7.9,6.1c0,2.8,1.8,4.8,5.4,5.5l7.7,1.6c0.5,0.1,1,0.2,1.5,0.4l3.4-6l-0.2,0.1
	C143.2,203.1,141.3,197.9,133.8,197.9z"/>
<path class="st4" d="M238.5,198.2c-7.8,0-12.5,5.8-12.9,11.7h25.9C251.3,203.3,246.9,198.2,238.5,198.2z"/>
<polygon class="st3" points="173.6,168.6 173.6,168.6 173.6,168.6 "/>
<g>
	<path class="st5" d="M139,211.1l-7.7-1.6c-3.6-0.8-5.4-2.8-5.4-5.5c0-3.1,3.1-6.1,7.9-6.1c7.5,0,9.4,5.2,9.8,7.6l0.2-0.1l5-8.9
		c-2.6-3.3-7.2-6.2-15-6.2c-9.2,0-16.8,6.7-16.8,14.5c0,6.5,4.4,11.3,11.8,12.8l7.4,1.6l4.3-7.7C140,211.3,139.5,211.2,139,211.1z"
		/>
	<path class="st5" d="M123.8,222.7l-8.4,2.9c0.6,3.9,3.7,9.2,10.5,11.8l3.9-7C126.3,229,124.3,226.1,123.8,222.7z"/>
	<path class="st5" d="M204.9,208.4c0-10.2-5.6-18.1-16.9-18.1c-0.1,0-0.2,0-0.3,0l17.3,26.8V208.4z"/>
	<path class="st5" d="M238.4,190.3c-11.9,0-22.6,9.8-22.6,24.2c0,15.5,11.1,24.4,23.8,24.4c11,0,18.6-6.4,21.2-14.5l-8-2.7
		c-1.8,5.1-5.6,9.2-13.3,9.2c-8,0-14.1-5.7-14.3-13.9h35.6c0.1-0.6,0.2-1.7,0.2-2.9C261.1,200,253,190.3,238.4,190.3z M225.6,209.9
		c0.4-5.9,5.1-11.7,12.9-11.7c8.4,0,12.8,5.1,13,11.7H225.6z"/>
	<path class="st5" d="M315,229v-60.4h-9.1v29.6c-1.6-3.7-6.1-7.7-14.5-7.7c-13.4,0-22.4,11-22.4,24c0,13.6,8.6,24.4,22.4,24.4
		c7.4,0,12.4-4,14.7-8.4v0.8c0,2.8,0.3,6.6,0.5,7.6h8.9C315.4,238.1,315,233.4,315,229z M292.3,230.8c-8.9,0-13.9-6.9-13.9-16.4
		c0-9.4,5.5-16.1,14-16.1c8.5,0,13.6,6.5,13.6,15.9C306,223.7,300.8,230.8,292.3,230.8z"/>
</g>
<polygon class="st6" points="204.9,238.9 218.8,238.9 204.9,217.2 "/>
<path class="st6" d="M142.9,225.2c0-2.9-2.2-5-6.1-5.9l-0.6-0.1l-6.3,11.3c1.4,0.5,3.1,0.9,5,0.9
	C140.1,231.3,142.9,228.4,142.9,225.2z"/>
<path class="st6" d="M184.6,198.5c-7.1,0-10.8,5.3-11,12.1v28.3h22V210C195.6,203.6,192.9,198.5,184.6,198.5z"/>
<path class="st6" d="M187.6,190.4l-14-21.8V197C177,192.3,182.3,190.5,187.6,190.4z"/>
<path class="st6" d="M148.8,196.5c1.7,2.1,2.6,4.4,3,6l-7.9,2.9l-3.4,6c7.6,2.1,11.6,6.9,11.6,13.2c0,6.5-5.6,14.2-17.3,14.2h29.6
	v-70.3L148.8,196.5z"/>
<g>
	<path class="st7" d="M151.8,202.6c-0.4-1.6-1.3-3.9-3-6l-5,8.9L151.8,202.6z"/>
	<path class="st7" d="M152.1,224.7c0-6.4-4-11.2-11.6-13.2l-4.3,7.7l0.6,0.1c3.9,0.9,6.1,3,6.1,5.9c0,3.2-2.9,6.1-8.1,6.1
		c-1.9,0-3.5-0.3-5-0.9l-3.9,7c2.4,0.9,5.3,1.5,8.7,1.5C146.5,238.9,152.1,231.2,152.1,224.7z"/>
	<path class="st7" d="M187.6,190.4c-5.3,0.1-10.6,1.9-14,6.6v-28.4l0,0h-9.2v70.3h9.2v-28.3c0.2-6.8,3.9-12.1,11-12.1
		c8.3,0,11,5.1,11,11.5v28.9h9.2v-21.7L187.6,190.4z"/>
</g>
</svg>
