<?xml version="1.0" encoding="utf-8"?>
<!-- Generator: Adobe Illustrator 19.1.0, SVG Export Plug-In . SVG Version: 6.00 Build 0)  -->
<svg version="1.1" id="Layer_1" xmlns="http://www.w3.org/2000/svg" xmlns:xlink="http://www.w3.org/1999/xlink" x="0px" y="0px"
	 viewBox="0 0 431 411" style="enable-background:new 0 0 431 411;" xml:space="preserve">
<style type="text/css">
	.st0{fill:#FFDA2E;}
	.st1{fill:#FFCA30;}
	.st2{fill:#B09E7A;}
	.st3{fill:#113E62;}
	.st4{fill:none;}
	.st5{fill:#EBE9E9;}
	.st6{fill:#F9EB30;}
	.st7{fill:#FFFFFF;}
	.st8{fill:#FDE5DA;}
	.st9{opacity:0.1;}
	.st10{clip-path:url(#SVGID_4_);}
	.st11{fill:#FEE1C7;}
	.st12{fill:#A97038;stroke:#FFFFFF;stroke-width:1.8085;stroke-miterlimit:10;}
	.st13{fill:#EB3137;}
	.st14{fill:#2EB150;}
	.st15{fill:none;stroke:#000000;stroke-width:1.8085;stroke-miterlimit:10;}
	.st16{fill:none;stroke:#FFFFFF;stroke-width:1.8085;stroke-miterlimit:10;}
	.st17{fill:#FFDA39;}
	.st18{fill:none;stroke:#FFFFFF;stroke-width:1.8085;stroke-linecap:round;stroke-miterlimit:10;}
	.st19{clip-path:url(#SVGID_6_);}
	.st20{fill:#010101;}
	.st21{fill:#BABCBE;stroke:#FFFFFF;stroke-width:1.8085;stroke-miterlimit:10;}
	.st22{fill:#B5E1E7;stroke:#FFFFFF;stroke-width:1.8085;stroke-miterlimit:10;}
	.st23{fill:#97BCC1;stroke:#FFFFFF;stroke-width:1.8085;stroke-miterlimit:10;}
	.st24{fill:#3FC2D8;stroke:#FFFFFF;stroke-width:1.8085;stroke-miterlimit:10;}
	.st25{fill:#DCDDDE;stroke:#FFFFFF;stroke-width:1.8085;stroke-miterlimit:10;}
	.st26{fill:#8A5B2A;stroke:#FFFFFF;stroke-width:1.8085;stroke-miterlimit:10;}
	.st27{fill:#EB3137;stroke:#FFFFFF;stroke-width:1.8085;stroke-miterlimit:10;}
	.st28{fill:#666666;}
	.st29{fill:#37B250;}
	.st30{fill:#EBD1E4;}
	.st31{fill:#F9AB35;}
	.st32{clip-path:url(#SVGID_8_);}
	.st33{font-family:'Brown-Regular';}
	.st34{font-size:12.8418px;}
	.st35{fill:#D57182;}
	.st36{clip-path:url(#SVGID_10_);}
	.st37{fill:#C5E6F8;}
	.st38{fill:#25638A;}
	.st39{fill:#276E93;}
	.st40{fill:#225C82;}
	.st41{fill:#F1CEC2;}
	.st42{fill:#956A50;}
	.st43{fill:#69767F;}
	.st44{fill:#112D4D;}
	.st45{fill:#1F4561;}
	.st46{fill:#39667E;}
	.st47{fill:#26526B;}
	.st48{fill:#1E4461;}
	.st49{fill:#455F7A;}
	.st50{fill:#224A64;}
	.st51{fill:#1C4963;}
	.st52{fill:#35596C;}
	.st53{fill:#29495D;}
	.st54{fill:#294D65;}
	.st55{fill:#4D7188;}
	.st56{fill:#4F6F83;}
	.st57{fill:#5B768B;}
	.st58{fill:#E0E6EC;}
	.st59{fill:#235269;}
	.st60{fill:#19466D;}
	.st61{fill:none;stroke:#FAFAFD;stroke-width:0.4573;stroke-miterlimit:10;}
	.st62{fill:#FAFAFD;}
	.st63{fill:#DFE8EE;}
	.st64{fill:#657B92;}
	.st65{fill:#F7EEE4;}
	.st66{fill:#8894A2;}
	.st67{fill:#737E89;}
	.st68{fill:#E2E3E6;}
	.st69{fill:#BC542E;}
	.st70{fill:#1A192B;}
	.st71{fill:#BDA399;}
	.st72{fill:#636557;}
	.st73{fill:#703E46;}
	.st74{fill:#627487;}
	.st75{fill:#C8AB99;}
	.st76{fill:#925B47;}
	.st77{fill:#363242;}
	.st78{fill:#3F3B4C;}
	.st79{fill:#0E0D16;}
	.st80{fill:#282840;}
	.st81{fill:#DCC0B0;}
	.st82{fill:#DABCAB;}
	.st83{fill:#CEAE94;}
	.st84{fill:#756567;}
	.st85{fill:#BA9E88;}
	.st86{fill:#695B5E;}
	.st87{fill:#F1EEF0;}
	.st88{fill:#E0D1B6;}
	.st89{fill:#534250;}
	.st90{fill:#271D2E;}
	.st91{fill:#938B96;}
	.st92{fill:#A8734B;}
	.st93{fill:#F3D1C5;}
	.st94{fill:#E5CDB3;}
	.st95{fill:#B65D3D;}
	.st96{fill:#6F4E44;}
	.st97{fill:#1E1218;}
	.st98{fill:#676365;}
	.st99{fill:#E6BB9C;}
	.st100{fill:#7E6056;}
	.st101{fill:#F9EEEC;}
	.st102{fill:#C5AE7A;}
	.st103{fill:#5E5047;}
	.st104{fill:#C6AA75;}
	.st105{fill:#E7B693;}
	.st106{fill:#534348;}
	.st107{fill:#091124;}
	.st108{fill:#92947E;}
	.st109{fill:#E69659;}
	.st110{fill:#222848;}
	.st111{fill:#141C2E;}
	.st112{fill:#393F3B;}
	.st113{fill:#7D9676;}
	.st114{fill:#61715C;}
	.st115{fill:#AEB07B;}
	.st116{fill:#707668;}
	.st117{fill:#6B544C;}
	.st118{fill:#483433;}
	.st119{fill:#5E7166;}
	.st120{fill:#F4BD8D;}
	.st121{fill:#CC935F;}
	.st122{fill:#6E4D4B;}
	.st123{fill:#2D2E33;}
	.st124{fill:#FAC497;}
	.st125{fill:#3C2E3D;}
	.st126{fill:#F9E1C0;}
	.st127{fill:#EAC08A;}
	.st128{fill:#A6704A;}
	.st129{fill:#F1C1A0;}
	.st130{fill:#B38C61;}
	.st131{fill:#1E2F5A;}
	.st132{fill:#564B50;}
	.st133{fill:#E79D5D;}
	.st134{fill:#1B161A;}
	.st135{fill:#A16938;}
	.st136{fill:#2B1E22;}
	.st137{fill:#574A41;}
	.st138{fill:#899A41;}
	.st139{fill:#402416;}
	.st140{fill:#9CB445;}
	.st141{fill:#6F3D2B;}
	.st142{fill:#734432;}
	.st143{fill:#65321F;}
	.st144{fill:#693725;}
	.st145{fill:#713F2B;}
	.st146{fill:#744130;}
	.st147{fill:#62341D;}
	.st148{fill:#4C2A25;}
	.st149{fill:#69392E;}
	.st150{fill:#6D3A25;}
	.st151{fill:#73402A;}
	.st152{fill:#6F4030;}
	.st153{fill:#744533;}
	.st154{fill:#744334;}
	.st155{fill:#7B4C3E;}
	.st156{fill:#7D4D3F;}
	.st157{fill:#7E4A3C;}
	.st158{fill:#703D28;}
	.st159{fill:#623321;}
	.st160{fill:#794633;}
	.st161{fill:#83513F;}
	.st162{fill:#623220;}
	.st163{fill:#5D2E1D;}
	.st164{fill:#542E25;}
	.st165{fill:#431D15;}
	.st166{fill:#774838;}
	.st167{fill:#3F1C14;}
	.st168{fill:#4B2421;}
	.st169{fill:#572F29;}
	.st170{fill:#6D3E2D;}
	.st171{fill:#754739;}
	.st172{fill:#5E3323;}
	.st173{fill:#5F2F22;}
	.st174{fill:#472929;}
	.st175{fill:#562E24;}
	.st176{fill:#714234;}
	.st177{fill:#442117;}
	.st178{fill:#683D36;}
	.st179{fill:#422218;}
	.st180{fill:#744536;}
	.st181{fill:#6B3726;}
	.st182{fill:#7F4F40;}
	.st183{fill:#52241A;}
	.st184{fill:#6D402B;}
	.st185{fill:#513337;}
	.st186{fill:#794C3C;}
	.st187{fill:#5D3E3E;}
	.st188{fill:#6D3B2D;}
	.st189{fill:#7A4836;}
	.st190{fill:#6A3A26;}
	.st191{fill:#4A221A;}
	.st192{fill:#5A2A1F;}
	.st193{fill:#421A16;}
	.st194{fill:#441B15;}
	.st195{fill:#562C1F;}
	.st196{fill:#572C1C;}
	.st197{fill:#7D4B43;}
	.st198{fill:#592E1E;}
	.st199{fill:#4F2C1F;}
	.st200{fill:#4D2822;}
	.st201{fill:#542A1E;}
	.st202{fill:#2C120F;}
	.st203{fill:#401B12;}
	.st204{fill:#61362F;}
	.st205{fill:#613C34;}
	.st206{fill:#361E2B;}
	.st207{fill:#462422;}
	.st208{fill:#472A2C;}
	.st209{fill:#3B1D1F;}
	.st210{fill:#1E1019;}
	.st211{fill:#170E19;}
	.st212{fill:#3A1510;}
	.st213{fill:#4C2116;}
	.st214{fill:#6C4136;}
	.st215{fill:#2F1314;}
	.st216{fill:#5A2A20;}
	.st217{fill:#5C2C20;}
	.st218{fill:#57322A;}
	.st219{fill:#795044;}
	.st220{fill:#663829;}
	.st221{fill:#4D2113;}
	.st222{fill:#977655;}
	.st223{fill:#0A0907;}
	.st224{fill:#BFA88C;}
	.st225{fill:#F2C1A0;}
	.st226{fill:#DBAF91;}
	.st227{fill:#F6C197;}
	.st228{fill:#DDAF89;}
	.st229{fill:#2C1624;}
	.st230{fill:#EFD4C9;}
	.st231{fill:#35353A;}
	.st232{fill:#E7714D;}
	.st233{fill:#FCF5E9;}
	.st234{fill:#584642;}
	.st235{fill:#A6774B;}
	.st236{fill:#5D463A;}
	.st237{fill:#7F8F62;}
	.st238{fill:#EDB984;}
	.st239{fill:#4F272F;}
	.st240{fill:#F7D3B8;}
	.st241{fill:#D7A979;}
	.st242{fill:#ECC29B;}
	.st243{fill:#C6925B;}
	.st244{fill:#FEF2EE;}
	.st245{fill:#F8DABF;}
	.st246{fill:#2D2B42;}
	.st247{fill:#B39684;}
	.st248{fill:#B69B76;}
	.st249{fill:#301616;}
	.st250{clip-path:url(#SVGID_12_);}
	.st251{fill:none;stroke:#8B714F;stroke-width:0.7178;stroke-miterlimit:10;}
	.st252{fill:#FCE8E1;}
	.st253{fill:#FDDDCA;}
	.st254{fill:#E5C8B9;}
	.st255{fill:#070A0C;}
	.st256{fill:#ECAE77;}
	.st257{fill:#C79163;}
	.st258{fill:#E6A977;}
	.st259{fill:#E5A379;}
	.st260{fill:#EFA872;}
	.st261{fill:#7B6055;}
	.st262{fill:#2F252B;}
	.st263{fill:#E7E5DE;}
	.st264{fill:#BC9A7E;}
	.st265{fill:#32263C;}
	.st266{fill:#D51E29;}
	.st267{fill:#1C1217;}
	.st268{fill:#DFE0E5;}
	.st269{clip-path:url(#SVGID_14_);}
	.st270{fill:#97D6D9;}
	.st271{fill:#49A94D;}
	.st272{fill:#F4F0D6;}
	.st273{fill:#E8B246;}
	.st274{fill:#BAE4F8;}
	.st275{fill:#745025;}
	.st276{fill:#F7CF36;}
	.st277{fill:#E77B43;}
	.st278{fill:none;stroke:#E77B43;stroke-width:1.1308;stroke-linecap:round;stroke-miterlimit:10;}
</style>
<rect x="0" class="st0" width="431" height="411"/>
<g>
	<defs>
		<rect id="SVGID_7_" x="0" width="431" height="411"/>
	</defs>
	<clipPath id="SVGID_2_">
		<use xlink:href="#SVGID_7_"  style="overflow:visible;"/>
	</clipPath>
	<g style="clip-path:url(#SVGID_2_);">
		<rect x="177.7" y="-64" class="st29" width="360.7" height="146.8"/>
		<path class="st29" d="M296.1,149.3l34.1,126.1c13.1,48.6,81.1,51,97.7,3.5l49.7-142.3c9.3-26.7-4.7-55.9-31.4-65.2l-297.7-104
			c-26.7-9.3-55.9,4.7-65.2,31.4L34,140.2c-16.6,47.6,38.3,88,78.8,58l103.5-76.6C245.2,100.1,286.7,114.6,296.1,149.3z"/>
		<path class="st31" d="M196.8,112.8l3.1-2.1C299.7,42.2,251.4-114,130.4-114H75.1C7.1-114-48-58.9-48,9.1v408.9
			C-48,485.9,7.1,541,75.1,541h52.8c121.2,0,169.5-156.7,69.2-224.9l0,0C125.4,267.4,125.3,161.8,196.8,112.8z"/>
		<path class="st30" d="M294.3,413l-94.6-138.1c-9-13.1-29.5-6.7-29.5,9.1v172.5c0,8.9,7.2,16.1,16.1,16.1h241.6
			c8.9,0,16.1-7.2,16.1-16.1V284.3c0-15.9-20.6-22.2-29.5-9.1l-93.6,137.7C314.5,422.3,300.7,422.4,294.3,413z"/>
	</g>
</g>
<g>
	<text transform="matrix(1 0 0 1 75.4561 238.8361)" class="st7 st33 st34">Marvelous Museum of Mesmerizing Miniatures</text>
	<g>
		<path class="st7" d="M169.4,198.5l-0.2-0.3c-5.9-8.7-19.5-4.5-19.5,6v4.8c0,5.9,4.8,10.7,10.7,10.7h35.4c5.9,0,10.7-4.8,10.7-10.7
			v-4.6c0-10.5-13.6-14.7-19.5-6l0,0C182.8,204.7,173.7,204.7,169.4,198.5z"/>
		<path class="st7" d="M98.7,204.3l-13-19c-3.2-4.7-10.7-2.4-10.7,3.3v25.2c0,3.2,2.6,5.8,5.8,5.8H126c3.2,0,5.8-2.6,5.8-5.8v-25.1
			c0-5.8-7.4-8-10.7-3.3l-12.8,18.8C106.1,207.7,101.1,207.7,98.7,204.3z"/>
		<path class="st7" d="M250.2,207.2l-19.8-25.8c-1.8-2.4-6-1.2-6,1.7v32.2c0,1.6,1.5,2.9,3.3,2.9H278c1.8,0,3.3-1.3,3.3-2.9v-32.1
			c0-2.9-4.2-4-6-1.6l-19.6,25.7C254.3,208.9,251.5,208.9,250.2,207.2z"/>
		<path class="st7" d="M321.3,191.7l-8.1-17.7c-4.3-9.4-14-4.8-14,6.5v26.1c0,6.4,3.4,11.6,7.7,11.6h41.4c4.3,0,7.7-5.2,7.7-11.6
			v-25.9c0-11.4-9.8-15.9-14.1-6.5l-7.9,17.4C330.9,198.4,324.3,198.4,321.3,191.7z"/>
	</g>
</g>
</svg>
