<?xml version="1.0" encoding="utf-8"?>
<!-- Generator: Adobe Illustrator 19.1.0, SVG Export Plug-In . SVG Version: 6.00 Build 0)  -->
<svg version="1.1" id="Layer_1" xmlns="http://www.w3.org/2000/svg" xmlns:xlink="http://www.w3.org/1999/xlink" x="0px" y="0px"
	 viewBox="0 0 431 411" style="enable-background:new 0 0 431 411;" xml:space="preserve">
<style type="text/css">
	.st0{fill:#FFDA2E;}
	.st1{fill:#FFCA30;}
	.st2{fill:#B09E7A;}
	.st3{fill:#113E62;}
	.st4{fill:none;}
	.st5{fill:#EBE9E9;}
	.st6{fill:#F9EB30;}
	.st7{fill:#FFFFFF;}
	.st8{fill:#FDE5DA;}
	.st9{opacity:0.1;}
	.st10{clip-path:url(#SVGID_4_);}
	.st11{fill:#FEE1C7;}
	.st12{fill:#A97038;stroke:#FFFFFF;stroke-width:1.8085;stroke-miterlimit:10;}
	.st13{fill:#EB3137;}
	.st14{fill:#2EB150;}
	.st15{fill:none;stroke:#000000;stroke-width:1.8085;stroke-miterlimit:10;}
	.st16{fill:none;stroke:#FFFFFF;stroke-width:1.8085;stroke-miterlimit:10;}
	.st17{fill:#FFDA39;}
	.st18{fill:none;stroke:#FFFFFF;stroke-width:1.8085;stroke-linecap:round;stroke-miterlimit:10;}
	.st19{clip-path:url(#SVGID_6_);}
	.st20{fill:#010101;}
	.st21{fill:#BABCBE;stroke:#FFFFFF;stroke-width:1.8085;stroke-miterlimit:10;}
	.st22{fill:#B5E1E7;stroke:#FFFFFF;stroke-width:1.8085;stroke-miterlimit:10;}
	.st23{fill:#97BCC1;stroke:#FFFFFF;stroke-width:1.8085;stroke-miterlimit:10;}
	.st24{fill:#3FC2D8;stroke:#FFFFFF;stroke-width:1.8085;stroke-miterlimit:10;}
	.st25{fill:#DCDDDE;stroke:#FFFFFF;stroke-width:1.8085;stroke-miterlimit:10;}
	.st26{fill:#8A5B2A;stroke:#FFFFFF;stroke-width:1.8085;stroke-miterlimit:10;}
	.st27{fill:#EB3137;stroke:#FFFFFF;stroke-width:1.8085;stroke-miterlimit:10;}
	.st28{fill:#666666;}
	.st29{fill:#37B250;}
	.st30{fill:#EBD1E4;}
	.st31{fill:#F9AB35;}
	.st32{clip-path:url(#SVGID_8_);}
	.st33{fill:#D57182;}
	.st34{clip-path:url(#SVGID_10_);}
	.st35{fill:#C5E6F8;}
	.st36{fill:#25638A;}
	.st37{fill:#276E93;}
	.st38{fill:#225C82;}
	.st39{fill:#F1CEC2;}
	.st40{fill:#956A50;}
	.st41{fill:#69767F;}
	.st42{fill:#112D4D;}
	.st43{fill:#1F4561;}
	.st44{fill:#39667E;}
	.st45{fill:#26526B;}
	.st46{fill:#1E4461;}
	.st47{fill:#455F7A;}
	.st48{fill:#224A64;}
	.st49{fill:#1C4963;}
	.st50{fill:#35596C;}
	.st51{fill:#29495D;}
	.st52{fill:#294D65;}
	.st53{fill:#4D7188;}
	.st54{fill:#4F6F83;}
	.st55{fill:#5B768B;}
	.st56{fill:#E0E6EC;}
	.st57{fill:#235269;}
	.st58{fill:#19466D;}
	.st59{fill:none;stroke:#FAFAFD;stroke-width:0.4573;stroke-miterlimit:10;}
	.st60{fill:#FAFAFD;}
	.st61{fill:#DFE8EE;}
	.st62{fill:#657B92;}
	.st63{fill:#F7EEE4;}
	.st64{fill:#8894A2;}
	.st65{fill:#737E89;}
	.st66{fill:#E2E3E6;}
	.st67{fill:#BC542E;}
	.st68{fill:#1A192B;}
	.st69{fill:#BDA399;}
	.st70{fill:#636557;}
	.st71{fill:#703E46;}
	.st72{fill:#627487;}
	.st73{fill:#C8AB99;}
	.st74{fill:#925B47;}
	.st75{fill:#363242;}
	.st76{fill:#3F3B4C;}
	.st77{fill:#0E0D16;}
	.st78{fill:#282840;}
	.st79{fill:#DCC0B0;}
	.st80{fill:#DABCAB;}
	.st81{fill:#CEAE94;}
	.st82{fill:#756567;}
	.st83{fill:#BA9E88;}
	.st84{fill:#695B5E;}
	.st85{fill:#F1EEF0;}
	.st86{fill:#E0D1B6;}
	.st87{fill:#534250;}
	.st88{fill:#271D2E;}
	.st89{fill:#938B96;}
	.st90{fill:#A8734B;}
	.st91{fill:#F3D1C5;}
	.st92{fill:#E5CDB3;}
	.st93{fill:#B65D3D;}
	.st94{fill:#6F4E44;}
	.st95{fill:#1E1218;}
	.st96{fill:#676365;}
	.st97{fill:#E6BB9C;}
	.st98{fill:#7E6056;}
	.st99{fill:#F9EEEC;}
	.st100{fill:#C5AE7A;}
	.st101{fill:#5E5047;}
	.st102{fill:#C6AA75;}
	.st103{fill:#E7B693;}
	.st104{fill:#534348;}
	.st105{fill:#091124;}
	.st106{fill:#92947E;}
	.st107{fill:#E69659;}
	.st108{fill:#222848;}
	.st109{fill:#141C2E;}
	.st110{fill:#393F3B;}
	.st111{fill:#7D9676;}
	.st112{fill:#61715C;}
	.st113{fill:#AEB07B;}
	.st114{fill:#707668;}
	.st115{fill:#6B544C;}
	.st116{fill:#483433;}
	.st117{fill:#5E7166;}
	.st118{fill:#F4BD8D;}
	.st119{fill:#CC935F;}
	.st120{fill:#6E4D4B;}
	.st121{fill:#2D2E33;}
	.st122{fill:#FAC497;}
	.st123{fill:#3C2E3D;}
	.st124{fill:#F9E1C0;}
	.st125{fill:#EAC08A;}
	.st126{fill:#A6704A;}
	.st127{fill:#F1C1A0;}
	.st128{fill:#B38C61;}
	.st129{fill:#1E2F5A;}
	.st130{fill:#564B50;}
	.st131{fill:#E79D5D;}
	.st132{fill:#1B161A;}
	.st133{fill:#A16938;}
	.st134{fill:#2B1E22;}
	.st135{fill:#574A41;}
	.st136{fill:#899A41;}
	.st137{fill:#402416;}
	.st138{fill:#9CB445;}
	.st139{fill:#6F3D2B;}
	.st140{fill:#734432;}
	.st141{fill:#65321F;}
	.st142{fill:#693725;}
	.st143{fill:#713F2B;}
	.st144{fill:#744130;}
	.st145{fill:#62341D;}
	.st146{fill:#4C2A25;}
	.st147{fill:#69392E;}
	.st148{fill:#6D3A25;}
	.st149{fill:#73402A;}
	.st150{fill:#6F4030;}
	.st151{fill:#744533;}
	.st152{fill:#744334;}
	.st153{fill:#7B4C3E;}
	.st154{fill:#7D4D3F;}
	.st155{fill:#7E4A3C;}
	.st156{fill:#703D28;}
	.st157{fill:#623321;}
	.st158{fill:#794633;}
	.st159{fill:#83513F;}
	.st160{fill:#623220;}
	.st161{fill:#5D2E1D;}
	.st162{fill:#542E25;}
	.st163{fill:#431D15;}
	.st164{fill:#774838;}
	.st165{fill:#3F1C14;}
	.st166{fill:#4B2421;}
	.st167{fill:#572F29;}
	.st168{fill:#6D3E2D;}
	.st169{fill:#754739;}
	.st170{fill:#5E3323;}
	.st171{fill:#5F2F22;}
	.st172{fill:#472929;}
	.st173{fill:#562E24;}
	.st174{fill:#714234;}
	.st175{fill:#442117;}
	.st176{fill:#683D36;}
	.st177{fill:#422218;}
	.st178{fill:#744536;}
	.st179{fill:#6B3726;}
	.st180{fill:#7F4F40;}
	.st181{fill:#52241A;}
	.st182{fill:#6D402B;}
	.st183{fill:#513337;}
	.st184{fill:#794C3C;}
	.st185{fill:#5D3E3E;}
	.st186{fill:#6D3B2D;}
	.st187{fill:#7A4836;}
	.st188{fill:#6A3A26;}
	.st189{fill:#4A221A;}
	.st190{fill:#5A2A1F;}
	.st191{fill:#421A16;}
	.st192{fill:#441B15;}
	.st193{fill:#562C1F;}
	.st194{fill:#572C1C;}
	.st195{fill:#7D4B43;}
	.st196{fill:#592E1E;}
	.st197{fill:#4F2C1F;}
	.st198{fill:#4D2822;}
	.st199{fill:#542A1E;}
	.st200{fill:#2C120F;}
	.st201{fill:#401B12;}
	.st202{fill:#61362F;}
	.st203{fill:#613C34;}
	.st204{fill:#361E2B;}
	.st205{fill:#462422;}
	.st206{fill:#472A2C;}
	.st207{fill:#3B1D1F;}
	.st208{fill:#1E1019;}
	.st209{fill:#170E19;}
	.st210{fill:#3A1510;}
	.st211{fill:#4C2116;}
	.st212{fill:#6C4136;}
	.st213{fill:#2F1314;}
	.st214{fill:#5A2A20;}
	.st215{fill:#5C2C20;}
	.st216{fill:#57322A;}
	.st217{fill:#795044;}
	.st218{fill:#663829;}
	.st219{fill:#4D2113;}
	.st220{fill:#977655;}
	.st221{fill:#0A0907;}
	.st222{fill:#BFA88C;}
	.st223{fill:#F2C1A0;}
	.st224{fill:#DBAF91;}
	.st225{fill:#F6C197;}
	.st226{fill:#DDAF89;}
	.st227{fill:#2C1624;}
	.st228{fill:#EFD4C9;}
	.st229{fill:#35353A;}
	.st230{fill:#E7714D;}
	.st231{fill:#FCF5E9;}
	.st232{fill:#584642;}
	.st233{fill:#A6774B;}
	.st234{fill:#5D463A;}
	.st235{fill:#7F8F62;}
	.st236{fill:#EDB984;}
	.st237{fill:#4F272F;}
	.st238{fill:#F7D3B8;}
	.st239{fill:#D7A979;}
	.st240{fill:#ECC29B;}
	.st241{fill:#C6925B;}
	.st242{fill:#FEF2EE;}
	.st243{fill:#F8DABF;}
	.st244{fill:#2D2B42;}
	.st245{fill:#B39684;}
	.st246{fill:#B69B76;}
	.st247{fill:#301616;}
	.st248{clip-path:url(#SVGID_12_);}
	.st249{fill:none;stroke:#8B714F;stroke-width:0.7178;stroke-miterlimit:10;}
	.st250{fill:#FCE8E1;}
	.st251{fill:#FDDDCA;}
	.st252{fill:#E5C8B9;}
	.st253{fill:#070A0C;}
	.st254{fill:#ECAE77;}
	.st255{fill:#C79163;}
	.st256{fill:#E6A977;}
	.st257{fill:#E5A379;}
	.st258{fill:#EFA872;}
	.st259{fill:#7B6055;}
	.st260{fill:#2F252B;}
	.st261{fill:#E7E5DE;}
	.st262{fill:#BC9A7E;}
	.st263{fill:#32263C;}
	.st264{fill:#D51E29;}
	.st265{fill:#1C1217;}
	.st266{fill:#DFE0E5;}
	.st267{clip-path:url(#SVGID_14_);}
	.st268{fill:#97D6D9;}
	.st269{fill:#49A94D;}
	.st270{fill:#F4F0D6;}
	.st271{fill:#E8B246;}
	.st272{fill:#BAE4F8;}
	.st273{fill:#745025;}
	.st274{fill:#F7CF36;}
	.st275{fill:#E77B43;}
	.st276{fill:none;stroke:#E77B43;stroke-width:1.1308;stroke-linecap:round;stroke-miterlimit:10;}
</style>
<g>
	<rect x="-1.5" y="-3.5" class="st8" width="434" height="434.1"/>
	<g class="st9">
		<defs>
			<rect id="SVGID_3_" x="-1.5" y="-3.5" class="st9" width="434" height="434.1"/>
		</defs>
		<clipPath id="SVGID_2_">
			<use xlink:href="#SVGID_3_"  style="overflow:visible;"/>
		</clipPath>
		<g id="gNE04x_1_" style="clip-path:url(#SVGID_2_);">
			
				<image style="overflow:visible;" width="5472" height="3648" id="gNE04x_2_" xlink:href="55C0EA168FA2EA2E.png"  transform="matrix(5.544000e-12 -0.1235 0.1235 5.544000e-12 -6.9413 480.9389)">
			</image>
		</g>
	</g>
	<path d="M215.5,145.1c-118.7,0-184,129.8-219.7,285.4h439.5C399.5,274.9,334.2,145.1,215.5,145.1z"/>
	<g>
		<path class="st11" d="M277.1,215c-1.7,1.2-3.7,2-6,2.2c-6.6,0.8-12.9-3.6-14.4-10.1c-1.4-6.1,1.6-12.2,6.9-14.9l-8.9-15l-7.7,73.4
			c15.8-2.2,30.9,8.6,33.5,24.8c2.3,14.8-6.9,29.2-21.3,33.2c-6.2,1.8-12.5,1.4-18.1-0.6l-2.3,22.5l94.7-20.7L277.1,215z"/>
		<polygon class="st12" points="238.7,330.6 236.4,352.2 344.4,328.5 333.4,309.8 		"/>
		<path class="st13" d="M280.5,275.5c-2.6-16.3-17.6-27-33.5-24.8l-6,57.4c5.6,2,11.9,2.4,18.1,0.6
			C273.6,304.7,282.8,290.3,280.5,275.5z"/>
		
			<rect x="258.7" y="225.6" transform="matrix(0.8727 -0.4883 0.4883 0.8727 -82.0039 158.1705)" class="st14" width="7.2" height="21.4"/>
		
			<rect x="288.6" y="273.2" transform="matrix(-0.9144 -0.4048 0.4048 -0.9144 444.4622 661.7678)" class="st14" width="7.2" height="21.4"/>
		<path class="st13" d="M256.7,207.1c1.5,6.5,7.8,10.9,14.4,10.1c2.2-0.3,4.2-1.1,6-2.2l-13.5-22.8
			C258.3,194.9,255.3,201,256.7,207.1z"/>
		<circle class="st15" cx="283.8" cy="250.9" r="5.8"/>
		<polygon class="st16" points="277.1,215 263.6,192.2 254.7,177.2 247,250.6 241,308.1 238.7,330.6 333.4,309.8 		"/>
		
			<rect x="266.9" y="307.8" transform="matrix(0.9983 -5.791857e-02 5.791857e-02 0.9983 -17.512 16.6673)" class="st17" width="23.8" height="5.2"/>
	</g>
	<g>
		<g>
			<g>
				<path class="st18" d="M245.8,136c0,3.2-4.5,3.2-4.5,6.3c0,3.2,4.5,3.2,4.5,6.3c0,3.2-4.5,3.2-4.5,6.3c0,3.2,4.5,3.2,4.5,6.3
					c0,3.2-4.5,3.2-4.5,6.3"/>
			</g>
			<g>
				<path class="st18" d="M252.9,136c0,3.2-4.5,3.2-4.5,6.3c0,3.2,4.5,3.2,4.5,6.3c0,3.2-4.5,3.2-4.5,6.3c0,3.2,4.5,3.2,4.5,6.3
					c0,3.2-4.5,3.2-4.5,6.3"/>
			</g>
		</g>
		<g>
			<g>
				<path class="st18" d="M259.5,136c0,3.2-4.5,3.2-4.5,6.3c0,3.2,4.5,3.2,4.5,6.3c0,3.2-4.5,3.2-4.5,6.3c0,3.2,4.5,3.2,4.5,6.3
					c0,3.2-4.5,3.2-4.5,6.3"/>
			</g>
			<g>
				<path class="st18" d="M266.6,136c0,3.2-4.5,3.2-4.5,6.3c0,3.2,4.5,3.2,4.5,6.3c0,3.2-4.5,3.2-4.5,6.3c0,3.2,4.5,3.2,4.5,6.3
					c0,3.2-4.5,3.2-4.5,6.3"/>
			</g>
		</g>
	</g>
	<g>
		<line class="st18" x1="381.7" y1="142.6" x2="393.8" y2="142.6"/>
		<line class="st18" x1="387.7" y1="148.7" x2="387.7" y2="136.6"/>
		<line class="st18" x1="383.5" y1="146.9" x2="392" y2="138.4"/>
		<line class="st18" x1="392" y1="146.9" x2="383.5" y2="138.4"/>
	</g>
	<g>
		<line class="st18" x1="359.4" y1="118.8" x2="371.5" y2="118.8"/>
		<line class="st18" x1="365.4" y1="124.8" x2="365.4" y2="112.8"/>
		<line class="st18" x1="361.2" y1="123.1" x2="369.7" y2="114.5"/>
		<line class="st18" x1="369.7" y1="123.1" x2="361.2" y2="114.5"/>
	</g>
	<g>
		<defs>
			<rect id="SVGID_5_" x="-1.5" y="-3.5" width="434" height="434"/>
		</defs>
		<clipPath id="SVGID_4_">
			<use xlink:href="#SVGID_5_"  style="overflow:visible;"/>
		</clipPath>
		<g class="st10">
			<g>
				<circle class="st20" cx="215.5" cy="15.2" r="114.8"/>
				<g>
					<path class="st16" d="M239.5,59.2c-0.6-1.7-1.7-3.4-3.1-4.6c-0.7-0.6-1.4-1.2-2.2-1.7c-0.4-0.3-2.8-1.5-2.8-1.9
						c0,0-2.7-35.8-16-35.8c-13.3,0-16,35.8-16,35.8c0,0.4-2.4,1.6-2.8,1.9c-0.8,0.5-1.5,1-2.2,1.7c-1.4,1.3-2.5,2.9-3.1,4.6
						c-0.9,2.5-0.9,5.3,0.4,7.6c2.4,4.4,7.1,4.1,11.4,3.9c3-0.1,6.1,1.5,8.4,3.2c2.3,1.6,5.4,1.6,7.8,0c2.3-1.6,5.4-3.3,8.4-3.2
						c4.3,0.1,9,0.5,11.4-3.9C240.5,64.4,240.5,61.7,239.5,59.2z"/>
					<g>
						<path class="st16" d="M220.1,73.3c0,0,1.7-10.2,10.7-2.5"/>
						<path class="st16" d="M210.9,73.3c0,0-1.7-10.2-10.7-2.5"/>
					</g>
				</g>
			</g>
			<g>
				<g>
					<path class="st21" d="M417.3,164.1h-4.5c-4.9,0-8.8-3.9-8.8-8.8v-9.1c0-4.9,3.9-8.8,8.8-8.8h4.5c4.9,0,8.8,3.9,8.8,8.8v9.1
						C426.1,160.2,422.2,164.1,417.3,164.1z"/>
					<circle class="st7" cx="409.4" cy="146.4" r="2.6"/>
				</g>
				<path class="st22" d="M474.9,178.4c0-11.4-9.3-20.7-20.7-20.7h-78.4c-11.4,0-20.7,9.3-20.7,20.7v2.1h119.8V178.4z"/>
				<path class="st22" d="M355.2,228.7c0,11.4,9.3,20.7,20.7,20.7h78.4c11.4,0,20.7-9.3,20.7-20.7v-18.6H355.2V228.7z"/>
				<rect x="355.2" y="180.5" class="st23" width="119.8" height="29.5"/>
			</g>
		</g>
	</g>
	<g>
		<line class="st18" x1="331.6" y1="142" x2="343.7" y2="142"/>
		<line class="st18" x1="337.7" y1="148.1" x2="337.7" y2="136"/>
		<line class="st18" x1="333.4" y1="146.3" x2="341.9" y2="137.8"/>
		<line class="st18" x1="341.9" y1="146.3" x2="333.4" y2="137.8"/>
	</g>
	<g>
		<line class="st18" x1="296.7" y1="162.9" x2="308.8" y2="162.9"/>
		<line class="st18" x1="302.7" y1="169" x2="302.7" y2="156.9"/>
		<line class="st18" x1="298.5" y1="167.2" x2="307" y2="158.7"/>
		<line class="st18" x1="307" y1="167.2" x2="298.5" y2="158.7"/>
	</g>
	<g>
		<line class="st18" x1="163.8" y1="194.1" x2="175.9" y2="194.1"/>
		<line class="st18" x1="169.8" y1="200.1" x2="169.8" y2="188.1"/>
		<line class="st18" x1="165.6" y1="198.4" x2="174.1" y2="189.8"/>
		<line class="st18" x1="174.1" y1="198.4" x2="165.6" y2="189.8"/>
	</g>
	<g>
		<line class="st18" x1="159.6" y1="99.3" x2="171.6" y2="99.3"/>
		<line class="st18" x1="165.6" y1="105.3" x2="165.6" y2="93.3"/>
		<line class="st18" x1="161.3" y1="103.6" x2="169.8" y2="95"/>
		<line class="st18" x1="169.8" y1="103.6" x2="161.3" y2="95"/>
	</g>
	<g>
		<line class="st18" x1="122.2" y1="57.2" x2="134.2" y2="57.2"/>
		<line class="st18" x1="128.2" y1="63.2" x2="128.2" y2="51.1"/>
		<line class="st18" x1="123.9" y1="61.4" x2="132.5" y2="52.9"/>
		<line class="st18" x1="132.5" y1="61.4" x2="123.9" y2="52.9"/>
	</g>
	<g>
		<line class="st18" x1="31.2" y1="99.3" x2="43.2" y2="99.3"/>
		<line class="st18" x1="37.2" y1="105.3" x2="37.2" y2="93.3"/>
		<line class="st18" x1="32.9" y1="103.6" x2="41.5" y2="95"/>
		<line class="st18" x1="41.5" y1="103.6" x2="32.9" y2="95"/>
	</g>
	<g>
		<line class="st18" x1="219.4" y1="130.2" x2="231.5" y2="130.2"/>
		<line class="st18" x1="225.5" y1="136.2" x2="225.5" y2="124.2"/>
		<line class="st18" x1="221.2" y1="134.5" x2="229.7" y2="125.9"/>
		<line class="st18" x1="229.7" y1="134.5" x2="221.2" y2="125.9"/>
	</g>
	<g>
		<line class="st18" x1="274" y1="95" x2="286" y2="95"/>
		<line class="st18" x1="280" y1="101.1" x2="280" y2="89"/>
		<line class="st18" x1="275.7" y1="99.3" x2="284.3" y2="90.8"/>
		<line class="st18" x1="284.3" y1="99.3" x2="275.7" y2="90.8"/>
	</g>
	<g>
		<path class="st18" d="M54.4,274.8c0,0,57.5,0,57.7,0c6,0,14.2-2.6,16.7-8.6c3.5-8.8-6.2-18-14.8-14.4c-5.7,2.4-9.2,10.8-4.2,15.5"
			/>
		<path class="st18" d="M-1.4,284.6c0,0,147.8,0,148,0c6,0,14.2-2.6,16.7-8.6c3.5-8.8-6.2-18-14.8-14.4c-5.7,2.4-9.2,10.8-4.2,15.5"
			/>
		<path class="st18" d="M18.5,297.9c0,0,109.8,0,110,0c6,0,14.2,2.6,16.7,8.6c3.5,8.8-6.2,18-14.8,14.4c-5.7-2.4-9.2-10.8-4.2-15.5"
			/>
	</g>
	<path class="st24" d="M193.3,328.9c-1.5-0.9-1.6,1.2-1.9,2.6c-0.5,1.9-1.5,3.7-2.7,5.3c-2,2.6-4.5,5.1-5.4,8.3
		c-0.1,0.5-0.2,0.9-0.3,1.4c-0.1,0.6-0.1,1.2,0,1.9c0.6,4.6,5.4,6,9.4,6c3,0,6.2-0.8,8-3.4c2.9-4.2,0.4-10.2-1.5-14.3
		c-1.3-2.7-2.8-5.2-5-7.2C193.7,329.2,193.5,329,193.3,328.9z"/>
	<path class="st24" d="M148.3,374.1c-1.5-0.9-1.6,1.2-1.9,2.6c-0.5,1.9-1.5,3.7-2.7,5.3c-2,2.6-4.5,5.1-5.4,8.3
		c-0.1,0.5-0.2,0.9-0.3,1.4c-0.1,0.6-0.1,1.2,0,1.9c0.6,4.6,5.4,6,9.4,6c3,0,6.2-0.8,8-3.4c2.9-4.2,0.4-10.2-1.5-14.3
		c-1.3-2.7-2.8-5.2-5-7.2C148.7,374.4,148.5,374.2,148.3,374.1z"/>
	<g>
		<g>
			<rect x="64.8" y="140.5" class="st25" width="99" height="16.9"/>
			<rect x="13.6" y="140.5" class="st26" width="51.2" height="16.9"/>
			<rect x="163.8" y="140.5" class="st27" width="7.6" height="16.9"/>
		</g>
		<g>
			<g>
				<path class="st18" d="M181.6,113.7c0,3-4.9,3-4.9,6c0,3,4.9,3,4.9,6c0,3-4.9,3-4.9,6c0,3,4.9,3,4.9,6c0,3-4.9,3-4.9,6"/>
			</g>
			<g>
				<path class="st18" d="M190.5,113.7c0,3-4.9,3-4.9,6c0,3,4.9,3,4.9,6c0,3-4.9,3-4.9,6c0,3,4.9,3,4.9,6c0,3-4.9,3-4.9,6"/>
			</g>
		</g>
	</g>
</g>
</svg>
