<?xml version="1.0" encoding="utf-8"?>
<!-- Generator: Adobe Illustrator 19.1.0, SVG Export Plug-In . SVG Version: 6.00 Build 0)  -->
<svg version="1.1" id="Layer_1" xmlns="http://www.w3.org/2000/svg" xmlns:xlink="http://www.w3.org/1999/xlink" x="0px" y="0px"
	 viewBox="0 0 431 411" style="enable-background:new 0 0 431 411;" xml:space="preserve">
<style type="text/css">
	.st0{fill:#D1D3D4;}
	.st1{fill:#F7DDD2;}
	.st2{fill:#26B8EB;}
	.st3{fill:#FFDC00;}
	.st4{fill:#FFCB05;}
	.st5{fill:#B19F78;}
	.st6{fill:#0D3D64;}
	.st7{fill:none;}
	.st8{fill:#EBE9E9;}
	.st9{fill:#FAEC00;}
	.st10{fill:#FFFFFF;}
	.st11{fill:#FEE5D9;}
	.st12{opacity:0.1;}
	.st13{clip-path:url(#SVGID_8_);}
	.st14{fill:#FEE2C5;}
	.st15{fill:#AA7032;stroke:#FFFFFF;stroke-width:1.8085;stroke-miterlimit:10;}
	.st16{fill:#EE2E2F;}
	.st17{fill:#24B34B;}
	.st18{fill:none;stroke:#000000;stroke-width:1.8085;stroke-miterlimit:10;}
	.st19{fill:none;stroke:#FFFFFF;stroke-width:1.8085;stroke-miterlimit:10;}
	.st20{fill:#FFDC18;}
	.st21{fill:none;stroke:#FFFFFF;stroke-width:1.8085;stroke-linecap:round;stroke-miterlimit:10;}
	.st22{clip-path:url(#SVGID_10_);}
	.st23{fill:#010101;}
	.st24{fill:#BABCBE;stroke:#FFFFFF;stroke-width:1.8085;stroke-miterlimit:10;}
	.st25{fill:#B4E1E7;stroke:#FFFFFF;stroke-width:1.8085;stroke-miterlimit:10;}
	.st26{fill:#96BCC1;stroke:#FFFFFF;stroke-width:1.8085;stroke-miterlimit:10;}
	.st27{fill:#36C2D9;stroke:#FFFFFF;stroke-width:1.8085;stroke-miterlimit:10;}
	.st28{fill:#DCDDDE;stroke:#FFFFFF;stroke-width:1.8085;stroke-miterlimit:10;}
	.st29{fill:#8B5B24;stroke:#FFFFFF;stroke-width:1.8085;stroke-miterlimit:10;}
	.st30{fill:#EE2E2F;stroke:#FFFFFF;stroke-width:1.8085;stroke-miterlimit:10;}
	.st31{fill:#666666;}
	.st32{fill:#2FB44A;}
	.st33{fill:#ECD1E5;}
	.st34{fill:#FBAC1F;}
	.st35{clip-path:url(#SVGID_12_);}
	.st36{fill:#D77081;}
	.st37{clip-path:url(#SVGID_14_);}
	.st38{fill:#C4E6F9;}
	.st39{fill:#21628C;}
	.st40{fill:#236E94;}
	.st41{fill:#1E5C83;}
	.st42{fill:#F2CEC1;}
	.st43{fill:#966B4E;}
	.st44{fill:#697680;}
	.st45{fill:#0F2C4E;}
	.st46{fill:#1D4462;}
	.st47{fill:#37667F;}
	.st48{fill:#24526C;}
	.st49{fill:#1B4462;}
	.st50{fill:#445F7C;}
	.st51{fill:#204A65;}
	.st52{fill:#194865;}
	.st53{fill:#34596D;}
	.st54{fill:#27485E;}
	.st55{fill:#284C66;}
	.st56{fill:#4C7189;}
	.st57{fill:#4E6E84;}
	.st58{fill:#5A768C;}
	.st59{fill:#DFE6EC;}
	.st60{fill:#21516A;}
	.st61{fill:#17466F;}
	.st62{fill:none;stroke:#FAFAFD;stroke-width:0.4573;stroke-miterlimit:10;}
	.st63{fill:#FAFAFD;}
	.st64{fill:#DFE8EF;}
	.st65{fill:#657B93;}
	.st66{fill:#F7EEE3;}
	.st67{fill:#8894A2;}
	.st68{fill:#737D89;}
	.st69{fill:#E2E3E6;}
	.st70{fill:#BE5427;}
	.st71{fill:#1A182B;}
	.st72{fill:#BEA399;}
	.st73{fill:#636556;}
	.st74{fill:#713D46;}
	.st75{fill:#627388;}
	.st76{fill:#C9AB98;}
	.st77{fill:#935B44;}
	.st78{fill:#363243;}
	.st79{fill:#3F3B4D;}
	.st80{fill:#0E0D16;}
	.st81{fill:#282740;}
	.st82{fill:#DDC0AF;}
	.st83{fill:#DABCAA;}
	.st84{fill:#CEAE93;}
	.st85{fill:#756567;}
	.st86{fill:#BB9E87;}
	.st87{fill:#695B5E;}
	.st88{fill:#F1EEF0;}
	.st89{fill:#E0D2B5;}
	.st90{fill:#534250;}
	.st91{fill:#281C2E;}
	.st92{fill:#938B96;}
	.st93{fill:#AA7447;}
	.st94{fill:#F4D1C4;}
	.st95{fill:#E6CDB1;}
	.st96{fill:#B85D38;}
	.st97{fill:#704E43;}
	.st98{fill:#1E1218;}
	.st99{fill:#676365;}
	.st100{fill:#E7BC99;}
	.st101{fill:#7F6055;}
	.st102{fill:#F9EEEC;}
	.st103{fill:#C5AF77;}
	.st104{fill:#5E5147;}
	.st105{fill:#C6AB72;}
	.st106{fill:#E9B690;}
	.st107{fill:#544248;}
	.st108{fill:#091024;}
	.st109{fill:#92947D;}
	.st110{fill:#E89752;}
	.st111{fill:#212749;}
	.st112{fill:#141B2F;}
	.st113{fill:#393F3B;}
	.st114{fill:#7C9675;}
	.st115{fill:#61715B;}
	.st116{fill:#AEB178;}
	.st117{fill:#707667;}
	.st118{fill:#6B544B;}
	.st119{fill:#483433;}
	.st120{fill:#5D7166;}
	.st121{fill:#F6BD8A;}
	.st122{fill:#CD945B;}
	.st123{fill:#6F4C4B;}
	.st124{fill:#2D2E33;}
	.st125{fill:#FBC494;}
	.st126{fill:#3C2E3D;}
	.st127{fill:#F9E2BE;}
	.st128{fill:#EBC187;}
	.st129{fill:#A77046;}
	.st130{fill:#F2C19D;}
	.st131{fill:#B48D5E;}
	.st132{fill:#1E2D5B;}
	.st133{fill:#564A51;}
	.st134{fill:#E89D57;}
	.st135{fill:#1C161A;}
	.st136{fill:#A26A32;}
	.st137{fill:#2B1E22;}
	.st138{fill:#574A40;}
	.st139{fill:#889B3A;}
	.st140{fill:#412414;}
	.st141{fill:#9CB63B;}
	.st142{fill:#703D29;}
	.st143{fill:#744430;}
	.st144{fill:#66321C;}
	.st145{fill:#6A3723;}
	.st146{fill:#723F29;}
	.st147{fill:#75412E;}
	.st148{fill:#63341A;}
	.st149{fill:#4D2924;}
	.st150{fill:#6A392C;}
	.st151{fill:#6E3A22;}
	.st152{fill:#754027;}
	.st153{fill:#70402F;}
	.st154{fill:#754531;}
	.st155{fill:#754332;}
	.st156{fill:#7C4C3C;}
	.st157{fill:#7E4D3D;}
	.st158{fill:#7F4A3A;}
	.st159{fill:#713D26;}
	.st160{fill:#63331F;}
	.st161{fill:#7A4631;}
	.st162{fill:#84513D;}
	.st163{fill:#63321E;}
	.st164{fill:#5E2E1A;}
	.st165{fill:#542E24;}
	.st166{fill:#441D14;}
	.st167{fill:#774836;}
	.st168{fill:#401C13;}
	.st169{fill:#4C2320;}
	.st170{fill:#582F28;}
	.st171{fill:#6E3E2A;}
	.st172{fill:#764737;}
	.st173{fill:#5E3321;}
	.st174{fill:#602F20;}
	.st175{fill:#482929;}
	.st176{fill:#572E23;}
	.st177{fill:#714232;}
	.st178{fill:#452016;}
	.st179{fill:#693C35;}
	.st180{fill:#432217;}
	.st181{fill:#754534;}
	.st182{fill:#6C3724;}
	.st183{fill:#804F3E;}
	.st184{fill:#532318;}
	.st185{fill:#6E4028;}
	.st186{fill:#523237;}
	.st187{fill:#7A4C3A;}
	.st188{fill:#5E3D3E;}
	.st189{fill:#6D3B2B;}
	.st190{fill:#7B4734;}
	.st191{fill:#6B3A24;}
	.st192{fill:#4B2218;}
	.st193{fill:#5B2A1D;}
	.st194{fill:#431A15;}
	.st195{fill:#451A14;}
	.st196{fill:#572C1D;}
	.st197{fill:#582C1A;}
	.st198{fill:#7E4B41;}
	.st199{fill:#5A2E1B;}
	.st200{fill:#502C1E;}
	.st201{fill:#4E2821;}
	.st202{fill:#542A1C;}
	.st203{fill:#2C120E;}
	.st204{fill:#401B10;}
	.st205{fill:#62362E;}
	.st206{fill:#623C33;}
	.st207{fill:#361D2B;}
	.st208{fill:#472421;}
	.st209{fill:#482A2C;}
	.st210{fill:#3B1D1F;}
	.st211{fill:#1E0F19;}
	.st212{fill:#170E19;}
	.st213{fill:#3A150F;}
	.st214{fill:#4C2014;}
	.st215{fill:#6D4135;}
	.st216{fill:#2F1314;}
	.st217{fill:#5B2A1F;}
	.st218{fill:#5D2C1F;}
	.st219{fill:#573229;}
	.st220{fill:#7A5042;}
	.st221{fill:#673827;}
	.st222{fill:#4E2111;}
	.st223{fill:#987753;}
	.st224{fill:#0A0907;}
	.st225{fill:#C0A88A;}
	.st226{fill:#F3C19D;}
	.st227{fill:#DCAF8F;}
	.st228{fill:#F7C193;}
	.st229{fill:#DEAF86;}
	.st230{fill:#2C1524;}
	.st231{fill:#F0D4C8;}
	.st232{fill:#35353B;}
	.st233{fill:#E97147;}
	.st234{fill:#FCF5E9;}
	.st235{fill:#594642;}
	.st236{fill:#A77847;}
	.st237{fill:#5D4639;}
	.st238{fill:#7F8F60;}
	.st239{fill:#EFBA81;}
	.st240{fill:#50272E;}
	.st241{fill:#F8D3B6;}
	.st242{fill:#D8A976;}
	.st243{fill:#EDC398;}
	.st244{fill:#C89256;}
	.st245{fill:#FFF2EE;}
	.st246{fill:#F8DABD;}
	.st247{fill:#2D2B43;}
	.st248{fill:#B49683;}
	.st249{fill:#B69B74;}
	.st250{fill:#311615;}
	.st251{clip-path:url(#SVGID_16_);}
	.st252{fill:none;stroke:#8C724C;stroke-width:0.7178;stroke-miterlimit:10;}
	.st253{fill:#FCE9E0;}
	.st254{fill:#FEDDC9;}
	.st255{fill:#E6C9B8;}
	.st256{fill:#060A0C;}
	.st257{fill:#EDAE72;}
	.st258{fill:#C8925F;}
	.st259{fill:#E7A973;}
	.st260{fill:#E7A375;}
	.st261{fill:#F1A96D;}
	.st262{fill:#7C6054;}
	.st263{fill:#2F252B;}
	.st264{fill:#E7E5DE;}
	.st265{fill:#BD9A7C;}
	.st266{fill:#32253C;}
	.st267{fill:#D81921;}
	.st268{fill:#1C1217;}
	.st269{fill:#DFE0E5;}
	.st270{clip-path:url(#SVGID_18_);}
	.st271{fill:#95D6DA;}
	.st272{fill:#45AB49;}
	.st273{fill:#F4F0D5;}
	.st274{fill:#EAB339;}
	.st275{fill:#B9E4FA;}
	.st276{fill:#755021;}
	.st277{fill:#F9D019;}
	.st278{fill:#E97B3A;}
	.st279{fill:none;stroke:#E97B3A;stroke-width:1.1308;stroke-linecap:round;stroke-miterlimit:10;}
	.st280{clip-path:url(#SVGID_20_);}
	.st281{fill:#080C36;}
	.st282{fill:#61442E;}
	.st283{fill:#ECECEC;}
	.st284{fill:#F9F9F9;}
	.st285{fill:#00AADF;}
	.st286{fill:#E6E7E8;}
	.st287{fill:#DCDDDE;}
	.st288{fill:#F1F2F2;}
	.st289{fill:#0C113B;}
	.st290{fill:#D2D2D2;}
	.st291{fill:#DFDFDF;}
	.st292{fill:#0095C3;}
	.st293{fill:#BCBEC0;}
	.st294{fill:#E7BE32;}
	.st295{fill:#F1C634;}
	.st296{fill:#FFD336;}
	.st297{fill:#F7F7F7;}
	.st298{clip-path:url(#SVGID_22_);fill:#E6E7E8;}
	.st299{clip-path:url(#SVGID_22_);fill:#C7C8CA;}
	.st300{clip-path:url(#SVGID_24_);fill:#E6E7E8;}
	.st301{clip-path:url(#SVGID_24_);fill:#C7C8CA;}
	.st302{fill:#ECB810;}
	.st303{fill:#FFC70F;}
	.st304{fill:#E3C3D6;}
	.st305{fill:#F0CEE1;}
	.st306{fill:#DABBCD;}
	.st307{fill:#6D6E71;}
	.st308{fill:#939598;}
	.st309{fill:#FFF200;}
	.st310{opacity:0.15;}
	.st311{clip-path:url(#SVGID_26_);}
	.st312{fill:#F5EEE9;}
	.st313{fill:#E7EDF7;stroke:#E7EDF7;stroke-miterlimit:10;}
	.st314{fill:#EAE5E1;}
	.st315{fill:#B7B3B5;}
	.st316{fill:#7F7F7F;}
	.st317{clip-path:url(#SVGID_38_);}
	.st318{fill:#F05123;}
	.st319{fill:#080808;}
	.st320{opacity:0.8;fill:#828282;}
	.st321{opacity:0.8;fill:none;}
	.st322{opacity:0.8;fill:#ABABAB;}
	.st323{opacity:0.5;fill:#ADADAD;}
	.st324{opacity:0.8;fill:#C9C9C9;}
	.st325{opacity:0.2;}
	.st326{opacity:0.5;}
	.st327{fill:#7D6B4B;}
	.st328{fill:#94754E;}
	.st329{opacity:0.3;}
	.st330{fill:#4AC1BF;}
	.st331{opacity:0.95;fill:#178983;}
	.st332{opacity:0.95;fill:#00B4AB;}
	.st333{fill:#4F332A;}
	.st334{fill:#7C2617;}
	.st335{fill:#93482E;}
	.st336{fill:#24ACE3;}
	.st337{opacity:0.8;fill:#1B88AA;}
	.st338{opacity:0.8;fill:#42BEE5;}
	.st339{fill:#1B88AA;}
	.st340{fill:#FBF17B;}
	.st341{fill:#FFC922;}
	.st342{fill:#E8A44C;}
	.st343{fill:#FAA21B;}
	.st344{fill:#E8AD6D;}
	.st345{fill:#D19646;}
	.st346{fill:#8C7CBA;}
	.st347{fill:#E7C81E;}
	.st348{fill:#CEAD2C;}
	.st349{fill:#EAD269;}
	.st350{fill:#80778F;}
	.st351{clip-path:url(#SVGID_64_);}
	.st352{clip-path:url(#SVGID_66_);}
	.st353{fill:#E2F4FD;}
	.st354{clip-path:url(#SVGID_80_);}
	.st355{fill:#F69323;}
	.st356{fill:#929497;}
	.st357{fill:#FCEE21;}
	.st358{fill:#0CBEEB;}
	.st359{fill:#B8D549;}
	.st360{fill:#0A2947;}
	.st361{fill:#EF4747;}
	.st362{fill:#98D6D4;}
	.st363{clip-path:url(#SVGID_82_);}
	.st364{fill:#B9D547;}
	.st365{fill:#EF4847;}
	.st366{fill:#EF4847;stroke:#0A2947;stroke-width:3.2353;stroke-miterlimit:10;}
	.st367{fill:#B9D546;stroke:#0A2947;stroke-width:3.2353;stroke-miterlimit:10;}
	.st368{fill:#0A2947;stroke:#0A2947;stroke-width:3.2353;stroke-miterlimit:10;}
	.st369{fill:#FFFFFF;stroke:#0A2947;stroke-width:3.2353;stroke-miterlimit:10;}
</style>
<g>
	<defs>
		<rect id="SVGID_63_" x="-524.3" y="-496.8" width="439.6" height="420.5"/>
	</defs>
	<clipPath id="SVGID_2_">
		<use xlink:href="#SVGID_63_"  style="overflow:visible;"/>
	</clipPath>
	<g style="clip-path:url(#SVGID_2_);">
		
			<image style="overflow:visible;" width="200" height="157" xlink:href="../../../../Documents/RISD/4_1.5/Assignment2/Text_Rain/data/hamburger.png"  transform="matrix(0.5903 0 0 0.5903 -101 -92.2992)">
		</image>
	</g>
</g>
<g>
	<g>
		<g>
			<path class="st359" d="M351.4,116.2c0-4-3.2-7.2-7.2-7.2H86.8c-4,0-7.2,3.2-7.2,7.2V164h271.9V116.2z"/>
		</g>
		<g>
			<path class="st360" d="M354.4,167H76.6v-50.8c0-5.6,4.6-10.2,10.2-10.2h257.4c5.6,0,10.2,4.6,10.2,10.2V167z M82.6,161h265.8
				v-44.8c0-2.3-1.9-4.2-4.2-4.2H86.8c-2.3,0-4.2,1.9-4.2,4.2V161z"/>
		</g>
		<g>
			<g>
				<path class="st10" d="M79.6,164v155.2c0,4,3.2,7.2,7.2,7.2h257.4c4,0,7.2-3.2,7.2-7.2V164H79.6z"/>
			</g>
			<g>
				<path class="st360" d="M344.2,329.4H86.8c-5.6,0-10.2-4.6-10.2-10.2V161h277.9v158.2C354.4,324.8,349.8,329.4,344.2,329.4z
					 M82.6,167v152.2c0,2.3,1.9,4.2,4.2,4.2h257.4c2.3,0,4.2-1.9,4.2-4.2V167H82.6z"/>
			</g>
		</g>
		<g>
			<path class="st361" d="M113.8,129.3h-11.4c-3,0-5.4-2.4-5.4-5.4V90.1c0-3,2.4-5.4,5.4-5.4h11.4c3,0,5.4,2.4,5.4,5.4v33.8
				C119.3,126.8,116.8,129.3,113.8,129.3z"/>
		</g>
		<g>
			<path class="st360" d="M109,132.3h-1.8c-7.3,0-13.2-5.9-13.2-13.2V94.8c0-7.3,5.9-13.2,13.2-13.2h1.8c7.3,0,13.2,5.9,13.2,13.2
				v24.2C122.3,126.3,116.3,132.3,109,132.3z M107.2,87.6c-4,0-7.2,3.2-7.2,7.2v24.2c0,4,3.2,7.2,7.2,7.2h1.8c4,0,7.2-3.2,7.2-7.2
				V94.8c0-4-3.2-7.2-7.2-7.2H107.2z"/>
		</g>
		<g>
			<path class="st361" d="M185.4,129.3H174c-3,0-5.4-2.4-5.4-5.4V90.1c0-3,2.4-5.4,5.4-5.4h11.4c3,0,5.4,2.4,5.4,5.4v33.8
				C190.8,126.8,188.4,129.3,185.4,129.3z"/>
		</g>
		<g>
			<path class="st360" d="M180.6,132.3h-1.8c-7.3,0-13.2-5.9-13.2-13.2V94.8c0-7.3,5.9-13.2,13.2-13.2h1.8c7.3,0,13.2,5.9,13.2,13.2
				v24.2C193.8,126.3,187.9,132.3,180.6,132.3z M178.8,87.6c-4,0-7.2,3.2-7.2,7.2v24.2c0,4,3.2,7.2,7.2,7.2h1.8c4,0,7.2-3.2,7.2-7.2
				V94.8c0-4-3.2-7.2-7.2-7.2H178.8z"/>
		</g>
		<g>
			<path class="st361" d="M257,129.3h-11.4c-3,0-5.4-2.4-5.4-5.4V90.1c0-3,2.4-5.4,5.4-5.4H257c3,0,5.4,2.4,5.4,5.4v33.8
				C262.4,126.8,260,129.3,257,129.3z"/>
		</g>
		<g>
			<path class="st360" d="M252.2,132.3h-1.8c-7.3,0-13.2-5.9-13.2-13.2V94.8c0-7.3,5.9-13.2,13.2-13.2h1.8c7.3,0,13.2,5.9,13.2,13.2
				v24.2C265.4,126.3,259.5,132.3,252.2,132.3z M250.4,87.6c-4,0-7.2,3.2-7.2,7.2v24.2c0,4,3.2,7.2,7.2,7.2h1.8c4,0,7.2-3.2,7.2-7.2
				V94.8c0-4-3.2-7.2-7.2-7.2H250.4z"/>
		</g>
		<g>
			<path class="st361" d="M328.5,129.3h-11.4c-3,0-5.4-2.4-5.4-5.4V90.1c0-3,2.4-5.4,5.4-5.4h11.4c3,0,5.4,2.4,5.4,5.4v33.8
				C334,126.8,331.5,129.3,328.5,129.3z"/>
		</g>
		<g>
			<path class="st360" d="M323.8,132.3H322c-7.3,0-13.2-5.9-13.2-13.2V94.8c0-7.3,5.9-13.2,13.2-13.2h1.8c7.3,0,13.2,5.9,13.2,13.2
				v24.2C337,126.3,331.1,132.3,323.8,132.3z M322,87.6c-4,0-7.2,3.2-7.2,7.2v24.2c0,4,3.2,7.2,7.2,7.2h1.8c4,0,7.2-3.2,7.2-7.2
				V94.8c0-4-3.2-7.2-7.2-7.2H322z"/>
		</g>
	</g>
	<g>
		<g>
			<path class="st360" d="M119.8,203c-2.8,0-4.9-0.7-6.7-2.5l1.9-1.9c1.4,1.4,2.9,1.8,4.8,1.8c2.5,0,3.9-1.1,3.9-2.9
				c0-0.8-0.2-1.5-0.7-2c-0.5-0.4-1-0.6-2.1-0.8l-2.2-0.3c-1.5-0.2-2.8-0.7-3.6-1.5c-0.9-0.9-1.4-2.1-1.4-3.6c0-3.3,2.4-5.5,6.3-5.5
				c2.5,0,4.2,0.6,5.8,2.1l-1.8,1.8c-1.2-1.1-2.5-1.5-4.1-1.5c-2.2,0-3.4,1.3-3.4,2.9c0,0.7,0.2,1.3,0.7,1.7
				c0.5,0.4,1.2,0.7,2.1,0.9l2.1,0.3c1.7,0.3,2.7,0.7,3.5,1.4c1,0.9,1.5,2.2,1.5,3.9C126.6,200.9,123.8,203,119.8,203z"/>
		</g>
		<g>
			<path class="st360" d="M163.1,202.8V184h12v2.6h-9.2v5.5h7.8v2.5h-7.8v5.7h9.2v2.6H163.1z"/>
		</g>
		<g>
			<path class="st360" d="M215.6,202.8V184h2.9v18.8H215.6z"/>
		</g>
		<g>
			<path class="st360" d="M259.4,202.8v-2.5l8.7-13.8h-8.3V184h11.7v2.3l-8.8,13.9h8.8v2.6H259.4z"/>
		</g>
		<g>
			<path class="st360" d="M308.3,202.8V184h12v2.6h-9.2v5.5h7.8v2.5h-7.8v5.7h9.2v2.6H308.3z"/>
		</g>
	</g>
	<g>
		<g>
			<path class="st360" d="M116.3,231v-2.5h7.7v2.5H116.3z"/>
		</g>
		<g>
			<path class="st360" d="M170,220.8v16.3h-2.9v-16.3H162v-2.6h13.2v2.6H170z"/>
		</g>
		<g>
			<path class="st360" d="M220.8,237.1v-8.2h-7.6v8.2h-2.9v-18.8h2.9v8h7.6v-8h2.9v18.8H220.8z"/>
		</g>
		<g>
			<path class="st360" d="M261.6,231v-2.5h7.7v2.5H261.6z"/>
		</g>
		<g>
			<path class="st360" d="M308.3,237.1v-18.8h12v2.6h-9.2v5.5h7.8v2.5h-7.8v5.7h9.2v2.6H308.3z"/>
		</g>
	</g>
	<g>
		<g>
			<path class="st360" d="M125.3,269.6c-1.2,1.2-2.9,1.8-4.9,1.8h-6.6v-18.8h6.6c2,0,3.7,0.6,4.9,1.8c2,2,1.9,4.8,1.9,7.5
				C127.2,264.5,127.3,267.5,125.3,269.6z M123.3,256.4c-0.8-0.9-1.9-1.3-3.2-1.3h-3.5v13.7h3.5c1.3,0,2.4-0.4,3.2-1.3
				c1-1.1,1-3.1,1-5.7S124.3,257.4,123.3,256.4z"/>
		</g>
		<g>
			<path class="st360" d="M173.6,271.4l-1.3-3.8h-7.4l-1.3,3.8h-3l6.9-18.8h2.3l6.9,18.8H173.6z M168.6,256.8l-2.9,8.4h5.8
				L168.6,256.8z"/>
		</g>
		<g>
			<path class="st360" d="M218.4,255.1v16.3h-2.9v-16.3h-5.2v-2.6h13.2v2.6H218.4z"/>
		</g>
		<g>
			<path class="st360" d="M259.9,271.4v-18.8h12v2.6h-9.2v5.5h7.8v2.5h-7.8v5.7h9.2v2.6H259.9z"/>
		</g>
		<g>
			<path class="st360" d="M310,265.3v-2.5h7.7v2.5H310z"/>
		</g>
	</g>
	<g>
		<g>
			<path class="st360" d="M116.3,299.5V297h7.7v2.5H116.3z"/>
		</g>
		<g>
			<path class="st360" d="M164.7,299.5V297h7.7v2.5H164.7z"/>
		</g>
		<g>
			<path class="st360" d="M213.1,299.5V297h7.7v2.5H213.1z"/>
		</g>
		<g>
			<path class="st360" d="M261.6,299.5V297h7.7v2.5H261.6z"/>
		</g>
		<g>
			<path class="st360" d="M315.3,300h-2.1l-0.6-13.2h3.3L315.3,300z M312.8,305.6v-2.9h3v2.9H312.8z"/>
		</g>
	</g>
</g>
<rect x="-4.3" y="-3.2" class="st362" width="439.6" height="417.5"/>
<g>
	<defs>
		<rect id="SVGID_81_" y="-3.2" width="435.3" height="417.5"/>
	</defs>
	<clipPath id="SVGID_4_">
		<use xlink:href="#SVGID_81_"  style="overflow:visible;"/>
	</clipPath>
	<g style="clip-path:url(#SVGID_4_);">
		<g>
			<g>
				<path class="st364" d="M122.8,170.7c1.2-5.1-0.9-9.4-6-10.6l-29.1-7c-5.1-1.2-10.3,1.3-11.5,6.4L70.3,184l46.6,11.2L122.8,170.7
					z"/>
				<path class="st364" d="M70.3,184l-9.6,39.9c-1.2,5.1,1.9,11.2,7,12.4l29.1,7c5.1,1.2,9.3-3.1,10.5-8.2l9.6-39.9L70.3,184z"/>
			</g>
			<path class="st360" d="M118.9,196.9l-51.2-12.3l6.1-25.6c0.7-2.9,2.7-5,5.5-6.4c2.6-1.3,5.7-1.3,8.7-0.6l29.1,7
				c6.1,1.5,9.5,6.3,8,12.4L118.9,196.9z M71.9,182.5l44.2,10.6l5.5-22.7c1-4.1-1-7.6-5.2-8.6l-29.1-7c-3.9-0.9-8.9,0.7-9.9,5
				L71.9,182.5z"/>
			<path class="st360" d="M96.6,244.5l-29.1-7c-6-1.4-10.5-8.1-9-14.1l10-41.7l51.2,12.3l-10,41.7c-0.7,2.9-2.3,5.4-4.7,7.2
				C102.4,244.6,99.5,245.2,96.6,244.5z M71.2,185.4l-9.3,38.7c-1,4.2,2.2,8.8,6.4,9.8l29.1,7c1.9,0.5,3.7,0.1,5.5-1.1
				c1.7-1.2,2.8-3,3.3-5.1l9.3-38.7L71.2,185.4z"/>
			<g>
				<path class="st360" d="M112.8,182.6c-1-0.2-1.3-1.1-1-2.1l1.8-7.5c0.2-1,0.9-1.6,1.9-1.4s1.3,1.1,1,2.1l-1.8,7.5
					C114.5,182.1,113.8,182.8,112.8,182.6z"/>
			</g>
			<g>
				<path class="st360" d="M104.9,215.6c-1-0.2-1.3-1.1-1-2.1l1.8-7.5c0.2-1,0.9-1.6,1.9-1.4s1.3,1.1,1,2.1l-1.8,7.5
					C106.5,215.2,105.9,215.9,104.9,215.6z"/>
			</g>
			<g>
				<g>
					<path class="st360" d="M93.5,248c-1-0.2-1.9-1.3-1.6-2.2l0.9-3.7c0.2-1,1.5-1.5,2.4-1.2c1,0.2,1.9,1.3,1.6,2.2l-0.9,3.7
						C95.7,247.7,94.4,248.2,93.5,248z"/>
				</g>
				<g>
					<path class="st360" d="M67.5,241.8c-1-0.2-1.6-1.2-1.3-2.1l0.9-3.7c0.2-1,1.2-1.5,2.2-1.3c1,0.2,1.6,1.2,1.3,2.1l-0.9,3.7
						C69.5,241.4,68.5,242,67.5,241.8z"/>
				</g>
			</g>
		</g>
		<g>
			<g>
				<path class="st364" d="M168.6,344.4c-3-4.3-7.6-5.6-11.9-2.6l-24.5,17.1c-4.3,3-5.8,8.6-2.8,12.9l14.4,20.7l39.3-27.4
					L168.6,344.4z"/>
				<path class="st364" d="M143.7,392.4l23.5,33.7c3,4.3,9.6,6,13.9,3l24.5-17.1c4.3-3,3.8-9,0.8-13.3L183,365.1L143.7,392.4z"/>
			</g>
			<path class="st360" d="M185.7,364.7l-43.2,30.1l-15.1-21.6c-1.7-2.5-2-5.3-1.2-8.3c0.7-2.8,2.8-5.2,5.3-6.9l24.5-17.1
				c5.2-3.6,11-2.9,14.6,2.2L185.7,364.7z M143.7,390.3l37.3-26l-13.4-19.2c-2.4-3.5-6.4-4.3-9.9-1.8l-24.5,17.1
				c-3.3,2.3-5.4,7.1-2.9,10.7L143.7,390.3z"/>
			<path class="st360" d="M206.3,413l-24.5,17.1c-5.1,3.6-13,2.5-16.6-2.6l-24.5-35.2l43.2-30.1l24.5,35.2c1.7,2.4,2.5,5.4,2.2,8.3
				C210.3,408.8,208.8,411.3,206.3,413z M145.4,392.7l22.8,32.7c2.5,3.5,8.1,4.2,11.6,1.7l24.5-17.1c1.6-1.1,2.6-2.7,2.8-4.8
				c0.2-2.1-0.4-4.1-1.6-5.9l-22.8-32.7L145.4,392.7z"/>
			<g>
				<path class="st360" d="M170.9,359.7c-0.8,0.6-1.7,0.2-2.2-0.6l-4.4-6.3c-0.6-0.8-0.6-1.7,0.2-2.3s1.7-0.2,2.2,0.6l4.4,6.3
					C171.7,358.2,171.7,359.2,170.9,359.7z"/>
			</g>
			<g>
				<path class="st360" d="M190.3,387.6c-0.8,0.6-1.7,0.2-2.2-0.6l-4.4-6.3c-0.6-0.8-0.6-1.7,0.2-2.3c0.8-0.6,1.7-0.2,2.2,0.6
					l4.4,6.3C191.1,386.1,191.1,387.1,190.3,387.6z"/>
			</g>
		</g>
		<g>
			<g>
				<path class="st364" d="M362.8,127.7c3.1-4.2,2.9-9-1.3-12.1l-23.9-17.9c-4.2-3.1-10-2.9-13.1,1.3l-15.1,20.2l38.3,28.7
					L362.8,127.7z"/>
				<path class="st364" d="M309.3,119.2L284.7,152c-3.1,4.2-2.7,11,1.5,14.2l23.9,17.9c4.2,3.1,9.7,0.8,12.9-3.4l24.6-32.9
					L309.3,119.2z"/>
			</g>
			<path class="st360" d="M348.9,150.2l-42.2-31.6l15.8-21.1c1.8-2.4,4.4-3.5,7.6-3.7c2.9-0.2,5.8,1.1,8.2,2.8l23.9,17.9
				c5,3.8,6.2,9.6,2.5,14.5L348.9,150.2z M311.4,118.4l36.4,27.3l14-18.7c2.5-3.4,2.1-7.4-1.4-10l-23.9-17.9
				c-3.2-2.4-8.4-2.9-11.1,0.6L311.4,118.4z"/>
			<path class="st360" d="M309.5,185.1l-23.9-17.9c-5-3.7-6.4-11.6-2.7-16.6l25.7-34.3l42.2,31.6L325,182.1
				c-1.8,2.4-4.3,4.1-7.2,4.7C314.7,187.5,311.9,186.9,309.5,185.1z M309.6,120.8l-23.9,31.9c-2.6,3.4-1.4,9,2,11.5l23.9,17.9
				c1.6,1.2,3.4,1.6,5.4,1.2c2-0.4,3.8-1.6,5.1-3.4l23.9-31.9L309.6,120.8z"/>
			<g>
				<path class="st360" d="M348.9,134.7c-0.8-0.6-0.7-1.5-0.1-2.3l4.6-6.2c0.6-0.8,1.5-1.1,2.3-0.5c0.8,0.6,0.7,1.5,0.1,2.3
					l-4.6,6.2C350.6,134.9,349.7,135.3,348.9,134.7z"/>
			</g>
			<g>
				<path class="st360" d="M328.6,161.9c-0.8-0.6-0.7-1.5-0.1-2.3l4.6-6.2c0.6-0.8,1.5-1.1,2.3-0.5c0.8,0.6,0.7,1.5,0.1,2.3
					l-4.6,6.2C330.2,162.2,329.3,162.5,328.6,161.9z"/>
			</g>
			<g>
				<g>
					<path class="st360" d="M305.2,187.1c-0.8-0.6-1.2-1.9-0.6-2.7l2.3-3.1c0.6-0.8,2-0.7,2.7-0.2s1.2,1.9,0.6,2.7l-2.3,3.1
						C307.4,187.7,306,187.7,305.2,187.1z"/>
				</g>
				<g>
					<path class="st360" d="M283.9,171.1c-0.8-0.6-1-1.7-0.4-2.5l2.3-3.1c0.6-0.8,1.7-0.9,2.5-0.3c0.8,0.6,1,1.7,0.4,2.5l-2.3,3.1
						C285.8,171.6,284.7,171.7,283.9,171.1z"/>
				</g>
			</g>
		</g>
		<g>
			<g>
				<circle class="st364" cx="1.2" cy="126.8" r="11"/>
				<path class="st360" d="M5.1,138.9c-6.7,2.1-13.8-1.6-15.9-8.2c-2.1-6.7,1.6-13.8,8.2-15.9c6.7-2.1,13.8,1.6,15.9,8.2
					C15.4,129.6,11.7,136.8,5.1,138.9z M-1.6,117.9c-4.9,1.6-7.6,6.8-6,11.7c1.6,4.9,6.8,7.6,11.7,6c4.9-1.6,7.6-6.8,6-11.7
					S3.3,116.4-1.6,117.9z"/>
			</g>
			<g>
				<circle class="st10" cx="31.4" cy="117.2" r="11"/>
				<path class="st360" d="M35.3,129.2c-6.7,2.1-13.8-1.6-15.9-8.2s1.6-13.8,8.2-15.9c6.7-2.1,13.8,1.6,15.9,8.2
					C45.6,120,41.9,127.1,35.3,129.2z M28.6,108.3c-4.9,1.6-7.6,6.8-6,11.7s6.8,7.6,11.7,6c4.9-1.6,7.6-6.8,6-11.7
					C38.7,109.4,33.5,106.7,28.6,108.3z"/>
			</g>
		</g>
		<g>
			<g>
				<circle class="st365" cx="0.3" cy="382.1" r="11"/>
				<path class="st360" d="M-5.6,393.3c-6.2-3.2-8.6-10.9-5.4-17.1s10.9-8.6,17.1-5.4c6.2,3.2,8.6,10.9,5.4,17.1
					C8.3,394.1,0.6,396.5-5.6,393.3z M4.6,373.8c-4.6-2.4-10.2-0.6-12.6,4s-0.6,10.2,4,12.6c4.6,2.4,10.2,0.6,12.6-4
					S9.1,376.2,4.6,373.8z"/>
			</g>
			<g>
				<circle class="st364" cx="28.4" cy="396.7" r="11"/>
				<path class="st360" d="M22.5,407.9c-6.2-3.2-8.6-10.9-5.4-17.1s10.9-8.6,17.1-5.4s8.6,10.9,5.4,17.1
					C36.4,408.7,28.7,411.2,22.5,407.9z M32.7,388.4c-4.6-2.4-10.2-0.6-12.6,4s-0.6,10.2,4,12.6c4.6,2.4,10.2,0.6,12.6-4
					C39,396.4,37.3,390.8,32.7,388.4z"/>
			</g>
			<g>
				<circle class="st10" cx="56.5" cy="411.3" r="11"/>
				<path class="st360" d="M50.6,422.6c-6.2-3.2-8.6-10.9-5.4-17.1c3.2-6.2,10.9-8.6,17.1-5.4c6.2,3.2,8.6,10.9,5.4,17.1
					C64.5,423.4,56.8,425.8,50.6,422.6z M60.8,403c-4.6-2.4-10.2-0.6-12.6,4c-2.4,4.6-0.6,10.2,4,12.6c4.6,2.4,10.2,0.6,12.6-4
					C67.2,411.1,65.4,405.4,60.8,403z"/>
			</g>
		</g>
		<g>
			<g>
				<g>
					<path class="st10" d="M147.6,13.8l-12,17.3c-3.7,5.3-2.4,12.7,2.9,16.3l0.4,0.3c5.3,3.7,12.6,2.3,16.3-3l12-17.3L147.6,13.8z"
						/>
					<path class="st360" d="M145.6,51.5c-2.7,0-5.3-0.8-7.6-2.4l-0.4-0.3c-6.1-4.2-7.6-12.6-3.4-18.7l12.9-18.7L169.7,27l-12.9,18.7
						c-2,3-5.1,4.9-8.7,5.6C147.2,51.5,146.4,51.5,145.6,51.5z M148,16.2l-11,15.9c-3.1,4.5-2,10.8,2.5,13.9l0.4,0.3
						c2.2,1.5,4.8,2.1,7.5,1.6c2.6-0.5,4.9-2,6.4-4.2l11-15.9L148,16.2z"/>
				</g>
				<g>
					<path class="st365" d="M179.3,10.1c3.7-5.3,2.4-12.7-2.9-16.3l-0.4-0.3c-5.3-3.7-12.7-2.3-16.3,3l-12,17.4l19.7,13.6
						L179.3,10.1z"/>
					<path class="st360" d="M167.7,29.9l-22.5-15.6l13-18.8c2-2.9,5.1-4.9,8.7-5.6c3.5-0.6,7.1,0.1,10.1,2.2l0.4,0.3
						c2.9,2,4.9,5.1,5.6,8.7c0.6,3.5-0.1,7.1-2.2,10.1L167.7,29.9z M150,13.4l16.8,11.7l11-15.9c1.5-2.2,2.1-4.9,1.6-7.5
						c-0.5-2.6-1.9-4.9-4.1-6.4L175-5.1c-2.2-1.5-4.8-2.1-7.5-1.6c-2.6,0.5-4.9,2-6.4,4.1L150,13.4z"/>
				</g>
			</g>
			<g>
				<g>
					<path class="st364" d="M177.4,39.2c3.3,8.5,12.8,12.8,21.3,9.5l-11.9-30.9C178.4,21.1,174.1,30.7,177.4,39.2z"/>
					<path class="st360" d="M192.8,51.5c-2.5,0-5.1-0.5-7.5-1.6c-4.4-2-7.8-5.6-9.6-10.1s-1.6-9.5,0.4-13.9c2-4.4,5.5-7.9,10.1-9.6
						l1.6-0.6l13.1,34.1l-1.6,0.6C197.2,51.1,195,51.5,192.8,51.5z M179,38.6c2.7,7,10.3,10.8,17.4,9.1l-10.5-27.4
						C179.4,23.6,176.3,31.5,179,38.6L179,38.6z"/>
				</g>
				<g>
					<path class="st364" d="M186.9,17.8C186.9,17.8,186.9,17.8,186.9,17.8l11.8,30.9c0,0,0,0,0.1,0c8.5-3.3,12.8-12.8,9.5-21.4
						C205,18.8,195.4,14.5,186.9,17.8z"/>
					<path class="st360" d="M197.7,50.9l-0.6-1.6l-12.5-32.5l1.6-0.6c0,0,0.1,0,0.1,0c4.6-1.7,9.5-1.6,14,0.4
						c4.5,2,7.9,5.6,9.6,10.1c1.7,4.6,1.6,9.5-0.4,14c-2,4.5-5.6,7.9-10.1,9.6c0,0,0,0-0.1,0L197.7,50.9z M189.1,18.9l10.5,27.5
						c3-1.5,5.3-4,6.7-7.1c1.6-3.6,1.7-7.6,0.3-11.3c-1.4-3.7-4.2-6.6-7.8-8.2C195.8,18.3,192.4,18.1,189.1,18.9z"/>
				</g>
			</g>
		</g>
		<g>
			<g>
				<g>
					<path class="st10" d="M101.7,334.2l12.6-16.8c3.9-5.2,2.8-12.6-2.3-16.4l-0.4-0.3c-5.2-3.9-12.5-2.8-16.4,2.4l-12.6,16.8
						L101.7,334.2z"/>
					<path class="st360" d="M105.1,296.6c2.7,0.1,5.3,1,7.5,2.7l0.4,0.3c5.9,4.4,7.1,12.9,2.7,18.9L102,336.6l-21.9-16.4l13.6-18.2
						c2.2-2.9,5.3-4.7,8.9-5.3C103.4,296.6,104.3,296.5,105.1,296.6z M101.3,331.7l11.6-15.4c3.3-4.4,2.4-10.7-2-14l-0.4-0.3
						c-2.1-1.6-4.8-2.3-7.4-1.9c-2.7,0.4-5,1.8-6.6,3.9L85,319.4L101.3,331.7z"/>
				</g>
				<g>
					<path class="st365" d="M69.9,336.7c-3.9,5.2-2.8,12.6,2.3,16.4l0.4,0.3c5.2,3.9,12.6,2.8,16.4-2.4l12.7-16.9l-19.2-14.4
						L69.9,336.7z"/>
					<path class="st360" d="M82.2,317.4l21.9,16.4l-13.7,18.3c-2.2,2.9-5.3,4.7-8.9,5.3c-3.6,0.5-7.1-0.4-10-2.5l-0.4-0.3
						c-2.9-2.2-4.7-5.3-5.2-8.9c-0.5-3.6,0.4-7.1,2.6-10L82.2,317.4z M99.3,334.5l-16.4-12.3l-11.6,15.5c-1.6,2.1-2.3,4.8-1.9,7.4
						c0.4,2.7,1.8,5,3.9,6.6l0.4,0.3c2.1,1.6,4.8,2.3,7.4,1.9c2.7-0.4,5-1.8,6.6-3.9L99.3,334.5z"/>
				</g>
			</g>
			<g>
				<g>
					<path class="st364" d="M72.8,307.7c-2.9-8.6-12.3-13.2-20.9-10.3l10.7,31.3C71.2,325.7,75.8,316.3,72.8,307.7z"/>
					<path class="st360" d="M57.9,294.8c2.5,0.1,5,0.7,7.4,1.9c4.4,2.2,7.6,5.9,9.2,10.5c1.6,4.6,1.3,9.5-0.9,13.9
						c-2.1,4.4-5.8,7.7-10.4,9.2l-1.6,0.6l-11.8-34.6l1.6-0.6C53.5,295,55.7,294.7,57.9,294.8z M71.2,308.3
						c-2.4-7.1-9.8-11.2-17.1-9.7l9.5,27.8C70.3,323.2,73.6,315.4,71.2,308.3L71.2,308.3z"/>
				</g>
				<g>
					<path class="st364" d="M62.5,328.7C62.6,328.7,62.6,328.7,62.5,328.7l-10.6-31.3c0,0,0,0-0.1,0c-8.6,3-13.3,12.4-10.3,21
						C44.5,327,53.9,331.7,62.5,328.7z"/>
					<path class="st360" d="M53,295.2l0.6,1.6l11.2,32.9l-1.6,0.6c0,0-0.1,0-0.1,0c-4.6,1.6-9.6,1.3-14-0.9
						c-4.4-2.1-7.7-5.9-9.2-10.5c-1.6-4.6-1.3-9.6,0.9-14c2.1-4.4,5.9-7.7,10.5-9.2c0,0,0,0,0.1,0L53,295.2z M60.4,327.5l-9.5-27.9
						c-3,1.4-5.5,3.8-7,6.9c-1.7,3.6-2,7.6-0.7,11.3c1.3,3.7,3.9,6.8,7.5,8.5C53.7,327.8,57.1,328.2,60.4,327.5z"/>
				</g>
			</g>
		</g>
		<g>
			<g>
				<g>
					<path class="st10" d="M286.6,292.1l-15.9-13.8c-4.9-4.2-12.3-3.7-16.6,1.2l-0.3,0.4c-4.2,4.9-3.7,12.3,1.2,16.5l15.9,13.8
						L286.6,292.1z"/>
					<path class="st360" d="M249.4,286c0.3-2.7,1.4-5.2,3.2-7.3l0.3-0.4c4.9-5.6,13.4-6.2,19-1.3l17.2,14.9l-17.9,20.7l-17.2-14.9
						c-2.7-2.4-4.4-5.6-4.6-9.2C249.2,287.7,249.3,286.8,249.4,286z M284.2,292.2l-14.6-12.6c-4.2-3.6-10.5-3.2-14.1,1l-0.3,0.4
						c-1.7,2-2.6,4.6-2.4,7.3c0.2,2.7,1.4,5.1,3.4,6.9l14.6,12.6L284.2,292.2z"/>
				</g>
				<g>
					<path class="st365" d="M286.9,324c4.9,4.2,12.3,3.7,16.6-1.2l0.3-0.4c4.2-4.9,3.7-12.3-1.2-16.6l-16-13.8l-15.7,18.1L286.9,324
						z"/>
					<path class="st360" d="M268.5,310.3l17.9-20.7l17.3,15c2.7,2.4,4.3,5.6,4.6,9.2c0.3,3.6-0.9,7.1-3.2,9.8l-0.3,0.4
						c-2.3,2.7-5.6,4.3-9.2,4.6c-3.6,0.2-7.1-0.9-9.8-3.3L268.5,310.3z M286.8,294.5L273.4,310l14.7,12.7c2,1.7,4.6,2.6,7.3,2.4
						c2.7-0.2,5.1-1.4,6.8-3.4l0.3-0.4c1.7-2,2.6-4.6,2.4-7.3c-0.2-2.7-1.4-5.1-3.4-6.9L286.8,294.5z"/>
				</g>
			</g>
			<g>
				<g>
					<path class="st364" d="M258.2,319c-8.8,2.3-14.1,11.3-11.8,20.1l32-8.4C276,321.9,267,316.7,258.2,319z"/>
					<path class="st360" d="M244.2,333c0.3-2.5,1.1-5,2.4-7.2c2.5-4.2,6.4-7.2,11.1-8.4c4.7-1.2,9.6-0.6,13.8,1.9
						c4.2,2.4,7.2,6.4,8.5,11.1l0.5,1.7l-35.3,9.3l-0.4-1.7C244.2,337.4,244,335.2,244.2,333z M258.6,320.6
						c-7.3,1.9-11.9,9-10.9,16.3l28.4-7.5C273.4,322.6,265.9,318.7,258.6,320.6L258.6,320.6z"/>
				</g>
				<g>
					<path class="st364" d="M278.4,330.7C278.4,330.7,278.4,330.7,278.4,330.7l-32,8.4c0,0,0,0,0,0.1c2.3,8.8,11.4,14.1,20.2,11.8
						C275.5,348.6,280.7,339.6,278.4,330.7z"/>
					<path class="st360" d="M244.3,337.9l1.7-0.4l33.6-8.9l0.4,1.7c0,0,0,0.1,0,0.1c1.2,4.7,0.6,9.6-1.9,13.9
						c-2.5,4.2-6.4,7.2-11.1,8.5c-4.7,1.2-9.6,0.6-13.9-1.9c-4.2-2.5-7.2-6.4-8.5-11.1c0,0,0,0,0-0.1L244.3,337.9z M277.1,332.8
						l-28.5,7.5c1.2,3.1,3.4,5.7,6.4,7.4c3.4,2,7.4,2.5,11.2,1.5c3.8-1,7-3.4,9-6.9C276.9,339.5,277.6,336.1,277.1,332.8z"/>
				</g>
			</g>
		</g>
		<g>
			<path class="st366" d="M238,227.6l3.7-6.4l0.5-0.8c1.4-2.5-2.9-7.6-9.6-11.5c-6.7-3.9-13.3-5-14.8-2.6l-0.5,0.8l-3.7,6.4
				c0,0,6.6,1.2,13.3,5.1C233.6,222.5,238,227.6,238,227.6z"/>
			<path class="st367" d="M207,281.1l30.9-53.5c0,0-4.3-5.1-11-9c-6.7-3.9-13.3-5.1-13.3-5.1L182.7,267L207,281.1z"/>
			<path class="st368" d="M182.2,295.4c0,0.2,0.2,0.3,0.3,0.2l7.7-4.4l-8-4.7L182.2,295.4z"/>
			<path class="st369" d="M182.2,286.6l8,4.7l16-9.2c0.2-0.1,0.2-0.3,0-0.4c0,0-0.5-6.1-9.3-11.2c-8.8-5.1-14.3-2.5-14.3-2.5
				c-0.2-0.1-0.3,0-0.3,0.2L182.2,286.6z"/>
			<g>
				<line class="st368" x1="201.2" y1="273.7" x2="231.5" y2="221.2"/>
				<line class="st368" x1="192" y1="268.3" x2="222.3" y2="215.9"/>
			</g>
		</g>
		<g>
			<path class="st367" d="M6.7,252.2l-46,41.2c0,0,2.5,6.2,7.7,12c5.2,5.8,11.1,9,11.1,9l46-41.2L6.7,252.2z"/>
			<path class="st368" d="M34.8,246.2c0.1-0.2-0.1-0.3-0.3-0.3l-8.7,1.8l6.2,6.9L34.8,246.2z"/>
			<path class="st369" d="M32,254.7l-6.2-6.9l-18.1,3.8c-0.2,0-0.2,0.2-0.1,0.4c0,0-1.4,5.9,5.4,13.5c6.8,7.6,12.9,6.8,12.9,6.8
				c0.1,0.1,0.3,0.1,0.4-0.1L32,254.7z"/>
			<g>
				<line class="st368" x1="10" y1="261" x2="-35.2" y2="301.4"/>
				<line class="st368" x1="17.1" y1="269" x2="-28" y2="309.4"/>
			</g>
		</g>
		<g>
			<path class="st366" d="M271.8-13.2l-3.6-6.5l-0.5-0.9c-1.4-2.5-8-1.5-14.8,2.3c-6.8,3.8-11.2,8.8-9.8,11.3l0.5,0.9l3.6,6.5
				c0,0,4.4-5,11.2-8.8C265.2-12.1,271.8-13.2,271.8-13.2z"/>
			<path class="st367" d="M301.7,40.9l-29.9-54.1c0,0-6.6,1.1-13.4,4.8c-6.8,3.8-11.2,8.8-11.2,8.8l29.9,54.1L301.7,40.9z"/>
			<path class="st368" d="M301.2,69.6c0.2,0.1,0.3,0,0.4-0.2l0.2-8.9l-8.1,4.5L301.2,69.6z"/>
			<path class="st369" d="M293.6,65l8.1-4.5l0.3-18.5c0-0.2-0.2-0.3-0.3-0.2c0,0-5.5-2.7-14.4,2.2c-8.9,4.9-9.5,11-9.5,11
				c-0.2,0.1-0.2,0.3,0,0.4L293.6,65z"/>
			<g>
				<line class="st368" x1="292.4" y1="42.1" x2="263.1" y2="-10.9"/>
				<line class="st368" x1="283" y1="47.2" x2="253.7" y2="-5.8"/>
			</g>
		</g>
		<g>
			<g>
				<path class="st10" d="M324.5,406.2l-8.2-4.7c-3.1-1.8-4.2-5.8-2.4-8.9h0c1.8-3.1,5.8-4.2,8.9-2.4l8.2,4.7
					c3.1,1.8,4.2,5.8,2.4,8.9h0C331.6,406.9,327.6,408,324.5,406.2z"/>
				<path class="st360" d="M328.1,410.4l-17.3-9.9c-1.5-0.8-2-2.7-1.1-4.2l5.2-9.1c0.8-1.5,2.7-2,4.2-1.1l17.3,9.9
					c1.5,0.8,2,2.7,1.1,4.2l-5.2,9.1C331.5,410.8,329.6,411.3,328.1,410.4z M313.1,397.6l16.4,9.4l4.7-8.2l-16.4-9.4L313.1,397.6z"
					/>
			</g>
			<g>
				<polyline class="st10" points="347.1,391.8 327.8,380.8 323.1,389.1 330.9,393.6 335.3,385.8 				"/>
				<path class="st360" d="M330.4,396.8l-9.9-5.7l7.4-13l20.6,11.8c0.9,0.5,1.2,1.6,0.7,2.5s-1.6,1.2-2.5,0.7l-10.7-6.1L330.4,396.8
					z M326,388.8l3.6,2.1l3.3-5.7l-3.6-2.1L326,388.8z"/>
			</g>
			<g>
				<path class="st365" d="M311.8,418.5l15.1,8.6l4.1-7.2c2.2-3.8,1-8.5-2.8-10.6l-16.6-9.5c-3.8-2.2-9.1-1.2-11.3,2.6l-24,41.9
					c-2.2,3.8-0.1,8.4,3.7,10.6l16.6,9.5c3.8,2.2,8.2,1.2,10.3-2.6l4.4-7.6l-15.1-8.6L311.8,418.5z"/>
				<path class="st360" d="M295.8,465.9l-16.6-9.5c-4.7-2.7-6.5-8.2-3.9-12.8l24-41.9c2.7-4.7,8.8-6.7,13.5-4.1l16.6,9.5
					c2.2,1.3,3.9,3.7,4.6,6.2c0.7,2.5,0.4,5.5-0.9,7.7l-4.7,8.3l-16.6-9.5l-14,24.4l16.6,9.5l-5.3,9.2
					C306.4,467.6,300.5,468.6,295.8,465.9z M311,400.8c-2.9-1.6-6.9-0.1-8.6,2.7l-24,41.9c-1.6,2.8-0.1,5.7,2.8,7.3l16.6,9.5
					c3,1.7,6.5,1.8,8.1-1.1l3.2-5.6l-16.6-9.5l17.8-31.2l16.6,9.5l3-5.2c1.6-2.9,0.6-7.3-2.3-9L311,400.8z"/>
			</g>
		</g>
		<g>
			<g>
				<path class="st10" d="M384.7,6.9l-8.8,3.6c-3.3,1.4-7.1-0.3-8.5-3.6v0c-1.4-3.3,0.3-7.1,3.6-8.5l8.8-3.6
					c3.3-1.4,7.1,0.3,8.5,3.6v0C389.6,1.7,388,5.5,384.7,6.9z"/>
				<path class="st360" d="M390.2,6.6l-18.5,7.5c-1.6,0.6-3.4-0.1-4-1.7l-4-9.7c-0.6-1.6,0.1-3.4,1.7-4l18.5-7.5
					c1.6-0.6,3.4,0.1,4,1.7l4,9.7C392.6,4.2,391.8,6,390.2,6.6z M370.8,10.6l17.5-7.1l-3.5-8.7l-17.5,7.1L370.8,10.6z"/>
			</g>
			<g>
				<path class="st360" d="M380.9-3.6l-10.5,4.3l-5.6-13.9l22-8.9c0.9-0.4,2,0,2.4,1c0.4,0.9-0.1,2-1,2.4l-11.4,4.7L380.9-3.6z
					 M371.9-5.1l3.9-1.6l-2.5-6.1l-3.9,1.6L371.9-5.1z"/>
			</g>
			<g>
				<path class="st365" d="M386.5,24.5l16.1-6.5l-3.1-7.7c-1.6-4-6.1-6-10.1-4.3l-17.7,7.2c-4,1.6-6.5,6.4-4.9,10.4l18.2,44.7
					c1.6,4,6.6,5.3,10.6,3.6l17.7-7.2c4-1.6,6-5.7,4.4-9.7l-3.3-8.2l-16.1,6.5L386.5,24.5z"/>
				<path class="st360" d="M413.9,66.3l-17.7,7.2c-5,2-10.4,0.1-12.4-4.8L365.6,24c-2-5,0.1-11.1,5.1-13.1l17.7-7.2
					c2.4-1,5.3-0.8,7.7,0.2c2.4,1,4.5,3.1,5.5,5.4l3.6,8.8l-17.7,7.2l10.6,26.1l17.7-7.2l4,9.8C421.8,58.9,419,64.3,413.9,66.3z
					 M372.1,14.2c-3.1,1.2-4.4,5.4-3.1,8.4l18.2,44.7c1.2,3,4.4,3.6,7.5,2.3l17.7-7.2c3.2-1.3,5.4-4,4.2-7l-2.4-5.9l-17.7,7.2
					l-13.5-33.3l17.7-7.2l-2.2-5.5c-1.2-3.1-5.4-5-8.5-3.7L372.1,14.2z"/>
			</g>
			<g>
				
					<rect x="384.8" y="27" transform="matrix(-0.3768 -0.9263 0.9263 -0.3768 518.2582 419.952)" class="st364" width="31.1" height="17.4"/>
				<path class="st360" d="M417.4,48.1l-21.1,8.6l-13.5-33.3l21.1-8.6L417.4,48.1z M398.1,51.4l14.4-5.9l-10.6-26.1l-14.4,5.9
					L398.1,51.4z"/>
			</g>
		</g>
		<g>
			<g>
				<path class="st10" d="M352.3,234.9l-9.2,2.4c-3.5,0.9-7.1-1.2-8-4.6v0c-0.9-3.5,1.2-7.1,4.6-8l9.2-2.4c3.5-0.9,7.1,1.2,8,4.6v0
					C357.9,230.4,355.8,234,352.3,234.9z"/>
				<path class="st360" d="M357.9,235.3l-19.3,5.2c-1.6,0.4-3.3-0.5-3.8-2.2l-2.7-10.1c-0.4-1.6,0.5-3.3,2.2-3.8l19.3-5.2
					c1.6-0.4,3.3,0.5,3.8,2.2l2.7,10.1C360.5,233.1,359.5,234.8,357.9,235.3z M338.1,236.8l18.2-4.9l-2.4-9.1l-18.2,4.9L338.1,236.8
					z"/>
			</g>
			<g>
				<polyline class="st10" points="358.2,208.8 336.8,214.5 339.3,223.7 348,221.4 345.6,212.7 				"/>
				<path class="st360" d="M349.9,224l-11,2.9l-3.9-14.5l22.9-6.1c1-0.3,2,0.3,2.2,1.3s-0.3,1.9-1.3,2.2L347,213L349.9,224z
					 M341.1,221.4l4-1.1l-1.7-6.4l-4,1.1L341.1,221.4z"/>
			</g>
			<g>
				<path class="st365" d="M351.9,252.6l16.8-4.5l-2.1-8.1c-1.1-4.2-5.3-6.7-9.5-5.6l-18.5,4.9c-4.2,1.1-7.3,5.6-6.2,9.7l12.4,46.6
					c1.1,4.2,5.9,6,10.1,4.9l18.5-4.9c4.2-1.1,6.7-4.9,5.5-9.1l-2.3-8.5l-16.8,4.5L351.9,252.6z"/>
				<path class="st360" d="M373.9,297.5l-18.5,4.9c-5.2,1.4-10.4-1.2-11.7-6.3l-12.4-46.6c-1.4-5.2,1.5-11,6.7-12.4l18.5-4.9
					c2.5-0.7,5.3-0.1,7.6,1.2c2.3,1.3,4.1,3.6,4.8,6.1l2.5,9.2l-18.5,4.9l7.3,27.2l18.5-4.9l2.7,10.2
					C382.7,291.2,379.2,296.1,373.9,297.5z M338.9,240.5c-3.2,0.9-5,4.8-4.2,8l12.4,46.6c0.8,3.2,3.9,4.1,7.2,3.2l18.5-4.9
					c3.3-0.9,5.8-3.3,5-6.5l-1.7-6.2l-18.5,4.9l-9.3-34.7l18.5-4.9l-1.5-5.7c-0.8-3.2-4.8-5.6-8-4.7L338.9,240.5z"/>
			</g>
			<g>
				
					<rect x="348.8" y="256.7" transform="matrix(-0.2577 -0.9662 0.9662 -0.2577 201.8365 685.7715)" class="st364" width="31.1" height="17.4"/>
				<path class="st360" d="M379.7,279.9l-22,5.9l-9.3-34.7l22-5.9L379.7,279.9z M360.1,280.7l15-4l-7.3-27.2l-15,4L360.1,280.7z"/>
			</g>
		</g>
		<g>
			<g>
				<path class="st10" d="M152.3,109.3l-7.6,5.7c-2.9,2.2-7,1.6-9.1-1.3v0c-2.2-2.9-1.6-7,1.3-9.1l7.6-5.7c2.9-2.2,7-1.6,9.1,1.3v0
					C155.8,103,155.2,107.2,152.3,109.3z"/>
				<path class="st360" d="M157.6,107.6l-15.9,12.1c-1.4,1-3.3,0.8-4.3-0.6l-6.3-8.4c-1-1.4-0.8-3.3,0.6-4.3l15.9-12.1
					c1.4-1,3.3-0.8,4.3,0.6l6.3,8.4C159.2,104.6,159,106.6,157.6,107.6z M139.9,116.4l15-11.4l-5.7-7.5l-15,11.4L139.9,116.4z"/>
			</g>
			<g>
				<polyline class="st10" points="147.9,82.9 130.3,96.3 136,103.9 143.2,98.5 137.8,91.3 				"/>
				<path class="st360" d="M146,100.2l-9.1,6.9l-9-11.9l18.9-14.3c0.8-0.6,1.9-0.5,2.5,0.3c0.6,0.8,0.4,1.9-0.4,2.5l-9.8,7.5
					L146,100.2z M136.9,101l3.3-2.5l-4-5.2l-3.3,2.5L136.9,101z"/>
			</g>
			<g>
				<path class="st365" d="M158.7,125.8l13.8-10.5l-5-6.6c-2.6-3.5-7.4-4.2-10.9-1.6l-15.2,11.6c-3.5,2.6-4.6,7.9-2,11.4l29.2,38.5
					c2.6,3.5,7.8,3.4,11.2,0.7l15.2-11.6c3.5-2.6,4.3-7.1,1.7-10.5l-5.3-7l-13.8,10.5L158.7,125.8z"/>
				<path class="st360" d="M196,159.1l-15.2,11.6c-4.3,3.2-10.1,2.8-13.2-1.4l-29.2-38.5c-3.2-4.3-2.7-10.7,1.5-14l15.2-11.6
					c2.1-1.6,4.9-2.1,7.5-1.8c2.6,0.3,5.2,1.8,6.7,3.8l5.8,7.6l-15.3,11.6l17,22.4l15.3-11.6l6.4,8.4
					C201.7,149.9,200.3,155.8,196,159.1z M142.1,119.6c-2.6,2-2.8,6.3-0.8,9l29.2,38.5c2,2.6,5.2,2.3,7.8,0.3l15.2-11.6
					c2.7-2.1,4.2-5.3,2.2-7.9l-3.9-5.1l-15.3,11.6l-21.7-28.6l15.3-11.6l-3.6-4.7c-2-2.6-6.5-3.4-9.2-1.4L142.1,119.6z"/>
			</g>
			<g>
				
					<rect x="159.4" y="124.3" transform="matrix(-0.6042 -0.7968 0.7968 -0.6042 174.739 352.7835)" class="st364" width="31.1" height="17.4"/>
				<path class="st360" d="M194.7,140.6l-18.1,13.7l-21.7-28.6L173,112L194.7,140.6z M176.9,148.8l12.4-9.4l-17-22.4l-12.4,9.4
					L176.9,148.8z"/>
			</g>
		</g>
		<g>
			<circle class="st365" cx="53.1" cy="59.5" r="10.2"/>
			<circle class="st364" cx="20" cy="25.2" r="10.2"/>
			<g>
				<g>
					<g>
						<path class="st360" d="M52.8,46.5c7-0.2,12.8,5.4,13,12.4c0.2,7-5.4,12.8-12.4,13s-12.8-5.4-13-12.4
							C40.3,52.5,45.8,46.7,52.8,46.5z M53.3,67.8c4.7-0.1,8.5-4.1,8.4-8.8c-0.1-4.7-4.1-8.5-8.8-8.4c-4.7,0.1-8.5,4.1-8.4,8.8
							C44.6,64.2,48.6,67.9,53.3,67.8z"/>
					</g>
					<g>
						<path class="st360" d="M19.7,12.3c7-0.2,12.8,5.4,13,12.4s-5.4,12.8-12.4,13s-12.8-5.4-13-12.4S12.7,12.4,19.7,12.3z
							 M20.2,33.5c4.7-0.1,8.5-4.1,8.4-8.8c-0.1-4.7-4.1-8.5-8.8-8.4s-8.5,4.1-8.4,8.8C11.5,29.9,15.5,33.6,20.2,33.5z"/>
					</g>
				</g>
				<g>
					<path class="st360" d="M57.9,17c0.5,0,1,0.2,1.5,0.6c0.8,0.8,0.8,2.1,0.1,2.9L15.5,66.6c-0.8,0.8-2.1,0.8-2.9,0.1
						c-0.8-0.8-0.8-2.1-0.1-2.9l43.9-46.1C56.9,17.2,57.4,17,57.9,17z"/>
				</g>
			</g>
		</g>
		<g>
			<circle class="st365" cx="417" cy="386.9" r="10.2"/>
			<circle class="st364" cx="384" cy="352.7" r="10.2"/>
			<g>
				<g>
					<g>
						<path class="st360" d="M416.7,374c7-0.2,12.8,5.4,13,12.4s-5.4,12.8-12.4,13c-7,0.2-12.8-5.4-13-12.4
							C404.2,380,409.7,374.1,416.7,374z M417.2,395.2c4.7-0.1,8.5-4.1,8.4-8.8c-0.1-4.7-4.1-8.5-8.8-8.4s-8.5,4.1-8.4,8.8
							C408.6,391.6,412.5,395.3,417.2,395.2z"/>
					</g>
					<g>
						<path class="st360" d="M383.6,339.7c7-0.2,12.8,5.4,13,12.4c0.2,7-5.4,12.8-12.4,13s-12.8-5.4-13-12.4
							C371.1,345.7,376.7,339.9,383.6,339.7z M384.2,360.9c4.7-0.1,8.5-4.1,8.4-8.8c-0.1-4.7-4.1-8.5-8.8-8.4
							c-4.7,0.1-8.5,4.1-8.4,8.8C375.5,357.3,379.4,361.1,384.2,360.9z"/>
					</g>
				</g>
				<g>
					<path class="st360" d="M421.9,344.4c0.5,0,1,0.2,1.5,0.6c0.8,0.8,0.8,2.1,0.1,2.9L379.5,394c-0.8,0.8-2.1,0.8-2.9,0.1
						c-0.8-0.8-0.8-2.1-0.1-2.9l43.9-46.1C420.8,344.6,421.4,344.4,421.9,344.4z"/>
				</g>
			</g>
		</g>
		<g>
			<path class="st367" d="M424.8,177.3l42.1-45.2c0,0-3.1-6-8.8-11.2c-5.7-5.3-11.8-7.9-11.8-7.9l-42.1,45.2L424.8,177.3z"/>
			<path class="st368" d="M397.4,185.8c0,0.2,0.1,0.3,0.3,0.3l8.5-2.6l-6.8-6.3L397.4,185.8z"/>
			<path class="st369" d="M399.4,177.1l6.8,6.3l17.6-5.4c0.2-0.1,0.2-0.3,0.1-0.4c0,0,0.9-6-6.6-13c-7.5-6.9-13.4-5.6-13.4-5.6
				c-0.1-0.1-0.3-0.1-0.4,0.1L399.4,177.1z"/>
			<g>
				<line class="st368" x1="420.8" y1="168.8" x2="462" y2="124.4"/>
				<line class="st368" x1="413" y1="161.5" x2="454.2" y2="117.2"/>
			</g>
		</g>
	</g>
</g>
</svg>
