<?xml version="1.0" encoding="utf-8"?>
<!-- Generator: Adobe Illustrator 19.1.0, SVG Export Plug-In . SVG Version: 6.00 Build 0)  -->
<svg version="1.1" xmlns="http://www.w3.org/2000/svg" xmlns:xlink="http://www.w3.org/1999/xlink" x="0px" y="0px"
	 viewBox="0 0 1194.9 755.6" style="enable-background:new 0 0 1194.9 755.6;" xml:space="preserve">
<style type="text/css">
	.st0{display:none;}
	.st1{display:inline;}
	.st2{display:inline;fill:none;}
	.st3{fill:#FFE400;}
	.st4{fill:#00A651;}
	.st5{clip-path:url(#SVGID_2_);}
	.st6{fill:#FFFFFF;}
	.st7{fill:#DF4954;}
	.st8{clip-path:url(#SVGID_6_);}
	.st9{clip-path:url(#SVGID_8_);}
	.st10{fill:#FFDC00;}
	.st11{fill:#2FB44A;}
	.st12{fill:#FBAC1F;}
	.st13{fill:#ECD1E5;}
	.st14{fill:none;}
	.st15{clip-path:url(#SVGID_10_);}
	.st16{fill:#FEE5D9;}
	.st17{opacity:0.1;}
	.st18{clip-path:url(#SVGID_12_);}
	.st19{fill:#36C2D9;stroke:#FFFFFF;stroke-width:18.6054;stroke-miterlimit:10;}
	.st20{fill:none;stroke:#FFFFFF;stroke-width:14.6002;stroke-linecap:round;stroke-miterlimit:10;}
	.st21{clip-path:url(#SVGID_16_);}
	.st22{fill:#F9D019;}
	.st23{clip-path:url(#SVGID_22_);}
	.st24{fill:#A2BADC;}
	.st25{fill:#E4CB1F;}
	.st26{clip-path:url(#SVGID_24_);}
	.st27{fill:#73C485;}
	.st28{fill:#DE68A8;}
	.st29{fill:#6481C1;}
	.st30{fill:#FCB65D;}
	.st31{fill:#E7EDF7;stroke:#E7EDF7;stroke-miterlimit:10;}
	.st32{clip-path:url(#SVGID_28_);}
	.st33{clip-path:url(#SVGID_34_);}
	.st34{fill:#E2542D;}
	.st35{fill:#41803C;}
	.st36{fill:#010101;}
	.st37{opacity:0.34;}
	.st38{fill:#C4DDEA;}
	.st39{clip-path:url(#SVGID_42_);fill:#C4DDEA;}
	.st40{fill:#D77081;}
	.st41{clip-path:url(#SVGID_48_);}
	.st42{fill:#EC008C;}
	.st43{fill:#00AEEF;}
	.st44{fill:#FFF200;}
	.st45{clip-path:url(#SVGID_56_);}
	.st46{fill:#E7BE32;}
	.st47{fill:#E6E7E8;}
	.st48{fill:#F1C634;}
	.st49{fill:#FFD336;}
	.st50{fill:#F1F2F2;}
	.st51{fill:#D1D3D4;}
	.st52{fill:#DCDDDE;}
	.st53{fill:#F7F7F7;}
	.st54{clip-path:url(#SVGID_58_);fill:#E6E7E8;}
	.st55{clip-path:url(#SVGID_58_);fill:#C7C8CA;}
	.st56{clip-path:url(#SVGID_60_);fill:#E6E7E8;}
	.st57{clip-path:url(#SVGID_60_);fill:#C7C8CA;}
	.st58{fill:#ECB810;}
	.st59{fill:#FFC70F;}
	.st60{fill:#939598;}
	.st61{fill:#0C113B;}
	.st62{fill:#6D6E71;}
	.st63{clip-path:url(#SVGID_62_);}
	.st64{fill:#1D3564;}
	.st65{fill:#26B8EB;}
	.st66{fill:#EE4035;}
	.st67{fill:#FFCB05;}
	.st68{clip-path:url(#SVGID_64_);}
	.st69{fill:#F59226;}
	.st70{clip-path:url(#SVGID_66_);}
	.st71{fill:#F15E47;}
	.st72{fill:#938C8E;}
	.st73{fill:#FECE08;}
</style>
<g id="Layer_1" class="st0">
</g>
<g id="d_x5F_1">
</g>
<g id="d_x5F_2">
</g>
<g id="TT">
	<g>
		<defs>
			<path id="SVGID_27_" d="M-2200.5-212.9v-755.6h629.7v226.3h-392.7v298.8h397v230.5H-2200.5z"/>
		</defs>
		<clipPath id="SVGID_2_">
			<use xlink:href="#SVGID_27_"  style="overflow:visible;"/>
		</clipPath>
		<g class="st5">
			<defs>
				
					<rect id="SVGID_29_" x="-2515.7" y="-1735.2" transform="matrix(-0.9967 -8.128673e-02 8.128673e-02 -0.9967 -2442.063 -1790.0465)" width="2516.5" height="1779.7"/>
			</defs>
			<clipPath id="SVGID_4_">
				<use xlink:href="#SVGID_29_"  style="overflow:visible;"/>
			</clipPath>
			<g transform="matrix(1 0 0 1 0 1.220703e-04)" style="clip-path:url(#SVGID_4_);">
				
					<image style="overflow:visible;" width="444" height="314" xlink:href="819043F18C9A09D3.png"  transform="matrix(5.6491 0.4607 -0.4607 5.6491 -2439.229 -1834.4977)">
				</image>
			</g>
		</g>
	</g>
	<g>
		<defs>
			<path id="SVGID_33_" d="M-860.5-212.9v-755.6h629.7v226.3h-392.7v298.8h397v230.5H-860.5z"/>
		</defs>
		<clipPath id="SVGID_6_">
			<use xlink:href="#SVGID_33_"  style="overflow:visible;"/>
		</clipPath>
		<g class="st8">
			<path class="st34" d="M-355.7-209.4c-75.6,14.2-152.5,74.8-171.8,149.6c-6.8,26.1-9.2,55-7.1,81.9c3.6,45.6,34.3,76.5,65.6,106.6
				c38.1,36.7,61.9,76.9,87,123.1c17.6,32.4,38.6,63,61,92.3c29.9,39,76.8,64.4,125.2,46.1c61.7-23.4,93.8-94.8,111.6-153.5
				C-57,147.3,32,83.6,35.5-14.4c1.6-44-19.2-97.1-44-133c-50.2-72.6-135.9-71.9-215.6-70.5c-40.8,0.7-82.9,1.4-123.4,7.2
				C-350.2-210.3-352.9-209.9-355.7-209.4z"/>
			<g class="st37">
				<defs>
					<path id="SVGID_37_" class="st37" d="M35.6-15.8c1.6-44-19.2-97.1-44-133c-18.5-26.8-41.9-43.6-68.1-54
						c-21-21.3-60.8-18.2-60.8-18.2c32.5-29.4,84.7,11.2,84.7,11.2s-3-29.9-54.6-46.7c-51.6-16.8-110.1,36.5-110.1,36.5
						s34.4-61.2,34-96.8c-0.4-35.7-31-24.2-48,0.8c-17,25-24,92.3-24,92.3c-20.6-31.6-79.1-53.6-79.1-53.6l37.3,34.7
						c-67-33.2-149.1,27-149.1,27s23-15.7,54.8-8.2c22.8,5.4,42.7,9,52.1,10.6c-2.7,0.3-5.4,0.6-8.1,1c-2.7,0.4-5.5,0.8-8.2,1.4
						c-75.6,14.2-152.5,74.8-171.9,149.6c-6.8,26.1-9.2,55-7,81.9c3.6,45.6,34.3,76.5,65.6,106.6c38.1,36.7,61.9,76.9,87,123.1
						c17.6,32.4,38.6,63,61,92.3c29.9,39,76.8,64.4,125.2,46.1c61.7-23.4,93.8-94.8,111.6-153.5C-56.9,145.8,32.1,82.2,35.6-15.8z"
						/>
				</defs>
				<clipPath id="SVGID_8_">
					<use xlink:href="#SVGID_37_"  style="overflow:visible;"/>
				</clipPath>
				<g transform="matrix(1 0 0 1 6.103516e-05 0)" class="st9">
					
						<image style="overflow:visible;" width="1095" height="730" xlink:href="../../../../../Creative Cloud Files (archived) (1)/strawberry/texute.jpg"  transform="matrix(0.6075 5.941490e-02 -0.1052 1.0758 -522.8842 -391.9689)">
					</image>
				</g>
			</g>
		</g>
	</g>
	<g>
		<path class="st40" d="M560.9,755.6V0h629.7v226.3H797.8v298.8h397v230.5H560.9z"/>
	</g>
	<polygon points="236.9,525.1 236.9,226.3 450.1,226.3 450.1,0 0,0 0,755.6 450.1,755.6 450.1,525.1 	"/>
	<g>
		<defs>
			<path id="SVGID_49_" d="M560.9,755.6V0h629.7v226.3H797.8v298.8h397v230.5H560.9z"/>
		</defs>
		<clipPath id="SVGID_10_">
			<use xlink:href="#SVGID_49_"  style="overflow:visible;"/>
		</clipPath>
	</g>
	<g>
		<defs>
			<path id="SVGID_53_" d="M-2200.5,1877.7v-755.6h629.7v226.3h-392.7v298.8h397v230.5H-2200.5z"/>
		</defs>
		<clipPath id="SVGID_12_">
			<use xlink:href="#SVGID_53_"  style="overflow:visible;"/>
		</clipPath>
		<g transform="matrix(1 0 0 1 0 -6.103516e-05)" class="st18">
			
				<image style="overflow:visible;" width="1280" height="720" xlink:href="../../../../../Documents/RISD/4_1.5/Assignment5/example2/2/2-001620.png"  transform="matrix(5.4414 0 0 5.4414 -5365.9907 -745.1552)">
			</image>
		</g>
	</g>
</g>
</svg>
