<?xml version="1.0" encoding="utf-8"?>
<!-- Generator: Adobe Illustrator 19.1.0, SVG Export Plug-In . SVG Version: 6.00 Build 0)  -->
<svg version="1.1" xmlns="http://www.w3.org/2000/svg" xmlns:xlink="http://www.w3.org/1999/xlink" x="0px" y="0px"
	 viewBox="0 0 1194.9 755.6" style="enable-background:new 0 0 1194.9 755.6;" xml:space="preserve">
<style type="text/css">
	.st0{display:none;}
	.st1{display:inline;}
	.st2{display:inline;fill:none;}
	.st3{fill:#FFE400;}
	.st4{fill:#00A651;}
	.st5{clip-path:url(#SVGID_2_);}
	.st6{fill:#FFFFFF;}
	.st7{fill:#DF4954;}
	.st8{clip-path:url(#SVGID_6_);}
	.st9{clip-path:url(#SVGID_8_);}
	.st10{fill:#FFDC00;}
	.st11{fill:#2FB44A;}
	.st12{fill:#FBAC1F;}
	.st13{fill:#ECD1E5;}
	.st14{fill:none;}
	.st15{clip-path:url(#SVGID_10_);}
	.st16{fill:#FEE5D9;}
	.st17{opacity:0.1;}
	.st18{clip-path:url(#SVGID_12_);}
	.st19{fill:#36C2D9;stroke:#FFFFFF;stroke-width:18.6054;stroke-miterlimit:10;}
	.st20{fill:none;stroke:#FFFFFF;stroke-width:14.6002;stroke-linecap:round;stroke-miterlimit:10;}
	.st21{clip-path:url(#SVGID_16_);}
	.st22{fill:#F9D019;}
	.st23{clip-path:url(#SVGID_22_);}
	.st24{clip-path:url(#SVGID_28_);}
	.st25{fill:#E2542D;}
	.st26{fill:#41803C;}
	.st27{fill:#010101;}
	.st28{opacity:0.34;}
	.st29{fill:#C4DDEA;}
	.st30{clip-path:url(#SVGID_36_);fill:#C4DDEA;}
	.st31{fill:#D77081;}
	.st32{clip-path:url(#SVGID_42_);}
	.st33{fill:#EC008C;}
	.st34{fill:#00AEEF;}
	.st35{fill:#FFF200;}
	.st36{clip-path:url(#SVGID_50_);}
	.st37{fill:#E7BE32;}
	.st38{fill:#E6E7E8;}
	.st39{fill:#F1C634;}
	.st40{fill:#FFD336;}
	.st41{fill:#F1F2F2;}
	.st42{fill:#D1D3D4;}
	.st43{fill:#DCDDDE;}
	.st44{fill:#F7F7F7;}
	.st45{clip-path:url(#SVGID_52_);fill:#E6E7E8;}
	.st46{clip-path:url(#SVGID_52_);fill:#C7C8CA;}
	.st47{clip-path:url(#SVGID_54_);fill:#E6E7E8;}
	.st48{clip-path:url(#SVGID_54_);fill:#C7C8CA;}
	.st49{fill:#ECB810;}
	.st50{fill:#FFC70F;}
	.st51{fill:#939598;}
	.st52{fill:#0C113B;}
	.st53{fill:#6D6E71;}
	.st54{clip-path:url(#SVGID_56_);}
	.st55{fill:#1D3564;}
	.st56{fill:#26B8EB;}
	.st57{fill:#EE4035;}
	.st58{fill:#FFCB05;}
</style>
<g id="Layer_1" class="st0">
</g>
<g id="d_x5F_1">
</g>
<g id="d_x5F_2">
</g>
<g id="TT">
	<g>
		<defs>
			<path id="SVGID_47_" d="M-2200.5,755.6V0h629.7v226.3h-392.7v298.8h397v230.5H-2200.5z"/>
		</defs>
		<clipPath id="SVGID_2_">
			<use xlink:href="#SVGID_47_"  style="overflow:visible;"/>
		</clipPath>
		<g transform="matrix(1 0 0 1 0 1.220703e-04)" class="st5">
			
				<image style="overflow:visible;" width="1280" height="720" xlink:href="../../../../../Documents/RISD/4_1.5/Assignment5/example2/2/2-001620.png"  transform="matrix(5.4414 0 0 5.4414 -5365.9907 -1867.293)">
			</image>
		</g>
	</g>
	<g>
		<defs>
			<path id="SVGID_49_" d="M-838.7,755.6V0h629.7v226.3h-392.7v298.8h397v230.5H-838.7z"/>
		</defs>
		<clipPath id="SVGID_4_">
			<use xlink:href="#SVGID_49_"  style="overflow:visible;"/>
		</clipPath>
		<g style="clip-path:url(#SVGID_4_);">
			<rect x="-84.1" y="377.5" class="st41" width="90.8" height="64.3"/>
			<rect x="-84.1" y="441.8" class="st38" width="90.8" height="148.1"/>
			<rect x="-84.1" y="589.9" class="st43" width="90.8" height="184.5"/>
			<rect x="-84.1" y="-6.5" class="st38" width="90.8" height="148.1"/>
			<rect x="-84.1" y="141.6" class="st43" width="90.8" height="184.5"/>
			<rect x="-928.7" y="324.6" class="st44" width="935.3" height="54.5"/>
		</g>
	</g>
	<polygon points="236.9,525.1 236.9,226.3 450.1,226.3 450.1,0 0,0 0,755.6 450.1,755.6 450.1,525.1 	"/>
	<g>
		<defs>
			<path id="SVGID_55_" d="M560.9,755.6V0h629.7v226.3H797.8v298.8h397v230.5H560.9z"/>
		</defs>
		<clipPath id="SVGID_6_">
			<use xlink:href="#SVGID_55_"  style="overflow:visible;"/>
		</clipPath>
		<g class="st8">
			<rect x="222.1" y="-77" class="st55" width="1930.3" height="1175.4"/>
			<g>
				<g>
					<path class="st56" d="M651.8,97.7V14.2h81.1v99.8c0,21-7.7,37.3-23,49c-12.9,9.7-30.9,16.1-53.8,19.4v-36.9
						c9.3-0.8,16.7-3.5,22.4-8.2c5.6-4.6,8.5-11.6,8.5-20.9V97.7H651.8z"/>
				</g>
				<g>
					<path class="st56" d="M983.3,562.2l-35.8-75.4l73.2-34.8l42.8,90.2c9,19,9.1,37,0.2,54.1c-7.5,14.3-21,27.8-40.3,40.6
						l-15.8-33.3c8-4.7,13.6-10.4,16.7-17c3.1-6.6,2.7-14.1-1.3-22.5l-8-16.9L983.3,562.2z"/>
				</g>
				<g>
					<path class="st56" d="M554.7,344.4L518.9,269l73.2-34.8l42.8,90.2c9,19,9.1,37,0.2,54.1c-7.5,14.3-21,27.8-40.3,40.6L579,385.8
						c8-4.7,13.6-10.4,16.7-17c3.1-6.6,2.7-14.1-1.3-22.5l-8-16.9L554.7,344.4z"/>
				</g>
				<g>
					<path class="st56" d="M879.6,402.3l-28.4-22.1l21.5-27.6l34,26.4c7.1,5.6,10.7,12.5,10.6,20.8c-0.1,7-2.7,14.8-7.7,23.4
						l-12.6-9.8c2.2-3.4,3.2-6.6,3.1-9.8c-0.1-3.1-1.7-5.9-4.9-8.4l-6.4-5L879.6,402.3z"/>
				</g>
				<g>
					<path class="st57" d="M684.4,556.5l26.1-125.1L832,456.8l-31.2,149.6c-6.6,31.4-23.2,53.5-49.8,66.2
						c-22.4,10.5-51.3,14.5-86.7,12.2l11.5-55.3c14.1,1.7,26.2-0.1,36.1-5.2c9.9-5.2,16.3-14.7,19.2-28.6l5.9-28.1L684.4,556.5z"/>
				</g>
				<g>
					<path class="st58" d="M852.1,735.9l3.4-83.4l81,3.3l-4.1,99.7c-0.9,21-9.2,37-25,48c-13.3,9.1-31.5,14.9-54.6,17.1l1.5-36.9
						c9.3-0.4,16.9-2.8,22.7-7.2c5.8-4.4,8.9-11.2,9.3-20.5l0.8-18.7L852.1,735.9z"/>
				</g>
				<g>
					<path class="st58" d="M863.3-45.9l53.8-106.2l103.1,52.2l-64.3,127c-13.5,26.7-33.8,42.5-60.8,47.5c-22.7,4-49.7,0.7-81-10.1
						l23.8-47c12.3,5,23.6,6.3,33.7,4c10.2-2.3,18.2-9.3,24.2-21.1l12.1-23.9L863.3-45.9z"/>
				</g>
				<g>
					<path class="st58" d="M450.3,628.9l53.8-106.2l103.1,52.2l-64.3,127c-13.5,26.7-33.8,42.5-60.8,47.5c-22.7,4-49.7,0.7-81-10.1
						l23.8-47c12.3,5,23.6,6.3,33.7,4c10.2-2.3,18.2-9.3,24.2-21.1l12.1-23.9L450.3,628.9z"/>
				</g>
				<g>
					<path class="st58" d="M859,234.7V210H883v29.5c0,6.2-2.3,11-6.8,14.5c-3.8,2.9-9.1,4.8-15.9,5.7v-10.9c2.7-0.2,4.9-1,6.6-2.4
						c1.7-1.4,2.5-3.4,2.5-6.2v-5.5H859z"/>
				</g>
				<g>
					<path class="st58" d="M619.2,497.8l-12-21.6l20.9-11.6l14.3,25.8c3,5.4,3.4,10.7,1.1,16c-1.9,4.4-5.7,8.6-11.1,12.7l-5.3-9.5
						c2.3-1.5,3.8-3.3,4.6-5.3c0.8-2,0.5-4.2-0.8-6.6l-2.7-4.8L619.2,497.8z"/>
				</g>
				<g>
					<path class="st56" d="M1182.1,732l3.1-23.3l22.6,3l-3.7,27.9c-0.8,5.9-3.5,10.1-8.2,12.8c-4,2.2-9.2,3.4-15.7,3.4l1.4-10.3
						c2.6,0.1,4.8-0.4,6.5-1.5c1.7-1.1,2.8-2.9,3.1-5.5l0.7-5.2L1182.1,732z"/>
				</g>
				<g>
					<path class="st56" d="M1148,618.7l3.1-23.3l22.6,3l-3.7,27.9c-0.8,5.9-3.5,10.1-8.2,12.8c-4,2.2-9.2,3.4-15.7,3.4l1.4-10.3
						c2.6,0.1,4.8-0.4,6.5-1.5c1.7-1.1,2.8-2.9,3.1-5.5l0.7-5.2L1148,618.7z"/>
				</g>
				<g>
					<path class="st56" d="M464.9,419.4l27.2-29.8l28.9,26.4l-32.5,35.6c-6.8,7.5-14.9,10.8-24.2,10c-7.8-0.8-16.3-4.3-25.5-10.6
						l12-13.2c3.6,2.7,7.1,4.2,10.6,4.4c3.5,0.2,6.8-1.4,9.8-4.7l6.1-6.7L464.9,419.4z"/>
				</g>
				<g>
					<path class="st57" d="M752,325.3l9.7-21.4l20.8,9.4L770.8,339c-2.4,5.4-6.3,8.7-11.6,9.9c-4.4,1-9.8,0.5-16.1-1.3l4.3-9.5
						c2.5,0.9,4.7,1,6.7,0.5c2-0.5,3.5-2,4.6-4.4l2.2-4.8L752,325.3z"/>
				</g>
				<g>
					<path class="st56" d="M1109.3,33.5l-6.2-23.9l23.2-6l7.4,28.5c1.6,6,0.6,11.2-2.9,15.7c-3,3.7-7.6,6.9-13.9,9.6l-2.8-10.5
						c2.6-0.9,4.5-2.3,5.8-4c1.3-1.7,1.6-3.9,0.9-6.6l-1.4-5.4L1109.3,33.5z"/>
				</g>
				<g>
					<path class="st57" d="M972.9,208.7l15.9-57.7l56,15.5l-19,69c-4,14.5-12.4,24.3-25.2,29.5c-10.8,4.2-24.4,5.3-40.9,3.1l7-25.5
						c6.6,1.2,12.2,0.8,17-1.4c4.8-2.1,8.1-6.4,9.8-12.8l3.6-13L972.9,208.7z"/>
				</g>
				<g>
					<path class="st57" d="M519.7,132.5l-38-46.3l44.9-36.9l45.4,55.3c9.5,11.6,12.7,24.2,9.6,37.6c-2.8,11.2-9.8,23-21,35.2
						l-16.8-20.4c4.8-4.7,7.7-9.6,8.7-14.7c1-5.1-0.6-10.3-4.8-15.4l-8.5-10.4L519.7,132.5z"/>
				</g>
				<g>
					<path class="st57" d="M1067,377.7l-16.8-57.5l55.8-16.3l20.1,68.7c4.2,14.4,2.2,27.2-6,38.3c-6.9,9.3-18,17.3-33.2,24.2
						l-7.4-25.4c6.2-2.4,10.8-5.8,13.8-10.1c3-4.3,3.5-9.7,1.6-16.1l-3.8-12.9L1067,377.7z"/>
				</g>
			</g>
		</g>
	</g>
</g>
</svg>
