<?xml version="1.0" encoding="utf-8"?>
<!-- Generator: Adobe Illustrator 19.1.0, SVG Export Plug-In . SVG Version: 6.00 Build 0)  -->
<svg version="1.1" id="Layer_1" xmlns="http://www.w3.org/2000/svg" xmlns:xlink="http://www.w3.org/1999/xlink" x="0px" y="0px"
	 viewBox="0 0 1000 612" style="enable-background:new 0 0 1000 612;" xml:space="preserve">
<style type="text/css">
	.st0{fill:#EBEBEC;}
	.st1{fill:#1D3564;}
	.st2{fill:#26B8EB;}
	.st3{fill:#FFCB05;}
	.st4{fill:#EE4035;}
	.st5{clip-path:url(#SVGID_2_);}
	.st6{fill:#FFFFFF;stroke:#FFCB05;stroke-width:7.8803;stroke-miterlimit:10;}
	.st7{fill:#FFFFFF;}
	.st8{fill:#FFFFFF;stroke:#EE4035;stroke-width:7.8803;stroke-miterlimit:10;}
	.st9{fill:#FFFFFF;stroke:#1D3564;stroke-width:7.8803;stroke-miterlimit:10;}
</style>
<rect x="-10" y="-4.5" class="st1" width="1019.9" height="621.1"/>
<g>
	<defs>
		<rect id="SVGID_1_" x="-10" y="-4.5" width="1019.9" height="621.1"/>
	</defs>
	<clipPath id="SVGID_2_">
		<use xlink:href="#SVGID_1_"  style="overflow:visible;"/>
	</clipPath>
	<g class="st5">
		<g>
			<path class="st2" d="M145.4,161.3v-59.9h58.2V173c0,15-5.5,26.8-16.5,35.2c-9.3,6.9-22.1,11.6-38.6,13.9v-26.5
				c6.7-0.6,12-2.5,16.1-5.9c4-3.3,6.1-8.3,6.1-15v-13.5H145.4z"/>
		</g>
		<g>
			<path class="st2" d="M943.5,575.2v-79.3h77v94.8c0,19.9-7.3,35.4-21.8,46.5c-12.3,9.2-29.3,15.3-51.1,18.4v-35
				c8.8-0.8,15.9-3.3,21.3-7.8c5.4-4.4,8-11,8-19.8v-17.8H943.5z"/>
		</g>
		<g>
			<path class="st2" d="M383.3,494.5l-25.7-54.1l52.5-24.9l30.7,64.7c6.5,13.6,6.5,26.5,0.2,38.8c-5.4,10.2-15,19.9-28.9,29.1
				l-11.4-23.9c5.8-3.4,9.8-7.4,12-12.2c2.2-4.7,1.9-10.1-0.9-16.1l-5.8-12.2L383.3,494.5z"/>
		</g>
		<g>
			<path class="st2" d="M75.8,338.3l-25.7-54.1l52.5-24.9l30.7,64.7c6.5,13.6,6.5,26.5,0.2,38.8c-5.4,10.2-15,19.9-28.9,29.1
				l-11.4-23.9c5.8-3.4,9.8-7.4,12-12.2c2.2-4.7,1.9-10.1-0.9-16.1l-5.8-12.2L75.8,338.3z"/>
		</g>
		<g>
			<path class="st2" d="M308.8,379.8l-20.4-15.8l15.4-19.8l24.4,18.9c5.1,4,7.6,9,7.6,14.9c-0.1,5-1.9,10.6-5.5,16.8l-9-7
				c1.6-2.4,2.3-4.8,2.3-7c-0.1-2.3-1.2-4.3-3.5-6l-4.6-3.6L308.8,379.8z"/>
		</g>
		<g>
			<path class="st2" d="M652.3,525.9l-31.9-50.7l49.2-31l38.2,60.6c8,12.7,9.6,25.6,4.8,38.5c-4.1,10.8-12.6,21.6-25.3,32.3
				l-14.1-22.4c5.3-4,8.8-8.5,10.5-13.5c1.7-5,0.7-10.3-2.8-15.9l-7.2-11.4L652.3,525.9z"/>
		</g>
		<g>
			<path class="st4" d="M749.7,237.9l-9.4-59.2l57.4-9.1l11.2,70.7c2.4,14.9-1.3,27.3-10.8,37.3c-8.1,8.3-20.1,14.9-36,19.8
				l-4.1-26.2c6.5-1.6,11.5-4.4,14.9-8.3c3.5-3.9,4.7-9.2,3.7-15.7l-2.1-13.3L749.7,237.9z"/>
		</g>
		<g>
			<path class="st4" d="M168.9,490.4l18.7-89.7l87.1,18.2l-22.4,107.3c-4.7,22.5-16.6,38.4-35.7,47.5c-16,7.5-36.8,10.4-62.2,8.7
				l8.3-39.7c10.1,1.2,18.8,0,25.9-3.8c7.1-3.7,11.7-10.6,13.8-20.5l4.2-20.2L168.9,490.4z"/>
		</g>
		<g>
			<path class="st4" d="M988.7,368.9l-53.9-74.1l72-52.4l64.5,88.6c13.5,18.6,17.3,38.1,11.2,58.4c-5.2,16.9-17,34.3-35.3,52
				l-23.8-32.8c7.7-6.7,12.6-13.9,14.6-21.7c2-7.8,0-15.8-6-24l-12.1-16.7L988.7,368.9z"/>
		</g>
		<g>
			<path class="st3" d="M593.2,306.6l40.8-43.9l42.6,39.6l-48.8,52.5c-10.2,11-22.3,15.9-36,14.5c-11.5-1.2-24.1-6.6-37.8-16.1
				l18-19.4c5.3,4.1,10.5,6.3,15.8,6.6c5.2,0.3,10.1-2,14.6-6.8l9.2-9.9L593.2,306.6z"/>
		</g>
		<g>
			<path class="st3" d="M289.1,619.1l2.5-59.8l58.1,2.4l-2.9,71.6c-0.6,15-6.6,26.5-17.9,34.4c-9.5,6.6-22.6,10.7-39.2,12.3
				l1.1-26.5c6.7-0.3,12.1-2,16.3-5.2c4.2-3.2,6.4-8.1,6.7-14.7l0.6-13.4L289.1,619.1z"/>
		</g>
		<g>
			<path class="st3" d="M297.2,58.3l38.6-76.2l74,37.5l-46.1,91.1c-9.7,19.1-24.2,30.5-43.6,34.1c-16.3,2.9-35.6,0.5-58.1-7.2
				l17.1-33.7c8.8,3.6,16.9,4.5,24.2,2.9c7.3-1.6,13.1-6.7,17.4-15.1l8.7-17.1L297.2,58.3z"/>
		</g>
		<g>
			<path class="st3" d="M0.9,542.4l38.6-76.2l74,37.5l-46.1,91.1c-9.7,19.1-24.2,30.5-43.6,34.1c-16.3,2.9-35.6,0.5-58.1-7.2
				l17.1-33.7c8.8,3.6,16.9,4.5,24.2,2.9c7.3-1.6,13.1-6.7,17.4-15.1l8.7-17.1L0.9,542.4z"/>
		</g>
		<g>
			<path class="st3" d="M765.3,420.3l22.3-86.1l83.6,21.6l-26.7,102.9c-5.6,21.6-17.9,36.4-36.8,44.4c-15.9,6.5-36.1,8.4-60.7,5.6
				l9.9-38c9.8,1.6,18.2,0.8,25.3-2.4c7.1-3.3,11.8-9.7,14.3-19.3l5-19.3L765.3,420.3z"/>
		</g>
		<g>
			<path class="st2" d="M717.3-19.8l22.3-86.1l83.6,21.6L796.5,18.7c-5.6,21.6-17.9,36.4-36.8,44.4c-15.9,6.5-36.1,8.4-60.7,5.6
				l9.9-38c9.8,1.6,18.2,0.8,25.3-2.4c7.1-3.3,11.8-9.7,14.3-19.3l5-19.3L717.3-19.8z"/>
		</g>
		<g>
			<path class="st3" d="M294.1,259.6v-17.7h17.2v21.2c0,4.4-1.6,7.9-4.9,10.4c-2.7,2.1-6.5,3.4-11.4,4.1v-7.8c2-0.2,3.5-0.7,4.7-1.7
				c1.2-1,1.8-2.5,1.8-4.4v-4H294.1z"/>
		</g>
		<g>
			<path class="st3" d="M919.6,204.1v-17.7h17.2v21.2c0,4.4-1.6,7.9-4.9,10.4c-2.7,2.1-6.5,3.4-11.4,4.1v-7.8c2-0.2,3.5-0.7,4.7-1.7
				c1.2-1,1.8-2.5,1.8-4.4v-4H919.6z"/>
		</g>
		<g>
			<path class="st3" d="M885.8,619.5v-17.7H903V623c0,4.4-1.6,7.9-4.9,10.4c-2.7,2.1-6.5,3.4-11.4,4.1v-7.8c2-0.2,3.5-0.7,4.7-1.7
				c1.2-1,1.8-2.5,1.8-4.4v-4H885.8z"/>
		</g>
		<g>
			<path class="st3" d="M77.8,54.4L60.5,20.9L92.9,4.1l20.8,40c4.4,8.4,4.7,16.5,1,24.4c-3.2,6.6-9,12.9-17.5,18.9l-7.7-14.8
				c3.5-2.3,6-4.9,7.3-7.9c1.3-3,1-6.4-1-10.1l-3.9-7.5L77.8,54.4z"/>
		</g>
		<g>
			<path class="st3" d="M122.1,448.3l-8.6-15.5l15-8.3l10.3,18.5c2.2,3.9,2.4,7.7,0.8,11.4c-1.4,3.1-4.1,6.2-8,9.1l-3.8-6.8
				c1.6-1.1,2.7-2.4,3.3-3.8c0.6-1.4,0.4-3-0.6-4.7l-1.9-3.5L122.1,448.3z"/>
		</g>
		<g>
			<path class="st3" d="M655,118.2l-10.2-14.5l14.1-9.9l12.2,17.3c2.6,3.6,3.2,7.4,2,11.3c-1.1,3.3-3.4,6.6-7,9.9l-4.5-6.4
				c1.5-1.3,2.5-2.6,2.9-4.1c0.4-1.5,0.1-3-1.1-4.7l-2.3-3.3L655,118.2z"/>
		</g>
		<g>
			<path class="st3" d="M571.7,496.9l-10.2-14.5l14.1-9.9l12.2,17.3c2.6,3.6,3.2,7.4,2,11.3c-1.1,3.3-3.4,6.6-7,9.9l-4.5-6.4
				c1.5-1.3,2.5-2.6,2.9-4.1c0.4-1.5,0.1-3-1.1-4.7l-2.3-3.3L571.7,496.9z"/>
		</g>
		<g>
			<path class="st2" d="M543.9,216.2l2.2-16.7l16.2,2.1l-2.6,20c-0.6,4.2-2.5,7.3-5.9,9.2c-2.8,1.6-6.6,2.4-11.3,2.5l1-7.4
				c1.9,0.1,3.4-0.3,4.7-1c1.3-0.8,2-2.1,2.2-4l0.5-3.8L543.9,216.2z"/>
		</g>
		<g>
			<path class="st2" d="M862.6,277.4l2.2-16.7l16.2,2.1l-2.6,20c-0.6,4.2-2.5,7.3-5.9,9.2c-2.8,1.6-6.6,2.4-11.3,2.5l1-7.4
				c1.9,0.1,3.4-0.3,4.7-1c1.3-0.8,2-2.1,2.2-4l0.5-3.8L862.6,277.4z"/>
		</g>
		<g>
			<path class="st2" d="M525.9,616.4l2.2-16.7l16.2,2.1l-2.6,20c-0.6,4.2-2.5,7.3-5.9,9.2c-2.8,1.6-6.6,2.4-11.3,2.5l1-7.4
				c1.9,0.1,3.4-0.3,4.7-1c1.3-0.8,2-2.1,2.2-4l0.5-3.8L525.9,616.4z"/>
		</g>
		<g>
			<path class="st2" d="M501.4,535l2.2-16.7l16.2,2.1l-2.6,20c-0.6,4.2-2.5,7.3-5.9,9.2c-2.8,1.6-6.6,2.4-11.3,2.5l1-7.4
				c1.9,0.1,3.4-0.3,4.7-1c1.3-0.8,2-2.1,2.2-4l0.5-3.8L501.4,535z"/>
		</g>
		<g>
			<path class="st2" d="M955.4,421.9l2.2-16.7l16.2,2.1l-2.6,20c-0.6,4.2-2.5,7.3-5.9,9.2c-2.8,1.6-6.6,2.4-11.3,2.5l1-7.4
				c1.9,0.1,3.4-0.3,4.7-1c1.3-0.8,2-2.1,2.2-4l0.5-3.8L955.4,421.9z"/>
		</g>
		<g>
			<path class="st2" d="M11.4,392.1l19.5-21.4l20.7,19l-23.3,25.5c-4.9,5.4-10.7,7.8-17.3,7.2c-5.6-0.5-11.7-3.1-18.3-7.6l8.6-9.4
				c2.6,2,5.1,3,7.6,3.1c2.5,0.1,4.9-1,7-3.4l4.4-4.8L11.4,392.1z"/>
		</g>
		<g>
			<path class="st4" d="M217.3,324.6l7-15.4l14.9,6.8l-8.3,18.4c-1.8,3.9-4.5,6.2-8.3,7.1c-3.2,0.7-7,0.4-11.5-0.9l3.1-6.8
				c1.8,0.6,3.4,0.8,4.8,0.4c1.4-0.4,2.5-1.4,3.3-3.1l1.6-3.4L217.3,324.6z"/>
		</g>
		<g>
			<path class="st4" d="M895.2,33.9l7-15.4l14.9,6.8l-8.3,18.4c-1.8,3.9-4.5,6.2-8.3,7.1c-3.2,0.7-7,0.4-11.5-0.9L892,43
				c1.8,0.6,3.4,0.8,4.8,0.4c1.4-0.4,2.5-1.4,3.3-3.1l1.6-3.4L895.2,33.9z"/>
		</g>
		<g>
			<path class="st4" d="M889.9,469.5l-8.7-14.4l14-8.4l10.4,17.3c2.2,3.6,2.6,7.3,1.1,10.9c-1.2,3-3.7,6-7.3,9l-3.8-6.4
				c1.5-1.1,2.5-2.4,3-3.7c0.5-1.4,0.3-2.9-0.7-4.5l-2-3.2L889.9,469.5z"/>
		</g>
		<g>
			<path class="st4" d="M753.3,558.4l7-15.4l14.9,6.8l-8.3,18.4c-1.8,3.9-4.5,6.2-8.3,7.1c-3.2,0.7-7,0.4-11.5-0.9l3.1-6.8
				c1.8,0.6,3.4,0.8,4.8,0.4c1.4-0.4,2.5-1.4,3.3-3.1l1.6-3.4L753.3,558.4z"/>
		</g>
		<g>
			<path class="st2" d="M473.7,115.3l-4.5-17.1l16.6-4.3l5.3,20.5c1.1,4.3,0.4,8.1-2.1,11.3c-2.1,2.7-5.5,5-10,6.9l-2-7.6
				c1.9-0.7,3.2-1.6,4.2-2.9c0.9-1.3,1.1-2.8,0.6-4.7l-1-3.8L473.7,115.3z"/>
		</g>
		<g>
			<path class="st2" d="M823.3,115.3l-4.5-17.1l16.6-4.3l5.3,20.5c1.1,4.3,0.4,8.1-2.1,11.3c-2.1,2.7-5.5,5-10,6.9l-2-7.6
				c1.9-0.7,3.2-1.6,4.2-2.9c0.9-1.3,1.1-2.8,0.6-4.7l-1-3.8L823.3,115.3z"/>
		</g>
		<g>
			<path class="st4" d="M375.8,240.9l11.4-41.4l40.2,11.1l-13.7,49.5c-2.9,10.4-8.9,17.5-18.1,21.2c-7.7,3-17.5,3.8-29.3,2.2l5-18.3
				c4.7,0.9,8.8,0.5,12.2-1c3.4-1.5,5.8-4.6,7.1-9.2l2.6-9.3L375.8,240.9z"/>
		</g>
		<g>
			<path class="st4" d="M50.7,186.3l-27.2-33.2l32.2-26.5l32.6,39.7c6.8,8.3,9.1,17.3,6.9,27c-2,8.1-7,16.5-15.1,25.3l-12-14.7
				c3.4-3.3,5.5-6.9,6.2-10.6c0.7-3.7-0.4-7.4-3.4-11.1l-6.1-7.5L50.7,186.3z"/>
		</g>
		<g>
			<path class="st4" d="M443.3,362.2l-12-41.2l40-11.7l14.4,49.3c3,10.4,1.6,19.5-4.3,27.5c-5,6.6-12.9,12.4-23.8,17.3l-5.3-18.2
				c4.5-1.7,7.8-4.2,9.9-7.3c2.1-3.1,2.5-6.9,1.2-11.5l-2.7-9.3L443.3,362.2z"/>
		</g>
		<g>
			<path class="st4" d="M546.4,9.9l-12-41.2l40-11.7l14.4,49.3c3,10.4,1.6,19.5-4.3,27.5c-5,6.6-12.9,12.4-23.8,17.3l-5.3-18.2
				c4.5-1.7,7.8-4.2,9.9-7.3c2.1-3.1,2.5-6.9,1.2-11.5l-2.7-9.3L546.4,9.9z"/>
		</g>
		<g>
			<path class="st4" d="M966.1,99.7l-12-41.2l40-11.7l14.4,49.3c3,10.4,1.6,19.5-4.3,27.5c-5,6.6-12.9,12.4-23.8,17.3l-5.3-18.2
				c4.5-1.7,7.8-4.2,9.9-7.3c2.1-3.1,2.5-6.9,1.2-11.5l-2.7-9.3L966.1,99.7z"/>
		</g>
	</g>
</g>
</svg>
