<?xml version="1.0" encoding="utf-8"?>
<!-- Generator: Adobe Illustrator 19.1.0, SVG Export Plug-In . SVG Version: 6.00 Build 0)  -->
<svg version="1.1" xmlns="http://www.w3.org/2000/svg" xmlns:xlink="http://www.w3.org/1999/xlink" x="0px" y="0px"
	 viewBox="0 0 1194.9 755.6" style="enable-background:new 0 0 1194.9 755.6;" xml:space="preserve">
<style type="text/css">
	.st0{display:none;}
	.st1{display:inline;}
	.st2{display:inline;fill:none;}
	.st3{fill:#FFE400;}
	.st4{fill:#00A651;}
	.st5{clip-path:url(#SVGID_2_);}
	.st6{fill:#FFFFFF;}
	.st7{fill:#DF4954;}
	.st8{clip-path:url(#SVGID_6_);}
	.st9{clip-path:url(#SVGID_8_);}
	.st10{fill:#FFDC00;}
	.st11{fill:#2FB44A;}
	.st12{fill:#FBAC1F;}
	.st13{fill:#ECD1E5;}
	.st14{fill:none;}
	.st15{clip-path:url(#SVGID_10_);}
	.st16{fill:#FEE5D9;}
	.st17{opacity:0.1;}
	.st18{clip-path:url(#SVGID_12_);}
	.st19{fill:#36C2D9;stroke:#FFFFFF;stroke-width:18.6054;stroke-miterlimit:10;}
	.st20{fill:none;stroke:#FFFFFF;stroke-width:14.6002;stroke-linecap:round;stroke-miterlimit:10;}
	.st21{clip-path:url(#SVGID_16_);}
	.st22{fill:#F9D019;}
	.st23{clip-path:url(#SVGID_22_);}
	.st24{clip-path:url(#SVGID_28_);}
	.st25{fill:#E2542D;}
	.st26{fill:#41803C;}
	.st27{fill:#010101;}
	.st28{opacity:0.34;}
	.st29{fill:#C4DDEA;}
	.st30{clip-path:url(#SVGID_36_);fill:#C4DDEA;}
</style>
<g id="Layer_1" class="st0">
</g>
<g id="d_x5F_1">
</g>
<g id="d_x5F_2">
</g>
<g id="TT">
	<g>
		<defs>
			<path id="SVGID_5_" d="M560.9-1210.6v-755.6h629.7v226.3H797.8v298.8h397v230.5H560.9z"/>
		</defs>
		<clipPath id="SVGID_2_">
			<use xlink:href="#SVGID_5_"  style="overflow:visible;"/>
		</clipPath>
		<g class="st5">
			<defs>
				<rect id="SVGID_7_" x="478.1" y="-2263.4" width="1126" height="1800.8"/>
			</defs>
			<clipPath id="SVGID_4_">
				<use xlink:href="#SVGID_7_"  style="overflow:visible;"/>
			</clipPath>
			<g style="clip-path:url(#SVGID_4_);">
				<path class="st11" d="M800.3-553.6l182-257.9c70.1-99.3-30.2-229.5-144.1-187.2L496.8-871.9c-64,23.8-96.6,95-72.8,159
					L689.3,1.2c23.8,64,95,96.6,159,72.8l339.1-126c114.1-42.4,104.7-206.9-13.5-236l-302.1-74.4
					C787.2-383.1,750.1-482.5,800.3-553.6z"/>
				<path class="st13" d="M839.6-656.8l-9.7-2.1c-309-66.4-518.4,306.1-301,535.5l99.3,104.8c122.1,128.9,325.7,134.4,454.6,12.3
					L1858-740.8c128.9-122.1,134.4-325.7,12.3-454.6l-94.9-100.1c-217.8-229.9-601.7-39.7-550.8,272.8l0,0
					C1260.9-799.2,1061-609.2,839.6-656.8z"/>
			</g>
		</g>
	</g>
	<g>
		<defs>
			<path id="SVGID_21_" d="M560.9-212.9v-755.6h629.7v226.3H797.8v298.8h397v230.5H560.9z"/>
		</defs>
		<clipPath id="SVGID_6_">
			<use xlink:href="#SVGID_21_"  style="overflow:visible;"/>
		</clipPath>
		<g class="st8">
			<defs>
				
					<rect id="SVGID_23_" x="245.7" y="-1735.2" transform="matrix(-0.9967 -8.128673e-02 8.128673e-02 -0.9967 3071.5857 -1565.5819)" width="2516.5" height="1779.7"/>
			</defs>
			<clipPath id="SVGID_8_">
				<use xlink:href="#SVGID_23_"  style="overflow:visible;"/>
			</clipPath>
			<g transform="matrix(1 0 0 1 0 1.220703e-04)" class="st9">
				
					<image style="overflow:visible;" width="444" height="314" xlink:href="82C6942B7134BD1.png"  transform="matrix(5.6491 0.4607 -0.4607 5.6491 322.1644 -1834.4977)">
				</image>
			</g>
		</g>
	</g>
	<g>
		<path class="st29" d="M560.9,755.6V0h629.7v226.3H797.8v298.8h397v230.5H560.9z"/>
	</g>
	<polygon points="236.9,525.1 236.9,226.3 450.1,226.3 450.1,0 0,0 0,755.6 450.1,755.6 450.1,525.1 	"/>
	<g>
		<defs>
			<path id="SVGID_35_" d="M560.9,755.6V0h629.7v226.3H797.8v298.8h397v230.5H560.9z"/>
		</defs>
		<clipPath id="SVGID_10_">
			<use xlink:href="#SVGID_35_"  style="overflow:visible;"/>
		</clipPath>
		<path style="clip-path:url(#SVGID_10_);fill:#C4DDEA;" d="M450.4,91.7l-10.2,30.2c0,0-37.1-28.6-17.2-61.3
			c14.5-23.9,51.9-27.9,76.7-29.6c22.4-1.5,45-0.2,67.3,2.4c22,2.6,51.2,15.2,72.9,11.3c5.6-1,10.7-3.5,16-5.6
			C723.1,12.3,862,60.3,837.5,151.6c-8.9,33.1-51.5,67.4-80.2,83.2c-27.8,15.3-71.6,12.7-80.2,50.4c0,0,75.2,10.8,95.4-10.1
			c20.2-20.9,120.4-122.9,196.1-126.5s163.5,39.2,168.3,51s-13.3,39.3-28.2,44.5c-14.9,5.2-30.5-30.8-50.2-28.7
			c-19.7,2.1-27.2,15.6-28.1,22.6s35.3,25.1,34.4,40.9c-0.9,15.7-20.7,26.6-29.9,23.5s-27-23.7-36.6-25.5
			c-9.6-1.8-24.1,2.1-21.5,11.7c2.6,9.6,33.1,31.6,34,37.8s-27.3,37.5-35.2,34.9c-7.9-2.7-40.5-40-44.9-35.6s-16.7,19.2,7.3,34.6
			c24,15.4,42.7,33.4,117-26.2s154.6-38.3,165.5-31.7c10.9,6.6-2,49-6.4,57.7c-4.4,8.7-28.9-5.4-51.6-7.2
			c-22.7-1.8-23.2-0.5-27.6,12.6c-4.4,13.1,44.1,20.8,56.3,27.8c12.2,7.1,10.7,44.5-3.3,45.6c-14,1.1-56.8-23.6-64.7-17.5
			c-7.9,6.1-18.9,25.7-12.8,33.6s41.1,12.4,50.2,24.3c9.1,11.9-7.2,42.9-14.6,43.3s-49.4-18.2-59.9-12.9
			c-10.5,5.2-20.2,25.3-14.1,33.2c6.1,7.9,46.7,17.3,52,27.8c5.2,10.5,2,41.6-12.9,46.8c-14.9,5.2-35.3-25.1-47.2-16
			c-11.9,9.1-16.8,32.3-8.9,35s41.1,8.1,45.9,15.5c4.8,7.5-7.3,60.4-16,64.7s-91.2-54.2-115-126.5c-23.8-72.3-29.9-80.2-43.4-79
			c-13.6,1.3-39,2.9-35.5,9.9s27.7,69.3,23.7,81.1c-4,11.8-27.3,46.3-27.9,78.2s-12.7,102.3-31.2,122.4c0,0-10.3-56.1-33-71
			c0,0-29.5,39.7-34.8,55.4c-5.3,15.7-16.7,6.1-15.2-24.1c1.4-30.2,13.3-39.3-0.7-45.5c-14-6.2-35.6,44.9-46.2,50.1
			c-10.5,5.2-15.8-82.8,6.6-105.9c22.4-23.1,68.9-39.5,71.6-60.5c2.7-21,2.5-80.9,2.5-80.9l-53.8-0.7c0,0-5.4,37.6-12.4,45.5
			c-7,7.8-73.3,61.4-102.1,129.1c-28.7,67.7-40.4,41.8-41.7,19.5c-1.2-22.3,2-53.4-6.8-53.4c-8.8,0-32.6,53.2-44.9,50.6
			s-0.6-71.8-14.1-74.9c-13.6-3.1-16.1,73.7-29.6,66.1c-13.5-7.6-3.4-119.6,29.5-139.1s69.7-33.4,99.5-43.8
			c29.8-10.4,41.7-28.3,26.4-43.6c-15.3-15.4-111.6-97.6-107.5-140.1c4.1-42.4,21.8-94.9,95.1-125.6c0,0,21.1-14.8,11.5-25.3
			c-9.6-10.5-65,45.2-125.7,21.8S450.4,91.7,450.4,91.7z"/>
	</g>
</g>
</svg>
