<?xml version="1.0" encoding="utf-8"?>
<!-- Generator: Adobe Illustrator 19.1.0, SVG Export Plug-In . SVG Version: 6.00 Build 0)  -->
<svg version="1.1" id="Layer_1" xmlns="http://www.w3.org/2000/svg" xmlns:xlink="http://www.w3.org/1999/xlink" x="0px" y="0px"
	 viewBox="0 0 1000 612" style="enable-background:new 0 0 1000 612;" xml:space="preserve">
<style type="text/css">
	.st0{fill:#E0E1E2;}
	.st1{fill:#685F48;}
	.st2{clip-path:url(#SVGID_2_);}
	.st3{fill:#B09E7A;}
	.st4{fill:#958768;}
	.st5{opacity:0.5;fill:#C5DDE9;}
	.st6{fill:#C5DDE9;}
	.st7{fill:#9FB3BE;}
</style>
<rect x="-5.2" y="-9.7" class="st1" width="1010.4" height="631.5"/>
<g>
	<defs>
		<rect id="SVGID_1_" x="-5.2" y="-9.7" width="1010.4" height="631.5"/>
	</defs>
	<clipPath id="SVGID_2_">
		<use xlink:href="#SVGID_1_"  style="overflow:visible;"/>
	</clipPath>
	<g class="st2">
		<g>
			<g>
				<line class="st3" x1="377.4" y1="194.1" x2="377.4" y2="183.9"/>
				<line class="st3" x1="373.7" y1="192.6" x2="381" y2="185.4"/>
				<line class="st3" x1="381" y1="192.6" x2="373.7" y2="185.4"/>
			</g>
			<g>
				<path class="st3" d="M430,286.9c-2.3-2.6-9.9-1.8-12.8-1.4c-2-5.5-3.9-9.7-5-12.1c-1.8,0.8-3.8,1.7-6,2.7
					c5.4,11.8,26,61.9-8.3,77.7l0,0c0,0,0,0-0.1,0c0,0,0,0-0.1,0l0,0c-34.4,15.6-58.8-32.8-64.2-44.6c-2.2,1-4.2,1.9-6,2.7
					c1,2.3,3,6.6,5.9,11.7c-2.2,1.9-7.9,7.2-7.4,10.6c0.6,4.3,11.2,21.6,14.4,22.3c2.3,0.5,10.7-2.1,15.3-3.7
					c12.1,10.8,27.6,17.3,45.6,9.1l0,0c0,0,0,0,0.1,0c0,0,0,0,0.1,0l0,0c18-8.3,23.2-24.2,23-40.4c4.2-2.5,11.7-7.2,12.8-9.2
					C439,309.5,432.8,290.1,430,286.9z"/>
				<path class="st3" d="M406.4,257.9c-1.8-1.7-3.7-3.5-5.7-5.2c-6.5-5.8-13.8-11.3-22.2-12.6c-5.1-0.8-9.5,1.3-11.9,5.9
					c-1.5,3-2.6,6.6-2.7,10c0,0.5,0.2,5.9,0.8,5.8c0,0-4.3,0.9-6.7,2c-2.9,1.3-5.5,2.8-8,4.7c0.5-0.3-3.5-4.1-3.9-4.4
					c-2.7-2.1-6.1-3.7-9.4-4.5c-5.1-1.2-9.5,0.7-12.3,5.1c-4.7,7.5-4.9,16.6-4.8,25.3c0.1,4.1,0,8.2,0,12.3c0,1.3,1,12.9,1,12.9
					s2.8-1.3,7-3.2c1.8-0.8,3.8-1.7,6-2.7c14.5-6.6,36.1-16.5,36.2-16.6l0.1-0.1c0.2-0.1,21.7-9.9,36.2-16.6c2.2-1,4.2-1.9,6-2.7
					c4.2-1.9,7-3.2,7-3.2C419.2,270.2,407.6,259,406.4,257.9z"/>
				<g>
					<g>
						
							<ellipse transform="matrix(0.9096 -0.4155 0.4155 0.9096 -87.6021 191.9327)" class="st3" cx="397.2" cy="297.2" rx="7" ry="3"/>
						
							<ellipse transform="matrix(0.9096 -0.4155 0.4155 0.9096 -99.2995 176.3136)" class="st3" cx="355.5" cy="316.3" rx="7" ry="3"/>
					</g>
				</g>
				
					<rect x="382.9" y="336.8" transform="matrix(0.9096 -0.4155 0.4155 0.9096 -105.6012 193.2227)" class="st3" width="16.6" height="4.8"/>
				<polygon class="st3" points="394.9,327.5 379.8,334.4 379.7,327.1 389.5,322.6 				"/>
			</g>
			<g>
				<path class="st3" d="M713.3,478c-0.2-5-9.6-10.8-13.3-13c2.6-8,4.2-14.5,5.1-18.1c-2.7-0.7-5.8-1.4-9.2-2.2
					c-4.3,18.1-25.6,93.1-78.4,80.4l0,0c0,0-0.1,0-0.1,0c0,0-0.1,0-0.1,0l0,0c-52.7-12.9-37.4-89.3-32.9-107.4
					c-3.4-0.8-6.5-1.6-9.2-2.2c-0.9,3.6-2.4,10.1-3.7,18.4c-4.3,0.2-15.3,1.2-17.7,5.5c-3.1,5.4-6.5,34.3-3.5,37.9
					c2.2,2.6,14,7.1,20.6,9.5c4.1,22.9,15.9,44,43.5,50.8l0,0c0,0,0.1,0,0.1,0c0,0,0.1,0,0.1,0l0,0c27.7,6.6,47.8-6.7,61.9-25.3
					c6.9,0.9,19.5,2.3,22.6,1C703.4,511.5,713.6,484.2,713.3,478z"/>
				<path class="st3" d="M712.3,424.3c-0.6-3.5-1.1-7.2-1.8-10.9c-2.2-12.3-5.6-25-13.9-33.9c-5.1-5.4-11.8-7-18.7-3.9
					c-4.4,2-8.7,5.2-12,8.9c-0.4,0.5-5,6.9-4.3,7.2c0,0-5.6-2.7-9.3-3.6c-4.4-1.1-8.7-1.7-13.2-1.8c0.8,0-0.3-7.7-0.5-8.4
					c-1.2-4.8-3.6-9.7-6.6-13.4c-4.7-5.9-11.4-7.6-18.4-5.1c-12,4.3-20.3,14.4-27.8,24.3c-3.6,4.7-7.3,9.3-11,13.8
					c-1.1,1.4-10.4,15.4-10.4,15.4s4.2,1,10.7,2.6c2.7,0.7,5.8,1.4,9.2,2.2c22.3,5.4,55.4,13.4,55.7,13.5l0.2,0
					c0.3,0.1,33.4,8.1,55.7,13.5c3.4,0.8,6.5,1.6,9.2,2.2c6.4,1.6,10.7,2.6,10.7,2.6C715.9,449.6,712.7,426.6,712.3,424.3z"/>
				<g>
					<g>
						
							<ellipse transform="matrix(0.9719 0.2352 -0.2352 0.9719 127.0439 -143.9568)" class="st3" cx="667" cy="460.6" rx="10.1" ry="4.4"/>
						
							<ellipse transform="matrix(0.9719 0.2352 -0.2352 0.9719 121.5975 -129.316)" class="st3" cx="602.9" cy="445.1" rx="10.1" ry="4.4"/>
					</g>
				</g>
				
					<rect x="611" y="499.2" transform="matrix(0.9719 0.2352 -0.2352 0.9719 135.71 -132.3995)" class="st3" width="23.8" height="6.9"/>
				<polygon class="st3" points="637.5,492.8 614.4,487.2 620.7,478.7 635.8,482.4 				"/>
			</g>
			<path class="st3" d="M486.7,184.7c-0.2,0-0.4-0.1-0.6-0.1c-1,0-2,0.3-3,0.5c-2.1,0.4-4.5,0.2-6.3-0.9c-2.2-1.3-2.5-3.6-2-6
				c2.1-10.3,14.9-3,13.3,0.2c0,0,16.9-11.8,25.9-6.3c9,5.5,8.3,17.7-0.3,22c0,0,12.8,8.5,12.9,17s-4.8,13.4-10.9,20.5
				c-6.1,7.2-13.3,14.8-13.3,14.8s5.5,8.9,4.8,10.5c-0.7,1.6-3.5-2.9-3.5-2.9s0.9,3.7-0.5,3.7c-1.4,0-3.5-4.2-3.5-4.2
				s0.7,4.2-0.9,4.7s-4.1-4.7-4.1-4.7s-1.4,3.7-3.6,4c-2.3,0.2-8.3-9.9-8.3-9.9l2-5.8l-13.6,0.9c0,0,2.6,7.9,2.4,9.5
				s-1.1,6.2-2.6,6.4c-1.5,0.2-3.3-5.4-3.3-5.4s-0.6,5.2-3,5.4s-3.2-5.9-3.2-5.9s-2.2,5.2-3.5,5.3c-1.3,0.1-2-4.7-2-4.7
				s-2.1,3.9-4.3,4.2c-2.1,0.2-0.6-5.2,0-9.3c0.6-4.1,0.2-10.6-5.9-12.5c-6.2-1.9-23.2-9-32.6-22.6c-9.4-13.6-13.4-42.7,2.5-62.5
				s31.8-25.4,39.9-26.9c8.1-1.5,47.4-8.7,55.9-1.4l0.6,6.4c0,0-38.7-5.1-51.3,3.3s29.8-4.5,51.6-0.7l0.8,10c0,0-40.9-6.3-48.1,1.3
				c-7.2,7.7,48.5,1.1,48.5,1.1l1,9.1c0,0-43.2-1.9-47.2,3c-4,4.9,47.5,0.5,47.5,0.5l1.3,11.4c0,0-44-4.5-56.6,10.4
				c-7.3,8.5-3.1,22.2,6.3,27.2c8.2,4.4,17.1,0.3,22.8-6.2c-2.5,2.8-7.9,3.1-10.2-0.3c-1.3-1.9-1.4-4.4,0-6.5
				c1.1-1.7,3.5-1.9,5.5-1.8c0.6,0,1.3,0.1,1.9-0.2c0.4-0.2,0.7-0.4,1-0.7c1.1-1,2.3-2.4,1.7-3.8
				C488.3,185.4,487.5,184.9,486.7,184.7z"/>
			<path class="st3" d="M160.5,220.7c0.1-0.2,0.1-0.4,0.1-0.6c0.1-1-0.2-2-0.3-3c-0.3-2.1,0.1-4.5,1.3-6.2c1.5-2.1,3.7-2.2,6.1-1.6
				c10.1,2.7,2.1,15.1-1,13.2c0,0,10.7,17.6,4.6,26.2c-6.1,8.6-18.2,7.1-22-1.7c0,0-9.3,12.2-17.8,11.8s-13-5.6-19.8-12.1
				c-6.8-6.5-13.9-14.2-13.9-14.2s-9.3,4.9-10.8,4.1c-1.6-0.8,3.1-3.3,3.1-3.3s-3.7,0.7-3.6-0.7c0.1-1.4,4.5-3.2,4.5-3.2
				s-4.3,0.4-4.7-1.2c-0.4-1.6,4.9-3.8,4.9-3.8s-3.6-1.6-3.7-3.9s10.4-7.7,10.4-7.7l5.7,2.4l0-13.7c0,0-8,2.1-9.7,1.8
				c-1.7-0.3-6.1-1.5-6.2-3s5.6-2.9,5.6-2.9s-5.1-0.9-5.2-3.3c-0.1-2.4,6.1-2.8,6.1-2.8s-5.1-2.6-5.1-3.8c-0.1-1.3,4.9-1.7,4.9-1.7
				s-3.8-2.4-3.9-4.5c-0.1-2.1,5.2-0.2,9.3,0.6c4.1,0.8,10.5,0.9,12.8-5.1c2.3-6.1,10.5-22.6,24.7-31.1c14.2-8.5,43.4-10.7,62.2,6.4
				s23.3,33.4,24.3,41.6c1,8.2,5.7,47.8-2.2,55.9l-6.4,0.2c0,0,7.5-38.3,0-51.4c-7.6-13.1,2.6,30-2.6,51.5l-10,0.2
				c0,0,8.9-40.4,1.8-48.1c-7.2-7.7-4.2,48.3-4.2,48.3l-9.1,0.4c0,0,4.6-43,0-47.3c-4.6-4.3-3.6,47.4-3.6,47.4l-11.5,0.5
				c0,0,7.3-43.6-6.8-57.2c-8.1-7.8-21.9-4.5-27.6,4.6c-4.9,7.9-1.4,17.1,4.7,23.2c-2.6-2.6-2.6-8.1,0.9-10.2c2-1.2,4.4-1.1,6.5,0.4
				c1.7,1.2,1.7,3.6,1.5,5.6c-0.1,0.6-0.2,1.3,0,1.9c0.1,0.4,0.4,0.7,0.6,1c0.9,1.2,2.3,2.4,3.7,1.9
				C159.8,222.2,160.3,221.5,160.5,220.7z"/>
			<path class="st3" d="M427.8,476.3c-0.1-0.2-0.3-0.4-0.5-0.5c-0.9-0.8-2-1.3-3-1.8c-2.1-1.2-4-3.1-4.8-5.5
				c-0.9-2.8,0.5-4.9,2.7-6.7c9.4-7.4,15.2,8.5,11.4,10c0,0,23.4,2.3,27.2,13.8s-5.9,21.5-16.6,18.9c0,0,4.7,16.9-1.4,24.4
				s-14.1,8.1-24.7,9.8c-10.6,1.7-22.5,3-22.5,3s-1.8,11.9-3.6,12.7s-0.8-5.1-0.8-5.1s-1.9,3.9-3.1,2.8c-1.2-1.1,0.1-6.3,0.1-6.3
				s-2.5,4.2-4.3,3.4c-1.8-0.7-0.1-7.1-0.1-7.1s-4,2.2-6.1,0.7c-2.1-1.5,0.1-14.8,0.1-14.8l6.1-3.5l-12.5-9.4c0,0-3.5,8.8-5,10.1
				s-5.6,4.6-7,3.6c-1.4-1,1.2-7.1,1.2-7.1s-4.3,4-6.6,2.5s1.6-7.5,1.6-7.5s-5.8,2.9-7,2s1.7-5.6,1.7-5.6s-4.8,1.8-6.8,0.4
				c-2-1.4,3.3-4.9,6.9-8.1c3.6-3.2,8.1-9,4.1-15.2c-4-6.2-13.5-25.1-11.5-43.9s20-47,48.6-52.4s46.5,1.6,54.7,6.3
				s47.6,27.6,49.6,40.3l-4.3,6c0,0-29.9-33.2-47-35.2s29.2,18.2,45.3,37.7l-6.7,9.3c0,0-30.8-35.9-42.7-34.6s41.3,36.9,41.3,36.9
				l-5.9,8.6c0,0-36.1-33.7-43.3-32.5c-7.1,1.2,40.9,35.8,40.9,35.8l-7.4,10.9c0,0-34.9-36.6-56.9-33c-12.7,2-19.1,17-14.7,28.4
				c3.8,9.9,14.6,13,24.4,11.6c-4.2,0.6-9.2-3.1-8.7-7.8c0.3-2.6,2.1-4.8,4.8-5.6c2.2-0.7,4.5,0.9,6.2,2.5c0.5,0.5,1,1,1.7,1.2
				c0.4,0.1,0.9,0.2,1.4,0.2c1.7,0,3.8-0.4,4.3-2.1C428.7,478,428.4,477.1,427.8,476.3z"/>
			<path class="st3" d="M546.6,240.3l1.6,6.4c0,0-9.6-0.9-9.8-8.8c-0.1-5.8,5.9-10.6,10.1-13.7c3.7-2.7,7.8-5,12-7
				c4.1-2,10.6-3,13.9-6.1c0.9-0.8,1.5-1.8,2.2-2.8c8.7-12.1,38.2-19.1,44.1-0.5c2.1,6.7-1.5,17.5-4.7,23.4
				c-3.1,5.7-11.1,10.1-8.4,17.7c0,0,14.3-6.5,15.5-12.3c1.2-5.9,7.3-34.7,20.1-43.8c12.8-9,32.8-11.3,35-9.8c2.1,1.5,2,8.3,0,10.9
				c-2,2.6-8.7-2-11.9,0.6c-3.2,2.6-3,5.7-2.4,7.1c0.6,1.3,8.9,0.5,10.5,3.3s-0.7,6.9-2.6,7.4c-1.9,0.5-7.3-1.1-9.2-0.4
				c-1.9,0.8-4,3-2.4,4.4c1.5,1.4,9.3,1.8,10.1,2.8c0.8,1-0.6,9.6-2.3,10c-1.7,0.4-11.5-2.5-11.8-1.2c-0.3,1.2-0.8,5.2,5.1,5.2
				c5.9,0,11.1,1.1,17.5-17.5s22.7-23.8,25.3-23.9s5.1,8.7,5.3,10.8c0.2,2-5.6,2.3-9.8,4.5c-4.2,2.2-4.1,2.5-3.4,5.3
				c0.7,2.8,10-1.3,12.9-1.4c2.9-0.1,6.8,6.6,4.5,8.3c-2.3,1.7-12.5,2.2-13.2,4.1c-0.7,1.9-0.4,6.6,1.5,7.3
				c1.9,0.7,8.5-2.4,11.4-1.3c2.9,1.1,3.5,8.3,2.2,9.2s-10.6,2.3-11.9,4.4s-0.7,6.6,1.2,7.3c1.9,0.7,10.1-2.2,12.1-0.9
				c2.1,1.3,5,7,2.9,9.6c-2,2.6-8.9-0.5-10,2.5s0.7,7.5,2.3,7.1c1.7-0.4,8-3.2,9.7-2.4c1.7,0.8,5.4,11.3,4.4,13s-21.9,0.7-34-9.3
				c-12.2-10-14.1-10.7-16.3-8.9s-6.5,4.8-5.1,5.7c1.4,0.8,12.5,9,13.1,11.5c0.6,2.5,0.4,11.1,3.8,16.7c3.4,5.6,9.1,19.2,8.1,24.8
				c0,0-8-8.6-13.6-8.7c0,0-0.7,10.2,0.1,13.5c0.8,3.3-2.2,2.9-5.3-2.5c-3.1-5.4-2-8.3-5.2-7.8c-3.1,0.5-1.2,11.8-2.5,13.8
				c-1.3,2.1-11.9-12.7-10.6-19.2c1.3-6.5,7.6-14.5,5.8-18.5c-1.9-4-8.5-14.4-8.5-14.4l-9.4,5.9c0,0,3.2,7.1,2.9,9.3
				c-0.4,2.1-6,18.8-3.5,33.8c2.5,15-2.4,11.8-5.1,8c-2.7-3.8-5.6-9.5-7.1-8.5c-1.5,1,0.2,12.9-2.2,13.8
				c-2.4,0.9-8.1-12.4-10.8-11.5c-2.7,1,5.4,14.6,2.2,14.8s-13.8-20.4-10.3-27.5c3.6-7.1,8.4-13.5,12.5-18.7c4-5.1,4.1-9.5-0.2-10.5
				s-30.3-4.6-34.2-12.5c-4-7.8-6.7-18.9,2.6-32.4c0,0,2-4.9-0.8-5.7c-2.8-0.8-6.3,15.1-19.5,17.7S546.6,240.3,546.6,240.3z"/>
			<path class="st3" d="M239.6,166.9l1.1,4.7c0,0-7-0.6-7.1-6.4c-0.1-4.2,4.3-7.7,7.3-10c2.7-2,5.7-3.7,8.7-5.1
				c3-1.4,7.7-2.2,10.2-4.5c0.6-0.6,1.1-1.3,1.6-2c6.4-8.8,27.9-14,32.2-0.4c1.5,4.9-1.1,12.7-3.5,17c-2.3,4.2-8.1,7.4-6.1,12.9
				c0,0,10.4-4.7,11.3-9c0.9-4.3,5.4-25.3,14.7-31.9c9.3-6.6,23.9-8.2,25.5-7.1c1.6,1.1,1.5,6.1,0,7.9c-1.5,1.9-6.4-1.4-8.7,0.4
				c-2.3,1.9-2.2,4.2-1.7,5.1s6.5,0.3,7.7,2.4c1.2,2.1-0.5,5-1.9,5.4c-1.4,0.3-5.4-0.8-6.7-0.3s-2.9,2.2-1.8,3.2
				c1.1,1,6.8,1.3,7.4,2s-0.4,7-1.6,7.3s-8.4-1.8-8.6-0.9s-0.6,3.8,3.7,3.8s8.1,0.8,12.7-12.8s16.5-17.4,18.5-17.4
				c1.9,0,3.7,6.4,3.9,7.8s-4.1,1.7-7.1,3.3c-3,1.6-3,1.8-2.5,3.8c0.5,2,7.3-0.9,9.4-1c2.1-0.1,5,4.8,3.3,6.1
				c-1.7,1.3-9.1,1.6-9.6,3s-0.3,4.8,1.1,5.3c1.4,0.5,6.2-1.7,8.3-1s2.6,6,1.6,6.7s-7.7,1.7-8.7,3.2c-0.9,1.5-0.5,4.8,0.9,5.4
				c1.4,0.5,7.3-1.6,8.8-0.7c1.5,0.9,3.6,5.1,2.1,7c-1.5,1.9-6.5-0.3-7.3,1.8c-0.8,2.1,0.5,5.5,1.7,5.2s5.9-2.3,7.1-1.7
				c1.2,0.6,4,8.2,3.2,9.5s-16,0.5-24.8-6.8c-8.9-7.3-10.3-7.8-11.9-6.5c-1.6,1.3-4.7,3.5-3.7,4.1c1,0.6,9.1,6.6,9.6,8.4
				c0.4,1.8,0.3,8.1,2.8,12.2c2.5,4.1,6.7,14,5.9,18.1c0,0-5.8-6.3-9.9-6.4c0,0-0.5,7.4,0.1,9.9s-1.6,2.1-3.9-1.8
				c-2.3-3.9-1.5-6.1-3.8-5.7c-2.3,0.3-0.9,8.6-1.8,10.1c-0.9,1.5-8.7-9.2-7.7-14c1-4.7,5.5-10.6,4.2-13.5
				c-1.4-2.9-6.2-10.5-6.2-10.5l-6.9,4.3c0,0,2.4,5.2,2.1,6.8s-4.3,13.7-2.5,24.6c1.8,10.9-1.8,8.6-3.7,5.8c-2-2.7-4.1-6.9-5.2-6.2
				c-1.1,0.7,0.2,9.4-1.6,10c-1.8,0.6-5.9-9.1-7.8-8.4c-2,0.7,3.9,10.7,1.6,10.8c-2.3,0.1-10.1-14.9-7.5-20.1
				c2.6-5.1,6.2-9.9,9.1-13.6c2.9-3.7,3-7-0.2-7.7c-3.2-0.7-22.1-3.4-25-9.1c-2.9-5.7-4.9-13.8,1.9-23.6c0,0,1.5-3.6-0.6-4.1
				c-2.1-0.6-4.6,11-14.2,12.9C249.3,177,239.6,166.9,239.6,166.9z"/>
			<path class="st3" d="M559,342.4l9.6-3.7L564,328l7.8-6.7l-8.2-6.5l5.3-14.9l-10.2-0.7l-4.7-9.6l-14.5,4.7l-2.5-9.1
				c0,0-12.7,8.1-17.9,14.1c0,0-2.8-3.4-6-1.6c-3.2,1.9-6.2,3.8-4.8,7.1c1.4,3.3-3.1,2.4-0.5,6.5c2.6,4.1,7.4,2.9,7.4,2.9
				s0.6,0.4,1.7,0.9c-6.2-0.4-16.9,8.3-16.9,8.3c-4.5-10.3-14.5-11.4-14.5-11.4c-0.2-4.7,4-12.7,4-12.7c2.8,1.7,1.7,8.6,1.7,8.6
				c4.6-4.4,4-10.6,4-10.6c3.3,2.3,1.2,11.6,1.2,11.6s19.1-17.5-6.9-24c-25.9-6.5-18.9,17.8-18.9,17.8c-1.2-8.7,6.9-9.5,6.9-9.5
				c-3.8,2.2-2.5,8.8-2.5,8.8c1-2.3,6-5,6-5l-4.6,13.8l-2,1.2l2-8.6c0,0-10.4,3-13.6,11.5c-3.2,8.5,3.5,20.9,5.5,21.4
				c2.1,0.5,4.2-16.4,4.2-16.4l2.2,0.1c0,0-3.9,14.3-4.8,18.7c-0.9,4.4-9.2,38.3-4.1,36.9s16.5-45.7,16.5-45.7l6.8-1.6
				c0,0,6.9,6.6,11.6,7.6c4.7,1,10.1-1.9,10.1-1.9c-1.2,5.7-19.7,21.7-19.7,21.7l7.6,2c0,0-7.3,6.4-9.2,7.9
				c-1.9,1.5-2.8,8.1-2.8,8.1l-3.9-1.2l-3.8,9.1c0,0,13,6.1,16.9,4.1c4-1.9,1.6-9.9,3.1-14c1.5-4,11.6-10.9,11.6-10.9l4.6,1.2
				c0,0-10.6,11-11.2,12.3c-0.6,1.3-0.6,5.3-0.6,5.3l-2.4,0.1l-2.9,11.3c7,3.8,17.8,0.7,20.2-1.2c2.4-1.8,2.7-13.3,2.7-13.3
				c3.4-0.6,15-21.7,15-21.7c-0.5,16.1-14.9,39.3-14.9,39.3l5.5,1.4l7.5-13.6l-5.1,14.2l2.7-0.3l5.7-10.6l-3.6,11.1l4.8,1.3
				c0,0,8.8-31.2,9.3-36c0.2-2.3-1.3-5.3-2.8-8.3l18.4-1.2L559,342.4z M545,352.8c-1.5-3-2.9-6-2.4-8.3c1.1-4.9-1.6-22.6-4.7-26
				c-0.4-0.5-1-0.8-1.6-1.1c2.3-0.9,3.4-2.1,3.4-2.1s11,2.1,11.4-4.2c0.4-6.3-1.8-8.3-9.4-9.3L541,299c3.4-0.3,9.5,0.5,14.9,9
				C563.3,319.6,547.6,348.1,545,352.8z"/>
			<path class="st3" d="M660.7,104.8l7.9-6.6l-7.8-8.6l5.2-8.9l-9.9-3.5l0.2-15.8l-9.8,2.7l-7.5-7.5l-12.2,9.2l-5.4-7.8
				c0,0-9.4,11.8-12.4,19.2c0,0-3.8-2.3-6.2,0.5c-2.4,2.8-4.6,5.6-2.2,8.3c2.4,2.7-2.1,3.3,1.7,6.3c3.8,3,7.9,0.3,7.9,0.3
				s0.7,0.2,1.9,0.3c-6,1.6-13.3,13.4-13.3,13.4c-7.6-8.3-17.5-6-17.5-6c-1.8-4.4-0.3-13.4-0.3-13.4c3.2,0.7,4.4,7.5,4.4,7.5
				c2.9-5.7,0.3-11.3,0.3-11.3c3.9,1.1,4.9,10.6,4.9,10.6s12.3-22.8-14.3-20.4c-26.6,2.4-12.1,23-12.1,23c-4-7.8,3.4-11.3,3.4-11.3
				c-2.8,3.3,0.5,9.2,0.5,9.2c0.1-2.5,4-6.6,4-6.6l0.2,14.6l-1.5,1.8l-0.9-8.8c0,0-8.8,6.2-9.1,15.3c-0.2,9.1,10.1,18.6,12.2,18.4
				c2.1-0.2-1.3-16.9-1.3-16.9l2.1-0.6c0,0,0.9,14.8,1.5,19.3c0.6,4.5,3.8,39.2,8.1,36.2c4.3-3,0.7-48.6,0.7-48.6l5.9-3.7
				c0,0,8.7,4,13.4,3.4c4.7-0.6,8.9-5.1,8.9-5.1c0.7,5.8-11.5,27-11.5,27l7.8-0.6c0,0-4.8,8.4-6.1,10.4c-1.3,2,0,8.6,0,8.6l-4.1,0.1
				l-0.7,9.9c0,0,14.2,1.5,17.3-1.6c3.1-3.1-1.7-9.9-1.6-14.2c0.1-4.3,7.4-14.1,7.4-14.1l4.7-0.4c0,0-6.4,13.8-6.6,15.3
				c-0.1,1.4,1.1,5.2,1.1,5.2l-2.3,0.9l0.9,11.7c7.8,1.3,17-5.2,18.7-7.7s-1.8-13.5-1.8-13.5c3-1.7,7.1-25.5,7.1-25.5
				c4.8,15.4-1.2,42-1.2,42l5.7-0.5l2.6-15.3l-0.1,15.1l2.5-1.2l1.9-11.9l0.2,11.7l5-0.4c0,0-1.9-32.4-2.9-37.1
				c-0.5-2.3-3-4.6-5.4-6.9l17-7.1L660.7,104.8z M650.8,119.2c-2.4-2.3-4.7-4.7-5-7.1c-0.5-5-8.9-20.8-12.9-23
				c-0.5-0.3-1.2-0.5-1.9-0.5c1.8-1.6,2.6-3.1,2.6-3.1s11.1-1.6,9.4-7.7c-1.7-6.1-4.4-7.3-11.9-5.8l-1.6-2.3c3.1-1.4,9.1-2.6,17,3.7
				C657.2,81.8,651.7,113.9,650.8,119.2z"/>
			<path class="st3" d="M282.2,401l20.4-7.9l-9.7-22.8l16.7-14.3l-17.4-14l11.4-31.8l-21.7-1.4l-10-20.5l-31.1,10l-5.4-19.4
				c0,0-27.1,17.2-38.3,30.1c0,0-6-7.3-12.8-3.3c-6.8,4-13.2,8.2-10.3,15.2c2.9,7.1-6.6,5.1-1,13.9c5.6,8.8,15.8,6.2,15.8,6.2
				s1.2,0.8,3.7,2c-13.2-0.9-36.1,17.8-36.1,17.8c-9.6-21.9-31-24.3-31-24.3c-0.5-10.1,8.6-27.2,8.6-27.2c5.9,3.7,3.7,18.3,3.7,18.3
				c9.8-9.4,8.5-22.5,8.5-22.5c7.1,5,2.5,24.8,2.5,24.8s40.7-37.3-14.6-51.1c-55.3-13.8-40.3,37.9-40.3,37.9
				c-2.6-18.5,14.7-20.4,14.7-20.4c-8.1,4.7-5.4,18.8-5.4,18.8c2-5,12.7-10.6,12.7-10.6l-9.8,29.5l-4.3,2.6l4.2-18.4
				c0,0-22.2,6.4-29,24.6c-6.8,18.2,7.4,44.5,11.8,45.7c4.4,1.1,9.1-35,9.1-35l4.7,0.2c0,0-8.4,30.4-10.3,39.9
				c-1.9,9.5-19.6,81.7-8.8,78.7s35.3-97.6,35.3-97.6l14.5-3.3c0,0,14.8,14.1,24.8,16.1c10,2.1,21.6-4.1,21.6-4.1
				c-2.6,12.2-42,46.4-42,46.4l16.3,4.2c0,0-15.6,13.6-19.6,16.8c-4,3.2-6.1,17.4-6.1,17.4l-8.3-2.7l-8.2,19.4c0,0,27.7,13,36.1,8.8
				c8.4-4.1,3.4-21.2,6.7-29.8c3.3-8.6,24.8-23.4,24.8-23.4l9.7,2.5c0,0-22.6,23.4-23.9,26.2c-1.3,2.8-1.3,11.2-1.3,11.2l-5.2,0.2
				l-6.3,24.2c14.9,8.1,37.9,1.4,43.1-2.5c5.2-3.9,5.8-28.5,5.8-28.5c7.2-1.3,32-46.4,32-46.4c-1,34.5-31.7,83.8-31.7,83.8l11.8,3.1
				l15.9-29l-10.8,30.3l5.8-0.6l12.2-22.6l-7.7,23.8L239,519c0,0,18.8-66.7,19.9-76.9c0.5-4.9-2.8-11.3-6.1-17.6l39.2-2.5L282.2,401
				z M252.2,423.1c-3.3-6.4-6.3-12.7-5.1-17.8c2.4-10.4-3.5-48.2-10-55.5c-0.9-1-2.1-1.7-3.5-2.4c4.8-2,7.4-4.5,7.4-4.5
				s23.6,4.5,24.4-9s-3.8-17.8-20.1-19.9l-1.6-5.8c7.2-0.7,20.2,1.1,31.8,19.3C291.2,352.2,257.9,413.1,252.2,423.1z"/>
		</g>
		<g>
			<g>
				<path class="st3" d="M1092-1.5c-2.3-2.6-9.9-1.8-12.8-1.4c-2-5.5-3.9-9.7-5-12.1c-1.8,0.8-3.8,1.7-6,2.7
					c5.4,11.8,26,61.9-8.3,77.7l0,0c0,0,0,0-0.1,0c0,0,0,0-0.1,0l0,0c-34.4,15.6-58.8-32.8-64.2-44.6c-2.2,1-4.2,1.9-6,2.7
					c1,2.3,3,6.6,5.9,11.7c-2.2,1.9-7.9,7.2-7.4,10.6c0.6,4.3,11.2,21.6,14.4,22.3c2.3,0.5,10.7-2.1,15.3-3.7
					c12.1,10.8,27.6,17.3,45.6,9.1l0,0c0,0,0,0,0.1,0c0,0,0,0,0.1,0l0,0c18-8.3,23.2-24.2,23-40.4c4.2-2.5,11.7-7.2,12.8-9.2
					C1101,21.1,1094.8,1.8,1092-1.5z"/>
				<path class="st3" d="M1068.4-30.5c-1.8-1.7-3.7-3.5-5.7-5.2c-6.5-5.8-13.8-11.3-22.2-12.6c-5.1-0.8-9.5,1.3-11.9,5.9
					c-1.5,3-2.6,6.6-2.7,10c0,0.5,0.2,5.9,0.8,5.8c0,0-4.3,0.9-6.7,2c-2.9,1.3-5.5,2.8-8,4.7c0.5-0.3-3.5-4.1-3.9-4.4
					c-2.7-2.1-6.1-3.7-9.4-4.5c-5.1-1.2-9.5,0.7-12.3,5.1c-4.7,7.5-4.9,16.6-4.8,25.3c0.1,4.1,0,8.2,0,12.3c0,1.3,1,12.9,1,12.9
					s2.8-1.3,7-3.2c1.8-0.8,3.8-1.7,6-2.7c14.5-6.6,36.1-16.5,36.2-16.6l0.1-0.1c0.2-0.1,21.7-9.9,36.2-16.6c2.2-1,4.2-1.9,6-2.7
					c4.2-1.9,7-3.2,7-3.2C1081.2-18.2,1069.6-29.3,1068.4-30.5z"/>
			</g>
			<path class="st3" d="M944.2,112.6l20.4-7.9l-9.7-22.8l16.7-14.3l-17.4-14l11.4-31.8l-21.7-1.4L933.9,0l-31.1,10l-5.4-19.4
				c0,0-27.1,17.2-38.3,30.1c0,0-6-7.3-12.8-3.3c-6.8,4-13.2,8.2-10.3,15.2s-6.6,5.1-1,13.9c5.6,8.8,15.8,6.2,15.8,6.2
				s1.2,0.8,3.7,2c-13.2-0.9-36.1,17.8-36.1,17.8c-9.6-21.9-31-24.3-31-24.3c-0.5-10.1,8.6-27.2,8.6-27.2c5.9,3.7,3.7,18.3,3.7,18.3
				c9.8-9.4,8.5-22.5,8.5-22.5c7.1,5,2.5,24.8,2.5,24.8s40.7-37.3-14.6-51.1c-55.3-13.8-40.3,37.9-40.3,37.9
				C753,9.8,770.4,7.9,770.4,7.9c-8.1,4.7-5.4,18.8-5.4,18.8c2-5,12.7-10.6,12.7-10.6l-9.8,29.5l-4.3,2.6l4.2-18.4
				c0,0-22.2,6.4-29,24.6c-6.8,18.2,7.4,44.5,11.8,45.7c4.4,1.1,9.1-35,9.1-35l4.7,0.2c0,0-8.4,30.4-10.3,39.9
				c-1.9,9.5-19.6,81.7-8.8,78.7s35.3-97.6,35.3-97.6l14.5-3.3c0,0,14.8,14.1,24.8,16.1c10,2.1,21.6-4.1,21.6-4.1
				c-2.6,12.2-42,46.4-42,46.4l16.3,4.2c0,0-15.6,13.6-19.6,16.8c-4,3.2-6.1,17.4-6.1,17.4l-8.3-2.7l-8.2,19.4c0,0,27.7,13,36.1,8.8
				c8.4-4.1,3.4-21.2,6.7-29.8c3.3-8.6,24.8-23.4,24.8-23.4l9.7,2.5c0,0-22.6,23.4-23.9,26.2c-1.3,2.8-1.3,11.2-1.3,11.2l-5.2,0.2
				l-6.3,24.2c14.9,8.1,37.9,1.4,43.1-2.5c5.2-3.9,5.8-28.5,5.8-28.5c7.2-1.3,32-46.4,32-46.4c-1,34.5-31.7,83.8-31.7,83.8l11.8,3.1
				l15.9-29l-10.8,30.3l5.8-0.6l12.2-22.6l-7.7,23.8l10.4,2.7c0,0,18.8-66.7,19.9-76.9c0.5-4.9-2.8-11.3-6.1-17.6l39.2-2.5
				L944.2,112.6z M914.2,134.8c-3.3-6.4-6.3-12.7-5.1-17.8c2.4-10.4-3.5-48.2-10-55.5c-0.9-1-2.1-1.7-3.5-2.4c4.8-2,7.4-4.5,7.4-4.5
				s23.6,4.5,24.4-9s-3.8-17.8-20.1-19.9l-1.6-5.8c7.2-0.7,20.2,1.1,31.8,19.3C953.2,63.8,919.9,124.8,914.2,134.8z"/>
		</g>
		<g>
			<g>
				<path class="st3" d="M113.7,562c-3-3.4-13-2.4-16.9-1.8c-2.6-7.2-5.1-12.8-6.6-15.9c-2.3,1.1-5,2.3-7.9,3.6
					c7.1,15.5,34.2,81.5-10.9,102.3l0,0c0,0,0,0-0.1,0c0,0,0,0-0.1,0l0,0C26,670.8-6.2,607.1-13.3,591.5c-2.9,1.3-5.6,2.5-7.9,3.6
					c1.4,3.1,4,8.6,7.7,15.4c-3,2.6-10.3,9.5-9.7,14c0.8,5.6,14.7,28.4,18.9,29.3c3,0.6,14.1-2.8,20.2-4.8
					c15.9,14.2,36.3,22.7,60.1,11.9l0,0c0,0,0.1,0,0.1,0c0,0,0.1,0,0.1,0l0,0c23.7-10.9,30.6-31.9,30.3-53.3
					c5.5-3.3,15.4-9.4,16.9-12.1C125.6,591.7,117.4,566.3,113.7,562z"/>
				<path class="st3" d="M82.6,523.8c-2.4-2.2-4.9-4.6-7.5-6.9c-8.5-7.6-18.2-14.8-29.2-16.6c-6.7-1-12.5,1.7-15.6,7.8
					c-2,3.9-3.4,8.7-3.6,13.2c0,0.6,0.3,7.8,1,7.6c0,0-5.6,1.2-8.8,2.7c-3.8,1.7-7.2,3.7-10.6,6.2c0.6-0.5-4.6-5.4-5.1-5.8
					c-3.6-2.8-8.1-4.9-12.4-5.9c-6.7-1.6-12.5,0.9-16.1,6.7c-6.2,9.9-6.5,21.9-6.3,33.2c0.1,5.4,0,10.8-0.1,16.2
					c0,1.7,1.3,17,1.3,17s3.6-1.7,9.2-4.2c2.3-1.1,5-2.3,7.9-3.6c19.1-8.7,47.5-21.7,47.7-21.8l0.2-0.1c0.2-0.1,28.6-13.1,47.7-21.8
					c2.9-1.3,5.6-2.5,7.9-3.6c5.5-2.5,9.2-4.2,9.2-4.2C99.5,540,84.2,525.3,82.6,523.8z"/>
				<g>
					<g>
						
							<ellipse transform="matrix(0.9096 -0.4155 0.4155 0.9096 -232.8289 81.3391)" class="st3" cx="70.5" cy="575.6" rx="9.3" ry="4"/>
						
							<ellipse transform="matrix(0.9096 -0.4155 0.4155 0.9096 -248.2312 60.773)" class="st3" cx="15.5" cy="600.7" rx="9.3" ry="4"/>
					</g>
				</g>
				<polygon class="st3" points="67.5,615.5 47.6,624.5 47.4,614.9 60.3,609 				"/>
			</g>
			<g>
				<path class="st3" d="M489.8,34.6c-0.2-5-9.6-10.8-13.3-13c2.6-8,4.2-14.5,5.1-18.1c-2.7-0.7-5.8-1.4-9.2-2.2
					C468,19.4,446.8,94.4,394,81.8l0,0c0,0-0.1,0-0.1,0c0,0-0.1,0-0.1,0l0,0c-52.7-12.9-37.4-89.3-32.9-107.4
					c-3.4-0.8-6.5-1.6-9.2-2.2c-0.9,3.6-2.4,10.1-3.7,18.4c-4.3,0.2-15.3,1.2-17.7,5.5c-3.1,5.4-6.5,34.3-3.5,37.9
					c2.2,2.6,14,7.1,20.6,9.5c4.1,22.9,15.9,44,43.5,50.8l0,0c0,0,0.1,0,0.1,0c0,0,0.1,0,0.1,0l0,0c27.7,6.6,47.8-6.7,61.9-25.3
					c6.9,0.9,19.5,2.3,22.6,1C479.9,68.1,490.1,40.8,489.8,34.6z"/>
				<path class="st3" d="M488.8-19.1c-0.6-3.5-1.1-7.2-1.8-10.9c-2.2-12.3-5.6-25-13.9-33.9c-5.1-5.4-11.8-7-18.7-3.9
					c-4.4,2-8.7,5.2-12,8.9c-0.4,0.5-5,6.9-4.3,7.2c0,0-5.6-2.7-9.3-3.6c-4.4-1.1-8.7-1.7-13.2-1.8c0.8,0-0.3-7.7-0.5-8.4
					c-1.2-4.8-3.6-9.7-6.6-13.4c-4.7-5.9-11.4-7.6-18.4-5.1c-12,4.3-20.3,14.4-27.8,24.3c-3.6,4.7-7.3,9.3-11,13.8
					c-1.1,1.4-10.4,15.4-10.4,15.4s4.2,1,10.7,2.6c2.7,0.7,5.8,1.4,9.2,2.2c22.3,5.4,55.4,13.4,55.7,13.5l0.2,0
					c0.3,0.1,33.4,8.1,55.7,13.5c3.4,0.8,6.5,1.6,9.2,2.2c6.4,1.6,10.7,2.6,10.7,2.6C492.4,6.2,489.2-16.8,488.8-19.1z"/>
				<g>
					<g>
						
							<ellipse transform="matrix(0.9719 0.2352 -0.2352 0.9719 16.4783 -103.82)" class="st3" cx="443.5" cy="17.2" rx="10.1" ry="4.4"/>
						
							<ellipse transform="matrix(0.9719 0.2352 -0.2352 0.9719 11.0319 -89.1793)" class="st3" cx="379.4" cy="1.7" rx="10.1" ry="4.4"/>
					</g>
				</g>
				
					<rect x="387.4" y="55.8" transform="matrix(0.9719 0.2352 -0.2352 0.9719 25.1445 -92.2628)" class="st3" width="23.8" height="6.9"/>
				<polygon class="st3" points="414,49.3 390.9,43.7 397.1,35.3 412.2,39 				"/>
			</g>
			<path class="st3" d="M-4.7,357.9c-0.3-0.1-0.5-0.1-0.8-0.1c-1.3,0-2.6,0.4-3.9,0.6c-2.7,0.5-5.7,0.3-8.1-1.1
				c-2.9-1.7-3.2-4.6-2.6-7.7c2.6-13.2,19.2-3.9,17.1,0.3c0,0,21.8-15.2,33.3-8.1S41,364.5,30,370.1c0,0,16.4,11,16.6,21.9
				c0.2,10.9-6.1,17.2-14,26.4c-7.8,9.2-17.1,19.1-17.1,19.1s7.1,11.5,6.2,13.6c-0.9,2.1-4.5-3.8-4.5-3.8s1.2,4.7-0.6,4.7
				c-1.8,0-4.5-5.5-4.5-5.5s0.9,5.4-1.1,6.1c-2.1,0.7-5.2-6-5.2-6s-1.8,4.8-4.7,5.1S-9.6,439-9.6,439l2.6-7.5l-17.6,1.1
				c0,0,3.4,10.1,3.1,12.3c-0.3,2.2-1.4,8-3.4,8.2c-1.9,0.2-4.2-6.9-4.2-6.9s-0.8,6.6-3.8,7c-3.1,0.3-4.1-7.6-4.1-7.6
				s-2.9,6.7-4.5,6.9c-1.6,0.2-2.6-6.1-2.6-6.1s-2.7,5-5.5,5.3c-2.8,0.3-0.7-6.6,0-12c0.7-5.3,0.3-13.6-7.6-16
				c-8-2.4-29.9-11.6-42-29.1c-12.1-17.5-17.3-54.9,3.2-80.4s41-32.7,51.4-34.6c10.4-2,61-11.3,72-1.8l0.7,8.3c0,0-49.8-6.5-66,4.3
				s38.3-5.8,66.4-0.9l1.1,12.8c0,0-52.6-8.2-61.9,1.7s62.4,1.4,62.4,1.4l1.3,11.7c0,0-55.6-2.4-60.8,3.9
				c-5.2,6.3,61.2,0.7,61.2,0.7l1.6,14.7c0,0-56.6-5.8-72.9,13.4c-9.3,11-3.9,28.5,8.2,35.1c10.5,5.7,22,0.4,29.4-7.9
				c-3.2,3.6-10.2,4-13.2-0.4c-1.7-2.5-1.8-5.6,0-8.3c1.4-2.2,4.5-2.5,7.1-2.4c0.8,0,1.6,0.1,2.4-0.2c0.5-0.2,0.9-0.5,1.3-0.9
				c1.5-1.3,2.9-3.2,2.2-4.9C-2.6,358.7-3.6,358.1-4.7,357.9z"/>
			<path class="st3" d="M271.5,652.9c0.1-0.3,0.1-0.6,0.2-0.9c0.1-1.5-0.2-2.9-0.4-4.4c-0.4-3,0.1-6.4,1.9-9
				c2.1-3.1,5.3-3.2,8.7-2.3c14.5,3.9,3,21.7-1.5,19c0,0,15.3,25.3,6.6,37.7c-8.7,12.4-26.1,10.3-31.6-2.4c0,0-13.4,17.5-25.6,17
				c-12.2-0.5-18.7-8.1-28.4-17.4c-9.7-9.4-20-20.4-20-20.4s-13.3,7.1-15.5,5.9s4.5-4.7,4.5-4.7s-5.4,1-5.2-1c0.2-2,6.4-4.7,6.4-4.7
				s-6.1,0.6-6.7-1.7s7.1-5.4,7.1-5.4s-5.2-2.3-5.3-5.6s15-11,15-11l8.2,3.4l0-19.6c0,0-11.5,3.1-13.9,2.6s-8.8-2.1-8.9-4.3
				c-0.1-2.2,8-4.2,8-4.2s-7.3-1.3-7.5-4.8c-0.2-3.4,8.7-4,8.7-4s-7.3-3.7-7.3-5.5c-0.1-1.8,7-2.5,7-2.5s-5.4-3.4-5.6-6.5
				s7.4-0.3,13.3,0.9c5.9,1.2,15.1,1.3,18.4-7.4c3.2-8.7,15.1-32.5,35.4-44.7s62.4-15.4,89.3,9.2c26.9,24.6,33.4,47.9,34.9,59.7
				s8.2,68.7-3.1,80.3l-9.3,0.2c0,0,10.8-55-0.1-73.8c-10.8-18.8,3.8,43.1-3.8,74l-14.3,0.3c0,0,12.8-58,2.5-69s-6,69.4-6,69.4
				l-13.1,0.6c0,0,6.7-61.7,0-68c-6.6-6.2-5.1,68-5.1,68l-16.5,0.7c0,0,10.4-62.6-9.7-82.1c-11.6-11.2-31.5-6.4-39.6,6.6
				c-7.1,11.3-2.1,24.5,6.7,33.3c-3.8-3.8-3.8-11.6,1.3-14.6c2.9-1.7,6.4-1.6,9.3,0.6c2.4,1.7,2.5,5.2,2.1,8.1
				c-0.1,0.9-0.2,1.8,0.1,2.7c0.2,0.6,0.5,1,0.9,1.5c1.3,1.7,3.3,3.5,5.3,2.8C270.4,655.1,271.1,654.1,271.5,652.9z"/>
			<path class="st3" d="M220,38.2c-0.1-0.2-0.3-0.4-0.5-0.5c-0.9-0.8-2-1.3-3-1.8c-2.1-1.2-4-3.1-4.8-5.5c-0.9-2.8,0.5-4.9,2.7-6.7
				c9.4-7.4,15.2,8.5,11.4,10c0,0,23.4,2.3,27.2,13.8s-5.9,21.5-16.6,18.9c0,0,4.7,16.9-1.4,24.4s-14.1,8.1-24.7,9.8
				c-10.6,1.7-22.5,3-22.5,3s-1.8,11.9-3.6,12.7s-0.8-5.1-0.8-5.1s-1.9,3.9-3.1,2.8s0.1-6.3,0.1-6.3s-2.5,4.2-4.3,3.4
				c-1.8-0.7-0.1-7.1-0.1-7.1s-4,2.2-6.1,0.7c-2.1-1.5,0.1-14.8,0.1-14.8l6.1-3.5l-12.5-9.4c0,0-3.5,8.8-5,10.1
				c-1.4,1.3-5.6,4.6-7,3.6c-1.4-1,1.2-7.1,1.2-7.1s-4.3,4-6.6,2.5c-2.3-1.5,1.6-7.5,1.6-7.5s-5.8,2.9-7,2c-1.2-0.8,1.7-5.6,1.7-5.6
				s-4.8,1.8-6.8,0.4s3.3-4.9,6.9-8.1c3.6-3.2,8.1-9,4.1-15.2c-4-6.2-13.5-25.1-11.5-43.9c2-18.8,20-47,48.6-52.4s46.5,1.6,54.7,6.3
				S285.9-10,287.9,2.7l-4.3,6c0,0-29.9-33.2-47-35.2s29.2,18.2,45.3,37.7l-6.7,9.3c0,0-30.8-35.9-42.7-34.6s41.3,36.9,41.3,36.9
				l-5.9,8.6c0,0-36.1-33.7-43.3-32.5c-7.1,1.2,40.9,35.8,40.9,35.8l-7.4,10.9c0,0-34.9-36.6-56.9-33c-12.7,2-19.1,17-14.7,28.4
				c3.8,9.9,14.6,13,24.4,11.6c-4.2,0.6-9.2-3.1-8.7-7.8c0.3-2.6,2.1-4.8,4.8-5.6c2.2-0.7,4.5,0.9,6.2,2.5c0.5,0.5,1,1,1.7,1.2
				c0.4,0.1,0.9,0.2,1.4,0.2c1.7,0,3.8-0.4,4.3-2.1C220.9,40,220.5,39,220,38.2z"/>
			<path class="st3" d="M563.5,39l6,2.7c0,0-6.7,7-13,2.2c-4.6-3.5-4.6-11.3-4.4-16.4c0.2-4.6,0.9-9.2,1.9-13.8
				c1-4.5,4.2-10.2,3.9-14.7c-0.1-1.2-0.5-2.3-0.8-3.4c-4-14.4,8.7-41.9,27-34.9c6.6,2.5,12.7,12,15.4,18.2c2.6,6,1.1,15,8.6,17.5
				c0,0,3.8-15.2,0-19.8c-3.9-4.6-22.7-27.3-21.8-43c0.9-15.6,11.5-32.7,14.1-33.5c2.5-0.7,7.8,3.6,8.5,6.7c0.7,3.2-7,5.6-6.9,9.7
				c0,4.1,2.6,5.9,4.1,6.3c1.4,0.3,5.9-6.7,9.1-6.2c3.2,0.5,5,4.8,4.2,6.6c-0.8,1.8-5.4,5-6,7c-0.6,1.9-0.1,5,2,4.7s7.2-6.1,8.5-6.2
				c1.3,0,7.1,6.4,6.4,8c-0.7,1.6-9.1,7.5-8.3,8.5c0.8,1,3.6,3.8,7.3-0.8s7.8-8.1-2.9-24.6s-4.6-32.6-3-34.7s10,1.4,11.7,2.5
				c1.7,1.1-1.7,5.8-2.6,10.4c-0.9,4.6-0.6,4.7,2,5.9c2.6,1.2,5.2-8.6,6.9-11c1.7-2.4,9.4-1.3,9.3,1.6c-0.1,2.9-6,11.2-5,12.9
				c1.1,1.8,4.9,4.4,6.6,3.3s3.4-8.2,6.1-9.8s8.6,2.4,8.6,3.9s-4.8,9.8-3.9,12s4.8,4.7,6.5,3.6s4.5-9.2,6.8-10.1
				c2.3-0.8,8.6,0.5,9.3,3.6c0.7,3.2-5.9,6.7-4.3,9.4c1.6,2.6,6.3,4.1,7,2.6c0.7-1.6,2.5-8.3,4.2-9.1s12.2,2.8,12.9,4.7
				s-13.1,17.6-28.4,20.9s-17.1,4.4-17.1,7.2s-0.2,8.1,1.3,7.5c1.5-0.6,14.8-4.2,17.1-3.1c2.3,1.1,8.9,6.6,15.5,7.4s20.7,4.8,24.5,9
				c0,0-11.7,0.9-15.3,5.3c0,0,7.5,6.9,10.6,8.3s0.9,3.5-5.3,2.6s-7.8-3.6-9.4-0.8s8.5,8.3,9.3,10.5s-17.3,1.5-21.6-3.6
				c-4.3-5.1-6.7-15-10.9-16c-4.3-1-16.6-2.2-16.6-2.2l-1.3,11c0,0,7.6,1.9,9.1,3.5s11,16.4,24.3,23.7s7.7,9.2,3.1,9
				s-10.9-1.5-11.1,0.3s10.2,7.8,9.4,10.3c-0.8,2.5-14.7-1.4-15.7,1.3c-0.9,2.7,14.8,4.9,12.9,7.5c-1.8,2.6-24.6-1.8-27.9-9
				s-5.4-15-6.9-21.4c-1.5-6.3-4.9-9.2-8.4-6.4c-3.5,2.8-22.4,20.8-31,19.1c-8.6-1.7-19-6.5-23.8-22.2c0,0-2.6-4.6-5-2.9
				s7.9,14.3,1.8,26.3C582.6,37.1,563.5,39,563.5,39z"/>
			<path class="st3" d="M409,596.4l1.1,4.7c0,0-7-0.6-7.1-6.4c-0.1-4.2,4.3-7.7,7.3-10c2.7-2,5.7-3.7,8.7-5.1
				c3-1.4,7.7-2.2,10.2-4.5c0.6-0.6,1.1-1.3,1.6-2c6.4-8.8,27.9-14,32.2-0.4c1.5,4.9-1.1,12.7-3.5,17c-2.3,4.2-8.1,7.4-6.1,12.9
				c0,0,10.4-4.7,11.3-9c0.9-4.3,5.4-25.3,14.7-31.9c9.3-6.6,23.9-8.2,25.5-7.1c1.6,1.1,1.5,6.1,0,7.9c-1.5,1.9-6.4-1.4-8.7,0.4
				c-2.3,1.9-2.2,4.2-1.7,5.1s6.5,0.3,7.7,2.4c1.2,2.1-0.5,5-1.9,5.4c-1.4,0.3-5.4-0.8-6.7-0.3s-2.9,2.2-1.8,3.2s6.8,1.3,7.4,2
				c0.6,0.7-0.4,7-1.6,7.3c-1.2,0.3-8.4-1.8-8.6-0.9c-0.2,0.9-0.6,3.8,3.7,3.8c4.3,0,8.1,0.8,12.7-12.8s16.5-17.4,18.5-17.4
				c1.9,0,3.7,6.4,3.9,7.8c0.1,1.5-4.1,1.7-7.1,3.3c-3,1.6-3,1.8-2.5,3.8c0.5,2,7.3-0.9,9.4-1c2.1-0.1,5,4.8,3.3,6.1
				c-1.7,1.3-9.1,1.6-9.6,3c-0.5,1.4-0.3,4.8,1.1,5.3c1.4,0.5,6.2-1.7,8.3-1s2.6,6,1.6,6.7c-0.9,0.7-7.7,1.7-8.7,3.2
				c-0.9,1.5-0.5,4.8,0.9,5.4s7.3-1.6,8.8-0.7c1.5,0.9,3.6,5.1,2.1,7s-6.5-0.3-7.3,1.8c-0.8,2.1,0.5,5.5,1.7,5.2
				c1.2-0.3,5.9-2.3,7.1-1.7c1.2,0.6,4,8.2,3.2,9.5s-16,0.5-24.8-6.8c-8.9-7.3-10.3-7.8-11.9-6.5s-4.7,3.5-3.7,4.1
				c1,0.6,9.1,6.6,9.6,8.4c0.4,1.8,0.3,8.1,2.8,12.2c2.5,4.1,6.7,14,5.9,18.1c0,0-5.8-6.3-9.9-6.4c0,0-0.5,7.4,0.1,9.9
				c0.6,2.4-1.6,2.1-3.9-1.8s-1.5-6.1-3.8-5.7s-0.9,8.6-1.8,10.1c-0.9,1.5-8.7-9.2-7.7-14c1-4.7,5.5-10.6,4.2-13.5
				c-1.4-2.9-6.2-10.5-6.2-10.5l-6.9,4.3c0,0,2.4,5.2,2.1,6.8c-0.3,1.6-4.3,13.7-2.5,24.6c1.8,10.9-1.8,8.6-3.7,5.8
				s-4.1-6.9-5.2-6.2c-1.1,0.7,0.2,9.4-1.6,10c-1.8,0.6-5.9-9.1-7.8-8.4c-2,0.7,3.9,10.7,1.6,10.8c-2.3,0.1-10.1-14.9-7.5-20.1
				c2.6-5.1,6.2-9.9,9.1-13.6c2.9-3.7,3-7-0.2-7.7s-22.1-3.4-25-9.1c-2.9-5.7-4.9-13.8,1.9-23.6c0,0,1.5-3.6-0.6-4.1
				c-2.1-0.6-4.6,11-14.2,12.9C418.8,606.4,409,596.4,409,596.4z"/>
			<path class="st3" d="M686.7,613.5l9.6-3.7l-4.6-10.7l7.8-6.7l-8.2-6.5l5.3-14.9l-10.2-0.7l-4.7-9.6l-14.5,4.7l-2.5-9.1
				c0,0-12.7,8.1-17.9,14.1c0,0-2.8-3.4-6-1.6c-3.2,1.9-6.2,3.8-4.8,7.1c1.4,3.3-3.1,2.4-0.5,6.5c2.6,4.1,7.4,2.9,7.4,2.9
				s0.6,0.4,1.7,0.9c-6.2-0.4-16.9,8.3-16.9,8.3c-4.5-10.3-14.5-11.4-14.5-11.4c-0.2-4.7,4-12.7,4-12.7c2.8,1.7,1.7,8.6,1.7,8.6
				c4.6-4.4,4-10.6,4-10.6c3.3,2.3,1.2,11.6,1.2,11.6s19.1-17.5-6.9-24c-25.9-6.5-18.9,17.8-18.9,17.8c-1.2-8.7,6.9-9.5,6.9-9.5
				c-3.8,2.2-2.5,8.8-2.5,8.8c1-2.3,6-5,6-5l-4.6,13.8l-2,1.2l2-8.6c0,0-10.4,3-13.6,11.5c-3.2,8.5,3.5,20.9,5.5,21.4
				c2.1,0.5,4.2-16.4,4.2-16.4l2.2,0.1c0,0-3.9,14.3-4.8,18.7c-0.9,4.4-9.2,38.3-4.1,36.9s16.5-45.7,16.5-45.7l6.8-1.6
				c0,0,6.9,6.6,11.6,7.6c4.7,1,10.1-1.9,10.1-1.9c-1.2,5.7-19.7,21.7-19.7,21.7l7.6,2c0,0-7.3,6.4-9.2,7.9
				c-1.9,1.5-2.8,8.1-2.8,8.1l-3.9-1.2l-3.8,9.1c0,0,13,6.1,16.9,4.1c4-1.9,1.6-9.9,3.1-14c1.5-4,11.6-10.9,11.6-10.9l4.6,1.2
				c0,0-10.6,11-11.2,12.3c-0.6,1.3-0.6,5.3-0.6,5.3l-2.4,0.1l-2.9,11.3c7,3.8,17.8,0.7,20.2-1.2c2.4-1.8,2.7-13.3,2.7-13.3
				c3.4-0.6,15-21.7,15-21.7c-0.5,16.1-14.9,39.3-14.9,39.3l5.5,1.4l7.5-13.6l-5.1,14.2l2.7-0.3l5.7-10.6l-3.6,11.1l4.9,1.3
				c0,0,8.8-31.2,9.3-36c0.2-2.3-1.3-5.3-2.8-8.3l18.4-1.2L686.7,613.5z M672.6,623.9c-1.5-3-2.9-6-2.4-8.3c1.1-4.9-1.6-22.6-4.7-26
				c-0.4-0.5-1-0.8-1.6-1.1c2.3-0.9,3.4-2.1,3.4-2.1s11,2.1,11.4-4.2c0.4-6.3-1.8-8.3-9.4-9.3l-0.8-2.7c3.4-0.3,9.5,0.5,14.9,9
				C690.9,590.7,675.3,619.2,672.6,623.9z"/>
			<path class="st3" d="M90.4,103l20.3-8.3l-10.2-22.6l16.4-14.7L99.2,43.9l10.7-32l-21.8-1L77.7-9.3L46.9,1.3L41.1-18
				c0,0-26.7,17.8-37.6,30.9c0,0-6.1-7.2-12.9-3c-6.7,4.2-13,8.4-9.9,15.4s-6.5,5.3-0.7,14c5.8,8.7,15.9,5.8,15.9,5.8
				S-3,45.9-0.5,47c-13.2-0.6-35.8,18.5-35.8,18.5c-10-21.7-31.6-23.7-31.6-23.7c-0.7-10.1,8-27.4,8-27.4c6,3.5,4.1,18.2,4.1,18.2
				c9.6-9.6,8-22.7,8-22.7c7.2,4.8,3,24.8,3,24.8S-4.8-3.4-60.4-16C-116-28.6-99.9,22.8-99.9,22.8c-3-18.5,14.3-20.7,14.3-20.7
				c-8,4.9-5,18.9-5,18.9c1.9-5,12.5-10.8,12.5-10.8l-9.1,29.7l-4.3,2.6l3.8-18.5c0,0-22,6.8-28.5,25.2
				c-6.4,18.4,8.4,44.4,12.8,45.4c4.5,1.1,8.3-35.2,8.3-35.2l4.7,0.1c0,0-7.8,30.6-9.5,40.1c-1.7,9.5-17.8,82.1-7.1,78.9
				s33.2-98.4,33.2-98.4l14.5-3.6c0,0,15.1,13.7,25.1,15.6c10,1.8,21.5-4.6,21.5-4.6c-2.4,12.3-41,47.3-41,47.3l16.4,3.9
				c0,0-15.3,14-19.2,17.2c-3.9,3.3-5.7,17.5-5.7,17.5l-8.3-2.5l-7.8,19.6c0,0,28,12.4,36.3,8.1c8.3-4.3,2.9-21.3,6-30
				c3.1-8.7,24.3-23.9,24.3-23.9l9.8,2.3c0,0-22.1,23.9-23.3,26.7c-1.2,2.9-1.1,11.3-1.1,11.3l-5.2,0.3l-5.7,24.3
				c15.1,7.7,37.9,0.6,43.1-3.4c5.1-4,5.2-28.6,5.2-28.6c7.1-1.5,31-47.1,31-47.1c-0.3,34.5-29.9,84.5-29.9,84.5L24,218l15.3-29.3
				l-10.2,30.6l5.7-0.7l11.7-22.9l-7.2,23.9l10.4,2.5c0,0,17.4-67,18.3-77.3c0.4-5-3-11.2-6.4-17.5l39.1-3.4L90.4,103z M60.9,125.8
				c-3.4-6.3-6.5-12.6-5.5-17.7c2.1-10.5-4.5-48.2-11.2-55.3c-0.9-1-2.1-1.7-3.5-2.3c4.8-2.1,7.3-4.7,7.3-4.7s23.7,4,24.2-9.5
				C72.7,23,68,18.7,51.6,16.9l-1.7-5.8c7.2-0.9,20.2,0.7,32.2,18.6C98.4,54.1,66.3,115.7,60.9,125.8z"/>
		</g>
		<g>
			<g>
				<path class="st3" d="M1085.8,415.3c-2.1-2.7-9.8-2.3-12.8-2c-1.7-5.6-3.4-9.9-4.4-12.3c-1.8,0.7-3.9,1.6-6.1,2.5
					c4.9,12,23.1,63.1-11.9,77.2l0,0c0,0,0,0-0.1,0c0,0,0,0-0.1,0l0,0c-35.1,14-57.3-35.5-62.1-47.5c-2.2,0.9-4.3,1.7-6.1,2.5
					c0.9,2.4,2.7,6.7,5.3,11.9c-2.3,1.8-8.2,6.8-7.8,10.3c0.4,4.3,10.2,22.1,13.3,22.9c2.3,0.6,10.8-1.6,15.5-3
					c11.6,11.3,26.8,18.5,45.2,11.2l0,0c0,0,0,0,0.1,0c0,0,0,0,0.1,0l0,0c18.4-7.4,24.3-23.1,24.9-39.3c4.3-2.3,12-6.6,13.2-8.6
					C1093.7,438.3,1088.4,418.7,1085.8,415.3z"/>
				<path class="st3" d="M1063.5,385.2c-1.7-1.8-3.6-3.6-5.4-5.5c-6.2-6.1-13.2-11.9-21.6-13.6c-5.1-1-9.5,0.8-12.1,5.4
					c-1.7,2.9-2.9,6.5-3.2,9.9c0,0.5-0.1,5.9,0.5,5.8c0,0-4.3,0.7-6.7,1.7c-2.9,1.2-5.6,2.5-8.2,4.3c0.5-0.3-3.3-4.2-3.7-4.5
					c-2.6-2.2-5.9-4-9.2-4.9c-5-1.4-9.5,0.3-12.5,4.5c-5.1,7.3-5.7,16.4-5.9,25c-0.1,4.1-0.4,8.2-0.6,12.3
					c-0.1,1.3,0.4,12.9,0.4,12.9s2.8-1.1,7.1-2.9c1.8-0.7,3.9-1.6,6.1-2.5c14.8-6,36.8-14.8,37-14.9l0.1-0.1
					c0.2-0.1,22.2-8.9,37-14.9c2.2-0.9,4.3-1.7,6.1-2.5c4.3-1.7,7.1-2.9,7.1-2.9C1075.7,398.1,1064.7,386.4,1063.5,385.2z"/>
			</g>
			<path class="st3" d="M1059.2,178.1c-0.2-0.1-0.4-0.1-0.6-0.1c-1-0.1-2,0.2-3,0.3c-2.1,0.3-4.5,0-6.3-1.2c-2.2-1.4-2.3-3.7-1.7-6
				c2.5-10.2,15.1-2.3,13.2,0.8c0,0,17.4-11,26.2-5.1c8.7,5.9,7.5,18-1.3,22c0,0,12.4,9.1,12.1,17.6c-0.2,8.5-5.4,13.1-11.8,20
				s-13.9,14.2-13.9,14.2s5.1,9.2,4.3,10.8c-0.8,1.6-3.3-3.1-3.3-3.1s0.7,3.7-0.7,3.6c-1.4-0.1-3.3-4.4-3.3-4.4s0.5,4.2-1.1,4.7
				s-3.9-4.9-3.9-4.9s-1.5,3.6-3.8,3.8c-2.3,0.1-7.9-10.3-7.9-10.3l2.3-5.7l-13.7,0.2c0,0,2.3,8,2,9.6c-0.3,1.7-1.4,6.2-2.9,6.3
				s-3-5.5-3-5.5s-0.8,5.1-3.2,5.3c-2.4,0.2-2.9-6-2.9-6s-2.5,5.1-3.7,5.2s-1.8-4.8-1.8-4.8s-2.3,3.8-4.4,4
				c-2.1,0.1-0.3-5.2,0.4-9.3c0.8-4.1,0.7-10.6-5.4-12.7c-6.1-2.2-22.8-10.1-31.5-24.1c-8.7-14-11.5-43.2,5.3-62.3
				c16.8-19,33-23.9,41.1-25c8.2-1.1,47.7-6.5,55.9,1.2l0.3,6.4c0,0-38.4-6.8-51.4,0.9c-12.9,7.8,30-3.1,51.5,1.7l0.4,10
				c0,0-40.6-8.2-48.1-0.9c-7.5,7.3,48.4,3.3,48.4,3.3l0.6,9.1c0,0-43.1-3.9-47.3,0.8s47.4,2.7,47.4,2.7l0.7,11.5
				c0,0-43.7-6.5-57,7.8c-7.6,8.2-4.1,22,5.1,27.5c8,4.8,17.1,1.1,23.1-5.1c-2.6,2.7-8,2.8-10.2-0.8c-1.2-2-1.2-4.4,0.3-6.5
				c1.2-1.7,3.6-1.8,5.6-1.6c0.6,0.1,1.3,0.1,1.9-0.1c0.4-0.1,0.7-0.4,1-0.6c1.2-0.9,2.4-2.3,1.9-3.7
				C1060.7,178.7,1060,178.3,1059.2,178.1z"/>
			<path class="st3" d="M819.6,336.7c0.1-0.2,0.1-0.4,0.1-0.6c0.1-1-0.1-2-0.1-3.1c-0.2-2.1,0.3-4.5,1.6-6.2
				c1.6-2.1,3.8-2.1,6.1-1.3c10,3.2,1.4,15.2-1.7,13.1c0,0,9.8,18.1,3.4,26.4c-6.5,8.3-18.5,6.3-21.9-2.7c0,0-9.9,11.7-18.3,11
				c-8.5-0.8-12.8-6.2-19.2-13c-6.4-6.8-13.3-14.8-13.3-14.8s-9.5,4.5-11,3.6s3.3-3.1,3.3-3.1s-3.8,0.5-3.6-0.9c0.2-1.4,4.6-3,4.6-3
				s-4.3,0.2-4.6-1.4c-0.3-1.6,5.1-3.5,5.1-3.5s-3.5-1.8-3.5-4.1c0-2.3,10.8-7.2,10.8-7.2l5.6,2.7l0.6-13.7c0,0-8.1,1.8-9.7,1.4
				c-1.6-0.4-6.1-1.8-6.1-3.3c0-1.5,5.7-2.6,5.7-2.6s-5.1-1.1-5.1-3.6c0-2.4,6.2-2.5,6.2-2.5s-4.9-2.8-4.9-4.1
				c0-1.3,4.9-1.5,4.9-1.5s-3.7-2.5-3.7-4.7s5.2,0,9.2,1c4,1,10.5,1.4,13-4.5s11.5-22.1,26.1-29.9c14.6-7.8,43.9-8.7,61.8,9.3
				c17.9,18,21.7,34.4,22.3,42.6c0.6,8.2,3.5,48.1-4.7,55.8l-6.4-0.1c0,0,9.3-37.9,2.3-51.3c-6.9-13.4,1.2,30.1-5,51.3l-10-0.3
				c0,0,10.8-39.9,4-47.9c-6.8-8-6.4,48-6.4,48l-9.1,0c0,0,6.6-42.7,2.2-47.3s-5.7,47.2-5.7,47.2l-11.5,0c0,0,9.3-43.2-4.1-57.4
				c-7.7-8.2-21.7-5.5-27.8,3.3c-5.3,7.6-2.2,17,3.6,23.4c-2.5-2.7-2.3-8.2,1.4-10.1c2-1.1,4.5-0.9,6.4,0.7c1.6,1.3,1.6,3.7,1.2,5.7
				c-0.1,0.6-0.2,1.3,0,1.9c0.1,0.4,0.3,0.7,0.6,1.1c0.9,1.2,2.2,2.5,3.6,2.1C818.8,338.2,819.3,337.5,819.6,336.7z"/>
			<path class="st3" d="M1057.3,616.2c-0.1-0.2-0.3-0.4-0.5-0.5c-0.8-0.8-1.9-1.3-2.9-2c-2.1-1.3-3.9-3.3-4.6-5.7
				c-0.8-2.8,0.7-4.9,3-6.5c9.8-7,14.8,9.2,10.9,10.5c0,0,23.3,3.4,26.5,15c3.2,11.6-6.9,21.2-17.5,18.2c0,0,4,17.1-2.6,24.3
				c-6.5,7.2-14.4,7.4-25.1,8.6c-10.7,1.2-22.6,2-22.6,2s-2.4,11.8-4.2,12.6s-0.6-5.2-0.6-5.2s-2.1,3.8-3.3,2.7
				c-1.2-1.1,0.4-6.3,0.4-6.3s-2.7,4.1-4.4,3.2c-1.7-0.8,0.3-7.1,0.3-7.1s-4,2-6.1,0.5c-2.1-1.6,0.8-14.8,0.8-14.8l6.2-3.3l-12-10
				c0,0-3.9,8.6-5.4,9.8c-1.5,1.2-5.8,4.3-7.2,3.3c-1.4-1,1.5-7,1.5-7s-4.5,3.8-6.7,2.2s1.9-7.4,1.9-7.4s-5.9,2.6-7.1,1.7
				c-1.2-0.9,2-5.5,2-5.5s-4.8,1.6-6.8,0.1c-2-1.5,3.6-4.7,7.3-7.7c3.7-3,8.5-8.6,4.8-15c-3.7-6.4-12.3-25.7-9.5-44.4
				c2.8-18.7,22.2-46.1,50.9-50.1c28.7-4.1,46.4,3.8,54.3,8.8c7.9,5.1,46.3,29.8,47.7,42.6l-4.5,5.8c0,0-28.3-34.5-45.3-37.4
				s28.4,19.5,43.5,39.8l-7.1,9c0,0-29.1-37.3-41.1-36.5s39.5,38.8,39.5,38.8l-6.3,8.3c0,0-34.5-35.4-41.7-34.5
				c-7.2,0.9,39.2,37.6,39.2,37.6l-7.9,10.5c0,0-33.1-38.1-55.3-35.6c-12.7,1.4-19.9,16.1-16,27.7c3.4,10.1,14,13.7,23.8,12.7
				c-4.2,0.4-9-3.6-8.3-8.2c0.4-2.6,2.3-4.7,5-5.4c2.3-0.6,4.4,1.1,6,2.8c0.5,0.5,1,1.1,1.7,1.3c0.4,0.2,0.9,0.2,1.4,0.2
				c1.7,0.1,3.8-0.3,4.4-1.9C1058.1,618,1057.8,617,1057.3,616.2z"/>
			<path class="st3" d="M901.1,286.7l0.9,4.7c0,0-7-1-6.8-6.7c0.1-4.2,4.7-7.5,7.8-9.6c2.8-1.9,5.9-3.4,9-4.7
				c3.1-1.3,7.8-1.9,10.4-4c0.7-0.5,1.1-1.3,1.7-1.9c6.8-8.5,28.5-12.7,32.1,1.1c1.3,5-1.7,12.7-4.2,16.9c-2.5,4.1-8.4,7-6.7,12.6
				c0,0,10.6-4.2,11.7-8.5s6.5-25.1,16.1-31.2c9.6-6.1,24.3-7.1,25.8-5.9c1.5,1.2,1.2,6.1-0.3,7.9c-1.6,1.8-6.3-1.7-8.7,0
				c-2.4,1.8-2.4,4.1-2,5.1c0.4,1,6.5,0.6,7.6,2.8s-0.7,5-2.1,5.3c-1.4,0.3-5.3-1.1-6.7-0.6c-1.4,0.5-3,2.1-1.9,3.1
				c1.1,1.1,6.7,1.7,7.3,2.4c0.6,0.7-0.8,6.9-2,7.2c-1.2,0.2-8.3-2.2-8.5-1.3c-0.2,0.9-0.7,3.8,3.5,4s8.1,1.2,13.3-12.2
				c5.2-13.3,17.3-16.6,19.2-16.5c1.9,0,3.4,6.5,3.5,8c0.1,1.5-4.2,1.5-7.3,2.9c-3.1,1.5-3.1,1.7-2.7,3.7c0.4,2,7.3-0.6,9.4-0.6
				c2.1,0,4.7,5,3,6.2c-1.7,1.2-9.2,1.2-9.8,2.6s-0.5,4.8,0.8,5.4c1.4,0.6,6.3-1.5,8.4-0.6c2.1,0.9,2.3,6.1,1.3,6.7
				c-0.9,0.6-7.8,1.3-8.8,2.8s-0.7,4.8,0.6,5.4c1.4,0.6,7.4-1.2,8.9-0.3c1.5,1,3.4,5.3,1.8,7.1c-1.6,1.8-6.5-0.6-7.4,1.5
				c-0.9,2.1,0.2,5.5,1.5,5.2c1.2-0.2,6-2,7.2-1.4s3.6,8.4,2.8,9.6c-0.8,1.2-16-0.2-24.5-7.9c-8.5-7.7-9.9-8.2-11.6-7.1
				c-1.7,1.2-4.9,3.3-3.9,4c1,0.7,8.8,7,9.2,8.8s-0.1,8.1,2.2,12.3c2.3,4.2,6,14.3,5.1,18.3c0,0-5.5-6.6-9.6-6.8
				c0,0-0.9,7.4-0.4,9.8c0.5,2.5-1.7,2-3.8-2c-2.1-4-1.2-6.1-3.5-5.9s-1.3,8.5-2.3,10s-8.3-9.6-7.1-14.3c1.2-4.7,6-10.3,4.8-13.3
				c-1.2-2.9-5.7-10.8-5.7-10.8l-7.1,3.9c0,0,2.1,5.3,1.8,6.9c-0.3,1.6-5,13.5-3.7,24.5c1.3,11-2.1,8.5-4,5.7
				c-1.8-2.8-3.7-7.1-4.9-6.5s-0.3,9.4-2.1,10c-1.8,0.6-5.4-9.3-7.5-8.7s3.4,10.8,1.1,10.8c-2.3,0-9.4-15.4-6.6-20.4
				c2.8-5,6.6-9.6,9.7-13.2c3.1-3.6,3.3-6.8,0.2-7.7c-3.1-0.9-21.9-4.4-24.5-10.2c-2.6-5.8-4.3-14,3-23.5c0,0,1.6-3.5-0.4-4.2
				c-2-0.7-5.1,10.8-14.8,12.3C910.3,297.2,901.1,286.7,901.1,286.7z"/>
			<path class="st3" d="M932.8,522.4l20.8-6.9l-8.7-23.2l17.4-13.5L945.5,464l12.8-31.2l-21.6-2.4l-9-20.9l-31.5,8.5l-4.5-19.6
				c0,0-27.8,15.9-39.6,28.3c0,0-5.6-7.6-12.7-3.9c-7,3.7-13.5,7.5-11,14.7c2.6,7.2-6.8,4.8-1.6,13.9c5.2,9.1,15.5,6.9,15.5,6.9
				s1.2,0.9,3.6,2.2c-13.1-1.5-36.9,16.1-36.9,16.1c-8.5-22.4-29.9-25.8-29.9-25.8c-0.1-10.1,9.9-26.8,9.9-26.8
				c5.7,3.9,2.8,18.4,2.8,18.4c10.2-8.9,9.5-22.1,9.5-22.1c6.9,5.3,1.4,24.9,1.4,24.9s42.4-35.4-12.3-51.8
				c-54.6-16.4-42.1,36-42.1,36c-1.7-18.6,15.7-19.7,15.7-19.7c-8.3,4.4-6.3,18.5-6.3,18.5c2.3-4.9,13.2-10,13.2-10l-11.1,29
				l-4.5,2.4l5.1-18.2c0,0-22.4,5.3-30.1,23.2c-7.7,17.9,5.3,44.8,9.7,46.2c4.4,1.4,10.7-34.5,10.7-34.5l4.7,0.4
				c0,0-9.8,30-12.2,39.4c-2.4,9.4-23.3,80.7-12.4,78.2c10.9-2.5,39.8-95.9,39.8-95.9l14.7-2.6c0,0,14.1,14.7,24,17.3
				c9.9,2.5,21.8-3.1,21.8-3.1c-3.2,12.1-44.1,44.4-44.1,44.4l16.1,5c0,0-16.2,12.9-20.4,15.9c-4.1,3-6.9,17.1-6.9,17.1l-8.1-3
				l-9.1,19c0,0,27.1,14.2,35.7,10.5s4.4-21,8-29.5c3.7-8.5,25.9-22.2,25.9-22.2l9.6,3c0,0-23.7,22.3-25.1,25.1
				c-1.4,2.8-1.8,11.2-1.8,11.2l-5.2,0l-7.4,23.8c14.5,8.7,37.8,3.1,43.2-0.5c5.4-3.7,7.1-28.2,7.1-28.2c7.2-1,34.1-44.9,34.1-44.9
				c-2.6,34.4-35.6,82.3-35.6,82.3l11.7,3.6l17.3-28.2l-12.2,29.8l5.8-0.3l13.2-22l-8.8,23.4l10.2,3.2c0,0,21.9-65.7,23.5-75.9
				c0.7-4.9-2.3-11.4-5.3-17.9l39.2-0.7L932.8,522.4z M901.8,543.2c-3-6.5-5.7-13-4.3-18c2.9-10.3-1.2-48.4-7.4-55.9
				c-0.8-1-2-1.8-3.4-2.5c4.9-1.8,7.6-4.2,7.6-4.2s23.3,5.6,24.8-7.8s-3-18-19.1-20.8l-1.4-5.9c7.2-0.4,20.1,2,30.9,20.7
				C944.1,474.1,907.9,533.5,901.8,543.2z"/>
		</g>
	</g>
</g>
</svg>
